<svg width="78" height="13" viewBox="0 0 78 13" fill="none" xmlns="http://www.w3.org/2000/svg">
<path d="M7.66063 7.72L5.95663 3.264C5.83396 2.96 5.71129 2.576 5.58863 2.112C5.52996 2.34133 5.46863 2.55467 5.40463 2.752C5.34596 2.94933 5.28729 3.12533 5.22863 3.28L3.53263 7.72H7.66063ZM11.0286 12H9.71663C9.56729 12 9.44463 11.9627 9.34863 11.888C9.25263 11.8133 9.18329 11.7173 9.14062 11.6L8.12463 8.936H3.06063L2.04463 11.6C2.00729 11.7013 1.93796 11.7947 1.83663 11.88C1.73529 11.96 1.61263 12 1.46863 12H0.156625L4.73263 0.511999H6.45263L11.0286 12ZM12.1116 12V3.872H13.0476C13.2663 3.872 13.4023 3.976 13.4556 4.184L13.5676 4.96C13.8663 4.60267 14.197 4.312 14.5596 4.088C14.9276 3.85867 15.357 3.744 15.8476 3.744C16.3863 3.744 16.8236 3.89333 17.1596 4.192C17.4956 4.48533 17.741 4.88533 17.8956 5.392C18.013 5.104 18.165 4.856 18.3516 4.648C18.5383 4.44 18.7463 4.26933 18.9756 4.136C19.205 4.00267 19.4476 3.904 19.7036 3.84C19.965 3.776 20.229 3.744 20.4956 3.744C20.9276 3.744 21.3116 3.81333 21.6476 3.952C21.989 4.08533 22.277 4.28267 22.5116 4.544C22.7463 4.80533 22.925 5.128 23.0476 5.512C23.1703 5.896 23.2316 6.33333 23.2316 6.824V12H21.6636V6.824C21.6636 6.216 21.5303 5.75733 21.2636 5.448C21.0023 5.13867 20.6183 4.984 20.1116 4.984C19.8876 4.984 19.6743 5.024 19.4716 5.104C19.269 5.17867 19.0903 5.29333 18.9356 5.448C18.7863 5.60267 18.6663 5.79467 18.5756 6.024C18.4903 6.25333 18.4476 6.52 18.4476 6.824V12H16.8796V6.824C16.8796 6.19467 16.7543 5.73067 16.5036 5.432C16.253 5.13333 15.885 4.984 15.3996 4.984C15.0636 4.984 14.7516 5.072 14.4636 5.248C14.1756 5.424 13.9116 5.664 13.6716 5.968V12H12.1116ZM26.9624 3.872V12H25.4024V3.872H26.9624ZM27.2584 1.36C27.2584 1.504 27.229 1.64267 27.1704 1.776C27.1117 1.904 27.0317 2.01867 26.9304 2.12C26.8344 2.216 26.7197 2.29333 26.5864 2.352C26.453 2.40533 26.3144 2.432 26.1704 2.432C26.0264 2.432 25.8904 2.40533 25.7624 2.352C25.6344 2.29333 25.5197 2.216 25.4184 2.12C25.3224 2.01867 25.245 1.904 25.1864 1.776C25.133 1.64267 25.1064 1.504 25.1064 1.36C25.1064 1.21067 25.133 1.072 25.1864 0.943999C25.245 0.810666 25.3224 0.695999 25.4184 0.599999C25.5197 0.498666 25.6344 0.421332 25.7624 0.367999C25.8904 0.309333 26.0264 0.28 26.1704 0.28C26.3144 0.28 26.453 0.309333 26.5864 0.367999C26.7197 0.421332 26.8344 0.498666 26.9304 0.599999C27.0317 0.695999 27.1117 0.810666 27.1704 0.943999C27.229 1.072 27.2584 1.21067 27.2584 1.36ZM30.693 5.432C30.9543 4.89867 31.269 4.48 31.637 4.176C32.005 3.872 32.4477 3.72 32.965 3.72C33.141 3.72 33.3063 3.74133 33.461 3.784C33.621 3.82133 33.7597 3.88 33.877 3.96L33.773 5.136C33.7357 5.28 33.6477 5.352 33.509 5.352C33.4343 5.352 33.3223 5.33867 33.173 5.312C33.0237 5.28 32.8637 5.264 32.693 5.264C32.4423 5.264 32.221 5.30133 32.029 5.376C31.837 5.44533 31.6637 5.552 31.509 5.696C31.3597 5.83467 31.2263 6.008 31.109 6.216C30.9917 6.41867 30.8823 6.65067 30.781 6.912V12H29.221V3.872H30.117C30.2877 3.872 30.4023 3.904 30.461 3.968C30.525 4.02667 30.5703 4.13333 30.597 4.288L30.693 5.432ZM41.8404 3.872V12H40.9044C40.691 12 40.5524 11.896 40.4884 11.688L40.3764 10.872C40.2004 11.0587 40.0164 11.2293 39.8244 11.384C39.6324 11.5387 39.427 11.672 39.2084 11.784C38.9897 11.8907 38.7577 11.9733 38.5124 12.032C38.267 12.096 38.003 12.128 37.7204 12.128C37.2724 12.128 36.8777 12.0533 36.5364 11.904C36.2004 11.7547 35.9177 11.5467 35.6884 11.28C35.459 11.008 35.2857 10.6827 35.1684 10.304C35.051 9.92533 34.9924 9.50667 34.9924 9.048V3.872H36.5604V9.048C36.5604 9.62933 36.6937 10.0827 36.9604 10.408C37.227 10.728 37.635 10.888 38.1844 10.888C38.5844 10.888 38.9577 10.7947 39.3044 10.608C39.651 10.416 39.9764 10.1547 40.2804 9.824V3.872H41.8404ZM45.6179 0.191999V12H44.0499V0.191999H45.6179ZM53.9249 1.896V5.744H58.5329V7.128H53.9249V12H52.2129V0.511999H59.3329V1.896H53.9249ZM64.1828 8.392C63.5481 8.41333 63.0094 8.464 62.5668 8.544C62.1241 8.61867 61.7641 8.72 61.4868 8.848C61.2094 8.976 61.0094 9.128 60.8868 9.304C60.7641 9.47467 60.7028 9.66667 60.7028 9.88C60.7028 10.0827 60.7348 10.2587 60.7988 10.408C60.8681 10.552 60.9588 10.672 61.0707 10.768C61.1881 10.8587 61.3241 10.9253 61.4788 10.968C61.6334 11.0107 61.8014 11.032 61.9828 11.032C62.2228 11.032 62.4414 11.008 62.6388 10.96C62.8414 10.912 63.0308 10.8453 63.2068 10.76C63.3828 10.6693 63.5508 10.56 63.7108 10.432C63.8708 10.304 64.0281 10.1573 64.1828 9.992V8.392ZM59.6068 5.008C60.0601 4.576 60.5508 4.25333 61.0788 4.04C61.6121 3.82667 62.1961 3.72 62.8307 3.72C63.2948 3.72 63.7054 3.79733 64.0628 3.952C64.4201 4.10133 64.7214 4.312 64.9668 4.584C65.2121 4.856 65.3961 5.18133 65.5188 5.56C65.6468 5.93867 65.7108 6.35733 65.7108 6.816V12H65.0148C64.8601 12 64.7428 11.976 64.6628 11.928C64.5828 11.8747 64.5188 11.7787 64.4708 11.64L64.3028 10.928C64.0948 11.12 63.8894 11.2907 63.6868 11.44C63.4841 11.584 63.2708 11.7093 63.0468 11.816C62.8281 11.9173 62.5934 11.9947 62.3428 12.048C62.0921 12.1013 61.8148 12.128 61.5108 12.128C61.1908 12.128 60.8894 12.0853 60.6068 12C60.3294 11.9093 60.0868 11.7733 59.8788 11.592C59.6708 11.4107 59.5054 11.184 59.3828 10.912C59.2654 10.64 59.2068 10.3227 59.2068 9.96C59.2068 9.64 59.2921 9.33333 59.4628 9.04C59.6388 8.74133 59.9214 8.47467 60.3108 8.24C60.7054 8.00533 61.2174 7.81333 61.8468 7.664C62.4814 7.51467 63.2601 7.42933 64.1828 7.408V6.816C64.1828 6.20267 64.0521 5.744 63.7908 5.44C63.5294 5.136 63.1454 4.984 62.6388 4.984C62.2974 4.984 62.0094 5.02667 61.7748 5.112C61.5454 5.19733 61.3454 5.29333 61.1748 5.4C61.0094 5.50133 60.8628 5.59467 60.7348 5.68C60.6121 5.76533 60.4841 5.808 60.3508 5.808C60.2441 5.808 60.1508 5.77867 60.0708 5.72C59.9961 5.66133 59.9348 5.592 59.8868 5.512L59.6068 5.008ZM69.4311 3.872V12H67.8711V3.872H69.4311ZM69.7271 1.36C69.7271 1.504 69.6978 1.64267 69.6391 1.776C69.5805 1.904 69.5005 2.01867 69.3991 2.12C69.3031 2.216 69.1885 2.29333 69.0551 2.352C68.9218 2.40533 68.7831 2.432 68.6391 2.432C68.4951 2.432 68.3591 2.40533 68.2311 2.352C68.1031 2.29333 67.9885 2.216 67.8871 2.12C67.7911 2.01867 67.7138 1.904 67.6551 1.776C67.6018 1.64267 67.5751 1.504 67.5751 1.36C67.5751 1.21067 67.6018 1.072 67.6551 0.943999C67.7138 0.810666 67.7911 0.695999 67.8871 0.599999C67.9885 0.498666 68.1031 0.421332 68.2311 0.367999C68.3591 0.309333 68.4951 0.28 68.6391 0.28C68.7831 0.28 68.9218 0.309333 69.0551 0.367999C69.1885 0.421332 69.3031 0.498666 69.3991 0.599999C69.5005 0.695999 69.5805 0.810666 69.6391 0.943999C69.6978 1.072 69.7271 1.21067 69.7271 1.36ZM77.3538 4.528C77.3538 4.64 77.3324 4.74933 77.2898 4.856C77.2524 4.96267 77.2018 5.05333 77.1378 5.128L72.8738 10.776H77.2098V12H71.0418V11.344C71.0418 11.2693 71.0604 11.1813 71.0978 11.08C71.1351 10.9733 71.1884 10.8747 71.2578 10.784L75.5458 5.096H71.2898V3.872H77.3538V4.528Z" fill="white"/>
</svg>
