<svg width="156" height="51" viewBox="0 0 156 51" fill="none" xmlns="http://www.w3.org/2000/svg">
<rect width="156" height="51" rx="25.5" fill="#222D39"/>
<path d="M52.62 24.29C54.06 27.12 56.38 29.44 59.21 30.88L61.41 28.68C61.69 28.4 62.08 28.32 62.43 28.43C63.55 28.8 64.75 29 66 29C66.2652 29 66.5196 29.1054 66.7071 29.2929C66.8946 29.4804 67 29.7348 67 30V33.5C67 33.7652 66.8946 34.0196 66.7071 34.2071C66.5196 34.3946 66.2652 34.5 66 34.5C61.4913 34.5 57.1673 32.7089 53.9792 29.5208C50.7911 26.3327 49 22.0087 49 17.5C49 17.2348 49.1054 16.9804 49.2929 16.7929C49.4804 16.6054 49.7348 16.5 50 16.5H53.5C53.7652 16.5 54.0196 16.6054 54.2071 16.7929C54.3946 16.9804 54.5 17.2348 54.5 17.5C54.5 18.75 54.7 19.95 55.07 21.07C55.18 21.42 55.1 21.81 54.82 22.09L52.62 24.29Z" fill="white"/>
<path d="M90.828 29.728C90.936 29.728 91.029 29.77 91.107 29.854L91.863 30.682C91.335 31.306 90.69 31.789 89.928 32.131C89.172 32.473 88.26 32.644 87.192 32.644C86.256 32.644 85.407 32.482 84.645 32.158C83.889 31.834 83.241 31.381 82.701 30.799C82.167 30.217 81.753 29.521 81.459 28.711C81.165 27.901 81.018 27.01 81.018 26.038C81.018 25.066 81.171 24.175 81.477 23.365C81.789 22.555 82.224 21.859 82.782 21.277C83.34 20.695 84.006 20.242 84.78 19.918C85.56 19.594 86.421 19.432 87.363 19.432C88.281 19.432 89.097 19.582 89.811 19.882C90.525 20.182 91.146 20.581 91.674 21.079L91.044 21.97C91.002 22.036 90.948 22.09 90.882 22.132C90.822 22.174 90.741 22.195 90.639 22.195C90.525 22.195 90.39 22.138 90.234 22.024C90.084 21.91 89.883 21.784 89.631 21.646C89.385 21.502 89.079 21.373 88.713 21.259C88.347 21.145 87.891 21.088 87.345 21.088C86.703 21.088 86.115 21.202 85.581 21.43C85.047 21.652 84.585 21.976 84.195 22.402C83.811 22.822 83.511 23.341 83.295 23.959C83.085 24.571 82.98 25.264 82.98 26.038C82.98 26.824 83.091 27.523 83.313 28.135C83.535 28.747 83.841 29.266 84.231 29.692C84.621 30.118 85.08 30.442 85.608 30.664C86.136 30.886 86.706 30.997 87.318 30.997C87.69 30.997 88.023 30.976 88.317 30.934C88.617 30.886 88.89 30.817 89.136 30.727C89.388 30.637 89.625 30.523 89.847 30.385C90.069 30.241 90.288 30.07 90.504 29.872C90.552 29.83 90.603 29.797 90.657 29.773C90.711 29.743 90.768 29.728 90.828 29.728ZM98.3433 28.441C97.6293 28.465 97.0233 28.522 96.5253 28.612C96.0273 28.696 95.6223 28.81 95.3103 28.954C94.9983 29.098 94.7733 29.269 94.6353 29.467C94.4973 29.659 94.4283 29.875 94.4283 30.115C94.4283 30.343 94.4643 30.541 94.5363 30.709C94.6143 30.871 94.7163 31.006 94.8423 31.114C94.9743 31.216 95.1273 31.291 95.3013 31.339C95.4753 31.387 95.6643 31.411 95.8683 31.411C96.1383 31.411 96.3843 31.384 96.6063 31.33C96.8343 31.276 97.0473 31.201 97.2453 31.105C97.4433 31.003 97.6323 30.88 97.8123 30.736C97.9923 30.592 98.1693 30.427 98.3433 30.241V28.441ZM93.1953 24.634C93.7053 24.148 94.2573 23.785 94.8513 23.545C95.4513 23.305 96.1083 23.185 96.8223 23.185C97.3443 23.185 97.8063 23.272 98.2083 23.446C98.6103 23.614 98.9493 23.851 99.2253 24.157C99.5013 24.463 99.7083 24.829 99.8463 25.255C99.9903 25.681 100.062 26.152 100.062 26.668V32.5H99.2793C99.1053 32.5 98.9733 32.473 98.8833 32.419C98.7933 32.359 98.7213 32.251 98.6673 32.095L98.4783 31.294C98.2443 31.51 98.0133 31.702 97.7853 31.87C97.5573 32.032 97.3173 32.173 97.0653 32.293C96.8193 32.407 96.5553 32.494 96.2733 32.554C95.9913 32.614 95.6793 32.644 95.3373 32.644C94.9773 32.644 94.6383 32.596 94.3203 32.5C94.0083 32.398 93.7353 32.245 93.5013 32.041C93.2673 31.837 93.0813 31.582 92.9433 31.276C92.8113 30.97 92.7453 30.613 92.7453 30.205C92.7453 29.845 92.8413 29.5 93.0333 29.17C93.2313 28.834 93.5493 28.534 93.9873 28.27C94.4313 28.006 95.0073 27.79 95.7153 27.622C96.4293 27.454 97.3053 27.358 98.3433 27.334V26.668C98.3433 25.978 98.1963 25.462 97.9023 25.12C97.6083 24.778 97.1763 24.607 96.6063 24.607C96.2223 24.607 95.8983 24.655 95.6343 24.751C95.3763 24.847 95.1513 24.955 94.9593 25.075C94.7733 25.189 94.6083 25.294 94.4643 25.39C94.3263 25.486 94.1823 25.534 94.0323 25.534C93.9123 25.534 93.8073 25.501 93.7173 25.435C93.6333 25.369 93.5643 25.291 93.5103 25.201L93.1953 24.634ZM104.212 19.216V32.5H102.448V19.216H104.212ZM108.518 19.216V32.5H106.754V19.216H108.518Z" fill="white"/>
</svg>
