<!-- <svg width="25" height="25" viewBox="0 0 32 40" fill="none" xmlns="http://www.w3.org/2000/svg">
<path d="M27.32 11.8591L16 0.539062L4.68 11.8591C-1.56 18.0991 -1.56 28.2391 4.68 34.4791C7.8 37.5991 11.9 39.1591 16 39.1591C20.1 39.1591 24.2 37.5991 27.32 34.4791C33.56 28.2391 33.56 18.0991 27.32 11.8591ZM16 35.1791C12.8 35.1791 9.78 33.9391 7.52 31.6591C5.24 29.3791 4 26.3791 4 23.1791C4 19.9791 5.24 16.9591 7.52 14.6991L16 6.19906V35.1791Z" fill="#00FFA7"/>
</svg> -->

<svg width="24" height="24" viewBox="0 0 24 24" fill="none" xmlns="http://www.w3.org/2000/svg">
<path d="M17.66 7.92953L12 2.26953L6.34 7.92953C3.22 11.0495 3.22 16.1195 6.34 19.2395C7.9 20.7995 9.95 21.5795 12 21.5795C14.05 21.5795 16.1 20.7995 17.66 19.2395C20.78 16.1195 20.78 11.0495 17.66 7.92953ZM12 19.5895C10.4 19.5895 8.89 18.9695 7.76 17.8295C6.62 16.6895 6 15.1895 6 13.5895C6 11.9895 6.62 10.4795 7.76 9.34953L12 5.09953V19.5895Z" fill="white"/>
</svg>
