<!-- <svg width="25" height="25" viewBox="0 0 40 36" fill="none" xmlns="http://www.w3.org/2000/svg">
<path d="M14 0L10.34 4H4C1.8 4 0 5.8 0 8V32C0 34.2 1.8 36 4 36H36C38.2 36 40 34.2 40 32V8C40 5.8 38.2 4 36 4H29.66L26 0H14ZM20 30C14.48 30 10 25.52 10 20C10 14.48 14.48 10 20 10C25.52 10 30 14.48 30 20C30 25.52 25.52 30 20 30Z" fill="#00FFA7"/>
</svg> -->

<svg width="24" height="24" viewBox="0 0 24 24" fill="none" xmlns="http://www.w3.org/2000/svg">
<path d="M12.0005 15.2008C13.7678 15.2008 15.2005 13.7681 15.2005 12.0008C15.2005 10.2335 13.7678 8.80078 12.0005 8.80078C10.2332 8.80078 8.80054 10.2335 8.80054 12.0008C8.80054 13.7681 10.2332 15.2008 12.0005 15.2008Z" fill="white"/>
<path d="M9 2L7.17 4H4C2.9 4 2 4.9 2 6V18C2 19.1 2.9 20 4 20H20C21.1 20 22 19.1 22 18V6C22 4.9 21.1 4 20 4H16.83L15 2H9ZM12 17C9.24 17 7 14.76 7 12C7 9.24 9.24 7 12 7C14.76 7 17 9.24 17 12C17 14.76 14.76 17 12 17Z" fill="white"/>
</svg>
