<svg width="32" height="32" viewBox="0 0 32 32" fill="none" xmlns="http://www.w3.org/2000/svg">
<path d="M23.9987 14.6667H7.9987V8.00008H23.9987V14.6667ZM21.9987 22.6667C21.4683 22.6667 20.9596 22.456 20.5845 22.081C20.2094 21.7059 19.9987 21.1972 19.9987 20.6667C19.9987 20.1363 20.2094 19.6276 20.5845 19.2525C20.9596 18.8775 21.4683 18.6667 21.9987 18.6667C22.5291 18.6667 23.0378 18.8775 23.4129 19.2525C23.788 19.6276 23.9987 20.1363 23.9987 20.6667C23.9987 21.1972 23.788 21.7059 23.4129 22.081C23.0378 22.456 22.5291 22.6667 21.9987 22.6667ZM9.9987 22.6667C9.46826 22.6667 8.95956 22.456 8.58448 22.081C8.20941 21.7059 7.9987 21.1972 7.9987 20.6667C7.9987 20.1363 8.20941 19.6276 8.58448 19.2525C8.95956 18.8775 9.46826 18.6667 9.9987 18.6667C10.5291 18.6667 11.0378 18.8775 11.4129 19.2525C11.788 19.6276 11.9987 20.1363 11.9987 20.6667C11.9987 21.1972 11.788 21.7059 11.4129 22.081C11.0378 22.456 10.5291 22.6667 9.9987 22.6667ZM5.33203 21.3334C5.33203 22.5067 5.85203 23.5601 6.66536 24.2934V26.6667C6.66536 27.0204 6.80584 27.3595 7.05589 27.6096C7.30594 27.8596 7.64508 28.0001 7.9987 28.0001H9.33203C9.68565 28.0001 10.0248 27.8596 10.2748 27.6096C10.5249 27.3595 10.6654 27.0204 10.6654 26.6667V25.3334H21.332V26.6667C21.332 27.0204 21.4725 27.3595 21.7226 27.6096C21.9726 27.8596 22.3117 28.0001 22.6654 28.0001H23.9987C24.3523 28.0001 24.6915 27.8596 24.9415 27.6096C25.1916 27.3595 25.332 27.0204 25.332 26.6667V24.2934C26.1454 23.5601 26.6654 22.5067 26.6654 21.3334V8.00008C26.6654 3.33341 21.892 2.66675 15.9987 2.66675C10.1054 2.66675 5.33203 3.33341 5.33203 8.00008V21.3334Z" fill="#8C8C8C"/>
</svg>
