<svg width="56" height="56" viewBox="0 0 56 56" fill="none" xmlns="http://www.w3.org/2000/svg">
<circle cx="28" cy="28" r="28" fill="#222D39"/>
<path d="M38.5815 15.7695L15.7695 38.5815L17.4045 40.2293L23.6868 33.947C27.6904 37.5645 32.9042 39.5856 38.2983 39.5856C38.6397 39.5856 38.9671 39.45 39.2086 39.2086C39.45 38.9671 39.5856 38.6397 39.5856 38.2983V33.7925C39.5856 33.4511 39.45 33.1236 39.2086 32.8822C38.9671 32.6408 38.6397 32.5052 38.2983 32.5052C36.6891 32.5052 35.1442 32.2477 33.7024 31.7714C33.2518 31.6298 32.7498 31.7327 32.3893 32.0932L29.5571 34.9254C28.0767 34.1787 26.7121 33.2261 25.5019 32.1318L40.2293 17.4045L38.5815 15.7695ZM17.7006 16.4132C17.3591 16.4132 17.0317 16.5488 16.7903 16.7903C16.5488 17.0317 16.4132 17.3591 16.4132 17.7006C16.4132 22.2964 17.8808 26.7764 20.5842 30.4969L22.4123 28.6431C21.9231 27.9608 21.4725 27.2141 21.0734 26.4417L23.9056 23.6095C24.2661 23.2491 24.3691 22.747 24.2275 22.2964C23.7511 20.8546 23.4937 19.3098 23.4937 17.7006C23.4937 17.3591 23.358 17.0317 23.1166 16.7903C22.8752 16.5488 22.5477 16.4132 22.2063 16.4132H17.7006Z" fill="white"/>
</svg>
