<svg width="100" height="100" viewBox="0 0 106 106" fill="none" xmlns="http://www.w3.org/2000/svg">
<path d="M103 53C103 55.3757 102.834 57.7126 102.514 60C102.212 62.1584 101.771 64.2725 101.203 66.3333M96.6897 77.3333C88.1434 92.6452 71.7809 103 53 103C35.9051 103 20.8139 94.4209 11.797 81.3333M101.203 39.6667C100.667 37.728 100.019 35.8366 99.2635 34C98.5091 32.1649 97.6486 30.3846 96.6897 28.6667M89.0309 18.3333C79.9346 8.88126 67.1541 3 53 3C25.3858 3 3 25.3858 3 53C3 57.1365 3.50232 61.1558 4.44929 65" stroke="#3C99D0" stroke-width="6" stroke-linecap="round"/>
</svg>

