<svg width="117" height="56" viewBox="0 0 117 56" fill="none" xmlns="http://www.w3.org/2000/svg">
<rect width="117" height="56" rx="28" fill="#222D39"/>
<path d="M31.1864 28.538C31.1864 29.504 31.0304 30.383 30.7184 31.175C30.4124 31.967 29.9774 32.648 29.4134 33.218C28.8494 33.782 28.1744 34.22 27.3884 34.532C26.6024 34.844 25.7294 35 24.7694 35H19.9094V22.076H24.7694C25.7294 22.076 26.6024 22.232 27.3884 22.544C28.1744 22.856 28.8494 23.297 29.4134 23.867C29.9774 24.431 30.4124 25.112 30.7184 25.91C31.0304 26.702 31.1864 27.578 31.1864 28.538ZM29.2244 28.538C29.2244 27.77 29.1194 27.083 28.9094 26.477C28.6994 25.865 28.3994 25.349 28.0094 24.929C27.6254 24.503 27.1574 24.179 26.6054 23.957C26.0594 23.735 25.4474 23.624 24.7694 23.624H21.8354V33.452H24.7694C25.4474 33.452 26.0594 33.341 26.6054 33.119C27.1574 32.897 27.6254 32.576 28.0094 32.156C28.3994 31.73 28.6994 31.214 28.9094 30.608C29.1194 30.002 29.2244 29.312 29.2244 28.538ZM34.903 25.856V35H33.148V25.856H34.903ZM35.236 23.03C35.236 23.192 35.203 23.348 35.137 23.498C35.071 23.642 34.981 23.771 34.867 23.885C34.759 23.993 34.63 24.08 34.48 24.146C34.33 24.206 34.174 24.236 34.012 24.236C33.85 24.236 33.697 24.206 33.553 24.146C33.409 24.08 33.28 23.993 33.166 23.885C33.058 23.771 32.971 23.642 32.905 23.498C32.845 23.348 32.815 23.192 32.815 23.03C32.815 22.862 32.845 22.706 32.905 22.562C32.971 22.412 33.058 22.283 33.166 22.175C33.28 22.061 33.409 21.974 33.553 21.914C33.697 21.848 33.85 21.815 34.012 21.815C34.174 21.815 34.33 21.848 34.48 21.914C34.63 21.974 34.759 22.061 34.867 22.175C34.981 22.283 35.071 22.412 35.137 22.562C35.203 22.706 35.236 22.862 35.236 23.03ZM45.3819 25.856L41.6739 35H40.0899L36.3819 25.856H37.8309C37.9689 25.856 38.0829 25.889 38.1729 25.955C38.2629 26.021 38.3229 26.105 38.3529 26.207L40.5399 31.823C40.6179 32.057 40.6839 32.291 40.7379 32.525C40.7979 32.753 40.8519 32.981 40.8999 33.209C40.9479 32.981 41.0019 32.753 41.0619 32.525C41.1219 32.297 41.1939 32.063 41.2779 31.823L43.4919 26.207C43.5279 26.105 43.5909 26.021 43.6809 25.955C43.7709 25.889 43.8789 25.856 44.0049 25.856H45.3819ZM52.5713 29.411C52.5713 29.063 52.5203 28.742 52.4183 28.448C52.3223 28.154 52.1783 27.899 51.9863 27.683C51.7943 27.467 51.5603 27.299 51.2843 27.179C51.0083 27.059 50.6903 26.999 50.3303 26.999C49.5923 26.999 49.0103 27.212 48.5843 27.638C48.1643 28.064 47.8973 28.655 47.7833 29.411H52.5713ZM54.0203 33.695C53.8043 33.947 53.5553 34.166 53.2733 34.352C52.9913 34.532 52.6913 34.679 52.3733 34.793C52.0553 34.907 51.7253 34.991 51.3833 35.045C51.0473 35.099 50.7143 35.126 50.3843 35.126C49.7543 35.126 49.1693 35.021 48.6293 34.811C48.0953 34.595 47.6303 34.283 47.2343 33.875C46.8443 33.461 46.5383 32.951 46.3163 32.345C46.1003 31.733 45.9923 31.031 45.9923 30.239C45.9923 29.603 46.0913 29.012 46.2893 28.466C46.4873 27.914 46.7693 27.434 47.1353 27.026C47.5073 26.618 47.9603 26.297 48.4943 26.063C49.0283 25.829 49.6283 25.712 50.2943 25.712C50.8523 25.712 51.3653 25.805 51.8333 25.991C52.3073 26.171 52.7153 26.435 53.0573 26.783C53.3993 27.131 53.6663 27.56 53.8583 28.07C54.0563 28.58 54.1553 29.162 54.1553 29.816C54.1553 30.086 54.1253 30.269 54.0653 30.365C54.0053 30.455 53.8943 30.5 53.7323 30.5H47.7383C47.7563 31.046 47.8343 31.523 47.9723 31.931C48.1103 32.333 48.2993 32.669 48.5393 32.939C48.7853 33.209 49.0763 33.41 49.4123 33.542C49.7483 33.674 50.1233 33.74 50.5373 33.74C50.9273 33.74 51.2633 33.695 51.5453 33.605C51.8333 33.515 52.0793 33.419 52.2833 33.317C52.4933 33.209 52.6673 33.11 52.8053 33.02C52.9493 32.93 53.0753 32.885 53.1833 32.885C53.3273 32.885 53.4383 32.939 53.5163 33.047L54.0203 33.695ZM57.6976 27.611C57.9916 27.011 58.3456 26.54 58.7596 26.198C59.1736 25.856 59.6716 25.685 60.2536 25.685C60.4516 25.685 60.6376 25.709 60.8116 25.757C60.9916 25.799 61.1476 25.865 61.2796 25.955L61.1626 27.278C61.1206 27.44 61.0216 27.521 60.8656 27.521C60.7816 27.521 60.6556 27.506 60.4876 27.476C60.3196 27.44 60.1396 27.422 59.9476 27.422C59.6656 27.422 59.4166 27.464 59.2006 27.548C58.9846 27.626 58.7896 27.746 58.6156 27.908C58.4476 28.064 58.2976 28.259 58.1656 28.493C58.0336 28.721 57.9106 28.982 57.7966 29.276V35H56.0416V25.856H57.0496C57.2416 25.856 57.3706 25.892 57.4366 25.964C57.5086 26.03 57.5596 26.15 57.5896 26.324L57.6976 27.611ZM65.4954 35.144C64.7574 35.144 64.1874 34.937 63.7854 34.523C63.3894 34.109 63.1914 33.518 63.1914 32.75V27.278H62.1294C62.0274 27.278 61.9404 27.248 61.8684 27.188C61.8024 27.122 61.7694 27.026 61.7694 26.9V26.189L63.2544 25.982L63.6504 23.255C63.6744 23.153 63.7194 23.075 63.7854 23.021C63.8574 22.961 63.9474 22.931 64.0554 22.931H64.9464V26H67.5384V27.278H64.9464V32.633C64.9464 32.993 65.0334 33.263 65.2074 33.443C65.3874 33.617 65.6154 33.704 65.8914 33.704C66.0534 33.704 66.1914 33.683 66.3054 33.641C66.4254 33.599 66.5274 33.554 66.6114 33.506C66.6954 33.452 66.7674 33.404 66.8274 33.362C66.8874 33.32 66.9414 33.299 66.9894 33.299C67.0494 33.299 67.0944 33.314 67.1244 33.344C67.1604 33.368 67.1964 33.41 67.2324 33.47L67.7544 34.316C67.4664 34.58 67.1244 34.784 66.7284 34.928C66.3324 35.072 65.9214 35.144 65.4954 35.144ZM80.1156 27.566C80.0616 27.632 80.0076 27.686 79.9536 27.728C79.9056 27.764 79.8336 27.782 79.7376 27.782C79.6416 27.782 79.5396 27.746 79.4316 27.674C79.3296 27.596 79.1976 27.515 79.0356 27.431C78.8796 27.341 78.6876 27.26 78.4596 27.188C78.2376 27.11 77.9616 27.071 77.6316 27.071C77.1996 27.071 76.8186 27.149 76.4886 27.305C76.1586 27.461 75.8826 27.683 75.6606 27.971C75.4446 28.259 75.2796 28.61 75.1656 29.024C75.0516 29.438 74.9946 29.903 74.9946 30.419C74.9946 30.953 75.0546 31.43 75.1746 31.85C75.2946 32.264 75.4656 32.615 75.6876 32.903C75.9096 33.185 76.1796 33.401 76.4976 33.551C76.8156 33.695 77.1696 33.767 77.5596 33.767C77.9376 33.767 78.2496 33.722 78.4956 33.632C78.7416 33.536 78.9456 33.434 79.1076 33.326C79.2696 33.218 79.4046 33.119 79.5126 33.029C79.6206 32.933 79.7316 32.885 79.8456 32.885C79.9896 32.885 80.1006 32.939 80.1786 33.047L80.6826 33.695C80.4726 33.953 80.2356 34.172 79.9716 34.352C79.7136 34.532 79.4376 34.679 79.1436 34.793C78.8496 34.907 78.5406 34.991 78.2166 35.045C77.8986 35.099 77.5746 35.126 77.2446 35.126C76.6746 35.126 76.1406 35.021 75.6426 34.811C75.1506 34.601 74.7216 34.295 74.3556 33.893C73.9956 33.491 73.7106 32.999 73.5006 32.417C73.2906 31.829 73.1856 31.163 73.1856 30.419C73.1856 29.741 73.2786 29.114 73.4646 28.538C73.6566 27.962 73.9356 27.467 74.3016 27.053C74.6736 26.633 75.1296 26.306 75.6696 26.072C76.2096 25.832 76.8276 25.712 77.5236 25.712C78.1776 25.712 78.7536 25.817 79.2516 26.027C79.7496 26.237 80.1936 26.534 80.5836 26.918L80.1156 27.566ZM87.2349 30.941C86.5209 30.965 85.9149 31.022 85.4169 31.112C84.9189 31.196 84.5139 31.31 84.2019 31.454C83.8899 31.598 83.6649 31.769 83.5269 31.967C83.3889 32.159 83.3199 32.375 83.3199 32.615C83.3199 32.843 83.3559 33.041 83.4279 33.209C83.5059 33.371 83.6079 33.506 83.7339 33.614C83.8659 33.716 84.0189 33.791 84.1929 33.839C84.3669 33.887 84.5559 33.911 84.7599 33.911C85.0299 33.911 85.2759 33.884 85.4979 33.83C85.7259 33.776 85.9389 33.701 86.1369 33.605C86.3349 33.503 86.5239 33.38 86.7039 33.236C86.8839 33.092 87.0609 32.927 87.2349 32.741V30.941ZM82.0869 27.134C82.5969 26.648 83.1489 26.285 83.7429 26.045C84.3429 25.805 84.9999 25.685 85.7139 25.685C86.2359 25.685 86.6979 25.772 87.0999 25.946C87.5019 26.114 87.8409 26.351 88.1169 26.657C88.3929 26.963 88.5999 27.329 88.7379 27.755C88.8819 28.181 88.9539 28.652 88.9539 29.168V35H88.1709C87.9969 35 87.8649 34.973 87.7749 34.919C87.6849 34.859 87.6129 34.751 87.5589 34.595L87.3699 33.794C87.1359 34.01 86.9049 34.202 86.6769 34.37C86.4489 34.532 86.2089 34.673 85.9569 34.793C85.7109 34.907 85.4469 34.994 85.1649 35.054C84.8829 35.114 84.5709 35.144 84.2289 35.144C83.8689 35.144 83.5299 35.096 83.2119 35C82.8999 34.898 82.6269 34.745 82.3929 34.541C82.1589 34.337 81.9729 34.082 81.8349 33.776C81.7029 33.47 81.6369 33.113 81.6369 32.705C81.6369 32.345 81.7329 32 81.9249 31.67C82.1229 31.334 82.4409 31.034 82.8789 30.77C83.3229 30.506 83.8989 30.29 84.6069 30.122C85.3209 29.954 86.1969 29.858 87.2349 29.834V29.168C87.2349 28.478 87.0879 27.962 86.7939 27.62C86.4999 27.278 86.0679 27.107 85.4979 27.107C85.1139 27.107 84.7899 27.155 84.5259 27.251C84.2679 27.347 84.0429 27.455 83.8509 27.575C83.6649 27.689 83.4999 27.794 83.3559 27.89C83.2179 27.986 83.0739 28.034 82.9239 28.034C82.8039 28.034 82.6989 28.001 82.6089 27.935C82.5249 27.869 82.4559 27.791 82.4019 27.701L82.0869 27.134ZM93.1033 21.716V35H91.3393V21.716H93.1033ZM97.41 21.716V35H95.646V21.716H97.41Z" fill="white"/>
</svg>
