<svg width="78" height="21" viewBox="0 0 78 21" fill="none" xmlns="http://www.w3.org/2000/svg">
<path d="M1.9509 1.84V3.98H4.6609V5.055H1.9509V8H0.600899V0.77H5.1609V1.84H1.9509ZM7.61496 8H6.26496V0.77H7.61496V8ZM11.4187 4.21C11.672 4.21 11.892 4.17833 12.0787 4.115C12.2687 4.05167 12.4237 3.965 12.5437 3.855C12.667 3.74167 12.7587 3.60833 12.8187 3.455C12.8787 3.30167 12.9087 3.13333 12.9087 2.95C12.9087 2.58333 12.787 2.30167 12.5437 2.105C12.3037 1.90833 11.9354 1.81 11.4387 1.81H10.5787V4.21H11.4187ZM14.8787 8H13.6637C13.4337 8 13.267 7.91 13.1637 7.73L11.6437 5.415C11.587 5.32833 11.5237 5.26667 11.4537 5.23C11.387 5.19333 11.287 5.175 11.1537 5.175H10.5787V8H9.23371V0.77H11.4387C11.9287 0.77 12.3487 0.821666 12.6987 0.925C13.052 1.025 13.3404 1.16667 13.5637 1.35C13.7904 1.53333 13.957 1.75333 14.0637 2.01C14.1704 2.26333 14.2237 2.54333 14.2237 2.85C14.2237 3.09333 14.187 3.32333 14.1137 3.54C14.0437 3.75667 13.9404 3.95333 13.8037 4.13C13.6704 4.30667 13.5037 4.46167 13.3037 4.595C13.107 4.72833 12.882 4.83333 12.6287 4.91C12.7154 4.96 12.7954 5.02 12.8687 5.09C12.942 5.15667 13.0087 5.23667 13.0687 5.33L14.8787 8ZM17.0095 1.84V3.845H19.5395V4.88H17.0095V6.925H20.2195V8H15.6595V0.77H20.2195V1.84H17.0095ZM27.3311 5.27L26.4511 2.865C26.4077 2.75833 26.3627 2.63167 26.3161 2.485C26.2694 2.33833 26.2227 2.18 26.1761 2.01C26.1327 2.18 26.0877 2.34 26.0411 2.49C25.9944 2.63667 25.9494 2.765 25.9061 2.875L25.0311 5.27H27.3311ZM29.7061 8H28.6661C28.5494 8 28.4544 7.97167 28.3811 7.915C28.3077 7.855 28.2527 7.78167 28.2161 7.695L27.6761 6.22H24.6811L24.1411 7.695C24.1144 7.77167 24.0627 7.84167 23.9861 7.905C23.9094 7.96833 23.8144 8 23.7011 8H22.6511L25.4961 0.77H26.8661L29.7061 8ZM34.8013 1.875H32.6213V8H31.2763V1.875H29.0963V0.77H34.8013V1.875ZM40.0613 4.21C40.3146 4.21 40.5346 4.17833 40.7213 4.115C40.9113 4.05167 41.0663 3.965 41.1863 3.855C41.3096 3.74167 41.4013 3.60833 41.4613 3.455C41.5213 3.30167 41.5513 3.13333 41.5513 2.95C41.5513 2.58333 41.4296 2.30167 41.1863 2.105C40.9463 1.90833 40.578 1.81 40.0813 1.81H39.2213V4.21H40.0613ZM43.5213 8H42.3063C42.0763 8 41.9096 7.91 41.8063 7.73L40.2863 5.415C40.2296 5.32833 40.1663 5.26667 40.0963 5.23C40.0296 5.19333 39.9296 5.175 39.7963 5.175H39.2213V8H37.8763V0.77H40.0813C40.5713 0.77 40.9913 0.821666 41.3413 0.925C41.6946 1.025 41.983 1.16667 42.2063 1.35C42.433 1.53333 42.5996 1.75333 42.7063 2.01C42.813 2.26333 42.8663 2.54333 42.8663 2.85C42.8663 3.09333 42.8296 3.32333 42.7563 3.54C42.6863 3.75667 42.583 3.95333 42.4463 4.13C42.313 4.30667 42.1463 4.46167 41.9463 4.595C41.7496 4.72833 41.5246 4.83333 41.2713 4.91C41.358 4.96 41.438 5.02 41.5113 5.09C41.5846 5.15667 41.6513 5.23667 41.7113 5.33L43.5213 8ZM48.1221 5.27L47.2421 2.865C47.1987 2.75833 47.1537 2.63167 47.1071 2.485C47.0604 2.33833 47.0137 2.18 46.9671 2.01C46.9237 2.18 46.8787 2.34 46.8321 2.49C46.7854 2.63667 46.7404 2.765 46.6971 2.875L45.8221 5.27H48.1221ZM50.4971 8H49.4571C49.3404 8 49.2454 7.97167 49.1721 7.915C49.0987 7.855 49.0437 7.78167 49.0071 7.695L48.4671 6.22H45.4721L44.9321 7.695C44.9054 7.77167 44.8537 7.84167 44.7771 7.905C44.7004 7.96833 44.6054 8 44.4921 8H43.4421L46.2871 0.77H47.6571L50.4971 8ZM52.5954 1.84V3.98H55.3054V5.055H52.5954V8H51.2454V0.77H55.8054V1.84H52.5954ZM58.2595 1.84V3.98H60.9695V5.055H58.2595V8H56.9095V0.77H61.4695V1.84H58.2595ZM66.8086 6.89V8H62.5736V0.77H63.9186V6.89H66.8086ZM69.1189 1.84V3.845H71.6489V4.88H69.1189V6.925H72.3289V8H67.7689V0.77H72.3289V1.84H69.1189ZM77.3708 2.085C77.3308 2.155 77.2875 2.20667 77.2408 2.24C77.1975 2.27 77.1425 2.285 77.0758 2.285C77.0058 2.285 76.9292 2.26 76.8458 2.21C76.7658 2.15667 76.6692 2.09833 76.5558 2.035C76.4425 1.97167 76.3092 1.915 76.1558 1.865C76.0058 1.81167 75.8275 1.785 75.6208 1.785C75.4342 1.785 75.2708 1.80833 75.1308 1.855C74.9908 1.89833 74.8725 1.96 74.7758 2.04C74.6825 2.12 74.6125 2.21667 74.5658 2.33C74.5192 2.44 74.4958 2.56167 74.4958 2.695C74.4958 2.865 74.5425 3.00667 74.6358 3.12C74.7325 3.23333 74.8592 3.33 75.0158 3.41C75.1725 3.49 75.3508 3.56167 75.5508 3.625C75.7508 3.68833 75.9558 3.75667 76.1658 3.83C76.3758 3.9 76.5808 3.98333 76.7808 4.08C76.9808 4.17333 77.1592 4.29333 77.3158 4.44C77.4725 4.58333 77.5975 4.76 77.6908 4.97C77.7875 5.18 77.8358 5.435 77.8358 5.735C77.8358 6.06167 77.7792 6.36833 77.6658 6.655C77.5558 6.93833 77.3925 7.18667 77.1758 7.4C76.9625 7.61 76.7008 7.77667 76.3908 7.9C76.0808 8.02 75.7258 8.08 75.3258 8.08C75.0958 8.08 74.8692 8.05667 74.6458 8.01C74.4225 7.96667 74.2075 7.90333 74.0008 7.82C73.7975 7.73667 73.6058 7.63667 73.4258 7.52C73.2458 7.40333 73.0858 7.27333 72.9458 7.13L73.3408 6.485C73.3742 6.43833 73.4175 6.4 73.4708 6.37C73.5242 6.33667 73.5808 6.32 73.6408 6.32C73.7242 6.32 73.8142 6.355 73.9108 6.425C74.0075 6.49167 74.1225 6.56667 74.2558 6.65C74.3892 6.73333 74.5442 6.81 74.7208 6.88C74.9008 6.94667 75.1158 6.98 75.3658 6.98C75.7492 6.98 76.0458 6.89 76.2558 6.71C76.4658 6.52667 76.5708 6.265 76.5708 5.925C76.5708 5.735 76.5225 5.58 76.4258 5.46C76.3325 5.34 76.2075 5.24 76.0508 5.16C75.8942 5.07667 75.7158 5.00667 75.5158 4.95C75.3158 4.89333 75.1125 4.83167 74.9058 4.765C74.6992 4.69833 74.4958 4.61833 74.2958 4.525C74.0958 4.43167 73.9175 4.31 73.7608 4.16C73.6042 4.01 73.4775 3.82333 73.3808 3.6C73.2875 3.37333 73.2408 3.095 73.2408 2.765C73.2408 2.50167 73.2925 2.245 73.3958 1.995C73.5025 1.745 73.6558 1.52333 73.8558 1.33C74.0558 1.13667 74.3025 0.981666 74.5958 0.865C74.8892 0.748333 75.2258 0.69 75.6058 0.69C76.0325 0.69 76.4258 0.756667 76.7858 0.89C77.1458 1.02333 77.4525 1.21 77.7058 1.45L77.3708 2.085ZM14.6968 18.295C14.7701 18.295 14.8351 18.3233 14.8918 18.38L15.4218 18.955C15.1284 19.3183 14.7668 19.5967 14.3368 19.79C13.9101 19.9833 13.3968 20.08 12.7968 20.08C12.2601 20.08 11.7768 19.9883 11.3468 19.805C10.9201 19.6217 10.5551 19.3667 10.2518 19.04C9.94842 18.7133 9.71509 18.3233 9.55176 17.87C9.39176 17.4167 9.31176 16.9217 9.31176 16.385C9.31176 15.8417 9.39842 15.345 9.57176 14.895C9.74509 14.4417 9.98842 14.0517 10.3018 13.725C10.6184 13.3983 10.9951 13.145 11.4318 12.965C11.8684 12.7817 12.3518 12.69 12.8818 12.69C13.4084 12.69 13.8751 12.7767 14.2818 12.95C14.6918 13.1233 15.0401 13.35 15.3268 13.63L14.8768 14.255C14.8501 14.295 14.8151 14.33 14.7718 14.36C14.7318 14.39 14.6751 14.405 14.6018 14.405C14.5518 14.405 14.5001 14.3917 14.4468 14.365C14.3934 14.335 14.3351 14.3 14.2718 14.26C14.2084 14.2167 14.1351 14.17 14.0518 14.12C13.9684 14.07 13.8718 14.025 13.7618 13.985C13.6518 13.9417 13.5234 13.9067 13.3768 13.88C13.2334 13.85 13.0668 13.835 12.8768 13.835C12.5534 13.835 12.2568 13.8933 11.9868 14.01C11.7201 14.1233 11.4901 14.29 11.2968 14.51C11.1034 14.7267 10.9534 14.9933 10.8468 15.31C10.7401 15.6233 10.6868 15.9817 10.6868 16.385C10.6868 16.7917 10.7434 17.1533 10.8568 17.47C10.9734 17.7867 11.1301 18.0533 11.3268 18.27C11.5234 18.4867 11.7551 18.6533 12.0218 18.77C12.2884 18.8833 12.5751 18.94 12.8818 18.94C13.0651 18.94 13.2301 18.93 13.3768 18.91C13.5268 18.89 13.6634 18.8583 13.7868 18.815C13.9134 18.7717 14.0318 18.7167 14.1418 18.65C14.2551 18.58 14.3668 18.495 14.4768 18.395C14.5101 18.365 14.5451 18.3417 14.5818 18.325C14.6184 18.305 14.6568 18.295 14.6968 18.295ZM17.6931 20H16.3431V12.77H17.6931V20ZM24.3618 13.875H22.1818V20H20.8368V13.875H18.6568V12.77H24.3618V13.875ZM28.4129 17.2V20H27.0729V17.2L24.4379 12.77H25.6229C25.7396 12.77 25.8313 12.7983 25.8979 12.855C25.9679 12.9117 26.0263 12.9833 26.0729 13.07L27.3929 15.485C27.4696 15.6283 27.5363 15.7633 27.5929 15.89C27.6529 16.0167 27.7063 16.1433 27.7529 16.27C27.7963 16.1433 27.8463 16.0167 27.9029 15.89C27.9596 15.7633 28.0246 15.6283 28.0979 15.485L29.4129 13.07C29.4496 12.9967 29.5046 12.9283 29.5779 12.865C29.6513 12.8017 29.7446 12.77 29.8579 12.77H31.0479L28.4129 17.2ZM38.5611 13.875H36.3811V20H35.0361V13.875H32.8561V12.77H38.5611V13.875ZM46.158 16.385C46.158 16.915 46.0697 17.4067 45.893 17.86C45.7197 18.31 45.473 18.7 45.153 19.03C44.833 19.36 44.448 19.6183 43.998 19.805C43.548 19.9883 43.048 20.08 42.498 20.08C41.9513 20.08 41.453 19.9883 41.003 19.805C40.553 19.6183 40.1663 19.36 39.843 19.03C39.523 18.7 39.2747 18.31 39.098 17.86C38.9213 17.4067 38.833 16.915 38.833 16.385C38.833 15.855 38.9213 15.365 39.098 14.915C39.2747 14.4617 39.523 14.07 39.843 13.74C40.1663 13.41 40.553 13.1533 41.003 12.97C41.453 12.7833 41.9513 12.69 42.498 12.69C42.8647 12.69 43.2097 12.7333 43.533 12.82C43.8563 12.9033 44.153 13.0233 44.423 13.18C44.693 13.3333 44.9347 13.5217 45.148 13.745C45.3647 13.965 45.548 14.2117 45.698 14.485C45.848 14.7583 45.9613 15.055 46.038 15.375C46.118 15.695 46.158 16.0317 46.158 16.385ZM44.783 16.385C44.783 15.9883 44.7297 15.6333 44.623 15.32C44.5163 15.0033 44.3647 14.735 44.168 14.515C43.9713 14.295 43.7313 14.1267 43.448 14.01C43.168 13.8933 42.8513 13.835 42.498 13.835C42.1447 13.835 41.8263 13.8933 41.543 14.01C41.263 14.1267 41.023 14.295 40.823 14.515C40.6263 14.735 40.4747 15.0033 40.368 15.32C40.2613 15.6333 40.208 15.9883 40.208 16.385C40.208 16.7817 40.2613 17.1383 40.368 17.455C40.4747 17.7683 40.6263 18.035 40.823 18.255C41.023 18.4717 41.263 18.6383 41.543 18.755C41.8263 18.8717 42.1447 18.93 42.498 18.93C42.8513 18.93 43.168 18.8717 43.448 18.755C43.7313 18.6383 43.9713 18.4717 44.168 18.255C44.3647 18.035 44.5163 17.7683 44.623 17.455C44.7297 17.1383 44.783 16.7817 44.783 16.385ZM56.8127 12.77L54.5677 20H53.3527L51.7727 15.06C51.7294 14.94 51.6894 14.7933 51.6527 14.62C51.6327 14.7033 51.6127 14.7817 51.5927 14.855C51.5727 14.9283 51.551 14.9967 51.5277 15.06L49.9327 20H48.7127L46.4727 12.77H47.5977C47.7144 12.77 47.811 12.7983 47.8877 12.855C47.9677 12.9083 48.021 12.9817 48.0477 13.075L49.2777 17.4C49.3044 17.5067 49.3294 17.6233 49.3527 17.75C49.3794 17.8733 49.406 18.0033 49.4327 18.14C49.4594 18 49.4877 17.8683 49.5177 17.745C49.551 17.6217 49.586 17.5067 49.6227 17.4L51.0427 13.075C51.0694 12.9983 51.121 12.9283 51.1977 12.865C51.2777 12.8017 51.3744 12.77 51.4877 12.77H51.8827C51.9994 12.77 52.0944 12.7983 52.1677 12.855C52.241 12.9117 52.296 12.985 52.3327 13.075L53.7477 17.4C53.8177 17.6067 53.881 17.845 53.9377 18.115C53.981 17.8517 54.0294 17.6133 54.0827 17.4L55.3127 13.075C55.3327 12.9917 55.3827 12.92 55.4627 12.86C55.546 12.8 55.6444 12.77 55.7577 12.77H56.8127ZM59.0505 13.84V15.845H61.5805V16.88H59.0505V18.925H62.2605V20H57.7005V12.77H62.2605V13.84H59.0505ZM65.6375 16.21C65.8908 16.21 66.1108 16.1783 66.2975 16.115C66.4875 16.0517 66.6425 15.965 66.7625 15.855C66.8858 15.7417 66.9775 15.6083 67.0375 15.455C67.0975 15.3017 67.1275 15.1333 67.1275 14.95C67.1275 14.5833 67.0058 14.3017 66.7625 14.105C66.5225 13.9083 66.1541 13.81 65.6575 13.81H64.7975V16.21H65.6375ZM69.0975 20H67.8825C67.6525 20 67.4858 19.91 67.3825 19.73L65.8625 17.415C65.8058 17.3283 65.7425 17.2667 65.6725 17.23C65.6058 17.1933 65.5058 17.175 65.3725 17.175H64.7975V20H63.4525V12.77H65.6575C66.1475 12.77 66.5675 12.8217 66.9175 12.925C67.2708 13.025 67.5591 13.1667 67.7825 13.35C68.0091 13.5333 68.1758 13.7533 68.2825 14.01C68.3891 14.2633 68.4425 14.5433 68.4425 14.85C68.4425 15.0933 68.4058 15.3233 68.3325 15.54C68.2625 15.7567 68.1591 15.9533 68.0225 16.13C67.8891 16.3067 67.7225 16.4617 67.5225 16.595C67.3258 16.7283 67.1008 16.8333 66.8475 16.91C66.9341 16.96 67.0141 17.02 67.0875 17.09C67.1608 17.1567 67.2275 17.2367 67.2875 17.33L69.0975 20Z" fill="white"/>
</svg>
