<!-- <svg width="25" height="25" viewBox="0 0 44 40" fill="none" xmlns="http://www.w3.org/2000/svg">
<path d="M32.08 0C31.7 0 31.32 0.0800002 31 0.28L9.18 13H17.1L33 3.72C34 3.16 34.26 1.94 33.7 1C33.36 0.4 32.76 0 32.08 0ZM30 12V16H4C2.93913 16 1.92172 16.4214 1.17157 17.1716C0.421427 17.9217 0 18.9391 0 20H2V26H0V34H4C4 35.5913 4.63214 37.1174 5.75736 38.2426C6.88258 39.3679 8.4087 40 10 40C11.5913 40 13.1174 39.3679 14.2426 38.2426C15.3679 37.1174 16 35.5913 16 34H28C28 35.5913 28.6321 37.1174 29.7574 38.2426C30.8826 39.3679 32.4087 40 34 40C35.5913 40 37.1174 39.3679 38.2426 38.2426C39.3679 37.1174 40 35.5913 40 34H44V21L37 12H30ZM34 15H36L41 21V23H34V15ZM6 20H12V26H6V20ZM16 20H22V26H16V20ZM26 20H30V26H26V20ZM10 31C10.7956 31 11.5587 31.3161 12.1213 31.8787C12.6839 32.4413 13 33.2043 13 34C13 34.7957 12.6839 35.5587 12.1213 36.1213C11.5587 36.6839 10.7956 37 10 37C9.20435 37 8.44129 36.6839 7.87868 36.1213C7.31607 35.5587 7 34.7957 7 34C7 33.2043 7.31607 32.4413 7.87868 31.8787C8.44129 31.3161 9.20435 31 10 31ZM34 31C34.7957 31 35.5587 31.3161 36.1213 31.8787C36.6839 32.4413 37 33.2043 37 34C37 34.7957 36.6839 35.5587 36.1213 36.1213C35.5587 36.6839 34.7957 37 34 37C33.2043 37 32.4413 36.6839 31.8787 36.1213C31.3161 35.5587 31 34.7957 31 34C31 33.2043 31.3161 32.4413 31.8787 31.8787C32.4413 31.3161 33.2043 31 34 31Z" fill="#00FFA7"/>
</svg> -->

<svg width="24" height="24" viewBox="0 0 24 24" fill="none" xmlns="http://www.w3.org/2000/svg">
<path d="M17.04 2C16.85 2 16.66 2.04 16.5 2.14L5.59 8.5H9.55L17.5 3.86C18 3.58 18.13 2.97 17.85 2.5C17.68 2.2 17.38 2 17.04 2ZM16 8V10H3C2.46957 10 1.96086 10.2107 1.58579 10.5858C1.21071 10.9609 1 11.4696 1 12H2V15H1V19H3C3 19.7956 3.31607 20.5587 3.87868 21.1213C4.44129 21.6839 5.20435 22 6 22C6.79565 22 7.55871 21.6839 8.12132 21.1213C8.68393 20.5587 9 19.7956 9 19H15C15 19.7956 15.3161 20.5587 15.8787 21.1213C16.4413 21.6839 17.2044 22 18 22C18.7956 22 19.5587 21.6839 20.1213 21.1213C20.6839 20.5587 21 19.7956 21 19H23V12.5L19.5 8H16ZM18 9.5H19L21.5 12.5V13.5H18V9.5ZM4 12H7V15H4V12ZM9 12H12V15H9V12ZM14 12H16V15H14V12ZM6 17.5C6.39782 17.5 6.77936 17.658 7.06066 17.9393C7.34196 18.2206 7.5 18.6022 7.5 19C7.5 19.3978 7.34196 19.7794 7.06066 20.0607C6.77936 20.342 6.39782 20.5 6 20.5C5.60218 20.5 5.22064 20.342 4.93934 20.0607C4.65804 19.7794 4.5 19.3978 4.5 19C4.5 18.6022 4.65804 18.2206 4.93934 17.9393C5.22064 17.658 5.60218 17.5 6 17.5ZM18 17.5C18.3978 17.5 18.7794 17.658 19.0607 17.9393C19.342 18.2206 19.5 18.6022 19.5 19C19.5 19.3978 19.342 19.7794 19.0607 20.0607C18.7794 20.342 18.3978 20.5 18 20.5C17.6022 20.5 17.2206 20.342 16.9393 20.0607C16.658 19.7794 16.5 19.3978 16.5 19C16.5 18.6022 16.658 18.2206 16.9393 17.9393C17.2206 17.658 17.6022 17.5 18 17.5Z" fill="white"/>
</svg>
