<svg width="446" height="463" viewBox="0 0 446 463" fill="none" xmlns="http://www.w3.org/2000/svg">
<path d="M155.619 238.512L152.035 250H150.499L147.699 241.48C147.635 241.309 147.579 241.104 147.531 240.864C147.472 241.109 147.416 241.315 147.363 241.48L144.531 250H143.003L139.419 238.512H140.843C140.992 238.512 141.118 238.549 141.219 238.624C141.32 238.693 141.387 238.789 141.419 238.912L143.683 246.6C143.726 246.749 143.763 246.912 143.795 247.088C143.832 247.264 143.87 247.448 143.907 247.64C143.944 247.448 143.982 247.264 144.019 247.088C144.062 246.912 144.11 246.749 144.163 246.6L146.755 238.912C146.787 238.805 146.854 238.712 146.955 238.632C147.062 238.552 147.187 238.512 147.331 238.512H147.819C147.968 238.512 148.091 238.549 148.187 238.624C148.283 238.699 148.352 238.795 148.395 238.912L150.979 246.6C151.075 246.893 151.16 247.227 151.235 247.6C151.299 247.232 151.368 246.899 151.443 246.6L153.715 238.912C153.742 238.805 153.808 238.712 153.915 238.632C154.022 238.552 154.147 238.512 154.291 238.512H155.619ZM158.494 241.872V250H156.934V241.872H158.494ZM158.79 239.36C158.79 239.504 158.76 239.643 158.702 239.776C158.643 239.904 158.563 240.019 158.462 240.12C158.366 240.216 158.251 240.293 158.118 240.352C157.984 240.405 157.846 240.432 157.702 240.432C157.558 240.432 157.422 240.405 157.294 240.352C157.166 240.293 157.051 240.216 156.95 240.12C156.854 240.019 156.776 239.904 156.718 239.776C156.664 239.643 156.638 239.504 156.638 239.36C156.638 239.211 156.664 239.072 156.718 238.944C156.776 238.811 156.854 238.696 156.95 238.6C157.051 238.499 157.166 238.421 157.294 238.368C157.422 238.309 157.558 238.28 157.702 238.28C157.846 238.28 157.984 238.309 158.118 238.368C158.251 238.421 158.366 238.499 158.462 238.6C158.563 238.696 158.643 238.811 158.702 238.944C158.76 239.072 158.79 239.211 158.79 239.36ZM162.352 238.192V250H160.784V238.192H162.352ZM166.18 238.192V250H164.612V238.192H166.18ZM170.041 241.872V250H168.481V241.872H170.041ZM170.337 239.36C170.337 239.504 170.307 239.643 170.249 239.776C170.19 239.904 170.11 240.019 170.009 240.12C169.913 240.216 169.798 240.293 169.664 240.352C169.531 240.405 169.393 240.432 169.249 240.432C169.105 240.432 168.969 240.405 168.841 240.352C168.713 240.293 168.598 240.216 168.497 240.12C168.401 240.019 168.323 239.904 168.265 239.776C168.211 239.643 168.185 239.504 168.185 239.36C168.185 239.211 168.211 239.072 168.265 238.944C168.323 238.811 168.401 238.696 168.497 238.6C168.598 238.499 168.713 238.421 168.841 238.368C168.969 238.309 169.105 238.28 169.249 238.28C169.393 238.28 169.531 238.309 169.664 238.368C169.798 238.421 169.913 238.499 170.009 238.6C170.11 238.696 170.19 238.811 170.249 238.944C170.307 239.072 170.337 239.211 170.337 239.36ZM176.667 246.392C176.032 246.413 175.494 246.464 175.051 246.544C174.608 246.619 174.248 246.72 173.971 246.848C173.694 246.976 173.494 247.128 173.371 247.304C173.248 247.475 173.187 247.667 173.187 247.88C173.187 248.083 173.219 248.259 173.283 248.408C173.352 248.552 173.443 248.672 173.555 248.768C173.672 248.859 173.808 248.925 173.963 248.968C174.118 249.011 174.286 249.032 174.467 249.032C174.707 249.032 174.926 249.008 175.123 248.96C175.326 248.912 175.515 248.845 175.691 248.76C175.867 248.669 176.035 248.56 176.195 248.432C176.355 248.304 176.512 248.157 176.667 247.992V246.392ZM172.091 243.008C172.544 242.576 173.035 242.253 173.563 242.04C174.096 241.827 174.68 241.72 175.315 241.72C175.779 241.72 176.19 241.797 176.547 241.952C176.904 242.101 177.206 242.312 177.451 242.584C177.696 242.856 177.88 243.181 178.003 243.56C178.131 243.939 178.195 244.357 178.195 244.816V250H177.499C177.344 250 177.227 249.976 177.147 249.928C177.067 249.875 177.003 249.779 176.955 249.64L176.787 248.928C176.579 249.12 176.374 249.291 176.171 249.44C175.968 249.584 175.755 249.709 175.531 249.816C175.312 249.917 175.078 249.995 174.827 250.048C174.576 250.101 174.299 250.128 173.995 250.128C173.675 250.128 173.374 250.085 173.091 250C172.814 249.909 172.571 249.773 172.363 249.592C172.155 249.411 171.99 249.184 171.867 248.912C171.75 248.64 171.691 248.323 171.691 247.96C171.691 247.64 171.776 247.333 171.947 247.04C172.123 246.741 172.406 246.475 172.795 246.24C173.19 246.005 173.702 245.813 174.331 245.664C174.966 245.515 175.744 245.429 176.667 245.408V244.816C176.667 244.203 176.536 243.744 176.275 243.44C176.014 243.136 175.63 242.984 175.123 242.984C174.782 242.984 174.494 243.027 174.259 243.112C174.03 243.197 173.83 243.293 173.659 243.4C173.494 243.501 173.347 243.595 173.219 243.68C173.096 243.765 172.968 243.808 172.835 243.808C172.728 243.808 172.635 243.779 172.555 243.72C172.48 243.661 172.419 243.592 172.371 243.512L172.091 243.008ZM180.284 250V241.872H181.22C181.438 241.872 181.574 241.976 181.628 242.184L181.74 242.96C182.038 242.603 182.369 242.312 182.732 242.088C183.1 241.859 183.529 241.744 184.02 241.744C184.558 241.744 184.996 241.893 185.332 242.192C185.668 242.485 185.913 242.885 186.068 243.392C186.185 243.104 186.337 242.856 186.524 242.648C186.71 242.44 186.918 242.269 187.148 242.136C187.377 242.003 187.62 241.904 187.876 241.84C188.137 241.776 188.401 241.744 188.668 241.744C189.1 241.744 189.484 241.813 189.82 241.952C190.161 242.085 190.449 242.283 190.684 242.544C190.918 242.805 191.097 243.128 191.22 243.512C191.342 243.896 191.404 244.333 191.404 244.824V250H189.836V244.824C189.836 244.216 189.702 243.757 189.436 243.448C189.174 243.139 188.79 242.984 188.284 242.984C188.06 242.984 187.846 243.024 187.644 243.104C187.441 243.179 187.262 243.293 187.108 243.448C186.958 243.603 186.838 243.795 186.748 244.024C186.662 244.253 186.62 244.52 186.62 244.824V250H185.052V244.824C185.052 244.195 184.926 243.731 184.676 243.432C184.425 243.133 184.057 242.984 183.572 242.984C183.236 242.984 182.924 243.072 182.636 243.248C182.348 243.424 182.084 243.664 181.844 243.968V250H180.284ZM207.277 238.512V250H206.413C206.28 250 206.168 249.976 206.077 249.928C205.992 249.88 205.904 249.803 205.813 249.696L199.325 241.304C199.336 241.448 199.344 241.589 199.349 241.728C199.36 241.867 199.365 241.997 199.365 242.12V250H197.869V238.512H198.749C198.898 238.512 199.01 238.531 199.085 238.568C199.16 238.6 199.242 238.677 199.333 238.8L205.837 247.2C205.821 247.045 205.808 246.896 205.797 246.752C205.792 246.603 205.789 246.464 205.789 246.336V238.512H207.277ZM212.39 245.944C212.667 245.944 212.91 245.907 213.118 245.832C213.331 245.757 213.507 245.653 213.646 245.52C213.79 245.381 213.896 245.216 213.966 245.024C214.04 244.832 214.078 244.621 214.078 244.392C214.078 243.923 213.934 243.549 213.646 243.272C213.363 242.989 212.944 242.848 212.39 242.848C211.84 242.848 211.422 242.989 211.134 243.272C210.851 243.549 210.71 243.923 210.71 244.392C210.71 244.621 210.744 244.832 210.814 245.024C210.888 245.211 210.995 245.373 211.134 245.512C211.278 245.645 211.454 245.752 211.662 245.832C211.875 245.907 212.118 245.944 212.39 245.944ZM214.878 250.424C214.878 250.232 214.824 250.08 214.718 249.968C214.611 249.851 214.464 249.76 214.278 249.696C214.096 249.627 213.883 249.579 213.638 249.552C213.392 249.52 213.134 249.496 212.862 249.48C212.595 249.464 212.32 249.451 212.038 249.44C211.755 249.424 211.483 249.397 211.222 249.36C210.944 249.499 210.715 249.667 210.534 249.864C210.358 250.061 210.27 250.293 210.27 250.56C210.27 250.731 210.312 250.891 210.398 251.04C210.488 251.189 210.624 251.317 210.806 251.424C210.992 251.536 211.224 251.621 211.502 251.68C211.784 251.744 212.12 251.776 212.51 251.776C212.894 251.776 213.232 251.741 213.526 251.672C213.819 251.608 214.064 251.515 214.262 251.392C214.464 251.275 214.616 251.133 214.718 250.968C214.824 250.803 214.878 250.621 214.878 250.424ZM216.462 242.176V242.76C216.462 242.952 216.342 243.072 216.102 243.12L215.23 243.248C215.304 243.413 215.363 243.589 215.406 243.776C215.448 243.957 215.47 244.149 215.47 244.352C215.47 244.752 215.392 245.115 215.238 245.44C215.083 245.76 214.87 246.035 214.598 246.264C214.326 246.493 214 246.669 213.622 246.792C213.248 246.915 212.838 246.976 212.39 246.976C212.022 246.976 211.678 246.936 211.358 246.856C211.198 246.952 211.075 247.059 210.99 247.176C210.91 247.288 210.87 247.4 210.87 247.512C210.87 247.699 210.947 247.837 211.102 247.928C211.262 248.019 211.467 248.085 211.718 248.128C211.974 248.165 212.264 248.189 212.59 248.2C212.92 248.211 213.254 248.229 213.59 248.256C213.931 248.277 214.264 248.32 214.59 248.384C214.92 248.443 215.211 248.541 215.462 248.68C215.718 248.813 215.923 249 216.078 249.24C216.238 249.475 216.318 249.781 216.318 250.16C216.318 250.512 216.23 250.853 216.054 251.184C215.883 251.515 215.632 251.808 215.302 252.064C214.971 252.32 214.568 252.525 214.094 252.68C213.619 252.835 213.08 252.912 212.477 252.912C211.875 252.912 211.35 252.853 210.902 252.736C210.459 252.619 210.088 252.461 209.79 252.264C209.496 252.067 209.275 251.837 209.126 251.576C208.982 251.315 208.91 251.043 208.91 250.76C208.91 250.365 209.032 250.032 209.278 249.76C209.523 249.483 209.862 249.267 210.294 249.112C210.059 249.005 209.872 248.861 209.734 248.68C209.595 248.493 209.526 248.248 209.526 247.944C209.526 247.827 209.547 247.707 209.59 247.584C209.632 247.456 209.696 247.331 209.782 247.208C209.872 247.08 209.982 246.96 210.11 246.848C210.243 246.736 210.395 246.635 210.566 246.544C210.166 246.32 209.851 246.024 209.622 245.656C209.392 245.283 209.278 244.848 209.278 244.352C209.278 243.952 209.355 243.592 209.51 243.272C209.664 242.952 209.878 242.677 210.15 242.448C210.427 242.219 210.755 242.043 211.134 241.92C211.518 241.797 211.936 241.736 212.39 241.736C213.094 241.736 213.699 241.883 214.206 242.176H216.462Z" fill="white"/>
<path d="M78.0054 354.424C78.4374 354.424 78.816 354.368 79.1414 354.256C79.472 354.144 79.7467 353.987 79.9654 353.784C80.1894 353.576 80.3574 353.331 80.4694 353.048C80.5814 352.76 80.6374 352.443 80.6374 352.096C80.6374 351.397 80.4187 350.848 79.9814 350.448C79.5494 350.048 78.8907 349.848 78.0054 349.848H76.2294V354.424H78.0054ZM78.0054 348.512C78.7414 348.512 79.3814 348.597 79.9254 348.768C80.4694 348.939 80.92 349.181 81.2774 349.496C81.6347 349.805 81.8987 350.181 82.0694 350.624C82.2454 351.067 82.3334 351.557 82.3334 352.096C82.3334 352.635 82.24 353.131 82.0534 353.584C81.8667 354.032 81.592 354.419 81.2294 354.744C80.8667 355.069 80.4134 355.323 79.8694 355.504C79.3307 355.68 78.7094 355.768 78.0054 355.768H76.2294V360H74.5254V348.512H78.0054ZM88.0109 356.392C87.3762 356.413 86.8375 356.464 86.3949 356.544C85.9522 356.619 85.5922 356.72 85.3149 356.848C85.0375 356.976 84.8375 357.128 84.7149 357.304C84.5922 357.475 84.5309 357.667 84.5309 357.88C84.5309 358.083 84.5629 358.259 84.6269 358.408C84.6962 358.552 84.7869 358.672 84.8989 358.768C85.0162 358.859 85.1522 358.925 85.3069 358.968C85.4615 359.011 85.6295 359.032 85.8109 359.032C86.0509 359.032 86.2695 359.008 86.4669 358.96C86.6695 358.912 86.8589 358.845 87.0349 358.76C87.2109 358.669 87.3789 358.56 87.5389 358.432C87.6989 358.304 87.8562 358.157 88.0109 357.992V356.392ZM83.4349 353.008C83.8882 352.576 84.3789 352.253 84.9069 352.04C85.4402 351.827 86.0242 351.72 86.6589 351.72C87.1229 351.72 87.5335 351.797 87.8909 351.952C88.2482 352.101 88.5495 352.312 88.7949 352.584C89.0402 352.856 89.2242 353.181 89.3469 353.56C89.4749 353.939 89.5389 354.357 89.5389 354.816V360H88.8429C88.6882 360 88.5709 359.976 88.4909 359.928C88.4109 359.875 88.3469 359.779 88.2989 359.64L88.1309 358.928C87.9229 359.12 87.7175 359.291 87.5149 359.44C87.3122 359.584 87.0989 359.709 86.8749 359.816C86.6562 359.917 86.4215 359.995 86.1709 360.048C85.9202 360.101 85.6429 360.128 85.3389 360.128C85.0189 360.128 84.7175 360.085 84.4349 360C84.1575 359.909 83.9149 359.773 83.7069 359.592C83.4989 359.411 83.3335 359.184 83.2109 358.912C83.0935 358.64 83.0349 358.323 83.0349 357.96C83.0349 357.64 83.1202 357.333 83.2909 357.04C83.4669 356.741 83.7495 356.475 84.1389 356.24C84.5335 356.005 85.0455 355.813 85.6749 355.664C86.3095 355.515 87.0882 355.429 88.0109 355.408V354.816C88.0109 354.203 87.8802 353.744 87.6189 353.44C87.3575 353.136 86.9735 352.984 86.4669 352.984C86.1255 352.984 85.8375 353.027 85.6029 353.112C85.3735 353.197 85.1735 353.293 85.0029 353.4C84.8375 353.501 84.6909 353.595 84.5629 353.68C84.4402 353.765 84.3122 353.808 84.1789 353.808C84.0722 353.808 83.9789 353.779 83.8989 353.72C83.8242 353.661 83.7629 353.592 83.7149 353.512L83.4349 353.008ZM94.0619 360.128C93.4059 360.128 92.8992 359.944 92.5419 359.576C92.1899 359.208 92.0139 358.683 92.0139 358V353.136H91.0699C90.9792 353.136 90.9019 353.109 90.8379 353.056C90.7792 352.997 90.7499 352.912 90.7499 352.8V352.168L92.0699 351.984L92.4219 349.56C92.4432 349.469 92.4832 349.4 92.5419 349.352C92.6059 349.299 92.6859 349.272 92.7819 349.272H93.5739V352H95.8779V353.136H93.5739V357.896C93.5739 358.216 93.6512 358.456 93.8059 358.616C93.9659 358.771 94.1685 358.848 94.4139 358.848C94.5579 358.848 94.6805 358.829 94.7819 358.792C94.8885 358.755 94.9792 358.715 95.0539 358.672C95.1285 358.624 95.1925 358.581 95.2459 358.544C95.2992 358.507 95.3472 358.488 95.3899 358.488C95.4432 358.488 95.4832 358.501 95.5099 358.528C95.5419 358.549 95.5739 358.587 95.6059 358.64L96.0699 359.392C95.8139 359.627 95.5099 359.808 95.1579 359.936C94.8059 360.064 94.4405 360.128 94.0619 360.128ZM98.7868 353.432C99.0481 352.899 99.3628 352.48 99.7308 352.176C100.099 351.872 100.541 351.72 101.059 351.72C101.235 351.72 101.4 351.741 101.555 351.784C101.715 351.821 101.853 351.88 101.971 351.96L101.867 353.136C101.829 353.28 101.741 353.352 101.603 353.352C101.528 353.352 101.416 353.339 101.267 353.312C101.117 353.28 100.957 353.264 100.787 353.264C100.536 353.264 100.315 353.301 100.123 353.376C99.9308 353.445 99.7574 353.552 99.6028 353.696C99.4534 353.835 99.3201 354.008 99.2028 354.216C99.0854 354.419 98.9761 354.651 98.8748 354.912V360H97.3148V351.872H98.2108C98.3814 351.872 98.4961 351.904 98.5548 351.968C98.6188 352.027 98.6641 352.133 98.6908 352.288L98.7868 353.432ZM104.806 351.872V360H103.246V351.872H104.806ZM105.102 349.36C105.102 349.504 105.073 349.643 105.014 349.776C104.955 349.904 104.875 350.019 104.774 350.12C104.678 350.216 104.563 350.293 104.43 350.352C104.297 350.405 104.158 350.432 104.014 350.432C103.87 350.432 103.734 350.405 103.606 350.352C103.478 350.293 103.363 350.216 103.262 350.12C103.166 350.019 103.089 349.904 103.03 349.776C102.977 349.643 102.95 349.504 102.95 349.36C102.95 349.211 102.977 349.072 103.03 348.944C103.089 348.811 103.166 348.696 103.262 348.6C103.363 348.499 103.478 348.421 103.606 348.368C103.734 348.309 103.87 348.28 104.014 348.28C104.158 348.28 104.297 348.309 104.43 348.368C104.563 348.421 104.678 348.499 104.774 348.6C104.875 348.696 104.955 348.811 105.014 348.944C105.073 349.072 105.102 349.211 105.102 349.36ZM112.761 353.392C112.713 353.451 112.665 353.499 112.617 353.536C112.574 353.568 112.51 353.584 112.425 353.584C112.339 353.584 112.249 353.552 112.153 353.488C112.062 353.419 111.945 353.347 111.801 353.272C111.662 353.192 111.491 353.12 111.289 353.056C111.091 352.987 110.846 352.952 110.553 352.952C110.169 352.952 109.83 353.021 109.537 353.16C109.243 353.299 108.998 353.496 108.801 353.752C108.609 354.008 108.462 354.32 108.361 354.688C108.259 355.056 108.209 355.469 108.209 355.928C108.209 356.403 108.262 356.827 108.369 357.2C108.475 357.568 108.627 357.88 108.825 358.136C109.022 358.387 109.262 358.579 109.545 358.712C109.827 358.84 110.142 358.904 110.489 358.904C110.825 358.904 111.102 358.864 111.321 358.784C111.539 358.699 111.721 358.608 111.865 358.512C112.009 358.416 112.129 358.328 112.225 358.248C112.321 358.163 112.419 358.12 112.521 358.12C112.649 358.12 112.747 358.168 112.817 358.264L113.265 358.84C113.078 359.069 112.867 359.264 112.633 359.424C112.403 359.584 112.158 359.715 111.897 359.816C111.635 359.917 111.361 359.992 111.073 360.04C110.79 360.088 110.502 360.112 110.209 360.112C109.702 360.112 109.227 360.019 108.785 359.832C108.347 359.645 107.966 359.373 107.641 359.016C107.321 358.659 107.067 358.221 106.881 357.704C106.694 357.181 106.601 356.589 106.601 355.928C106.601 355.325 106.683 354.768 106.849 354.256C107.019 353.744 107.267 353.304 107.593 352.936C107.923 352.563 108.329 352.272 108.809 352.064C109.289 351.851 109.838 351.744 110.457 351.744C111.038 351.744 111.55 351.837 111.993 352.024C112.435 352.211 112.83 352.475 113.177 352.816L112.761 353.392ZM116.353 351.872V360H114.793V351.872H116.353ZM116.649 349.36C116.649 349.504 116.62 349.643 116.561 349.776C116.502 349.904 116.422 350.019 116.321 350.12C116.225 350.216 116.11 350.293 115.977 350.352C115.844 350.405 115.705 350.432 115.561 350.432C115.417 350.432 115.281 350.405 115.153 350.352C115.025 350.293 114.91 350.216 114.809 350.12C114.713 350.019 114.636 349.904 114.577 349.776C114.524 349.643 114.497 349.504 114.497 349.36C114.497 349.211 114.524 349.072 114.577 348.944C114.636 348.811 114.713 348.696 114.809 348.6C114.91 348.499 115.025 348.421 115.153 348.368C115.281 348.309 115.417 348.28 115.561 348.28C115.705 348.28 115.844 348.309 115.977 348.368C116.11 348.421 116.225 348.499 116.321 348.6C116.422 348.696 116.502 348.811 116.561 348.944C116.62 349.072 116.649 349.211 116.649 349.36ZM122.98 356.392C122.345 356.413 121.806 356.464 121.364 356.544C120.921 356.619 120.561 356.72 120.284 356.848C120.006 356.976 119.806 357.128 119.684 357.304C119.561 357.475 119.5 357.667 119.5 357.88C119.5 358.083 119.532 358.259 119.596 358.408C119.665 358.552 119.756 358.672 119.868 358.768C119.985 358.859 120.121 358.925 120.276 358.968C120.43 359.011 120.598 359.032 120.78 359.032C121.02 359.032 121.238 359.008 121.436 358.96C121.638 358.912 121.828 358.845 122.004 358.76C122.18 358.669 122.348 358.56 122.508 358.432C122.668 358.304 122.825 358.157 122.98 357.992V356.392ZM118.404 353.008C118.857 352.576 119.348 352.253 119.876 352.04C120.409 351.827 120.993 351.72 121.628 351.72C122.092 351.72 122.502 351.797 122.86 351.952C123.217 352.101 123.518 352.312 123.764 352.584C124.009 352.856 124.193 353.181 124.316 353.56C124.444 353.939 124.508 354.357 124.508 354.816V360H123.812C123.657 360 123.54 359.976 123.46 359.928C123.38 359.875 123.316 359.779 123.268 359.64L123.1 358.928C122.892 359.12 122.686 359.291 122.484 359.44C122.281 359.584 122.068 359.709 121.844 359.816C121.625 359.917 121.39 359.995 121.14 360.048C120.889 360.101 120.612 360.128 120.308 360.128C119.988 360.128 119.686 360.085 119.404 360C119.126 359.909 118.884 359.773 118.676 359.592C118.468 359.411 118.302 359.184 118.18 358.912C118.062 358.64 118.004 358.323 118.004 357.96C118.004 357.64 118.089 357.333 118.26 357.04C118.436 356.741 118.718 356.475 119.108 356.24C119.502 356.005 120.014 355.813 120.644 355.664C121.278 355.515 122.057 355.429 122.98 355.408V354.816C122.98 354.203 122.849 353.744 122.588 353.44C122.326 353.136 121.942 352.984 121.436 352.984C121.094 352.984 120.806 353.027 120.572 353.112C120.342 353.197 120.142 353.293 119.972 353.4C119.806 353.501 119.66 353.595 119.532 353.68C119.409 353.765 119.281 353.808 119.148 353.808C119.041 353.808 118.948 353.779 118.868 353.72C118.793 353.661 118.732 353.592 118.684 353.512L118.404 353.008ZM137.539 358.568V360H130.963V348.512H132.667V358.568H137.539ZM140.509 351.872V360H138.949V351.872H140.509ZM140.805 349.36C140.805 349.504 140.776 349.643 140.717 349.776C140.659 349.904 140.579 350.019 140.477 350.12C140.381 350.216 140.267 350.293 140.133 350.352C140 350.405 139.861 350.432 139.717 350.432C139.573 350.432 139.437 350.405 139.309 350.352C139.181 350.293 139.067 350.216 138.965 350.12C138.869 350.019 138.792 349.904 138.733 349.776C138.68 349.643 138.653 349.504 138.653 349.36C138.653 349.211 138.68 349.072 138.733 348.944C138.792 348.811 138.869 348.696 138.965 348.6C139.067 348.499 139.181 348.421 139.309 348.368C139.437 348.309 139.573 348.28 139.717 348.28C139.861 348.28 140 348.309 140.133 348.368C140.267 348.421 140.381 348.499 140.477 348.6C140.579 348.696 140.659 348.811 140.717 348.944C140.776 349.072 140.805 349.211 140.805 349.36ZM142.768 360V351.872H143.704C143.923 351.872 144.059 351.976 144.112 352.184L144.224 352.96C144.523 352.603 144.853 352.312 145.216 352.088C145.584 351.859 146.013 351.744 146.504 351.744C147.043 351.744 147.48 351.893 147.816 352.192C148.152 352.485 148.397 352.885 148.552 353.392C148.669 353.104 148.821 352.856 149.008 352.648C149.195 352.44 149.403 352.269 149.632 352.136C149.861 352.003 150.104 351.904 150.36 351.84C150.621 351.776 150.885 351.744 151.152 351.744C151.584 351.744 151.968 351.813 152.304 351.952C152.645 352.085 152.933 352.283 153.168 352.544C153.403 352.805 153.581 353.128 153.704 353.512C153.827 353.896 153.888 354.333 153.888 354.824V360H152.32V354.824C152.32 354.216 152.187 353.757 151.92 353.448C151.659 353.139 151.275 352.984 150.768 352.984C150.544 352.984 150.331 353.024 150.128 353.104C149.925 353.179 149.747 353.293 149.592 353.448C149.443 353.603 149.323 353.795 149.232 354.024C149.147 354.253 149.104 354.52 149.104 354.824V360H147.536V354.824C147.536 354.195 147.411 353.731 147.16 353.432C146.909 353.133 146.541 352.984 146.056 352.984C145.72 352.984 145.408 353.072 145.12 353.248C144.832 353.424 144.568 353.664 144.328 353.968V360H142.768Z" fill="white"/>
<path d="M80.6606 82.72L78.9566 78.264C78.834 77.96 78.7113 77.576 78.5886 77.112C78.53 77.3413 78.4686 77.5547 78.4046 77.752C78.346 77.9493 78.2873 78.1253 78.2286 78.28L76.5326 82.72H80.6606ZM84.0286 87H82.7166C82.5673 87 82.4446 86.9627 82.3486 86.888C82.2526 86.8133 82.1833 86.7173 82.1406 86.6L81.1246 83.936H76.0606L75.0446 86.6C75.0073 86.7013 74.938 86.7947 74.8366 86.88C74.7353 86.96 74.6126 87 74.4686 87H73.1566L77.7326 75.512H79.4526L84.0286 87ZM85.1116 87V78.872H86.0476C86.2663 78.872 86.4023 78.976 86.4556 79.184L86.5676 79.96C86.8663 79.6027 87.197 79.312 87.5596 79.088C87.9276 78.8587 88.357 78.744 88.8476 78.744C89.3863 78.744 89.8236 78.8933 90.1596 79.192C90.4956 79.4853 90.741 79.8853 90.8956 80.392C91.013 80.104 91.165 79.856 91.3516 79.648C91.5383 79.44 91.7463 79.2693 91.9756 79.136C92.205 79.0027 92.4476 78.904 92.7036 78.84C92.965 78.776 93.229 78.744 93.4956 78.744C93.9276 78.744 94.3116 78.8133 94.6476 78.952C94.989 79.0853 95.277 79.2827 95.5116 79.544C95.7463 79.8053 95.925 80.128 96.0476 80.512C96.1703 80.896 96.2316 81.3333 96.2316 81.824V87H94.6636V81.824C94.6636 81.216 94.5303 80.7573 94.2636 80.448C94.0023 80.1387 93.6183 79.984 93.1116 79.984C92.8876 79.984 92.6743 80.024 92.4716 80.104C92.269 80.1787 92.0903 80.2933 91.9356 80.448C91.7863 80.6027 91.6663 80.7947 91.5756 81.024C91.4903 81.2533 91.4476 81.52 91.4476 81.824V87H89.8796V81.824C89.8796 81.1947 89.7543 80.7307 89.5036 80.432C89.253 80.1333 88.885 79.984 88.3996 79.984C88.0636 79.984 87.7516 80.072 87.4636 80.248C87.1756 80.424 86.9116 80.664 86.6716 80.968V87H85.1116ZM99.9624 78.872V87H98.4024V78.872H99.9624ZM100.258 76.36C100.258 76.504 100.229 76.6427 100.17 76.776C100.112 76.904 100.032 77.0187 99.9304 77.12C99.8344 77.216 99.7197 77.2933 99.5864 77.352C99.453 77.4053 99.3144 77.432 99.1704 77.432C99.0264 77.432 98.8904 77.4053 98.7624 77.352C98.6344 77.2933 98.5197 77.216 98.4184 77.12C98.3224 77.0187 98.245 76.904 98.1864 76.776C98.133 76.6427 98.1064 76.504 98.1064 76.36C98.1064 76.2107 98.133 76.072 98.1864 75.944C98.245 75.8107 98.3224 75.696 98.4184 75.6C98.5197 75.4987 98.6344 75.4213 98.7624 75.368C98.8904 75.3093 99.0264 75.28 99.1704 75.28C99.3144 75.28 99.453 75.3093 99.5864 75.368C99.7197 75.4213 99.8344 75.4987 99.9304 75.6C100.032 75.696 100.112 75.8107 100.17 75.944C100.229 76.072 100.258 76.2107 100.258 76.36ZM103.693 80.432C103.954 79.8987 104.269 79.48 104.637 79.176C105.005 78.872 105.448 78.72 105.965 78.72C106.141 78.72 106.306 78.7413 106.461 78.784C106.621 78.8213 106.76 78.88 106.877 78.96L106.773 80.136C106.736 80.28 106.648 80.352 106.509 80.352C106.434 80.352 106.322 80.3387 106.173 80.312C106.024 80.28 105.864 80.264 105.693 80.264C105.442 80.264 105.221 80.3013 105.029 80.376C104.837 80.4453 104.664 80.552 104.509 80.696C104.36 80.8347 104.226 81.008 104.109 81.216C103.992 81.4187 103.882 81.6507 103.781 81.912V87H102.221V78.872H103.117C103.288 78.872 103.402 78.904 103.461 78.968C103.525 79.0267 103.57 79.1333 103.597 79.288L103.693 80.432ZM114.84 78.872V87H113.904C113.691 87 113.552 86.896 113.488 86.688L113.376 85.872C113.2 86.0587 113.016 86.2293 112.824 86.384C112.632 86.5387 112.427 86.672 112.208 86.784C111.99 86.8907 111.758 86.9733 111.512 87.032C111.267 87.096 111.003 87.128 110.72 87.128C110.272 87.128 109.878 87.0533 109.536 86.904C109.2 86.7547 108.918 86.5467 108.688 86.28C108.459 86.008 108.286 85.6827 108.168 85.304C108.051 84.9253 107.992 84.5067 107.992 84.048V78.872H109.56V84.048C109.56 84.6293 109.694 85.0827 109.96 85.408C110.227 85.728 110.635 85.888 111.184 85.888C111.584 85.888 111.958 85.7947 112.304 85.608C112.651 85.416 112.976 85.1547 113.28 84.824V78.872H114.84ZM118.618 75.192V87H117.05V75.192H118.618ZM126.925 76.896V80.744H131.533V82.128H126.925V87H125.213V75.512H132.333V76.896H126.925ZM137.183 83.392C136.548 83.4133 136.009 83.464 135.567 83.544C135.124 83.6187 134.764 83.72 134.487 83.848C134.209 83.976 134.009 84.128 133.887 84.304C133.764 84.4747 133.703 84.6667 133.703 84.88C133.703 85.0827 133.735 85.2587 133.799 85.408C133.868 85.552 133.959 85.672 134.071 85.768C134.188 85.8587 134.324 85.9253 134.479 85.968C134.633 86.0107 134.801 86.032 134.983 86.032C135.223 86.032 135.441 86.008 135.639 85.96C135.841 85.912 136.031 85.8453 136.207 85.76C136.383 85.6693 136.551 85.56 136.711 85.432C136.871 85.304 137.028 85.1573 137.183 84.992V83.392ZM132.607 80.008C133.06 79.576 133.551 79.2533 134.079 79.04C134.612 78.8267 135.196 78.72 135.831 78.72C136.295 78.72 136.705 78.7973 137.063 78.952C137.42 79.1013 137.721 79.312 137.967 79.584C138.212 79.856 138.396 80.1813 138.519 80.56C138.647 80.9387 138.711 81.3573 138.711 81.816V87H138.015C137.86 87 137.743 86.976 137.663 86.928C137.583 86.8747 137.519 86.7787 137.471 86.64L137.303 85.928C137.095 86.12 136.889 86.2907 136.687 86.44C136.484 86.584 136.271 86.7093 136.047 86.816C135.828 86.9173 135.593 86.9947 135.343 87.048C135.092 87.1013 134.815 87.128 134.511 87.128C134.191 87.128 133.889 87.0853 133.607 87C133.329 86.9093 133.087 86.7733 132.879 86.592C132.671 86.4107 132.505 86.184 132.383 85.912C132.265 85.64 132.207 85.3227 132.207 84.96C132.207 84.64 132.292 84.3333 132.463 84.04C132.639 83.7413 132.921 83.4747 133.311 83.24C133.705 83.0053 134.217 82.8133 134.847 82.664C135.481 82.5147 136.26 82.4293 137.183 82.408V81.816C137.183 81.2027 137.052 80.744 136.791 80.44C136.529 80.136 136.145 79.984 135.639 79.984C135.297 79.984 135.009 80.0267 134.775 80.112C134.545 80.1973 134.345 80.2933 134.175 80.4C134.009 80.5013 133.863 80.5947 133.735 80.68C133.612 80.7653 133.484 80.808 133.351 80.808C133.244 80.808 133.151 80.7787 133.071 80.72C132.996 80.6613 132.935 80.592 132.887 80.512L132.607 80.008ZM142.431 78.872V87H140.871V78.872H142.431ZM142.727 76.36C142.727 76.504 142.698 76.6427 142.639 76.776C142.58 76.904 142.5 77.0187 142.399 77.12C142.303 77.216 142.188 77.2933 142.055 77.352C141.922 77.4053 141.783 77.432 141.639 77.432C141.495 77.432 141.359 77.4053 141.231 77.352C141.103 77.2933 140.988 77.216 140.887 77.12C140.791 77.0187 140.714 76.904 140.655 76.776C140.602 76.6427 140.575 76.504 140.575 76.36C140.575 76.2107 140.602 76.072 140.655 75.944C140.714 75.8107 140.791 75.696 140.887 75.6C140.988 75.4987 141.103 75.4213 141.231 75.368C141.359 75.3093 141.495 75.28 141.639 75.28C141.783 75.28 141.922 75.3093 142.055 75.368C142.188 75.4213 142.303 75.4987 142.399 75.6C142.5 75.696 142.58 75.8107 142.639 75.944C142.698 76.072 142.727 76.2107 142.727 76.36ZM150.354 79.528C150.354 79.64 150.332 79.7493 150.29 79.856C150.252 79.9627 150.202 80.0533 150.138 80.128L145.874 85.776H150.21V87H144.042V86.344C144.042 86.2693 144.06 86.1813 144.098 86.08C144.135 85.9733 144.188 85.8747 144.258 85.784L148.546 80.096H144.29V78.872H150.354V79.528Z" fill="white"/>
<g filter="url(#filter0_f)">
<path d="M170.81 217.723C170.719 223.33 143.135 231.965 143.135 231.965C143.135 231.965 115.829 223.351 115.934 216.836C116.007 212.324 128.351 208.865 143.504 209.109C158.658 209.354 170.883 213.211 170.81 217.723Z" fill="black" fill-opacity="0.7"/>
</g>
<path d="M162.935 196.843C162.935 209.944 143.345 229 143.345 229C143.345 229 123.754 211.135 123.754 196.843C123.754 185.989 132.525 176 143.345 176C154.164 176 162.935 185.989 162.935 196.843Z" fill="#D32029"/>
<path d="M137.712 194.24C139.219 197.187 141.647 199.604 144.609 201.104L146.911 198.812C147.204 198.521 147.612 198.438 147.978 198.552C149.151 198.938 150.406 199.146 151.715 199.146C151.992 199.146 152.258 199.256 152.455 199.451C152.651 199.646 152.761 199.911 152.761 200.187V203.833C152.761 204.11 152.651 204.375 152.455 204.57C152.258 204.765 151.992 204.875 151.715 204.875C146.996 204.875 142.471 203.009 139.135 199.688C135.798 196.367 133.924 191.863 133.924 187.167C133.924 186.89 134.034 186.625 134.23 186.43C134.427 186.235 134.693 186.125 134.97 186.125H138.633C138.911 186.125 139.177 186.235 139.373 186.43C139.569 186.625 139.68 186.89 139.68 187.167C139.68 188.469 139.889 189.719 140.276 190.885C140.391 191.25 140.308 191.656 140.015 191.948L137.712 194.24Z" fill="white"/>
<g filter="url(#filter1_f)">
<path d="M205.957 102.251C205.303 107.821 177.117 113.655 177.117 113.655C177.117 113.655 150.941 102.357 151.7 95.8853C152.226 91.4031 164.798 89.1945 179.781 90.9524C194.763 92.7102 206.483 97.7688 205.957 102.251Z" fill="black" fill-opacity="0.7"/>
</g>
<path d="M198.416 77.4326C198.416 90.9045 178.208 110.5 178.208 110.5C178.208 110.5 158 92.1292 158 77.4326C158 66.2721 167.047 56 178.208 56C189.368 56 198.416 66.2721 198.416 77.4326Z" fill="#595959"/>
<path d="M177.595 62.5723C178.894 62.5723 180.14 63.0884 181.059 64.0071C181.977 64.9258 182.494 66.1719 182.494 67.4711C182.494 68.7704 181.977 70.0165 181.059 70.9352C180.14 71.8539 178.894 72.37 177.595 72.37C176.295 72.37 175.049 71.8539 174.131 70.9352C173.212 70.0165 172.696 68.7704 172.696 67.4711C172.696 66.1719 173.212 64.9258 174.131 64.0071C175.049 63.0884 176.295 62.5723 177.595 62.5723ZM177.595 74.8195C183.008 74.8195 187.392 77.0117 187.392 79.7183V82.1678H167.797V79.7183C167.797 77.0117 172.181 74.8195 177.595 74.8195Z" fill="white"/>
<rect x="167" y="83" width="22" height="16" rx="3" fill="#595959"/>
<path d="M176.667 85L175.333 86.3333V87.6667H173.333C172.567 87.6667 172.08 88.3333 172 89L171.333 95.6667C171.253 96.3333 171.693 97 172.667 97H183.333C184.307 97 184.747 96.3333 184.667 95.6667L184 89C183.92 88.3333 183.373 87.6667 182.667 87.6667H180.667V86.3333L179.333 85H176.667ZM176.667 86.3333H179.333V87.6667H176.667V86.3333ZM177.333 89.6667H178.667V91.6667H180.667V93H178.667V95H177.333V93H175.333V91.6667H177.333V89.6667Z" fill="#F0F0F0"/>
<g filter="url(#filter2_f)">
<path d="M141.957 52.251C141.303 57.8206 113.117 63.6553 113.117 63.6553C113.117 63.6553 86.9409 52.3567 87.7002 45.8853C88.226 41.4031 100.798 39.1945 115.781 40.9524C130.763 42.7102 142.483 47.7688 141.957 52.251Z" fill="black" fill-opacity="0.7"/>
</g>
<path d="M134.416 27.4326C134.416 40.9045 114.208 60.5 114.208 60.5C114.208 60.5 94 42.1292 94 27.4326C94 16.2721 103.047 6 114.208 6C125.368 6 134.416 16.2721 134.416 27.4326Z" fill="#434343"/>
<path d="M113.595 12.5723C114.894 12.5723 116.14 13.0884 117.059 14.0071C117.977 14.9258 118.494 16.1719 118.494 17.4711C118.494 18.7704 117.977 20.0165 117.059 20.9352C116.14 21.8539 114.894 22.37 113.595 22.37C112.295 22.37 111.049 21.8539 110.131 20.9352C109.212 20.0165 108.696 18.7704 108.696 17.4711C108.696 16.1719 109.212 14.9258 110.131 14.0071C111.049 13.0884 112.295 12.5723 113.595 12.5723ZM113.595 24.8195C119.008 24.8195 123.392 27.0117 123.392 29.7183V32.1678H103.797V29.7183C103.797 27.0117 108.181 24.8195 113.595 24.8195Z" fill="white"/>
<rect x="85" y="33" width="58" height="16" rx="3" fill="#434343"/>
<path d="M93.0007 35.666C92.0282 35.666 91.0956 36.0523 90.4079 36.74C89.7203 37.4276 89.334 38.3602 89.334 39.3327C89.334 39.666 89.394 39.9993 89.4807 40.3327H92.2007L93.0473 38.086C93.2473 37.5527 94.034 37.4993 94.2873 38.086L95.6673 41.666L96.0607 40.7193C96.1473 40.4993 96.3807 40.3327 96.6673 40.3327H102.521C102.607 39.9993 102.667 39.666 102.667 39.3327C102.667 38.3602 102.281 37.4276 101.593 36.74C100.906 36.0523 99.9731 35.666 99.0007 35.666C97.7607 35.666 96.6673 36.286 96.0007 37.226C95.334 36.286 94.2407 35.666 93.0007 35.666ZM90.0007 41.3327C89.8238 41.3327 89.6543 41.4029 89.5292 41.5279C89.4042 41.653 89.334 41.8225 89.334 41.9993C89.334 42.1762 89.4042 42.3457 89.5292 42.4708C89.6543 42.5958 89.8238 42.666 90.0007 42.666H91.6273L95.334 46.3327C96.0007 46.9327 96.0007 46.9327 96.6673 46.3327L100.374 42.666H102.001C102.177 42.666 102.347 42.5958 102.472 42.4708C102.597 42.3457 102.667 42.1762 102.667 41.9993C102.667 41.8225 102.597 41.653 102.472 41.5279C102.347 41.4029 102.177 41.3327 102.001 41.3327H96.934L96.314 42.866C96.0473 43.5393 95.2807 43.446 95.034 42.886L93.6673 39.3327L93.0273 40.886C92.9273 41.1393 92.7007 41.3327 92.4007 41.3327H90.0007Z" fill="white"/>
<path d="M117.772 40.4667C117.619 40.2667 117.432 40.0933 117.259 39.92C116.812 39.52 116.306 39.2333 115.879 38.8133C114.886 37.84 114.666 36.2333 115.299 35C114.666 35.1533 114.112 35.5 113.639 35.88C111.912 37.2667 111.232 39.7133 112.046 41.8133C112.072 41.88 112.099 41.9467 112.099 42.0333C112.099 42.18 111.999 42.3133 111.866 42.3667C111.712 42.4333 111.552 42.3933 111.426 42.2867C111.386 42.2533 111.359 42.22 111.332 42.1733C110.579 41.22 110.459 39.8533 110.966 38.76C109.852 39.6667 109.246 41.2 109.332 42.6467C109.372 42.98 109.412 43.3133 109.526 43.6467C109.619 44.0467 109.799 44.4467 109.999 44.8C110.719 45.9533 111.966 46.78 113.306 46.9467C114.732 47.1267 116.259 46.8667 117.352 45.88C118.572 44.7733 118.999 43 118.372 41.48L118.286 41.3067C118.146 41 117.772 40.4667 117.772 40.4667ZM115.666 44.6667C115.479 44.8267 115.172 45 114.932 45.0667C114.186 45.3333 113.439 44.96 112.999 44.52C113.792 44.3333 114.266 43.7467 114.406 43.1533C114.519 42.62 114.306 42.18 114.219 41.6667C114.139 41.1733 114.152 40.7533 114.332 40.2933C114.459 40.5467 114.592 40.8 114.752 41C115.266 41.6667 116.072 41.96 116.246 42.8667C116.272 42.96 116.286 43.0533 116.286 43.1533C116.306 43.7 116.066 44.3 115.666 44.6667Z" fill="white"/>
<path d="M130.667 35L129.333 36.3333V37.6667H127.333C126.567 37.6667 126.08 38.3333 126 39L125.333 45.6667C125.253 46.3333 125.693 47 126.667 47H137.333C138.307 47 138.747 46.3333 138.667 45.6667L138 39C137.92 38.3333 137.373 37.6667 136.667 37.6667H134.667V36.3333L133.333 35H130.667ZM130.667 36.3333H133.333V37.6667H130.667V36.3333ZM131.333 39.6667H132.667V41.6667H134.667V43H132.667V45H131.333V43H129.333V41.6667H131.333V39.6667Z" fill="white"/>
<g filter="url(#filter3_f)">
<path d="M119.957 263.251C119.303 268.821 91.1171 274.655 91.1171 274.655C91.1171 274.655 64.9409 263.357 65.7002 256.885C66.226 252.403 78.7981 250.195 93.7807 251.952C108.763 253.71 120.483 258.769 119.957 263.251Z" fill="black" fill-opacity="0.7"/>
</g>
<path d="M112.416 238.433C112.416 251.904 92.2079 271.5 92.2079 271.5C92.2079 271.5 72 253.129 72 238.433C72 227.272 81.0474 217 92.2079 217C103.368 217 112.416 227.272 112.416 238.433Z" fill="#595959"/>
<path d="M91.5946 223.572C92.8939 223.572 94.1399 224.088 95.0587 225.007C95.9774 225.926 96.4935 227.172 96.4935 228.471C96.4935 229.77 95.9774 231.016 95.0587 231.935C94.1399 232.854 92.8939 233.37 91.5946 233.37C90.2954 233.37 89.0493 232.854 88.1306 231.935C87.2119 231.016 86.6958 229.77 86.6958 228.471C86.6958 227.172 87.2119 225.926 88.1306 225.007C89.0493 224.088 90.2954 223.572 91.5946 223.572ZM91.5946 235.819C97.0079 235.819 101.392 238.012 101.392 240.718V243.168H81.7969V240.718C81.7969 238.012 86.1814 235.819 91.5946 235.819Z" fill="white"/>
<rect x="81" y="244" width="22" height="16" rx="3" fill="#595959"/>
<path d="M95.7724 251.467C95.6191 251.267 95.4324 251.093 95.2591 250.92C94.8124 250.52 94.3057 250.233 93.8791 249.813C92.8857 248.84 92.6657 247.233 93.2991 246C92.6657 246.153 92.1124 246.5 91.6391 246.88C89.9124 248.267 89.2324 250.713 90.0457 252.813C90.0724 252.88 90.0991 252.947 90.0991 253.033C90.0991 253.18 89.9991 253.313 89.8657 253.367C89.7124 253.433 89.5524 253.393 89.4257 253.287C89.3857 253.253 89.3591 253.22 89.3324 253.173C88.5791 252.22 88.4591 250.853 88.9657 249.76C87.8524 250.667 87.2457 252.2 87.3324 253.647C87.3724 253.98 87.4124 254.313 87.5257 254.647C87.6191 255.047 87.7991 255.447 87.9991 255.8C88.7191 256.953 89.9657 257.78 91.3057 257.947C92.7324 258.127 94.2591 257.867 95.3524 256.88C96.5724 255.773 96.9991 254 96.3724 252.48L96.2857 252.307C96.1457 252 95.7724 251.467 95.7724 251.467ZM93.6657 255.667C93.4791 255.827 93.1724 256 92.9324 256.067C92.1857 256.333 91.4391 255.96 90.9991 255.52C91.7924 255.333 92.2657 254.747 92.4057 254.153C92.5191 253.62 92.3057 253.18 92.2191 252.667C92.1391 252.173 92.1524 251.753 92.3324 251.293C92.4591 251.547 92.5924 251.8 92.7524 252C93.2657 252.667 94.0724 252.96 94.2457 253.867C94.2724 253.96 94.2857 254.053 94.2857 254.153C94.3057 254.7 94.0657 255.3 93.6657 255.667Z" fill="#F0F0F0"/>
<g filter="url(#filter4_f)">
<path d="M139.957 337.251C139.303 342.821 111.117 348.655 111.117 348.655C111.117 348.655 84.9409 337.357 85.7002 330.885C86.226 326.403 98.7981 324.195 113.781 325.952C128.763 327.71 140.483 332.769 139.957 337.251Z" fill="black" fill-opacity="0.7"/>
</g>
<path d="M132.416 312.433C132.416 325.904 112.208 345.5 112.208 345.5C112.208 345.5 92 327.129 92 312.433C92 301.272 101.047 291 112.208 291C123.368 291 132.416 301.272 132.416 312.433Z" fill="#434343"/>
<path d="M111.595 297.572C112.894 297.572 114.14 298.088 115.059 299.007C115.977 299.926 116.494 301.172 116.494 302.471C116.494 303.77 115.977 305.016 115.059 305.935C114.14 306.854 112.894 307.37 111.595 307.37C110.295 307.37 109.049 306.854 108.131 305.935C107.212 305.016 106.696 303.77 106.696 302.471C106.696 301.172 107.212 299.926 108.131 299.007C109.049 298.088 110.295 297.572 111.595 297.572ZM111.595 309.819C117.008 309.819 121.392 312.012 121.392 314.718V317.168H101.797V314.718C101.797 312.012 106.181 309.819 111.595 309.819Z" fill="white"/>
<rect x="83" y="318" width="58" height="16" rx="3" fill="#434343"/>
<path d="M91.0007 320.666C90.0282 320.666 89.0956 321.052 88.4079 321.74C87.7203 322.428 87.334 323.36 87.334 324.333C87.334 324.666 87.394 324.999 87.4807 325.333H90.2007L91.0473 323.086C91.2473 322.553 92.034 322.499 92.2873 323.086L93.6673 326.666L94.0607 325.719C94.1473 325.499 94.3807 325.333 94.6673 325.333H100.521C100.607 324.999 100.667 324.666 100.667 324.333C100.667 323.36 100.281 322.428 99.5934 321.74C98.9057 321.052 97.9731 320.666 97.0007 320.666C95.7607 320.666 94.6673 321.286 94.0007 322.226C93.334 321.286 92.2407 320.666 91.0007 320.666ZM88.0007 326.333C87.8238 326.333 87.6543 326.403 87.5292 326.528C87.4042 326.653 87.334 326.823 87.334 326.999C87.334 327.176 87.4042 327.346 87.5292 327.471C87.6543 327.596 87.8238 327.666 88.0007 327.666H89.6273L93.334 331.333C94.0007 331.933 94.0007 331.933 94.6673 331.333L98.374 327.666H100.001C100.177 327.666 100.347 327.596 100.472 327.471C100.597 327.346 100.667 327.176 100.667 326.999C100.667 326.823 100.597 326.653 100.472 326.528C100.347 326.403 100.177 326.333 100.001 326.333H94.934L94.314 327.866C94.0473 328.539 93.2807 328.446 93.034 327.886L91.6673 324.333L91.0273 325.886C90.9273 326.139 90.7007 326.333 90.4007 326.333H88.0007Z" fill="white"/>
<path d="M115.772 325.467C115.619 325.267 115.432 325.093 115.259 324.92C114.812 324.52 114.306 324.233 113.879 323.813C112.886 322.84 112.666 321.233 113.299 320C112.666 320.153 112.112 320.5 111.639 320.88C109.912 322.267 109.232 324.713 110.046 326.813C110.072 326.88 110.099 326.947 110.099 327.033C110.099 327.18 109.999 327.313 109.866 327.367C109.712 327.433 109.552 327.393 109.426 327.287C109.386 327.253 109.359 327.22 109.332 327.173C108.579 326.22 108.459 324.853 108.966 323.76C107.852 324.667 107.246 326.2 107.332 327.647C107.372 327.98 107.412 328.313 107.526 328.647C107.619 329.047 107.799 329.447 107.999 329.8C108.719 330.953 109.966 331.78 111.306 331.947C112.732 332.127 114.259 331.867 115.352 330.88C116.572 329.773 116.999 328 116.372 326.48L116.286 326.307C116.146 326 115.772 325.467 115.772 325.467ZM113.666 329.667C113.479 329.827 113.172 330 112.932 330.067C112.186 330.333 111.439 329.96 110.999 329.52C111.792 329.333 112.266 328.747 112.406 328.153C112.519 327.62 112.306 327.18 112.219 326.667C112.139 326.173 112.152 325.753 112.332 325.293C112.459 325.547 112.592 325.8 112.752 326C113.266 326.667 114.072 326.96 114.246 327.867C114.272 327.96 114.286 328.053 114.286 328.153C114.306 328.7 114.066 329.3 113.666 329.667Z" fill="white"/>
<path d="M128.667 320L127.333 321.333V322.667H125.333C124.567 322.667 124.08 323.333 124 324L123.333 330.667C123.253 331.333 123.693 332 124.667 332H135.333C136.307 332 136.747 331.333 136.667 330.667L136 324C135.92 323.333 135.373 322.667 134.667 322.667H132.667V321.333L131.333 320H128.667ZM128.667 321.333H131.333V322.667H128.667V321.333ZM129.333 324.667H130.667V326.667H132.667V328H130.667V330H129.333V328H127.333V326.667H129.333V324.667Z" fill="white"/>
<g filter="url(#filter5_f)">
<path d="M117.957 434.251C117.303 439.821 89.1171 445.655 89.1171 445.655C89.1171 445.655 62.9409 434.357 63.7002 427.885C64.226 423.403 76.7981 421.195 91.7807 422.952C106.763 424.71 118.483 429.769 117.957 434.251Z" fill="black" fill-opacity="0.7"/>
</g>
<path d="M110.416 409.433C110.416 422.904 90.2079 442.5 90.2079 442.5C90.2079 442.5 70 424.129 70 409.433C70 398.272 79.0474 388 90.2079 388C101.368 388 110.416 398.272 110.416 409.433Z" fill="#434343"/>
<path d="M89.5946 394.572C90.8939 394.572 92.1399 395.088 93.0587 396.007C93.9774 396.926 94.4935 398.172 94.4935 399.471C94.4935 400.77 93.9774 402.016 93.0587 402.935C92.1399 403.854 90.8939 404.37 89.5946 404.37C88.2954 404.37 87.0493 403.854 86.1306 402.935C85.2119 402.016 84.6958 400.77 84.6958 399.471C84.6958 398.172 85.2119 396.926 86.1306 396.007C87.0493 395.088 88.2954 394.572 89.5946 394.572ZM89.5946 406.819C95.0079 406.819 99.3924 409.012 99.3924 411.718V414.168H79.7969V411.718C79.7969 409.012 84.1814 406.819 89.5946 406.819Z" fill="white"/>
<rect x="70" y="415" width="40" height="16" rx="3" fill="#434343"/>
<path d="M78.0007 417.666C77.0282 417.666 76.0956 418.052 75.4079 418.74C74.7203 419.428 74.334 420.36 74.334 421.333C74.334 421.666 74.394 421.999 74.4807 422.333H77.2007L78.0473 420.086C78.2473 419.553 79.034 419.499 79.2873 420.086L80.6673 423.666L81.0607 422.719C81.1473 422.499 81.3807 422.333 81.6673 422.333H87.5207C87.6073 421.999 87.6673 421.666 87.6673 421.333C87.6673 420.36 87.281 419.428 86.5934 418.74C85.9057 418.052 84.9731 417.666 84.0007 417.666C82.7607 417.666 81.6673 418.286 81.0007 419.226C80.334 418.286 79.2407 417.666 78.0007 417.666ZM75.0007 423.333C74.8238 423.333 74.6543 423.403 74.5292 423.528C74.4042 423.653 74.334 423.823 74.334 423.999C74.334 424.176 74.4042 424.346 74.5292 424.471C74.6543 424.596 74.8238 424.666 75.0007 424.666H76.6273L80.334 428.333C81.0007 428.933 81.0007 428.933 81.6673 428.333L85.374 424.666H87.0007C87.1775 424.666 87.347 424.596 87.4721 424.471C87.5971 424.346 87.6673 424.176 87.6673 423.999C87.6673 423.823 87.5971 423.653 87.4721 423.528C87.347 423.403 87.1775 423.333 87.0007 423.333H81.934L81.314 424.866C81.0473 425.539 80.2807 425.446 80.034 424.886L78.6673 421.333L78.0273 422.886C77.9273 423.139 77.7007 423.333 77.4007 423.333H75.0007Z" fill="#D9D9D9"/>
<path d="M102.772 422.467C102.619 422.267 102.432 422.093 102.259 421.92C101.812 421.52 101.306 421.233 100.879 420.813C99.8857 419.84 99.6657 418.233 100.299 417C99.6657 417.153 99.1124 417.5 98.6391 417.88C96.9124 419.267 96.2324 421.713 97.0457 423.813C97.0724 423.88 97.0991 423.947 97.0991 424.033C97.0991 424.18 96.9991 424.313 96.8657 424.367C96.7124 424.433 96.5524 424.393 96.4257 424.287C96.3857 424.253 96.3591 424.22 96.3324 424.173C95.5791 423.22 95.4591 421.853 95.9657 420.76C94.8524 421.667 94.2457 423.2 94.3324 424.647C94.3724 424.98 94.4124 425.313 94.5257 425.647C94.6191 426.047 94.7991 426.447 94.9991 426.8C95.7191 427.953 96.9657 428.78 98.3057 428.947C99.7324 429.127 101.259 428.867 102.352 427.88C103.572 426.773 103.999 425 103.372 423.48L103.286 423.307C103.146 423 102.772 422.467 102.772 422.467ZM100.666 426.667C100.479 426.827 100.172 427 99.9324 427.067C99.1857 427.333 98.4391 426.96 97.9991 426.52C98.7924 426.333 99.2657 425.747 99.4057 425.153C99.5191 424.62 99.3057 424.18 99.2191 423.667C99.1391 423.173 99.1524 422.753 99.3324 422.293C99.4591 422.547 99.5924 422.8 99.7524 423C100.266 423.667 101.072 423.96 101.246 424.867C101.272 424.96 101.286 425.053 101.286 425.153C101.306 425.7 101.066 426.3 100.666 426.667Z" fill="#D9D9D9"/>
<g filter="url(#filter6_f)">
<path d="M430.957 396.251C430.303 401.821 402.117 407.655 402.117 407.655C402.117 407.655 375.941 396.357 376.7 389.885C377.226 385.403 389.798 383.195 404.781 384.952C419.763 386.71 431.483 391.769 430.957 396.251Z" fill="black" fill-opacity="0.7"/>
</g>
<path d="M423.416 371.433C423.416 384.904 403.208 404.5 403.208 404.5C403.208 404.5 383 386.129 383 371.433C383 360.272 392.047 350 403.208 350C414.368 350 423.416 360.272 423.416 371.433Z" fill="#434343"/>
<path d="M402.595 356.572C403.894 356.572 405.14 357.088 406.059 358.007C406.977 358.926 407.494 360.172 407.494 361.471C407.494 362.77 406.977 364.016 406.059 364.935C405.14 365.854 403.894 366.37 402.595 366.37C401.295 366.37 400.049 365.854 399.131 364.935C398.212 364.016 397.696 362.77 397.696 361.471C397.696 360.172 398.212 358.926 399.131 358.007C400.049 357.088 401.295 356.572 402.595 356.572ZM402.595 368.819C408.008 368.819 412.392 371.012 412.392 373.718V376.168H392.797V373.718C392.797 371.012 397.181 368.819 402.595 368.819Z" fill="white"/>
<rect x="374" y="377" width="58" height="16" rx="3" fill="#434343"/>
<path d="M382.001 379.666C381.028 379.666 380.096 380.052 379.408 380.74C378.72 381.428 378.334 382.36 378.334 383.333C378.334 383.666 378.394 383.999 378.481 384.333H381.201L382.047 382.086C382.247 381.553 383.034 381.499 383.287 382.086L384.667 385.666L385.061 384.719C385.147 384.499 385.381 384.333 385.667 384.333H391.521C391.607 383.999 391.667 383.666 391.667 383.333C391.667 382.36 391.281 381.428 390.593 380.74C389.906 380.052 388.973 379.666 388.001 379.666C386.761 379.666 385.667 380.286 385.001 381.226C384.334 380.286 383.241 379.666 382.001 379.666ZM379.001 385.333C378.824 385.333 378.654 385.403 378.529 385.528C378.404 385.653 378.334 385.823 378.334 385.999C378.334 386.176 378.404 386.346 378.529 386.471C378.654 386.596 378.824 386.666 379.001 386.666H380.627L384.334 390.333C385.001 390.933 385.001 390.933 385.667 390.333L389.374 386.666H391.001C391.177 386.666 391.347 386.596 391.472 386.471C391.597 386.346 391.667 386.176 391.667 385.999C391.667 385.823 391.597 385.653 391.472 385.528C391.347 385.403 391.177 385.333 391.001 385.333H385.934L385.314 386.866C385.047 387.539 384.281 387.446 384.034 386.886L382.667 383.333L382.027 384.886C381.927 385.139 381.701 385.333 381.401 385.333H379.001Z" fill="#D9D9D9"/>
<path d="M406.772 384.467C406.619 384.267 406.432 384.093 406.259 383.92C405.812 383.52 405.306 383.233 404.879 382.813C403.886 381.84 403.666 380.233 404.299 379C403.666 379.153 403.112 379.5 402.639 379.88C400.912 381.267 400.232 383.713 401.046 385.813C401.072 385.88 401.099 385.947 401.099 386.033C401.099 386.18 400.999 386.313 400.866 386.367C400.712 386.433 400.552 386.393 400.426 386.287C400.386 386.253 400.359 386.22 400.332 386.173C399.579 385.22 399.459 383.853 399.966 382.76C398.852 383.667 398.246 385.2 398.332 386.647C398.372 386.98 398.412 387.313 398.526 387.647C398.619 388.047 398.799 388.447 398.999 388.8C399.719 389.953 400.966 390.78 402.306 390.947C403.732 391.127 405.259 390.867 406.352 389.88C407.572 388.773 407.999 387 407.372 385.48L407.286 385.307C407.146 385 406.772 384.467 406.772 384.467ZM404.666 388.667C404.479 388.827 404.172 389 403.932 389.067C403.186 389.333 402.439 388.96 401.999 388.52C402.792 388.333 403.266 387.747 403.406 387.153C403.519 386.62 403.306 386.18 403.219 385.667C403.139 385.173 403.152 384.753 403.332 384.293C403.459 384.547 403.592 384.8 403.752 385C404.266 385.667 405.072 385.96 405.246 386.867C405.272 386.96 405.286 387.053 405.286 387.153C405.306 387.7 405.066 388.3 404.666 388.667Z" fill="#D9D9D9"/>
<path d="M419.667 379L418.333 380.333V381.667H416.333C415.567 381.667 415.08 382.333 415 383L414.333 389.667C414.253 390.333 414.693 391 415.667 391H426.333C427.307 391 427.747 390.333 427.667 389.667L427 383C426.92 382.333 426.373 381.667 425.667 381.667H423.667V380.333L422.333 379H419.667ZM419.667 380.333H422.333V381.667H419.667V380.333ZM420.333 383.667H421.667V385.667H423.667V387H421.667V389H420.333V387H418.333V385.667H420.333V383.667Z" fill="#D9D9D9"/>
<g filter="url(#filter7_f)">
<path d="M258.957 374.251C258.303 379.821 230.117 385.655 230.117 385.655C230.117 385.655 203.941 374.357 204.7 367.885C205.226 363.403 217.798 361.195 232.781 362.952C247.763 364.71 259.483 369.769 258.957 374.251Z" fill="black" fill-opacity="0.7"/>
</g>
<path d="M251.416 349.433C251.416 362.904 231.208 382.5 231.208 382.5C231.208 382.5 211 364.129 211 349.433C211 338.272 220.047 328 231.208 328C242.368 328 251.416 338.272 251.416 349.433Z" fill="#595959"/>
<path d="M230.595 334.572C231.894 334.572 233.14 335.088 234.059 336.007C234.977 336.926 235.494 338.172 235.494 339.471C235.494 340.77 234.977 342.016 234.059 342.935C233.14 343.854 231.894 344.37 230.595 344.37C229.295 344.37 228.049 343.854 227.131 342.935C226.212 342.016 225.696 340.77 225.696 339.471C225.696 338.172 226.212 336.926 227.131 336.007C228.049 335.088 229.295 334.572 230.595 334.572ZM230.595 346.819C236.008 346.819 240.392 349.012 240.392 351.718V354.168H220.797V351.718C220.797 349.012 225.181 346.819 230.595 346.819Z" fill="white"/>
<rect x="211" y="355" width="40" height="16" rx="3" fill="#595959"/>
<path d="M225.772 362.467C225.619 362.267 225.432 362.093 225.259 361.92C224.812 361.52 224.306 361.233 223.879 360.813C222.886 359.84 222.666 358.233 223.299 357C222.666 357.153 222.112 357.5 221.639 357.88C219.912 359.267 219.232 361.713 220.046 363.813C220.072 363.88 220.099 363.947 220.099 364.033C220.099 364.18 219.999 364.313 219.866 364.367C219.712 364.433 219.552 364.393 219.426 364.287C219.386 364.253 219.359 364.22 219.332 364.173C218.579 363.22 218.459 361.853 218.966 360.76C217.852 361.667 217.246 363.2 217.332 364.647C217.372 364.98 217.412 365.313 217.526 365.647C217.619 366.047 217.799 366.447 217.999 366.8C218.719 367.953 219.966 368.78 221.306 368.947C222.732 369.127 224.259 368.867 225.352 367.88C226.572 366.773 226.999 365 226.372 363.48L226.286 363.307C226.146 363 225.772 362.467 225.772 362.467ZM223.666 366.667C223.479 366.827 223.172 367 222.932 367.067C222.186 367.333 221.439 366.96 220.999 366.52C221.792 366.333 222.266 365.747 222.406 365.153C222.519 364.62 222.306 364.18 222.219 363.667C222.139 363.173 222.152 362.753 222.332 362.293C222.459 362.547 222.592 362.8 222.752 363C223.266 363.667 224.072 363.96 224.246 364.867C224.272 364.96 224.286 365.053 224.286 365.153C224.306 365.7 224.066 366.3 223.666 366.667Z" fill="#F0F0F0"/>
<path d="M238.667 357L237.333 358.333V359.667H235.333C234.567 359.667 234.08 360.333 234 361L233.333 367.667C233.253 368.333 233.693 369 234.667 369H245.333C246.307 369 246.747 368.333 246.667 367.667L246 361C245.92 360.333 245.373 359.667 244.667 359.667H242.667V358.333L241.333 357H238.667ZM238.667 358.333H241.333V359.667H238.667V358.333ZM239.333 361.667H240.667V363.667H242.667V365H240.667V367H239.333V365H237.333V363.667H239.333V361.667Z" fill="#F0F0F0"/>
<circle cx="361" cy="118" r="16" fill="#D32029"/>
<path d="M365.5 110.83C363.76 110.83 362.09 111.64 361 112.9C359.91 111.64 358.24 110.83 356.5 110.83C353.42 110.83 351 113.24 351 116.33C351 120.1 354.4 123.19 359.55 127.86L361 129.17L362.45 127.86C367.6 123.19 371 120.1 371 116.33C371 113.24 368.58 110.83 365.5 110.83ZM361 125.83V121.83H358L361 114.83V118.83H364" fill="white"/>
<path d="M352.4 146.632L350.992 142.784C350.923 142.613 350.851 142.411 350.776 142.176C350.701 141.941 350.627 141.688 350.552 141.416C350.483 141.688 350.411 141.944 350.336 142.184C350.261 142.419 350.189 142.624 350.12 142.8L348.72 146.632H352.4ZM356.2 151H354.536C354.349 151 354.197 150.955 354.08 150.864C353.963 150.768 353.875 150.651 353.816 150.512L352.952 148.152H348.16L347.296 150.512C347.253 150.635 347.171 150.747 347.048 150.848C346.925 150.949 346.773 151 346.592 151H344.912L349.464 139.432H351.656L356.2 151ZM359.557 141.144V144.352H363.605V146.008H359.557V149.28H364.693V151H357.397V139.432H364.693V141.144H359.557ZM376.873 145.216C376.873 146.064 376.731 146.843 376.449 147.552C376.166 148.261 375.769 148.872 375.257 149.384C374.745 149.896 374.129 150.293 373.409 150.576C372.689 150.859 371.889 151 371.009 151H366.601V139.432H371.009C371.889 139.432 372.689 139.576 373.409 139.864C374.129 140.147 374.745 140.544 375.257 141.056C375.769 141.563 376.166 142.171 376.449 142.88C376.731 143.589 376.873 144.368 376.873 145.216ZM374.665 145.216C374.665 144.581 374.579 144.013 374.409 143.512C374.243 143.005 374.001 142.579 373.681 142.232C373.366 141.88 372.982 141.611 372.529 141.424C372.081 141.237 371.574 141.144 371.009 141.144H368.761V149.288H371.009C371.574 149.288 372.081 149.195 372.529 149.008C372.982 148.821 373.366 148.555 373.681 148.208C374.001 147.856 374.243 147.429 374.409 146.928C374.579 146.421 374.665 145.851 374.665 145.216Z" fill="white"/>
<circle cx="17" cy="17" r="16" fill="#D32029"/>
<path d="M21.5 9.83008C19.76 9.83008 18.09 10.6401 17 11.9001C15.91 10.6401 14.24 9.83008 12.5 9.83008C9.42 9.83008 7 12.2401 7 15.3301C7 19.1001 10.4 22.1901 15.55 26.8601L17 28.1701L18.45 26.8601C23.6 22.1901 27 19.1001 27 15.3301C27 12.2401 24.58 9.83008 21.5 9.83008ZM17 24.8301V20.8301H14L17 13.8301V17.8301H20" fill="white"/>
<path d="M8.4 45.632L6.992 41.784C6.92267 41.6133 6.85067 41.4107 6.776 41.176C6.70133 40.9413 6.62667 40.688 6.552 40.416C6.48267 40.688 6.41067 40.944 6.336 41.184C6.26133 41.4187 6.18933 41.624 6.12 41.8L4.72 45.632H8.4ZM12.2 50H10.536C10.3493 50 10.1973 49.9547 10.08 49.864C9.96267 49.768 9.87467 49.6507 9.816 49.512L8.952 47.152H4.16L3.296 49.512C3.25333 49.6347 3.17067 49.7467 3.048 49.848C2.92533 49.9493 2.77333 50 2.592 50H0.912L5.464 38.432H7.656L12.2 50ZM15.5574 40.144V43.352H19.6054V45.008H15.5574V48.28H20.6934V50H13.3974V38.432H20.6934V40.144H15.5574ZM32.8725 44.216C32.8725 45.064 32.7312 45.8427 32.4485 46.552C32.1658 47.2613 31.7685 47.872 31.2565 48.384C30.7445 48.896 30.1285 49.2933 29.4085 49.576C28.6885 49.8587 27.8885 50 27.0085 50H22.6005V38.432H27.0085C27.8885 38.432 28.6885 38.576 29.4085 38.864C30.1285 39.1467 30.7445 39.544 31.2565 40.056C31.7685 40.5627 32.1658 41.1707 32.4485 41.88C32.7312 42.5893 32.8725 43.368 32.8725 44.216ZM30.6645 44.216C30.6645 43.5813 30.5792 43.0133 30.4085 42.512C30.2432 42.0053 30.0005 41.5787 29.6805 41.232C29.3658 40.88 28.9818 40.6107 28.5285 40.424C28.0805 40.2373 27.5738 40.144 27.0085 40.144H24.7605V48.288H27.0085C27.5738 48.288 28.0805 48.1947 28.5285 48.008C28.9818 47.8213 29.3658 47.5547 29.6805 47.208C30.0005 46.856 30.2432 46.4293 30.4085 45.928C30.5792 45.4213 30.6645 44.8507 30.6645 44.216Z" fill="white"/>
<g filter="url(#filter8_f)">
<path d="M201.957 223.251C201.303 228.821 173.117 234.655 173.117 234.655C173.117 234.655 146.941 223.357 147.7 216.885C148.226 212.403 160.798 210.195 175.781 211.952C190.763 213.71 202.483 218.769 201.957 223.251Z" fill="black" fill-opacity="0.7"/>
</g>
<path d="M194.416 198.433C194.416 211.904 174.208 231.5 174.208 231.5C174.208 231.5 154 213.129 154 198.433C154 187.272 163.047 177 174.208 177C185.368 177 194.416 187.272 194.416 198.433Z" fill="#00CA8E"/>
<path d="M173.595 183.572C174.894 183.572 176.14 184.088 177.059 185.007C177.977 185.926 178.494 187.172 178.494 188.471C178.494 189.77 177.977 191.016 177.059 191.935C176.14 192.854 174.894 193.37 173.595 193.37C172.295 193.37 171.049 192.854 170.131 191.935C169.212 191.016 168.696 189.77 168.696 188.471C168.696 187.172 169.212 185.926 170.131 185.007C171.049 184.088 172.295 183.572 173.595 183.572ZM173.595 195.819C179.008 195.819 183.392 198.012 183.392 200.718V203.168H163.797V200.718C163.797 198.012 168.181 195.819 173.595 195.819Z" fill="white"/>
<rect x="145" y="204" width="58" height="16" rx="3" fill="#00CA8E"/>
<path d="M153.001 206.666C152.028 206.666 151.096 207.052 150.408 207.74C149.72 208.428 149.334 209.36 149.334 210.333C149.334 210.666 149.394 210.999 149.481 211.333H152.201L153.047 209.086C153.247 208.553 154.034 208.499 154.287 209.086L155.667 212.666L156.061 211.719C156.147 211.499 156.381 211.333 156.667 211.333H162.521C162.607 210.999 162.667 210.666 162.667 210.333C162.667 209.36 162.281 208.428 161.593 207.74C160.906 207.052 159.973 206.666 159.001 206.666C157.761 206.666 156.667 207.286 156.001 208.226C155.334 207.286 154.241 206.666 153.001 206.666ZM150.001 212.333C149.824 212.333 149.654 212.403 149.529 212.528C149.404 212.653 149.334 212.823 149.334 212.999C149.334 213.176 149.404 213.346 149.529 213.471C149.654 213.596 149.824 213.666 150.001 213.666H151.627L155.334 217.333C156.001 217.933 156.001 217.933 156.667 217.333L160.374 213.666H162.001C162.177 213.666 162.347 213.596 162.472 213.471C162.597 213.346 162.667 213.176 162.667 212.999C162.667 212.823 162.597 212.653 162.472 212.528C162.347 212.403 162.177 212.333 162.001 212.333H156.934L156.314 213.866C156.047 214.539 155.281 214.446 155.034 213.886L153.667 210.333L153.027 211.886C152.927 212.139 152.701 212.333 152.401 212.333H150.001Z" fill="white"/>
<path d="M177.772 211.467C177.619 211.267 177.432 211.093 177.259 210.92C176.812 210.52 176.306 210.233 175.879 209.813C174.886 208.84 174.666 207.233 175.299 206C174.666 206.153 174.112 206.5 173.639 206.88C171.912 208.267 171.232 210.713 172.046 212.813C172.072 212.88 172.099 212.947 172.099 213.033C172.099 213.18 171.999 213.313 171.866 213.367C171.712 213.433 171.552 213.393 171.426 213.287C171.386 213.253 171.359 213.22 171.332 213.173C170.579 212.22 170.459 210.853 170.966 209.76C169.852 210.667 169.246 212.2 169.332 213.647C169.372 213.98 169.412 214.313 169.526 214.647C169.619 215.047 169.799 215.447 169.999 215.8C170.719 216.953 171.966 217.78 173.306 217.947C174.732 218.127 176.259 217.867 177.352 216.88C178.572 215.773 178.999 214 178.372 212.48L178.286 212.307C178.146 212 177.772 211.467 177.772 211.467ZM175.666 215.667C175.479 215.827 175.172 216 174.932 216.067C174.186 216.333 173.439 215.96 172.999 215.52C173.792 215.333 174.266 214.747 174.406 214.153C174.519 213.62 174.306 213.18 174.219 212.667C174.139 212.173 174.152 211.753 174.332 211.293C174.459 211.547 174.592 211.8 174.752 212C175.266 212.667 176.072 212.96 176.246 213.867C176.272 213.96 176.286 214.053 176.286 214.153C176.306 214.7 176.066 215.3 175.666 215.667Z" fill="white"/>
<path d="M190.667 206L189.333 207.333V208.667H187.333C186.567 208.667 186.08 209.333 186 210L185.333 216.667C185.253 217.333 185.693 218 186.667 218H197.333C198.307 218 198.747 217.333 198.667 216.667L198 210C197.92 209.333 197.373 208.667 196.667 208.667H194.667V207.333L193.333 206H190.667ZM190.667 207.333H193.333V208.667H190.667V207.333ZM191.333 210.667H192.667V212.667H194.667V214H192.667V216H191.333V214H189.333V212.667H191.333V210.667Z" fill="white"/>
<circle cx="174" cy="159" r="12" fill="#D32029"/>
<path d="M176.775 153.924C175.47 153.924 174.218 154.531 173.4 155.476C172.583 154.531 171.33 153.924 170.025 153.924C167.715 153.924 165.9 155.731 165.9 158.049C165.9 160.876 168.45 163.194 172.313 166.696L173.4 167.679L174.488 166.696C178.35 163.194 180.9 160.876 180.9 158.049C180.9 155.731 179.085 153.924 176.775 153.924ZM173.4 165.174V162.174H171.15L173.4 156.924V159.924H175.65" fill="white"/>
<defs>
<filter id="filter0_f" x="101.934" y="195.098" width="82.8763" height="50.8679" filterUnits="userSpaceOnUse" color-interpolation-filters="sRGB">
<feFlood flood-opacity="0" result="BackgroundImageFix"/>
<feBlend mode="normal" in="SourceGraphic" in2="BackgroundImageFix" result="shape"/>
<feGaussianBlur stdDeviation="7" result="effect1_foregroundBlur"/>
</filter>
<filter id="filter1_f" x="135.988" y="73.7695" width="84.9203" height="57.0686" filterUnits="userSpaceOnUse" color-interpolation-filters="sRGB">
<feFlood flood-opacity="0" result="BackgroundImageFix"/>
<feBlend mode="normal" in="SourceGraphic" in2="BackgroundImageFix" result="shape"/>
<feGaussianBlur stdDeviation="7" result="effect1_foregroundBlur"/>
</filter>
<filter id="filter2_f" x="71.9883" y="23.7695" width="84.9203" height="57.0686" filterUnits="userSpaceOnUse" color-interpolation-filters="sRGB">
<feFlood flood-opacity="0" result="BackgroundImageFix"/>
<feBlend mode="normal" in="SourceGraphic" in2="BackgroundImageFix" result="shape"/>
<feGaussianBlur stdDeviation="7" result="effect1_foregroundBlur"/>
</filter>
<filter id="filter3_f" x="49.9883" y="234.77" width="84.9203" height="57.0686" filterUnits="userSpaceOnUse" color-interpolation-filters="sRGB">
<feFlood flood-opacity="0" result="BackgroundImageFix"/>
<feBlend mode="normal" in="SourceGraphic" in2="BackgroundImageFix" result="shape"/>
<feGaussianBlur stdDeviation="7" result="effect1_foregroundBlur"/>
</filter>
<filter id="filter4_f" x="69.9883" y="308.77" width="84.9203" height="57.0686" filterUnits="userSpaceOnUse" color-interpolation-filters="sRGB">
<feFlood flood-opacity="0" result="BackgroundImageFix"/>
<feBlend mode="normal" in="SourceGraphic" in2="BackgroundImageFix" result="shape"/>
<feGaussianBlur stdDeviation="7" result="effect1_foregroundBlur"/>
</filter>
<filter id="filter5_f" x="47.9883" y="405.77" width="84.9203" height="57.0686" filterUnits="userSpaceOnUse" color-interpolation-filters="sRGB">
<feFlood flood-opacity="0" result="BackgroundImageFix"/>
<feBlend mode="normal" in="SourceGraphic" in2="BackgroundImageFix" result="shape"/>
<feGaussianBlur stdDeviation="7" result="effect1_foregroundBlur"/>
</filter>
<filter id="filter6_f" x="360.988" y="367.77" width="84.9203" height="57.0686" filterUnits="userSpaceOnUse" color-interpolation-filters="sRGB">
<feFlood flood-opacity="0" result="BackgroundImageFix"/>
<feBlend mode="normal" in="SourceGraphic" in2="BackgroundImageFix" result="shape"/>
<feGaussianBlur stdDeviation="7" result="effect1_foregroundBlur"/>
</filter>
<filter id="filter7_f" x="188.988" y="345.77" width="84.9203" height="57.0686" filterUnits="userSpaceOnUse" color-interpolation-filters="sRGB">
<feFlood flood-opacity="0" result="BackgroundImageFix"/>
<feBlend mode="normal" in="SourceGraphic" in2="BackgroundImageFix" result="shape"/>
<feGaussianBlur stdDeviation="7" result="effect1_foregroundBlur"/>
</filter>
<filter id="filter8_f" x="131.988" y="194.77" width="84.9203" height="57.0686" filterUnits="userSpaceOnUse" color-interpolation-filters="sRGB">
<feFlood flood-opacity="0" result="BackgroundImageFix"/>
<feBlend mode="normal" in="SourceGraphic" in2="BackgroundImageFix" result="shape"/>
<feGaussianBlur stdDeviation="7" result="effect1_foregroundBlur"/>
</filter>
</defs>
</svg>
