<svg width="446" height="463" viewBox="0 0 446 463" fill="none" xmlns="http://www.w3.org/2000/svg">
<path d="M181.039 199.523C181.215 199.523 181.371 199.591 181.507 199.727L182.779 201.107C182.075 201.979 181.207 202.647 180.175 203.111C179.151 203.575 177.919 203.807 176.479 203.807C175.191 203.807 174.031 203.587 172.999 203.147C171.975 202.707 171.099 202.095 170.371 201.311C169.643 200.527 169.083 199.591 168.691 198.503C168.307 197.415 168.115 196.227 168.115 194.939C168.115 193.635 168.323 192.443 168.739 191.363C169.155 190.275 169.739 189.339 170.491 188.555C171.251 187.771 172.155 187.163 173.203 186.731C174.251 186.291 175.411 186.071 176.683 186.071C177.947 186.071 179.067 186.279 180.043 186.695C181.027 187.111 181.863 187.655 182.551 188.327L181.471 189.827C181.407 189.923 181.323 190.007 181.219 190.079C181.123 190.151 180.987 190.187 180.811 190.187C180.691 190.187 180.567 190.155 180.439 190.091C180.311 190.019 180.171 189.935 180.019 189.839C179.867 189.735 179.691 189.623 179.491 189.503C179.291 189.383 179.059 189.275 178.795 189.179C178.531 189.075 178.223 188.991 177.871 188.927C177.527 188.855 177.127 188.819 176.671 188.819C175.895 188.819 175.183 188.959 174.535 189.239C173.895 189.511 173.343 189.911 172.879 190.439C172.415 190.959 172.055 191.599 171.799 192.359C171.543 193.111 171.415 193.971 171.415 194.939C171.415 195.915 171.551 196.783 171.823 197.543C172.103 198.303 172.479 198.943 172.951 199.463C173.423 199.983 173.979 200.383 174.619 200.663C175.259 200.935 175.947 201.071 176.683 201.071C177.123 201.071 177.519 201.047 177.871 200.999C178.231 200.951 178.559 200.875 178.855 200.771C179.159 200.667 179.443 200.535 179.707 200.375C179.979 200.207 180.247 200.003 180.511 199.763C180.591 199.691 180.675 199.635 180.763 199.595C180.851 199.547 180.943 199.523 181.039 199.523ZM191.027 198.359C190.171 198.399 189.451 198.475 188.867 198.587C188.283 198.691 187.815 198.827 187.463 198.995C187.111 199.163 186.859 199.359 186.707 199.583C186.555 199.807 186.479 200.051 186.479 200.315C186.479 200.835 186.631 201.207 186.935 201.431C187.247 201.655 187.651 201.767 188.147 201.767C188.755 201.767 189.279 201.659 189.719 201.443C190.167 201.219 190.603 200.883 191.027 200.435V198.359ZM184.235 193.019C185.651 191.723 187.355 191.075 189.347 191.075C190.067 191.075 190.711 191.195 191.279 191.435C191.847 191.667 192.327 191.995 192.719 192.419C193.111 192.835 193.407 193.335 193.607 193.919C193.815 194.503 193.919 195.143 193.919 195.839V203.615H192.575C192.295 203.615 192.079 203.575 191.927 203.495C191.775 203.407 191.655 203.235 191.567 202.979L191.303 202.091C190.991 202.371 190.687 202.619 190.391 202.835C190.095 203.043 189.787 203.219 189.467 203.363C189.147 203.507 188.803 203.615 188.435 203.687C188.075 203.767 187.675 203.807 187.235 203.807C186.715 203.807 186.235 203.739 185.795 203.603C185.355 203.459 184.975 203.247 184.655 202.967C184.335 202.687 184.087 202.339 183.911 201.923C183.735 201.507 183.647 201.023 183.647 200.471C183.647 200.159 183.699 199.851 183.803 199.547C183.907 199.235 184.075 198.939 184.307 198.659C184.547 198.379 184.855 198.115 185.231 197.867C185.607 197.619 186.067 197.403 186.611 197.219C187.163 197.035 187.803 196.887 188.531 196.775C189.259 196.655 190.091 196.583 191.027 196.559V195.839C191.027 195.015 190.851 194.407 190.499 194.015C190.147 193.615 189.639 193.415 188.975 193.415C188.495 193.415 188.095 193.471 187.775 193.583C187.463 193.695 187.187 193.823 186.947 193.967C186.707 194.103 186.487 194.227 186.287 194.339C186.095 194.451 185.879 194.507 185.639 194.507C185.431 194.507 185.255 194.455 185.111 194.351C184.967 194.239 184.851 194.111 184.763 193.967L184.235 193.019ZM199.71 185.783V203.615H196.746V185.783H199.71ZM205.663 185.783V203.615H202.699V185.783H205.663ZM216.548 196.043C216.548 195.659 216.492 195.299 216.38 194.963C216.276 194.619 216.116 194.319 215.9 194.063C215.684 193.807 215.408 193.607 215.072 193.463C214.744 193.311 214.36 193.235 213.92 193.235C213.064 193.235 212.388 193.479 211.892 193.967C211.404 194.455 211.092 195.147 210.956 196.043H216.548ZM210.896 197.831C210.944 198.463 211.056 199.011 211.232 199.475C211.408 199.931 211.64 200.311 211.928 200.615C212.216 200.911 212.556 201.135 212.948 201.287C213.348 201.431 213.788 201.503 214.268 201.503C214.748 201.503 215.16 201.447 215.504 201.335C215.856 201.223 216.16 201.099 216.416 200.963C216.68 200.827 216.908 200.703 217.1 200.591C217.3 200.479 217.492 200.423 217.676 200.423C217.924 200.423 218.108 200.515 218.228 200.699L219.08 201.779C218.752 202.163 218.384 202.487 217.976 202.751C217.568 203.007 217.14 203.215 216.692 203.375C216.252 203.527 215.8 203.635 215.336 203.699C214.88 203.763 214.436 203.795 214.004 203.795C213.148 203.795 212.352 203.655 211.616 203.375C210.88 203.087 210.24 202.667 209.696 202.115C209.152 201.555 208.724 200.867 208.412 200.051C208.1 199.227 207.944 198.275 207.944 197.195C207.944 196.355 208.08 195.567 208.352 194.831C208.624 194.087 209.012 193.443 209.516 192.899C210.028 192.347 210.648 191.911 211.376 191.591C212.112 191.271 212.94 191.111 213.86 191.111C214.636 191.111 215.352 191.235 216.008 191.483C216.664 191.731 217.228 192.095 217.7 192.575C218.172 193.047 218.54 193.631 218.804 194.327C219.076 195.015 219.212 195.803 219.212 196.691C219.212 197.139 219.164 197.443 219.068 197.603C218.972 197.755 218.788 197.831 218.516 197.831H210.896ZM224.233 193.439C224.617 192.703 225.073 192.127 225.601 191.711C226.129 191.287 226.753 191.075 227.473 191.075C228.041 191.075 228.497 191.199 228.841 191.447L228.649 193.667C228.609 193.811 228.549 193.915 228.469 193.979C228.397 194.035 228.297 194.063 228.169 194.063C228.049 194.063 227.869 194.043 227.629 194.003C227.397 193.963 227.169 193.943 226.945 193.943C226.617 193.943 226.325 193.991 226.069 194.087C225.813 194.183 225.581 194.323 225.373 194.507C225.173 194.683 224.993 194.899 224.833 195.155C224.681 195.411 224.537 195.703 224.401 196.031V203.615H221.437V191.303H223.177C223.481 191.303 223.693 191.359 223.813 191.471C223.933 191.575 224.013 191.767 224.053 192.047L224.233 193.439Z" fill="white"/>
<g filter="url(#filter0_f)">
<path d="M171.048 216.129C170.957 221.705 143.372 230.294 143.372 230.294C143.372 230.294 116.066 221.73 116.172 215.252C116.245 210.765 128.589 207.323 143.743 207.566C158.896 207.808 171.121 211.642 171.048 216.129Z" fill="black" fill-opacity="0.7"/>
</g>
<path d="M163.172 195.369C163.172 208.397 143.581 227.346 143.581 227.346C143.581 227.346 123.99 209.581 123.99 195.369C123.99 184.576 132.761 174.643 143.581 174.643C154.401 174.643 163.172 184.576 163.172 195.369Z" fill="#D32029"/>
<path d="M137.949 192.78C139.456 195.712 141.883 198.115 144.845 199.606L147.147 197.328C147.44 197.038 147.849 196.955 148.215 197.069C149.387 197.452 150.643 197.659 151.951 197.659C152.228 197.659 152.495 197.768 152.691 197.962C152.887 198.157 152.997 198.42 152.997 198.695V202.32C152.997 202.595 152.887 202.859 152.691 203.053C152.495 203.247 152.228 203.356 151.951 203.356C147.232 203.356 142.707 201.501 139.371 198.199C136.035 194.896 134.16 190.417 134.16 185.747C134.16 185.472 134.27 185.209 134.467 185.014C134.663 184.82 134.929 184.711 135.207 184.711H138.869C139.147 184.711 139.413 184.82 139.609 185.014C139.806 185.209 139.916 185.472 139.916 185.747C139.916 187.042 140.125 188.285 140.512 189.445C140.628 189.807 140.544 190.211 140.251 190.501L137.949 192.78Z" fill="white"/>
<g filter="url(#filter1_f)">
<path d="M264.957 125.251C264.303 130.821 236.117 136.655 236.117 136.655C236.117 136.655 209.941 125.357 210.7 118.885C211.226 114.403 223.798 112.195 238.781 113.952C253.763 115.71 265.483 120.769 264.957 125.251Z" fill="black" fill-opacity="0.7"/>
</g>
<path d="M257.416 100.433C257.416 113.904 237.208 133.5 237.208 133.5C237.208 133.5 217 115.129 217 100.433C217 89.2721 226.047 79 237.208 79C248.368 79 257.416 89.2721 257.416 100.433Z" fill="#E7B501"/>
<path d="M236.595 85.5723C237.894 85.5723 239.14 86.0884 240.059 87.0071C240.977 87.9258 241.494 89.1719 241.494 90.4711C241.494 91.7704 240.977 93.0165 240.059 93.9352C239.14 94.8539 237.894 95.37 236.595 95.37C235.295 95.37 234.049 94.8539 233.131 93.9352C232.212 93.0165 231.696 91.7704 231.696 90.4711C231.696 89.1719 232.212 87.9258 233.131 87.0071C234.049 86.0884 235.295 85.5723 236.595 85.5723ZM236.595 97.8195C242.008 97.8195 246.392 100.012 246.392 102.718V105.168H226.797V102.718C226.797 100.012 231.181 97.8195 236.595 97.8195Z" fill="white"/>
<rect x="208" y="106" width="58" height="16" rx="3" fill="#E7B501"/>
<path d="M216.001 108.666C215.028 108.666 214.096 109.052 213.408 109.74C212.72 110.428 212.334 111.36 212.334 112.333C212.334 112.666 212.394 112.999 212.481 113.333H215.201L216.047 111.086C216.247 110.553 217.034 110.499 217.287 111.086L218.667 114.666L219.061 113.719C219.147 113.499 219.381 113.333 219.667 113.333H225.521C225.607 112.999 225.667 112.666 225.667 112.333C225.667 111.36 225.281 110.428 224.593 109.74C223.906 109.052 222.973 108.666 222.001 108.666C220.761 108.666 219.667 109.286 219.001 110.226C218.334 109.286 217.241 108.666 216.001 108.666ZM213.001 114.333C212.824 114.333 212.654 114.403 212.529 114.528C212.404 114.653 212.334 114.823 212.334 114.999C212.334 115.176 212.404 115.346 212.529 115.471C212.654 115.596 212.824 115.666 213.001 115.666H214.627L218.334 119.333C219.001 119.933 219.001 119.933 219.667 119.333L223.374 115.666H225.001C225.177 115.666 225.347 115.596 225.472 115.471C225.597 115.346 225.667 115.176 225.667 114.999C225.667 114.823 225.597 114.653 225.472 114.528C225.347 114.403 225.177 114.333 225.001 114.333H219.934L219.314 115.866C219.047 116.539 218.281 116.446 218.034 115.886L216.667 112.333L216.027 113.886C215.927 114.139 215.701 114.333 215.401 114.333H213.001Z" fill="white"/>
<path d="M240.772 113.467C240.619 113.267 240.432 113.093 240.259 112.92C239.812 112.52 239.306 112.233 238.879 111.813C237.886 110.84 237.666 109.233 238.299 108C237.666 108.153 237.112 108.5 236.639 108.88C234.912 110.267 234.232 112.713 235.046 114.813C235.072 114.88 235.099 114.947 235.099 115.033C235.099 115.18 234.999 115.313 234.866 115.367C234.712 115.433 234.552 115.393 234.426 115.287C234.386 115.253 234.359 115.22 234.332 115.173C233.579 114.22 233.459 112.853 233.966 111.76C232.852 112.667 232.246 114.2 232.332 115.647C232.372 115.98 232.412 116.313 232.526 116.647C232.619 117.047 232.799 117.447 232.999 117.8C233.719 118.953 234.966 119.78 236.306 119.947C237.732 120.127 239.259 119.867 240.352 118.88C241.572 117.773 241.999 116 241.372 114.48L241.286 114.307C241.146 114 240.772 113.467 240.772 113.467ZM238.666 117.667C238.479 117.827 238.172 118 237.932 118.067C237.186 118.333 236.439 117.96 235.999 117.52C236.792 117.333 237.266 116.747 237.406 116.153C237.519 115.62 237.306 115.18 237.219 114.667C237.139 114.173 237.152 113.753 237.332 113.293C237.459 113.547 237.592 113.8 237.752 114C238.266 114.667 239.072 114.96 239.246 115.867C239.272 115.96 239.286 116.053 239.286 116.153C239.306 116.7 239.066 117.3 238.666 117.667Z" fill="white"/>
<path d="M253.667 108L252.333 109.333V110.667H250.333C249.567 110.667 249.08 111.333 249 112L248.333 118.667C248.253 119.333 248.693 120 249.667 120H260.333C261.307 120 261.747 119.333 261.667 118.667L261 112C260.92 111.333 260.373 110.667 259.667 110.667H257.667V109.333L256.333 108H253.667ZM253.667 109.333H256.333V110.667H253.667V109.333ZM254.333 112.667H255.667V114.667H257.667V116H255.667V118H254.333V116H252.333V114.667H254.333V112.667Z" fill="white"/>
<g filter="url(#filter2_f)">
<path d="M205.957 102.251C205.303 107.821 177.117 113.655 177.117 113.655C177.117 113.655 150.941 102.357 151.7 95.8853C152.226 91.4031 164.798 89.1945 179.781 90.9524C194.763 92.7102 206.483 97.7688 205.957 102.251Z" fill="black" fill-opacity="0.7"/>
</g>
<path d="M198.416 77.4326C198.416 90.9045 178.208 110.5 178.208 110.5C178.208 110.5 158 92.1292 158 77.4326C158 66.2721 167.047 56 178.208 56C189.368 56 198.416 66.2721 198.416 77.4326Z" fill="#595959"/>
<path d="M177.595 62.5723C178.894 62.5723 180.14 63.0884 181.059 64.0071C181.977 64.9258 182.494 66.1719 182.494 67.4711C182.494 68.7704 181.977 70.0165 181.059 70.9352C180.14 71.8539 178.894 72.37 177.595 72.37C176.295 72.37 175.049 71.8539 174.131 70.9352C173.212 70.0165 172.696 68.7704 172.696 67.4711C172.696 66.1719 173.212 64.9258 174.131 64.0071C175.049 63.0884 176.295 62.5723 177.595 62.5723ZM177.595 74.8195C183.008 74.8195 187.392 77.0117 187.392 79.7183V82.1678H167.797V79.7183C167.797 77.0117 172.181 74.8195 177.595 74.8195Z" fill="white"/>
<rect x="167" y="83" width="22" height="16" rx="3" fill="#595959"/>
<path d="M176.667 85L175.333 86.3333V87.6667H173.333C172.567 87.6667 172.08 88.3333 172 89L171.333 95.6667C171.253 96.3333 171.693 97 172.667 97H183.333C184.307 97 184.747 96.3333 184.667 95.6667L184 89C183.92 88.3333 183.373 87.6667 182.667 87.6667H180.667V86.3333L179.333 85H176.667ZM176.667 86.3333H179.333V87.6667H176.667V86.3333ZM177.333 89.6667H178.667V91.6667H180.667V93H178.667V95H177.333V93H175.333V91.6667H177.333V89.6667Z" fill="#F0F0F0"/>
<g filter="url(#filter3_f)">
<path d="M141.957 52.251C141.303 57.8206 113.117 63.6553 113.117 63.6553C113.117 63.6553 86.9409 52.3567 87.7002 45.8853C88.226 41.4031 100.798 39.1945 115.781 40.9524C130.763 42.7102 142.483 47.7688 141.957 52.251Z" fill="black" fill-opacity="0.7"/>
</g>
<path d="M134.416 27.4326C134.416 40.9045 114.208 60.5 114.208 60.5C114.208 60.5 94 42.1292 94 27.4326C94 16.2721 103.047 6 114.208 6C125.368 6 134.416 16.2721 134.416 27.4326Z" fill="#177DDC"/>
<path d="M113.595 12.5723C114.894 12.5723 116.14 13.0884 117.059 14.0071C117.977 14.9258 118.494 16.1719 118.494 17.4711C118.494 18.7704 117.977 20.0165 117.059 20.9352C116.14 21.8539 114.894 22.37 113.595 22.37C112.295 22.37 111.049 21.8539 110.131 20.9352C109.212 20.0165 108.696 18.7704 108.696 17.4711C108.696 16.1719 109.212 14.9258 110.131 14.0071C111.049 13.0884 112.295 12.5723 113.595 12.5723ZM113.595 24.8195C119.008 24.8195 123.392 27.0117 123.392 29.7183V32.1678H103.797V29.7183C103.797 27.0117 108.181 24.8195 113.595 24.8195Z" fill="white"/>
<rect x="85" y="33" width="58" height="16" rx="3" fill="#177DDC"/>
<path d="M93.0007 35.666C92.0282 35.666 91.0956 36.0523 90.4079 36.74C89.7203 37.4276 89.334 38.3602 89.334 39.3327C89.334 39.666 89.394 39.9993 89.4807 40.3327H92.2007L93.0473 38.086C93.2473 37.5527 94.034 37.4993 94.2873 38.086L95.6673 41.666L96.0607 40.7193C96.1473 40.4993 96.3807 40.3327 96.6673 40.3327H102.521C102.607 39.9993 102.667 39.666 102.667 39.3327C102.667 38.3602 102.281 37.4276 101.593 36.74C100.906 36.0523 99.9731 35.666 99.0007 35.666C97.7607 35.666 96.6673 36.286 96.0007 37.226C95.334 36.286 94.2407 35.666 93.0007 35.666ZM90.0007 41.3327C89.8238 41.3327 89.6543 41.4029 89.5292 41.5279C89.4042 41.653 89.334 41.8225 89.334 41.9993C89.334 42.1762 89.4042 42.3457 89.5292 42.4708C89.6543 42.5958 89.8238 42.666 90.0007 42.666H91.6273L95.334 46.3327C96.0007 46.9327 96.0007 46.9327 96.6673 46.3327L100.374 42.666H102.001C102.177 42.666 102.347 42.5958 102.472 42.4708C102.597 42.3457 102.667 42.1762 102.667 41.9993C102.667 41.8225 102.597 41.653 102.472 41.5279C102.347 41.4029 102.177 41.3327 102.001 41.3327H96.934L96.314 42.866C96.0473 43.5393 95.2807 43.446 95.034 42.886L93.6673 39.3327L93.0273 40.886C92.9273 41.1393 92.7007 41.3327 92.4007 41.3327H90.0007Z" fill="#8DCFF8"/>
<path d="M117.772 40.4667C117.619 40.2667 117.432 40.0933 117.259 39.92C116.812 39.52 116.306 39.2333 115.879 38.8133C114.886 37.84 114.666 36.2333 115.299 35C114.666 35.1533 114.112 35.5 113.639 35.88C111.912 37.2667 111.232 39.7133 112.046 41.8133C112.072 41.88 112.099 41.9467 112.099 42.0333C112.099 42.18 111.999 42.3133 111.866 42.3667C111.712 42.4333 111.552 42.3933 111.426 42.2867C111.386 42.2533 111.359 42.22 111.332 42.1733C110.579 41.22 110.459 39.8533 110.966 38.76C109.852 39.6667 109.246 41.2 109.332 42.6467C109.372 42.98 109.412 43.3133 109.526 43.6467C109.619 44.0467 109.799 44.4467 109.999 44.8C110.719 45.9533 111.966 46.78 113.306 46.9467C114.732 47.1267 116.259 46.8667 117.352 45.88C118.572 44.7733 118.999 43 118.372 41.48L118.286 41.3067C118.146 41 117.772 40.4667 117.772 40.4667ZM115.666 44.6667C115.479 44.8267 115.172 45 114.932 45.0667C114.186 45.3333 113.439 44.96 112.999 44.52C113.792 44.3333 114.266 43.7467 114.406 43.1533C114.519 42.62 114.306 42.18 114.219 41.6667C114.139 41.1733 114.152 40.7533 114.332 40.2933C114.459 40.5467 114.592 40.8 114.752 41C115.266 41.6667 116.072 41.96 116.246 42.8667C116.272 42.96 116.286 43.0533 116.286 43.1533C116.306 43.7 116.066 44.3 115.666 44.6667Z" fill="#8DCFF8"/>
<path d="M130.667 35L129.333 36.3333V37.6667H127.333C126.567 37.6667 126.08 38.3333 126 39L125.333 45.6667C125.253 46.3333 125.693 47 126.667 47H137.333C138.307 47 138.747 46.3333 138.667 45.6667L138 39C137.92 38.3333 137.373 37.6667 136.667 37.6667H134.667V36.3333L133.333 35H130.667ZM130.667 36.3333H133.333V37.6667H130.667V36.3333ZM131.333 39.6667H132.667V41.6667H134.667V43H132.667V45H131.333V43H129.333V41.6667H131.333V39.6667Z" fill="#8DCFF8"/>
<g filter="url(#filter4_f)">
<path d="M119.957 263.251C119.303 268.821 91.1171 274.655 91.1171 274.655C91.1171 274.655 64.9409 263.357 65.7002 256.885C66.226 252.403 78.7981 250.195 93.7807 251.952C108.763 253.71 120.483 258.769 119.957 263.251Z" fill="black" fill-opacity="0.7"/>
</g>
<path d="M112.416 238.433C112.416 251.904 92.2079 271.5 92.2079 271.5C92.2079 271.5 72 253.129 72 238.433C72 227.272 81.0474 217 92.2079 217C103.368 217 112.416 227.272 112.416 238.433Z" fill="#595959"/>
<path d="M91.5946 223.572C92.8939 223.572 94.1399 224.088 95.0587 225.007C95.9774 225.926 96.4935 227.172 96.4935 228.471C96.4935 229.77 95.9774 231.016 95.0587 231.935C94.1399 232.854 92.8939 233.37 91.5946 233.37C90.2954 233.37 89.0493 232.854 88.1306 231.935C87.2119 231.016 86.6958 229.77 86.6958 228.471C86.6958 227.172 87.2119 225.926 88.1306 225.007C89.0493 224.088 90.2954 223.572 91.5946 223.572ZM91.5946 235.819C97.0079 235.819 101.392 238.012 101.392 240.718V243.168H81.7969V240.718C81.7969 238.012 86.1814 235.819 91.5946 235.819Z" fill="white"/>
<rect x="81" y="244" width="22" height="16" rx="3" fill="#595959"/>
<path d="M95.7724 251.467C95.6191 251.267 95.4324 251.093 95.2591 250.92C94.8124 250.52 94.3057 250.233 93.8791 249.813C92.8857 248.84 92.6657 247.233 93.2991 246C92.6657 246.153 92.1124 246.5 91.6391 246.88C89.9124 248.267 89.2324 250.713 90.0457 252.813C90.0724 252.88 90.0991 252.947 90.0991 253.033C90.0991 253.18 89.9991 253.313 89.8657 253.367C89.7124 253.433 89.5524 253.393 89.4257 253.287C89.3857 253.253 89.3591 253.22 89.3324 253.173C88.5791 252.22 88.4591 250.853 88.9657 249.76C87.8524 250.667 87.2457 252.2 87.3324 253.647C87.3724 253.98 87.4124 254.313 87.5257 254.647C87.6191 255.047 87.7991 255.447 87.9991 255.8C88.7191 256.953 89.9657 257.78 91.3057 257.947C92.7324 258.127 94.2591 257.867 95.3524 256.88C96.5724 255.773 96.9991 254 96.3724 252.48L96.2857 252.307C96.1457 252 95.7724 251.467 95.7724 251.467ZM93.6657 255.667C93.4791 255.827 93.1724 256 92.9324 256.067C92.1857 256.333 91.4391 255.96 90.9991 255.52C91.7924 255.333 92.2657 254.747 92.4057 254.153C92.5191 253.62 92.3057 253.18 92.2191 252.667C92.1391 252.173 92.1524 251.753 92.3324 251.293C92.4591 251.547 92.5924 251.8 92.7524 252C93.2657 252.667 94.0724 252.96 94.2457 253.867C94.2724 253.96 94.2857 254.053 94.2857 254.153C94.3057 254.7 94.0657 255.3 93.6657 255.667Z" fill="#F0F0F0"/>
<g filter="url(#filter5_f)">
<path d="M139.957 357.251C139.303 362.821 111.117 368.655 111.117 368.655C111.117 368.655 84.9409 357.357 85.7002 350.885C86.226 346.403 98.7981 344.195 113.781 345.952C128.763 347.71 140.483 352.769 139.957 357.251Z" fill="black" fill-opacity="0.7"/>
</g>
<path d="M132.416 332.433C132.416 345.904 112.208 365.5 112.208 365.5C112.208 365.5 92 347.129 92 332.433C92 321.272 101.047 311 112.208 311C123.368 311 132.416 321.272 132.416 332.433Z" fill="#177DDC"/>
<path d="M111.595 317.572C112.894 317.572 114.14 318.088 115.059 319.007C115.977 319.926 116.494 321.172 116.494 322.471C116.494 323.77 115.977 325.016 115.059 325.935C114.14 326.854 112.894 327.37 111.595 327.37C110.295 327.37 109.049 326.854 108.131 325.935C107.212 325.016 106.696 323.77 106.696 322.471C106.696 321.172 107.212 319.926 108.131 319.007C109.049 318.088 110.295 317.572 111.595 317.572ZM111.595 329.819C117.008 329.819 121.392 332.012 121.392 334.718V337.168H101.797V334.718C101.797 332.012 106.181 329.819 111.595 329.819Z" fill="white"/>
<rect x="83" y="338" width="58" height="16" rx="3" fill="#177DDC"/>
<path d="M91.0007 340.666C90.0282 340.666 89.0956 341.052 88.4079 341.74C87.7203 342.428 87.334 343.36 87.334 344.333C87.334 344.666 87.394 344.999 87.4807 345.333H90.2007L91.0473 343.086C91.2473 342.553 92.034 342.499 92.2873 343.086L93.6673 346.666L94.0607 345.719C94.1473 345.499 94.3807 345.333 94.6673 345.333H100.521C100.607 344.999 100.667 344.666 100.667 344.333C100.667 343.36 100.281 342.428 99.5934 341.74C98.9057 341.052 97.9731 340.666 97.0007 340.666C95.7607 340.666 94.6673 341.286 94.0007 342.226C93.334 341.286 92.2407 340.666 91.0007 340.666ZM88.0007 346.333C87.8238 346.333 87.6543 346.403 87.5292 346.528C87.4042 346.653 87.334 346.823 87.334 346.999C87.334 347.176 87.4042 347.346 87.5292 347.471C87.6543 347.596 87.8238 347.666 88.0007 347.666H89.6273L93.334 351.333C94.0007 351.933 94.0007 351.933 94.6673 351.333L98.374 347.666H100.001C100.177 347.666 100.347 347.596 100.472 347.471C100.597 347.346 100.667 347.176 100.667 346.999C100.667 346.823 100.597 346.653 100.472 346.528C100.347 346.403 100.177 346.333 100.001 346.333H94.934L94.314 347.866C94.0473 348.539 93.2807 348.446 93.034 347.886L91.6673 344.333L91.0273 345.886C90.9273 346.139 90.7007 346.333 90.4007 346.333H88.0007Z" fill="#8DCFF8"/>
<path d="M115.772 345.467C115.619 345.267 115.432 345.093 115.259 344.92C114.812 344.52 114.306 344.233 113.879 343.813C112.886 342.84 112.666 341.233 113.299 340C112.666 340.153 112.112 340.5 111.639 340.88C109.912 342.267 109.232 344.713 110.046 346.813C110.072 346.88 110.099 346.947 110.099 347.033C110.099 347.18 109.999 347.313 109.866 347.367C109.712 347.433 109.552 347.393 109.426 347.287C109.386 347.253 109.359 347.22 109.332 347.173C108.579 346.22 108.459 344.853 108.966 343.76C107.852 344.667 107.246 346.2 107.332 347.647C107.372 347.98 107.412 348.313 107.526 348.647C107.619 349.047 107.799 349.447 107.999 349.8C108.719 350.953 109.966 351.78 111.306 351.947C112.732 352.127 114.259 351.867 115.352 350.88C116.572 349.773 116.999 348 116.372 346.48L116.286 346.307C116.146 346 115.772 345.467 115.772 345.467ZM113.666 349.667C113.479 349.827 113.172 350 112.932 350.067C112.186 350.333 111.439 349.96 110.999 349.52C111.792 349.333 112.266 348.747 112.406 348.153C112.519 347.62 112.306 347.18 112.219 346.667C112.139 346.173 112.152 345.753 112.332 345.293C112.459 345.547 112.592 345.8 112.752 346C113.266 346.667 114.072 346.96 114.246 347.867C114.272 347.96 114.286 348.053 114.286 348.153C114.306 348.7 114.066 349.3 113.666 349.667Z" fill="#8DCFF8"/>
<path d="M128.667 340L127.333 341.333V342.667H125.333C124.567 342.667 124.08 343.333 124 344L123.333 350.667C123.253 351.333 123.693 352 124.667 352H135.333C136.307 352 136.747 351.333 136.667 350.667L136 344C135.92 343.333 135.373 342.667 134.667 342.667H132.667V341.333L131.333 340H128.667ZM128.667 341.333H131.333V342.667H128.667V341.333ZM129.333 344.667H130.667V346.667H132.667V348H130.667V350H129.333V348H127.333V346.667H129.333V344.667Z" fill="#8DCFF8"/>
<g filter="url(#filter6_f)">
<path d="M117.957 434.251C117.303 439.821 89.1171 445.655 89.1171 445.655C89.1171 445.655 62.9409 434.357 63.7002 427.885C64.226 423.403 76.7981 421.195 91.7807 422.952C106.763 424.71 118.483 429.769 117.957 434.251Z" fill="black" fill-opacity="0.7"/>
</g>
<path d="M110.416 409.433C110.416 422.904 90.2079 442.5 90.2079 442.5C90.2079 442.5 70 424.129 70 409.433C70 398.272 79.0474 388 90.2079 388C101.368 388 110.416 398.272 110.416 409.433Z" fill="#434343"/>
<path d="M89.5946 394.572C90.8939 394.572 92.1399 395.088 93.0587 396.007C93.9774 396.926 94.4935 398.172 94.4935 399.471C94.4935 400.77 93.9774 402.016 93.0587 402.935C92.1399 403.854 90.8939 404.37 89.5946 404.37C88.2954 404.37 87.0493 403.854 86.1306 402.935C85.2119 402.016 84.6958 400.77 84.6958 399.471C84.6958 398.172 85.2119 396.926 86.1306 396.007C87.0493 395.088 88.2954 394.572 89.5946 394.572ZM89.5946 406.819C95.0079 406.819 99.3924 409.012 99.3924 411.718V414.168H79.7969V411.718C79.7969 409.012 84.1814 406.819 89.5946 406.819Z" fill="white"/>
<rect x="70" y="415" width="40" height="16" rx="3" fill="#434343"/>
<path d="M78.0007 417.666C77.0282 417.666 76.0956 418.052 75.4079 418.74C74.7203 419.428 74.334 420.36 74.334 421.333C74.334 421.666 74.394 421.999 74.4807 422.333H77.2007L78.0473 420.086C78.2473 419.553 79.034 419.499 79.2873 420.086L80.6673 423.666L81.0607 422.719C81.1473 422.499 81.3807 422.333 81.6673 422.333H87.5207C87.6073 421.999 87.6673 421.666 87.6673 421.333C87.6673 420.36 87.281 419.428 86.5934 418.74C85.9057 418.052 84.9731 417.666 84.0007 417.666C82.7607 417.666 81.6673 418.286 81.0007 419.226C80.334 418.286 79.2407 417.666 78.0007 417.666ZM75.0007 423.333C74.8238 423.333 74.6543 423.403 74.5292 423.528C74.4042 423.653 74.334 423.823 74.334 423.999C74.334 424.176 74.4042 424.346 74.5292 424.471C74.6543 424.596 74.8238 424.666 75.0007 424.666H76.6273L80.334 428.333C81.0007 428.933 81.0007 428.933 81.6673 428.333L85.374 424.666H87.0007C87.1775 424.666 87.347 424.596 87.4721 424.471C87.5971 424.346 87.6673 424.176 87.6673 423.999C87.6673 423.823 87.5971 423.653 87.4721 423.528C87.347 423.403 87.1775 423.333 87.0007 423.333H81.934L81.314 424.866C81.0473 425.539 80.2807 425.446 80.034 424.886L78.6673 421.333L78.0273 422.886C77.9273 423.139 77.7007 423.333 77.4007 423.333H75.0007Z" fill="#D9D9D9"/>
<path d="M102.772 422.467C102.619 422.267 102.432 422.093 102.259 421.92C101.812 421.52 101.306 421.233 100.879 420.813C99.8857 419.84 99.6657 418.233 100.299 417C99.6657 417.153 99.1124 417.5 98.6391 417.88C96.9124 419.267 96.2324 421.713 97.0457 423.813C97.0724 423.88 97.0991 423.947 97.0991 424.033C97.0991 424.18 96.9991 424.313 96.8657 424.367C96.7124 424.433 96.5524 424.393 96.4257 424.287C96.3857 424.253 96.3591 424.22 96.3324 424.173C95.5791 423.22 95.4591 421.853 95.9657 420.76C94.8524 421.667 94.2457 423.2 94.3324 424.647C94.3724 424.98 94.4124 425.313 94.5257 425.647C94.6191 426.047 94.7991 426.447 94.9991 426.8C95.7191 427.953 96.9657 428.78 98.3057 428.947C99.7324 429.127 101.259 428.867 102.352 427.88C103.572 426.773 103.999 425 103.372 423.48L103.286 423.307C103.146 423 102.772 422.467 102.772 422.467ZM100.666 426.667C100.479 426.827 100.172 427 99.9324 427.067C99.1857 427.333 98.4391 426.96 97.9991 426.52C98.7924 426.333 99.2657 425.747 99.4057 425.153C99.5191 424.62 99.3057 424.18 99.2191 423.667C99.1391 423.173 99.1524 422.753 99.3324 422.293C99.4591 422.547 99.5924 422.8 99.7524 423C100.266 423.667 101.072 423.96 101.246 424.867C101.272 424.96 101.286 425.053 101.286 425.153C101.306 425.7 101.066 426.3 100.666 426.667Z" fill="#D9D9D9"/>
<g filter="url(#filter7_f)">
<path d="M430.957 396.251C430.303 401.821 402.117 407.655 402.117 407.655C402.117 407.655 375.941 396.357 376.7 389.885C377.226 385.403 389.798 383.195 404.781 384.952C419.763 386.71 431.483 391.769 430.957 396.251Z" fill="black" fill-opacity="0.7"/>
</g>
<path d="M423.416 371.433C423.416 384.904 403.208 404.5 403.208 404.5C403.208 404.5 383 386.129 383 371.433C383 360.272 392.047 350 403.208 350C414.368 350 423.416 360.272 423.416 371.433Z" fill="#434343"/>
<path d="M402.595 356.572C403.894 356.572 405.14 357.088 406.059 358.007C406.977 358.926 407.494 360.172 407.494 361.471C407.494 362.77 406.977 364.016 406.059 364.935C405.14 365.854 403.894 366.37 402.595 366.37C401.295 366.37 400.049 365.854 399.131 364.935C398.212 364.016 397.696 362.77 397.696 361.471C397.696 360.172 398.212 358.926 399.131 358.007C400.049 357.088 401.295 356.572 402.595 356.572ZM402.595 368.819C408.008 368.819 412.392 371.012 412.392 373.718V376.168H392.797V373.718C392.797 371.012 397.181 368.819 402.595 368.819Z" fill="white"/>
<rect x="374" y="377" width="58" height="16" rx="3" fill="#434343"/>
<path d="M382.001 379.666C381.028 379.666 380.096 380.052 379.408 380.74C378.72 381.428 378.334 382.36 378.334 383.333C378.334 383.666 378.394 383.999 378.481 384.333H381.201L382.047 382.086C382.247 381.553 383.034 381.499 383.287 382.086L384.667 385.666L385.061 384.719C385.147 384.499 385.381 384.333 385.667 384.333H391.521C391.607 383.999 391.667 383.666 391.667 383.333C391.667 382.36 391.281 381.428 390.593 380.74C389.906 380.052 388.973 379.666 388.001 379.666C386.761 379.666 385.667 380.286 385.001 381.226C384.334 380.286 383.241 379.666 382.001 379.666ZM379.001 385.333C378.824 385.333 378.654 385.403 378.529 385.528C378.404 385.653 378.334 385.823 378.334 385.999C378.334 386.176 378.404 386.346 378.529 386.471C378.654 386.596 378.824 386.666 379.001 386.666H380.627L384.334 390.333C385.001 390.933 385.001 390.933 385.667 390.333L389.374 386.666H391.001C391.177 386.666 391.347 386.596 391.472 386.471C391.597 386.346 391.667 386.176 391.667 385.999C391.667 385.823 391.597 385.653 391.472 385.528C391.347 385.403 391.177 385.333 391.001 385.333H385.934L385.314 386.866C385.047 387.539 384.281 387.446 384.034 386.886L382.667 383.333L382.027 384.886C381.927 385.139 381.701 385.333 381.401 385.333H379.001Z" fill="#D9D9D9"/>
<path d="M406.772 384.467C406.619 384.267 406.432 384.093 406.259 383.92C405.812 383.52 405.306 383.233 404.879 382.813C403.886 381.84 403.666 380.233 404.299 379C403.666 379.153 403.112 379.5 402.639 379.88C400.912 381.267 400.232 383.713 401.046 385.813C401.072 385.88 401.099 385.947 401.099 386.033C401.099 386.18 400.999 386.313 400.866 386.367C400.712 386.433 400.552 386.393 400.426 386.287C400.386 386.253 400.359 386.22 400.332 386.173C399.579 385.22 399.459 383.853 399.966 382.76C398.852 383.667 398.246 385.2 398.332 386.647C398.372 386.98 398.412 387.313 398.526 387.647C398.619 388.047 398.799 388.447 398.999 388.8C399.719 389.953 400.966 390.78 402.306 390.947C403.732 391.127 405.259 390.867 406.352 389.88C407.572 388.773 407.999 387 407.372 385.48L407.286 385.307C407.146 385 406.772 384.467 406.772 384.467ZM404.666 388.667C404.479 388.827 404.172 389 403.932 389.067C403.186 389.333 402.439 388.96 401.999 388.52C402.792 388.333 403.266 387.747 403.406 387.153C403.519 386.62 403.306 386.18 403.219 385.667C403.139 385.173 403.152 384.753 403.332 384.293C403.459 384.547 403.592 384.8 403.752 385C404.266 385.667 405.072 385.96 405.246 386.867C405.272 386.96 405.286 387.053 405.286 387.153C405.306 387.7 405.066 388.3 404.666 388.667Z" fill="#D9D9D9"/>
<path d="M419.667 379L418.333 380.333V381.667H416.333C415.567 381.667 415.08 382.333 415 383L414.333 389.667C414.253 390.333 414.693 391 415.667 391H426.333C427.307 391 427.747 390.333 427.667 389.667L427 383C426.92 382.333 426.373 381.667 425.667 381.667H423.667V380.333L422.333 379H419.667ZM419.667 380.333H422.333V381.667H419.667V380.333ZM420.333 383.667H421.667V385.667H423.667V387H421.667V389H420.333V387H418.333V385.667H420.333V383.667Z" fill="#D9D9D9"/>
<g filter="url(#filter8_f)">
<path d="M258.957 374.251C258.303 379.821 230.117 385.655 230.117 385.655C230.117 385.655 203.941 374.357 204.7 367.885C205.226 363.403 217.798 361.195 232.781 362.952C247.763 364.71 259.483 369.769 258.957 374.251Z" fill="black" fill-opacity="0.7"/>
</g>
<path d="M251.416 349.433C251.416 362.904 231.208 382.5 231.208 382.5C231.208 382.5 211 364.129 211 349.433C211 338.272 220.047 328 231.208 328C242.368 328 251.416 338.272 251.416 349.433Z" fill="#595959"/>
<path d="M230.595 334.572C231.894 334.572 233.14 335.088 234.059 336.007C234.977 336.926 235.494 338.172 235.494 339.471C235.494 340.77 234.977 342.016 234.059 342.935C233.14 343.854 231.894 344.37 230.595 344.37C229.295 344.37 228.049 343.854 227.131 342.935C226.212 342.016 225.696 340.77 225.696 339.471C225.696 338.172 226.212 336.926 227.131 336.007C228.049 335.088 229.295 334.572 230.595 334.572ZM230.595 346.819C236.008 346.819 240.392 349.012 240.392 351.718V354.168H220.797V351.718C220.797 349.012 225.181 346.819 230.595 346.819Z" fill="white"/>
<rect x="211" y="355" width="40" height="16" rx="3" fill="#595959"/>
<path d="M225.772 362.467C225.619 362.267 225.432 362.093 225.259 361.92C224.812 361.52 224.306 361.233 223.879 360.813C222.886 359.84 222.666 358.233 223.299 357C222.666 357.153 222.112 357.5 221.639 357.88C219.912 359.267 219.232 361.713 220.046 363.813C220.072 363.88 220.099 363.947 220.099 364.033C220.099 364.18 219.999 364.313 219.866 364.367C219.712 364.433 219.552 364.393 219.426 364.287C219.386 364.253 219.359 364.22 219.332 364.173C218.579 363.22 218.459 361.853 218.966 360.76C217.852 361.667 217.246 363.2 217.332 364.647C217.372 364.98 217.412 365.313 217.526 365.647C217.619 366.047 217.799 366.447 217.999 366.8C218.719 367.953 219.966 368.78 221.306 368.947C222.732 369.127 224.259 368.867 225.352 367.88C226.572 366.773 226.999 365 226.372 363.48L226.286 363.307C226.146 363 225.772 362.467 225.772 362.467ZM223.666 366.667C223.479 366.827 223.172 367 222.932 367.067C222.186 367.333 221.439 366.96 220.999 366.52C221.792 366.333 222.266 365.747 222.406 365.153C222.519 364.62 222.306 364.18 222.219 363.667C222.139 363.173 222.152 362.753 222.332 362.293C222.459 362.547 222.592 362.8 222.752 363C223.266 363.667 224.072 363.96 224.246 364.867C224.272 364.96 224.286 365.053 224.286 365.153C224.306 365.7 224.066 366.3 223.666 366.667Z" fill="#F0F0F0"/>
<path d="M238.667 357L237.333 358.333V359.667H235.333C234.567 359.667 234.08 360.333 234 361L233.333 367.667C233.253 368.333 233.693 369 234.667 369H245.333C246.307 369 246.747 368.333 246.667 367.667L246 361C245.92 360.333 245.373 359.667 244.667 359.667H242.667V358.333L241.333 357H238.667ZM238.667 358.333H241.333V359.667H238.667V358.333ZM239.333 361.667H240.667V363.667H242.667V365H240.667V367H239.333V365H237.333V363.667H239.333V361.667Z" fill="#F0F0F0"/>
<circle cx="296" cy="159" r="16" fill="#D32029"/>
<path d="M300.5 151.83C298.76 151.83 297.09 152.64 296 153.9C294.91 152.64 293.24 151.83 291.5 151.83C288.42 151.83 286 154.24 286 157.33C286 161.1 289.4 164.19 294.55 168.86L296 170.17L297.45 168.86C302.6 164.19 306 161.1 306 157.33C306 154.24 303.58 151.83 300.5 151.83ZM296 166.83V162.83H293L296 155.83V159.83H299" fill="white"/>
<path d="M287.4 187.632L285.992 183.784C285.923 183.613 285.851 183.411 285.776 183.176C285.701 182.941 285.627 182.688 285.552 182.416C285.483 182.688 285.411 182.944 285.336 183.184C285.261 183.419 285.189 183.624 285.12 183.8L283.72 187.632H287.4ZM291.2 192H289.536C289.349 192 289.197 191.955 289.08 191.864C288.963 191.768 288.875 191.651 288.816 191.512L287.952 189.152H283.16L282.296 191.512C282.253 191.635 282.171 191.747 282.048 191.848C281.925 191.949 281.773 192 281.592 192H279.912L284.464 180.432H286.656L291.2 192ZM294.557 182.144V185.352H298.605V187.008H294.557V190.28H299.693V192H292.397V180.432H299.693V182.144H294.557ZM311.873 186.216C311.873 187.064 311.731 187.843 311.449 188.552C311.166 189.261 310.769 189.872 310.257 190.384C309.745 190.896 309.129 191.293 308.409 191.576C307.689 191.859 306.889 192 306.009 192H301.601V180.432H306.009C306.889 180.432 307.689 180.576 308.409 180.864C309.129 181.147 309.745 181.544 310.257 182.056C310.769 182.563 311.166 183.171 311.449 183.88C311.731 184.589 311.873 185.368 311.873 186.216ZM309.665 186.216C309.665 185.581 309.579 185.013 309.409 184.512C309.243 184.005 309.001 183.579 308.681 183.232C308.366 182.88 307.982 182.611 307.529 182.424C307.081 182.237 306.574 182.144 306.009 182.144H303.761V190.288H306.009C306.574 190.288 307.081 190.195 307.529 190.008C307.982 189.821 308.366 189.555 308.681 189.208C309.001 188.856 309.243 188.429 309.409 187.928C309.579 187.421 309.665 186.851 309.665 186.216Z" fill="white"/>
<circle cx="361" cy="118" r="16" fill="#D32029"/>
<path d="M365.5 110.83C363.76 110.83 362.09 111.64 361 112.9C359.91 111.64 358.24 110.83 356.5 110.83C353.42 110.83 351 113.24 351 116.33C351 120.1 354.4 123.19 359.55 127.86L361 129.17L362.45 127.86C367.6 123.19 371 120.1 371 116.33C371 113.24 368.58 110.83 365.5 110.83ZM361 125.83V121.83H358L361 114.83V118.83H364" fill="white"/>
<path d="M352.4 146.632L350.992 142.784C350.923 142.613 350.851 142.411 350.776 142.176C350.701 141.941 350.627 141.688 350.552 141.416C350.483 141.688 350.411 141.944 350.336 142.184C350.261 142.419 350.189 142.624 350.12 142.8L348.72 146.632H352.4ZM356.2 151H354.536C354.349 151 354.197 150.955 354.08 150.864C353.963 150.768 353.875 150.651 353.816 150.512L352.952 148.152H348.16L347.296 150.512C347.253 150.635 347.171 150.747 347.048 150.848C346.925 150.949 346.773 151 346.592 151H344.912L349.464 139.432H351.656L356.2 151ZM359.557 141.144V144.352H363.605V146.008H359.557V149.28H364.693V151H357.397V139.432H364.693V141.144H359.557ZM376.873 145.216C376.873 146.064 376.731 146.843 376.449 147.552C376.166 148.261 375.769 148.872 375.257 149.384C374.745 149.896 374.129 150.293 373.409 150.576C372.689 150.859 371.889 151 371.009 151H366.601V139.432H371.009C371.889 139.432 372.689 139.576 373.409 139.864C374.129 140.147 374.745 140.544 375.257 141.056C375.769 141.563 376.166 142.171 376.449 142.88C376.731 143.589 376.873 144.368 376.873 145.216ZM374.665 145.216C374.665 144.581 374.579 144.013 374.409 143.512C374.243 143.005 374.001 142.579 373.681 142.232C373.366 141.88 372.982 141.611 372.529 141.424C372.081 141.237 371.574 141.144 371.009 141.144H368.761V149.288H371.009C371.574 149.288 372.081 149.195 372.529 149.008C372.982 148.821 373.366 148.555 373.681 148.208C374.001 147.856 374.243 147.429 374.409 146.928C374.579 146.421 374.665 145.851 374.665 145.216Z" fill="white"/>
<circle cx="17" cy="17" r="16" fill="#D32029"/>
<path d="M21.5 9.83008C19.76 9.83008 18.09 10.6401 17 11.9001C15.91 10.6401 14.24 9.83008 12.5 9.83008C9.42 9.83008 7 12.2401 7 15.3301C7 19.1001 10.4 22.1901 15.55 26.8601L17 28.1701L18.45 26.8601C23.6 22.1901 27 19.1001 27 15.3301C27 12.2401 24.58 9.83008 21.5 9.83008ZM17 24.8301V20.8301H14L17 13.8301V17.8301H20" fill="white"/>
<path d="M8.4 45.632L6.992 41.784C6.92267 41.6133 6.85067 41.4107 6.776 41.176C6.70133 40.9413 6.62667 40.688 6.552 40.416C6.48267 40.688 6.41067 40.944 6.336 41.184C6.26133 41.4187 6.18933 41.624 6.12 41.8L4.72 45.632H8.4ZM12.2 50H10.536C10.3493 50 10.1973 49.9547 10.08 49.864C9.96267 49.768 9.87467 49.6507 9.816 49.512L8.952 47.152H4.16L3.296 49.512C3.25333 49.6347 3.17067 49.7467 3.048 49.848C2.92533 49.9493 2.77333 50 2.592 50H0.912L5.464 38.432H7.656L12.2 50ZM15.5574 40.144V43.352H19.6054V45.008H15.5574V48.28H20.6934V50H13.3974V38.432H20.6934V40.144H15.5574ZM32.8725 44.216C32.8725 45.064 32.7312 45.8427 32.4485 46.552C32.1658 47.2613 31.7685 47.872 31.2565 48.384C30.7445 48.896 30.1285 49.2933 29.4085 49.576C28.6885 49.8587 27.8885 50 27.0085 50H22.6005V38.432H27.0085C27.8885 38.432 28.6885 38.576 29.4085 38.864C30.1285 39.1467 30.7445 39.544 31.2565 40.056C31.7685 40.5627 32.1658 41.1707 32.4485 41.88C32.7312 42.5893 32.8725 43.368 32.8725 44.216ZM30.6645 44.216C30.6645 43.5813 30.5792 43.0133 30.4085 42.512C30.2432 42.0053 30.0005 41.5787 29.6805 41.232C29.3658 40.88 28.9818 40.6107 28.5285 40.424C28.0805 40.2373 27.5738 40.144 27.0085 40.144H24.7605V48.288H27.0085C27.5738 48.288 28.0805 48.1947 28.5285 48.008C28.9818 47.8213 29.3658 47.5547 29.6805 47.208C30.0005 46.856 30.2432 46.4293 30.4085 45.928C30.5792 45.4213 30.6645 44.8507 30.6645 44.216Z" fill="white"/>
<defs>
<filter id="filter0_f" x="102.172" y="193.555" width="82.8764" height="50.74" filterUnits="userSpaceOnUse" color-interpolation-filters="sRGB">
<feFlood flood-opacity="0" result="BackgroundImageFix"/>
<feBlend mode="normal" in="SourceGraphic" in2="BackgroundImageFix" result="shape"/>
<feGaussianBlur stdDeviation="7" result="effect1_foregroundBlur"/>
</filter>
<filter id="filter1_f" x="194.988" y="96.7695" width="84.9203" height="57.0686" filterUnits="userSpaceOnUse" color-interpolation-filters="sRGB">
<feFlood flood-opacity="0" result="BackgroundImageFix"/>
<feBlend mode="normal" in="SourceGraphic" in2="BackgroundImageFix" result="shape"/>
<feGaussianBlur stdDeviation="7" result="effect1_foregroundBlur"/>
</filter>
<filter id="filter2_f" x="135.988" y="73.7695" width="84.9203" height="57.0686" filterUnits="userSpaceOnUse" color-interpolation-filters="sRGB">
<feFlood flood-opacity="0" result="BackgroundImageFix"/>
<feBlend mode="normal" in="SourceGraphic" in2="BackgroundImageFix" result="shape"/>
<feGaussianBlur stdDeviation="7" result="effect1_foregroundBlur"/>
</filter>
<filter id="filter3_f" x="71.9883" y="23.7695" width="84.9203" height="57.0686" filterUnits="userSpaceOnUse" color-interpolation-filters="sRGB">
<feFlood flood-opacity="0" result="BackgroundImageFix"/>
<feBlend mode="normal" in="SourceGraphic" in2="BackgroundImageFix" result="shape"/>
<feGaussianBlur stdDeviation="7" result="effect1_foregroundBlur"/>
</filter>
<filter id="filter4_f" x="49.9883" y="234.77" width="84.9203" height="57.0686" filterUnits="userSpaceOnUse" color-interpolation-filters="sRGB">
<feFlood flood-opacity="0" result="BackgroundImageFix"/>
<feBlend mode="normal" in="SourceGraphic" in2="BackgroundImageFix" result="shape"/>
<feGaussianBlur stdDeviation="7" result="effect1_foregroundBlur"/>
</filter>
<filter id="filter5_f" x="69.9883" y="328.77" width="84.9203" height="57.0686" filterUnits="userSpaceOnUse" color-interpolation-filters="sRGB">
<feFlood flood-opacity="0" result="BackgroundImageFix"/>
<feBlend mode="normal" in="SourceGraphic" in2="BackgroundImageFix" result="shape"/>
<feGaussianBlur stdDeviation="7" result="effect1_foregroundBlur"/>
</filter>
<filter id="filter6_f" x="47.9883" y="405.77" width="84.9203" height="57.0686" filterUnits="userSpaceOnUse" color-interpolation-filters="sRGB">
<feFlood flood-opacity="0" result="BackgroundImageFix"/>
<feBlend mode="normal" in="SourceGraphic" in2="BackgroundImageFix" result="shape"/>
<feGaussianBlur stdDeviation="7" result="effect1_foregroundBlur"/>
</filter>
<filter id="filter7_f" x="360.988" y="367.77" width="84.9203" height="57.0686" filterUnits="userSpaceOnUse" color-interpolation-filters="sRGB">
<feFlood flood-opacity="0" result="BackgroundImageFix"/>
<feBlend mode="normal" in="SourceGraphic" in2="BackgroundImageFix" result="shape"/>
<feGaussianBlur stdDeviation="7" result="effect1_foregroundBlur"/>
</filter>
<filter id="filter8_f" x="188.988" y="345.77" width="84.9203" height="57.0686" filterUnits="userSpaceOnUse" color-interpolation-filters="sRGB">
<feFlood flood-opacity="0" result="BackgroundImageFix"/>
<feBlend mode="normal" in="SourceGraphic" in2="BackgroundImageFix" result="shape"/>
<feGaussianBlur stdDeviation="7" result="effect1_foregroundBlur"/>
</filter>
</defs>
</svg>
