<svg width="446" height="466" viewBox="0 0 446 466" fill="none" xmlns="http://www.w3.org/2000/svg">
<g filter="url(#filter0_f)">
<path d="M258.957 377.251C258.303 382.821 230.117 388.655 230.117 388.655C230.117 388.655 203.941 377.357 204.7 370.885C205.226 366.403 217.798 364.195 232.781 365.952C247.763 367.71 259.483 372.769 258.957 377.251Z" fill="black" fill-opacity="0.7"/>
</g>
<path d="M251.416 352.433C251.416 365.904 231.208 385.5 231.208 385.5C231.208 385.5 211 367.129 211 352.433C211 341.272 220.047 331 231.208 331C242.368 331 251.416 341.272 251.416 352.433Z" fill="#595959"/>
<path d="M230.595 337.572C231.894 337.572 233.14 338.088 234.059 339.007C234.977 339.926 235.494 341.172 235.494 342.471C235.494 343.77 234.977 345.016 234.059 345.935C233.14 346.854 231.894 347.37 230.595 347.37C229.295 347.37 228.049 346.854 227.131 345.935C226.212 345.016 225.696 343.77 225.696 342.471C225.696 341.172 226.212 339.926 227.131 339.007C228.049 338.088 229.295 337.572 230.595 337.572ZM230.595 349.819C236.008 349.819 240.392 352.012 240.392 354.718V357.168H220.797V354.718C220.797 352.012 225.181 349.819 230.595 349.819Z" fill="white"/>
<rect x="211" y="358" width="40" height="16" rx="3" fill="#595959"/>
<path d="M225.772 365.467C225.619 365.267 225.432 365.093 225.259 364.92C224.812 364.52 224.306 364.233 223.879 363.813C222.886 362.84 222.666 361.233 223.299 360C222.666 360.153 222.112 360.5 221.639 360.88C219.912 362.267 219.232 364.713 220.046 366.813C220.072 366.88 220.099 366.947 220.099 367.033C220.099 367.18 219.999 367.313 219.866 367.367C219.712 367.433 219.552 367.393 219.426 367.287C219.386 367.253 219.359 367.22 219.332 367.173C218.579 366.22 218.459 364.853 218.966 363.76C217.852 364.667 217.246 366.2 217.332 367.647C217.372 367.98 217.412 368.313 217.526 368.647C217.619 369.047 217.799 369.447 217.999 369.8C218.719 370.953 219.966 371.78 221.306 371.947C222.732 372.127 224.259 371.867 225.352 370.88C226.572 369.773 226.999 368 226.372 366.48L226.286 366.307C226.146 366 225.772 365.467 225.772 365.467ZM223.666 369.667C223.479 369.827 223.172 370 222.932 370.067C222.186 370.333 221.439 369.96 220.999 369.52C221.792 369.333 222.266 368.747 222.406 368.153C222.519 367.62 222.306 367.18 222.219 366.667C222.139 366.173 222.152 365.753 222.332 365.293C222.459 365.547 222.592 365.8 222.752 366C223.266 366.667 224.072 366.96 224.246 367.867C224.272 367.96 224.286 368.053 224.286 368.153C224.306 368.7 224.066 369.3 223.666 369.667Z" fill="#F0F0F0"/>
<path d="M238.667 360L237.333 361.333V362.667H235.333C234.567 362.667 234.08 363.333 234 364L233.333 370.667C233.253 371.333 233.693 372 234.667 372H245.333C246.307 372 246.747 371.333 246.667 370.667L246 364C245.92 363.333 245.373 362.667 244.667 362.667H242.667V361.333L241.333 360H238.667ZM238.667 361.333H241.333V362.667H238.667V361.333ZM239.333 364.667H240.667V366.667H242.667V368H240.667V370H239.333V368H237.333V366.667H239.333V364.667Z" fill="#F0F0F0"/>
<path d="M263.619 207.11L260.035 218.598H258.499L255.699 210.078C255.635 209.907 255.579 209.702 255.531 209.462C255.472 209.707 255.416 209.912 255.363 210.078L252.531 218.598H251.003L247.419 207.11H248.843C248.992 207.11 249.118 207.147 249.219 207.222C249.32 207.291 249.387 207.387 249.419 207.51L251.683 215.198C251.726 215.347 251.763 215.51 251.795 215.686C251.832 215.862 251.87 216.046 251.907 216.238C251.944 216.046 251.982 215.862 252.019 215.686C252.062 215.51 252.11 215.347 252.163 215.198L254.755 207.51C254.787 207.403 254.854 207.31 254.955 207.23C255.062 207.15 255.187 207.11 255.331 207.11H255.819C255.968 207.11 256.091 207.147 256.187 207.222C256.283 207.296 256.352 207.392 256.395 207.51L258.979 215.198C259.075 215.491 259.16 215.824 259.235 216.198C259.299 215.83 259.368 215.496 259.443 215.198L261.715 207.51C261.742 207.403 261.808 207.31 261.915 207.23C262.022 207.15 262.147 207.11 262.291 207.11H263.619ZM266.494 210.47V218.598H264.934V210.47H266.494ZM266.79 207.958C266.79 208.102 266.76 208.24 266.702 208.374C266.643 208.502 266.563 208.616 266.462 208.718C266.366 208.814 266.251 208.891 266.118 208.95C265.984 209.003 265.846 209.03 265.702 209.03C265.558 209.03 265.422 209.003 265.294 208.95C265.166 208.891 265.051 208.814 264.95 208.718C264.854 208.616 264.776 208.502 264.718 208.374C264.664 208.24 264.638 208.102 264.638 207.958C264.638 207.808 264.664 207.67 264.718 207.542C264.776 207.408 264.854 207.294 264.95 207.198C265.051 207.096 265.166 207.019 265.294 206.966C265.422 206.907 265.558 206.878 265.702 206.878C265.846 206.878 265.984 206.907 266.118 206.966C266.251 207.019 266.366 207.096 266.462 207.198C266.563 207.294 266.643 207.408 266.702 207.542C266.76 207.67 266.79 207.808 266.79 207.958ZM270.352 206.79V218.598H268.784V206.79H270.352ZM274.18 206.79V218.598H272.612V206.79H274.18ZM278.041 210.47V218.598H276.481V210.47H278.041ZM278.337 207.958C278.337 208.102 278.307 208.24 278.249 208.374C278.19 208.502 278.11 208.616 278.009 208.718C277.913 208.814 277.798 208.891 277.664 208.95C277.531 209.003 277.393 209.03 277.249 209.03C277.105 209.03 276.969 209.003 276.841 208.95C276.713 208.891 276.598 208.814 276.497 208.718C276.401 208.616 276.323 208.502 276.265 208.374C276.211 208.24 276.185 208.102 276.185 207.958C276.185 207.808 276.211 207.67 276.265 207.542C276.323 207.408 276.401 207.294 276.497 207.198C276.598 207.096 276.713 207.019 276.841 206.966C276.969 206.907 277.105 206.878 277.249 206.878C277.393 206.878 277.531 206.907 277.664 206.966C277.798 207.019 277.913 207.096 278.009 207.198C278.11 207.294 278.19 207.408 278.249 207.542C278.307 207.67 278.337 207.808 278.337 207.958ZM284.667 214.99C284.032 215.011 283.494 215.062 283.051 215.142C282.608 215.216 282.248 215.318 281.971 215.446C281.694 215.574 281.494 215.726 281.371 215.902C281.248 216.072 281.187 216.264 281.187 216.478C281.187 216.68 281.219 216.856 281.283 217.006C281.352 217.15 281.443 217.27 281.555 217.366C281.672 217.456 281.808 217.523 281.963 217.566C282.118 217.608 282.286 217.63 282.467 217.63C282.707 217.63 282.926 217.606 283.123 217.558C283.326 217.51 283.515 217.443 283.691 217.358C283.867 217.267 284.035 217.158 284.195 217.03C284.355 216.902 284.512 216.755 284.667 216.59V214.99ZM280.091 211.606C280.544 211.174 281.035 210.851 281.563 210.638C282.096 210.424 282.68 210.318 283.315 210.318C283.779 210.318 284.19 210.395 284.547 210.55C284.904 210.699 285.206 210.91 285.451 211.182C285.696 211.454 285.88 211.779 286.003 212.158C286.131 212.536 286.195 212.955 286.195 213.414V218.598H285.499C285.344 218.598 285.227 218.574 285.147 218.526C285.067 218.472 285.003 218.376 284.955 218.238L284.787 217.526C284.579 217.718 284.374 217.888 284.171 218.038C283.968 218.182 283.755 218.307 283.531 218.414C283.312 218.515 283.078 218.592 282.827 218.646C282.576 218.699 282.299 218.726 281.995 218.726C281.675 218.726 281.374 218.683 281.091 218.598C280.814 218.507 280.571 218.371 280.363 218.19C280.155 218.008 279.99 217.782 279.867 217.51C279.75 217.238 279.691 216.92 279.691 216.558C279.691 216.238 279.776 215.931 279.947 215.638C280.123 215.339 280.406 215.072 280.795 214.838C281.19 214.603 281.702 214.411 282.331 214.262C282.966 214.112 283.744 214.027 284.667 214.006V213.414C284.667 212.8 284.536 212.342 284.275 212.038C284.014 211.734 283.63 211.582 283.123 211.582C282.782 211.582 282.494 211.624 282.259 211.71C282.03 211.795 281.83 211.891 281.659 211.998C281.494 212.099 281.347 212.192 281.219 212.278C281.096 212.363 280.968 212.406 280.835 212.406C280.728 212.406 280.635 212.376 280.555 212.318C280.48 212.259 280.419 212.19 280.371 212.11L280.091 211.606ZM288.284 218.598V210.47H289.22C289.438 210.47 289.574 210.574 289.628 210.782L289.74 211.558C290.038 211.2 290.369 210.91 290.732 210.686C291.1 210.456 291.529 210.342 292.02 210.342C292.558 210.342 292.996 210.491 293.332 210.79C293.668 211.083 293.913 211.483 294.068 211.99C294.185 211.702 294.337 211.454 294.524 211.246C294.71 211.038 294.918 210.867 295.148 210.734C295.377 210.6 295.62 210.502 295.876 210.438C296.137 210.374 296.401 210.342 296.668 210.342C297.1 210.342 297.484 210.411 297.82 210.55C298.161 210.683 298.449 210.88 298.684 211.142C298.918 211.403 299.097 211.726 299.22 212.11C299.342 212.494 299.404 212.931 299.404 213.422V218.598H297.836V213.422C297.836 212.814 297.702 212.355 297.436 212.046C297.174 211.736 296.79 211.582 296.284 211.582C296.06 211.582 295.846 211.622 295.644 211.702C295.441 211.776 295.262 211.891 295.108 212.046C294.958 212.2 294.838 212.392 294.748 212.622C294.662 212.851 294.62 213.118 294.62 213.422V218.598H293.052V213.422C293.052 212.792 292.926 212.328 292.676 212.03C292.425 211.731 292.057 211.582 291.572 211.582C291.236 211.582 290.924 211.67 290.636 211.846C290.348 212.022 290.084 212.262 289.844 212.566V218.598H288.284ZM315.277 207.11V218.598H314.413C314.28 218.598 314.168 218.574 314.077 218.526C313.992 218.478 313.904 218.4 313.813 218.294L307.325 209.902C307.336 210.046 307.344 210.187 307.349 210.326C307.36 210.464 307.365 210.595 307.365 210.718V218.598H305.869V207.11H306.749C306.898 207.11 307.01 207.128 307.085 207.166C307.16 207.198 307.242 207.275 307.333 207.398L313.837 215.798C313.821 215.643 313.808 215.494 313.797 215.35C313.792 215.2 313.789 215.062 313.789 214.934V207.11H315.277ZM320.39 214.542C320.667 214.542 320.91 214.504 321.118 214.43C321.331 214.355 321.507 214.251 321.646 214.118C321.79 213.979 321.896 213.814 321.966 213.622C322.04 213.43 322.078 213.219 322.078 212.99C322.078 212.52 321.934 212.147 321.646 211.87C321.363 211.587 320.944 211.446 320.39 211.446C319.84 211.446 319.422 211.587 319.134 211.87C318.851 212.147 318.71 212.52 318.71 212.99C318.71 213.219 318.744 213.43 318.814 213.622C318.888 213.808 318.995 213.971 319.134 214.11C319.278 214.243 319.454 214.35 319.662 214.43C319.875 214.504 320.118 214.542 320.39 214.542ZM322.878 219.022C322.878 218.83 322.824 218.678 322.718 218.566C322.611 218.448 322.464 218.358 322.278 218.294C322.096 218.224 321.883 218.176 321.638 218.15C321.392 218.118 321.134 218.094 320.862 218.078C320.595 218.062 320.32 218.048 320.038 218.038C319.755 218.022 319.483 217.995 319.222 217.958C318.944 218.096 318.715 218.264 318.534 218.462C318.358 218.659 318.27 218.891 318.27 219.158C318.27 219.328 318.312 219.488 318.398 219.638C318.488 219.787 318.624 219.915 318.806 220.022C318.992 220.134 319.224 220.219 319.502 220.278C319.784 220.342 320.12 220.374 320.51 220.374C320.894 220.374 321.232 220.339 321.526 220.27C321.819 220.206 322.064 220.112 322.262 219.99C322.464 219.872 322.616 219.731 322.718 219.566C322.824 219.4 322.878 219.219 322.878 219.022ZM324.462 210.774V211.358C324.462 211.55 324.342 211.67 324.102 211.718L323.23 211.846C323.304 212.011 323.363 212.187 323.406 212.374C323.448 212.555 323.47 212.747 323.47 212.95C323.47 213.35 323.392 213.712 323.238 214.038C323.083 214.358 322.87 214.632 322.598 214.862C322.326 215.091 322 215.267 321.622 215.39C321.248 215.512 320.838 215.574 320.39 215.574C320.022 215.574 319.678 215.534 319.358 215.454C319.198 215.55 319.075 215.656 318.99 215.774C318.91 215.886 318.87 215.998 318.87 216.11C318.87 216.296 318.947 216.435 319.102 216.526C319.262 216.616 319.467 216.683 319.718 216.726C319.974 216.763 320.264 216.787 320.59 216.798C320.92 216.808 321.254 216.827 321.59 216.854C321.931 216.875 322.264 216.918 322.59 216.982C322.92 217.04 323.211 217.139 323.462 217.278C323.718 217.411 323.923 217.598 324.078 217.838C324.238 218.072 324.318 218.379 324.318 218.758C324.318 219.11 324.23 219.451 324.054 219.782C323.883 220.112 323.632 220.406 323.302 220.662C322.971 220.918 322.568 221.123 322.094 221.278C321.619 221.432 321.08 221.51 320.477 221.51C319.875 221.51 319.35 221.451 318.902 221.334C318.459 221.216 318.088 221.059 317.79 220.862C317.496 220.664 317.275 220.435 317.126 220.174C316.982 219.912 316.91 219.64 316.91 219.358C316.91 218.963 317.032 218.63 317.278 218.358C317.523 218.08 317.862 217.864 318.294 217.71C318.059 217.603 317.872 217.459 317.734 217.278C317.595 217.091 317.526 216.846 317.526 216.542C317.526 216.424 317.547 216.304 317.59 216.182C317.632 216.054 317.696 215.928 317.782 215.806C317.872 215.678 317.982 215.558 318.11 215.446C318.243 215.334 318.395 215.232 318.566 215.142C318.166 214.918 317.851 214.622 317.622 214.254C317.392 213.88 317.278 213.446 317.278 212.95C317.278 212.55 317.355 212.19 317.51 211.87C317.664 211.55 317.878 211.275 318.15 211.046C318.427 210.816 318.755 210.64 319.134 210.518C319.518 210.395 319.936 210.334 320.39 210.334C321.094 210.334 321.699 210.48 322.206 210.774H324.462Z" fill="white"/>
<path d="M162.005 332.731C162.437 332.731 162.816 332.675 163.141 332.563C163.472 332.451 163.747 332.293 163.965 332.091C164.189 331.883 164.357 331.637 164.469 331.355C164.581 331.067 164.637 330.749 164.637 330.403C164.637 329.704 164.419 329.155 163.981 328.755C163.549 328.355 162.891 328.155 162.005 328.155H160.229V332.731H162.005ZM162.005 326.819C162.741 326.819 163.381 326.904 163.925 327.075C164.469 327.245 164.92 327.488 165.277 327.803C165.635 328.112 165.899 328.488 166.069 328.931C166.245 329.373 166.333 329.864 166.333 330.403C166.333 330.941 166.24 331.437 166.053 331.891C165.867 332.339 165.592 332.725 165.229 333.051C164.867 333.376 164.413 333.629 163.869 333.811C163.331 333.987 162.709 334.075 162.005 334.075H160.229V338.307H158.525V326.819H162.005ZM172.011 334.699C171.376 334.72 170.838 334.771 170.395 334.851C169.952 334.925 169.592 335.027 169.315 335.155C169.038 335.283 168.838 335.435 168.715 335.611C168.592 335.781 168.531 335.973 168.531 336.187C168.531 336.389 168.563 336.565 168.627 336.715C168.696 336.859 168.787 336.979 168.899 337.075C169.016 337.165 169.152 337.232 169.307 337.275C169.462 337.317 169.63 337.339 169.811 337.339C170.051 337.339 170.27 337.315 170.467 337.267C170.67 337.219 170.859 337.152 171.035 337.067C171.211 336.976 171.379 336.867 171.539 336.739C171.699 336.611 171.856 336.464 172.011 336.299V334.699ZM167.435 331.315C167.888 330.883 168.379 330.56 168.907 330.347C169.44 330.133 170.024 330.027 170.659 330.027C171.123 330.027 171.534 330.104 171.891 330.259C172.248 330.408 172.55 330.619 172.795 330.891C173.04 331.163 173.224 331.488 173.347 331.867C173.475 332.245 173.539 332.664 173.539 333.123V338.307H172.843C172.688 338.307 172.571 338.283 172.491 338.235C172.411 338.181 172.347 338.085 172.299 337.947L172.131 337.235C171.923 337.427 171.718 337.597 171.515 337.747C171.312 337.891 171.099 338.016 170.875 338.123C170.656 338.224 170.422 338.301 170.171 338.355C169.92 338.408 169.643 338.435 169.339 338.435C169.019 338.435 168.718 338.392 168.435 338.307C168.158 338.216 167.915 338.08 167.707 337.899C167.499 337.717 167.334 337.491 167.211 337.219C167.094 336.947 167.035 336.629 167.035 336.267C167.035 335.947 167.12 335.64 167.291 335.347C167.467 335.048 167.75 334.781 168.139 334.547C168.534 334.312 169.046 334.12 169.675 333.971C170.31 333.821 171.088 333.736 172.011 333.715V333.123C172.011 332.509 171.88 332.051 171.619 331.747C171.358 331.443 170.974 331.291 170.467 331.291C170.126 331.291 169.838 331.333 169.603 331.419C169.374 331.504 169.174 331.6 169.003 331.707C168.838 331.808 168.691 331.901 168.563 331.987C168.44 332.072 168.312 332.115 168.179 332.115C168.072 332.115 167.979 332.085 167.899 332.027C167.824 331.968 167.763 331.899 167.715 331.819L167.435 331.315ZM178.062 338.435C177.406 338.435 176.899 338.251 176.542 337.883C176.19 337.515 176.014 336.989 176.014 336.307V331.443H175.07C174.979 331.443 174.902 331.416 174.838 331.363C174.779 331.304 174.75 331.219 174.75 331.107V330.475L176.07 330.291L176.422 327.867C176.443 327.776 176.483 327.707 176.542 327.659C176.606 327.605 176.686 327.579 176.782 327.579H177.574V330.307H179.878V331.443H177.574V336.203C177.574 336.523 177.651 336.763 177.806 336.923C177.966 337.077 178.169 337.155 178.414 337.155C178.558 337.155 178.681 337.136 178.782 337.099C178.889 337.061 178.979 337.021 179.054 336.979C179.129 336.931 179.193 336.888 179.246 336.851C179.299 336.813 179.347 336.795 179.39 336.795C179.443 336.795 179.483 336.808 179.51 336.835C179.542 336.856 179.574 336.893 179.606 336.947L180.07 337.699C179.814 337.933 179.51 338.115 179.158 338.243C178.806 338.371 178.441 338.435 178.062 338.435ZM182.787 331.739C183.048 331.205 183.363 330.787 183.731 330.483C184.099 330.179 184.541 330.027 185.059 330.027C185.235 330.027 185.4 330.048 185.555 330.091C185.715 330.128 185.853 330.187 185.971 330.267L185.867 331.443C185.829 331.587 185.741 331.659 185.603 331.659C185.528 331.659 185.416 331.645 185.267 331.619C185.117 331.587 184.957 331.571 184.787 331.571C184.536 331.571 184.315 331.608 184.123 331.683C183.931 331.752 183.757 331.859 183.603 332.003C183.453 332.141 183.32 332.315 183.203 332.523C183.085 332.725 182.976 332.957 182.875 333.219V338.307H181.315V330.179H182.211C182.381 330.179 182.496 330.211 182.555 330.275C182.619 330.333 182.664 330.44 182.691 330.595L182.787 331.739ZM188.806 330.179V338.307H187.246V330.179H188.806ZM189.102 327.667C189.102 327.811 189.073 327.949 189.014 328.083C188.955 328.211 188.875 328.325 188.774 328.427C188.678 328.523 188.563 328.6 188.43 328.659C188.297 328.712 188.158 328.739 188.014 328.739C187.87 328.739 187.734 328.712 187.606 328.659C187.478 328.6 187.363 328.523 187.262 328.427C187.166 328.325 187.089 328.211 187.03 328.083C186.977 327.949 186.95 327.811 186.95 327.667C186.95 327.517 186.977 327.379 187.03 327.251C187.089 327.117 187.166 327.003 187.262 326.907C187.363 326.805 187.478 326.728 187.606 326.675C187.734 326.616 187.87 326.587 188.014 326.587C188.158 326.587 188.297 326.616 188.43 326.675C188.563 326.728 188.678 326.805 188.774 326.907C188.875 327.003 188.955 327.117 189.014 327.251C189.073 327.379 189.102 327.517 189.102 327.667ZM196.761 331.699C196.713 331.757 196.665 331.805 196.617 331.843C196.574 331.875 196.51 331.891 196.425 331.891C196.339 331.891 196.249 331.859 196.153 331.795C196.062 331.725 195.945 331.653 195.801 331.579C195.662 331.499 195.491 331.427 195.289 331.363C195.091 331.293 194.846 331.259 194.553 331.259C194.169 331.259 193.83 331.328 193.537 331.467C193.243 331.605 192.998 331.803 192.801 332.059C192.609 332.315 192.462 332.627 192.361 332.995C192.259 333.363 192.209 333.776 192.209 334.235C192.209 334.709 192.262 335.133 192.369 335.507C192.475 335.875 192.627 336.187 192.825 336.443C193.022 336.693 193.262 336.885 193.545 337.019C193.827 337.147 194.142 337.211 194.489 337.211C194.825 337.211 195.102 337.171 195.321 337.091C195.539 337.005 195.721 336.915 195.865 336.819C196.009 336.723 196.129 336.635 196.225 336.555C196.321 336.469 196.419 336.427 196.521 336.427C196.649 336.427 196.747 336.475 196.817 336.571L197.265 337.147C197.078 337.376 196.867 337.571 196.633 337.731C196.403 337.891 196.158 338.021 195.897 338.123C195.635 338.224 195.361 338.299 195.073 338.347C194.79 338.395 194.502 338.419 194.209 338.419C193.702 338.419 193.227 338.325 192.785 338.139C192.347 337.952 191.966 337.68 191.641 337.323C191.321 336.965 191.067 336.528 190.881 336.011C190.694 335.488 190.601 334.896 190.601 334.235C190.601 333.632 190.683 333.075 190.849 332.563C191.019 332.051 191.267 331.611 191.593 331.243C191.923 330.869 192.329 330.579 192.809 330.371C193.289 330.157 193.838 330.051 194.457 330.051C195.038 330.051 195.55 330.144 195.993 330.331C196.435 330.517 196.83 330.781 197.177 331.123L196.761 331.699ZM200.353 330.179V338.307H198.793V330.179H200.353ZM200.649 327.667C200.649 327.811 200.62 327.949 200.561 328.083C200.502 328.211 200.422 328.325 200.321 328.427C200.225 328.523 200.11 328.6 199.977 328.659C199.844 328.712 199.705 328.739 199.561 328.739C199.417 328.739 199.281 328.712 199.153 328.659C199.025 328.6 198.91 328.523 198.809 328.427C198.713 328.325 198.636 328.211 198.577 328.083C198.524 327.949 198.497 327.811 198.497 327.667C198.497 327.517 198.524 327.379 198.577 327.251C198.636 327.117 198.713 327.003 198.809 326.907C198.91 326.805 199.025 326.728 199.153 326.675C199.281 326.616 199.417 326.587 199.561 326.587C199.705 326.587 199.844 326.616 199.977 326.675C200.11 326.728 200.225 326.805 200.321 326.907C200.422 327.003 200.502 327.117 200.561 327.251C200.62 327.379 200.649 327.517 200.649 327.667ZM206.98 334.699C206.345 334.72 205.806 334.771 205.364 334.851C204.921 334.925 204.561 335.027 204.284 335.155C204.006 335.283 203.806 335.435 203.684 335.611C203.561 335.781 203.5 335.973 203.5 336.187C203.5 336.389 203.532 336.565 203.596 336.715C203.665 336.859 203.756 336.979 203.868 337.075C203.985 337.165 204.121 337.232 204.276 337.275C204.43 337.317 204.598 337.339 204.78 337.339C205.02 337.339 205.238 337.315 205.436 337.267C205.638 337.219 205.828 337.152 206.004 337.067C206.18 336.976 206.348 336.867 206.508 336.739C206.668 336.611 206.825 336.464 206.98 336.299V334.699ZM202.404 331.315C202.857 330.883 203.348 330.56 203.876 330.347C204.409 330.133 204.993 330.027 205.628 330.027C206.092 330.027 206.502 330.104 206.86 330.259C207.217 330.408 207.518 330.619 207.764 330.891C208.009 331.163 208.193 331.488 208.316 331.867C208.444 332.245 208.508 332.664 208.508 333.123V338.307H207.812C207.657 338.307 207.54 338.283 207.46 338.235C207.38 338.181 207.316 338.085 207.268 337.947L207.1 337.235C206.892 337.427 206.686 337.597 206.484 337.747C206.281 337.891 206.068 338.016 205.844 338.123C205.625 338.224 205.39 338.301 205.14 338.355C204.889 338.408 204.612 338.435 204.308 338.435C203.988 338.435 203.686 338.392 203.404 338.307C203.126 338.216 202.884 338.08 202.676 337.899C202.468 337.717 202.302 337.491 202.18 337.219C202.062 336.947 202.004 336.629 202.004 336.267C202.004 335.947 202.089 335.64 202.26 335.347C202.436 335.048 202.718 334.781 203.108 334.547C203.502 334.312 204.014 334.12 204.644 333.971C205.278 333.821 206.057 333.736 206.98 333.715V333.123C206.98 332.509 206.849 332.051 206.588 331.747C206.326 331.443 205.942 331.291 205.436 331.291C205.094 331.291 204.806 331.333 204.572 331.419C204.342 331.504 204.142 331.6 203.972 331.707C203.806 331.808 203.66 331.901 203.532 331.987C203.409 332.072 203.281 332.115 203.148 332.115C203.041 332.115 202.948 332.085 202.868 332.027C202.793 331.968 202.732 331.899 202.684 331.819L202.404 331.315ZM221.539 336.875V338.307H214.963V326.819H216.667V336.875H221.539ZM224.509 330.179V338.307H222.949V330.179H224.509ZM224.805 327.667C224.805 327.811 224.776 327.949 224.717 328.083C224.659 328.211 224.579 328.325 224.477 328.427C224.381 328.523 224.267 328.6 224.133 328.659C224 328.712 223.861 328.739 223.717 328.739C223.573 328.739 223.437 328.712 223.309 328.659C223.181 328.6 223.067 328.523 222.965 328.427C222.869 328.325 222.792 328.211 222.733 328.083C222.68 327.949 222.653 327.811 222.653 327.667C222.653 327.517 222.68 327.379 222.733 327.251C222.792 327.117 222.869 327.003 222.965 326.907C223.067 326.805 223.181 326.728 223.309 326.675C223.437 326.616 223.573 326.587 223.717 326.587C223.861 326.587 224 326.616 224.133 326.675C224.267 326.728 224.381 326.805 224.477 326.907C224.579 327.003 224.659 327.117 224.717 327.251C224.776 327.379 224.805 327.517 224.805 327.667ZM226.768 338.307V330.179H227.704C227.923 330.179 228.059 330.283 228.112 330.491L228.224 331.267C228.523 330.909 228.853 330.619 229.216 330.395C229.584 330.165 230.013 330.051 230.504 330.051C231.043 330.051 231.48 330.2 231.816 330.499C232.152 330.792 232.397 331.192 232.552 331.699C232.669 331.411 232.821 331.163 233.008 330.955C233.195 330.747 233.403 330.576 233.632 330.443C233.861 330.309 234.104 330.211 234.36 330.147C234.621 330.083 234.885 330.051 235.152 330.051C235.584 330.051 235.968 330.12 236.304 330.259C236.645 330.392 236.933 330.589 237.168 330.851C237.403 331.112 237.581 331.435 237.704 331.819C237.827 332.203 237.888 332.64 237.888 333.131V338.307H236.32V333.131C236.32 332.523 236.187 332.064 235.92 331.755C235.659 331.445 235.275 331.291 234.768 331.291C234.544 331.291 234.331 331.331 234.128 331.411C233.925 331.485 233.747 331.6 233.592 331.755C233.443 331.909 233.323 332.101 233.232 332.331C233.147 332.56 233.104 332.827 233.104 333.131V338.307H231.536V333.131C231.536 332.501 231.411 332.037 231.16 331.739C230.909 331.44 230.541 331.291 230.056 331.291C229.72 331.291 229.408 331.379 229.12 331.555C228.832 331.731 228.568 331.971 228.328 332.275V338.307H226.768Z" fill="white"/>
<path d="M28.6606 77.72L26.9566 73.264C26.834 72.96 26.7113 72.576 26.5886 72.112C26.53 72.3413 26.4686 72.5547 26.4046 72.752C26.346 72.9493 26.2873 73.1253 26.2286 73.28L24.5326 77.72H28.6606ZM32.0286 82H30.7166C30.5673 82 30.4446 81.9627 30.3486 81.888C30.2526 81.8133 30.1833 81.7173 30.1406 81.6L29.1246 78.936H24.0606L23.0446 81.6C23.0073 81.7013 22.938 81.7947 22.8366 81.88C22.7353 81.96 22.6126 82 22.4686 82H21.1566L25.7326 70.512H27.4526L32.0286 82ZM33.1116 82V73.872H34.0476C34.2663 73.872 34.4023 73.976 34.4556 74.184L34.5676 74.96C34.8663 74.6027 35.197 74.312 35.5596 74.088C35.9276 73.8587 36.357 73.744 36.8476 73.744C37.3863 73.744 37.8236 73.8933 38.1596 74.192C38.4956 74.4853 38.741 74.8853 38.8956 75.392C39.013 75.104 39.165 74.856 39.3516 74.648C39.5383 74.44 39.7463 74.2693 39.9756 74.136C40.205 74.0027 40.4476 73.904 40.7036 73.84C40.965 73.776 41.229 73.744 41.4956 73.744C41.9276 73.744 42.3116 73.8133 42.6476 73.952C42.989 74.0853 43.277 74.2827 43.5116 74.544C43.7463 74.8053 43.925 75.128 44.0476 75.512C44.1703 75.896 44.2316 76.3333 44.2316 76.824V82H42.6636V76.824C42.6636 76.216 42.5303 75.7573 42.2636 75.448C42.0023 75.1387 41.6183 74.984 41.1116 74.984C40.8876 74.984 40.6743 75.024 40.4716 75.104C40.269 75.1787 40.0903 75.2933 39.9356 75.448C39.7863 75.6027 39.6663 75.7947 39.5756 76.024C39.4903 76.2533 39.4476 76.52 39.4476 76.824V82H37.8796V76.824C37.8796 76.1947 37.7543 75.7307 37.5036 75.432C37.253 75.1333 36.885 74.984 36.3996 74.984C36.0636 74.984 35.7516 75.072 35.4636 75.248C35.1756 75.424 34.9116 75.664 34.6716 75.968V82H33.1116ZM47.9624 73.872V82H46.4024V73.872H47.9624ZM48.2584 71.36C48.2584 71.504 48.229 71.6427 48.1704 71.776C48.1117 71.904 48.0317 72.0187 47.9304 72.12C47.8344 72.216 47.7197 72.2933 47.5864 72.352C47.453 72.4053 47.3144 72.432 47.1704 72.432C47.0264 72.432 46.8904 72.4053 46.7624 72.352C46.6344 72.2933 46.5197 72.216 46.4184 72.12C46.3224 72.0187 46.245 71.904 46.1864 71.776C46.133 71.6427 46.1064 71.504 46.1064 71.36C46.1064 71.2107 46.133 71.072 46.1864 70.944C46.245 70.8107 46.3224 70.696 46.4184 70.6C46.5197 70.4987 46.6344 70.4213 46.7624 70.368C46.8904 70.3093 47.0264 70.28 47.1704 70.28C47.3144 70.28 47.453 70.3093 47.5864 70.368C47.7197 70.4213 47.8344 70.4987 47.9304 70.6C48.0317 70.696 48.1117 70.8107 48.1704 70.944C48.229 71.072 48.2584 71.2107 48.2584 71.36ZM51.693 75.432C51.9543 74.8987 52.269 74.48 52.637 74.176C53.005 73.872 53.4477 73.72 53.965 73.72C54.141 73.72 54.3063 73.7413 54.461 73.784C54.621 73.8213 54.7597 73.88 54.877 73.96L54.773 75.136C54.7357 75.28 54.6477 75.352 54.509 75.352C54.4343 75.352 54.3223 75.3387 54.173 75.312C54.0237 75.28 53.8637 75.264 53.693 75.264C53.4423 75.264 53.221 75.3013 53.029 75.376C52.837 75.4453 52.6637 75.552 52.509 75.696C52.3597 75.8347 52.2263 76.008 52.109 76.216C51.9917 76.4187 51.8823 76.6507 51.781 76.912V82H50.221V73.872H51.117C51.2877 73.872 51.4023 73.904 51.461 73.968C51.525 74.0267 51.5703 74.1333 51.597 74.288L51.693 75.432ZM62.8404 73.872V82H61.9044C61.691 82 61.5524 81.896 61.4884 81.688L61.3764 80.872C61.2004 81.0587 61.0164 81.2293 60.8244 81.384C60.6324 81.5387 60.427 81.672 60.2084 81.784C59.9897 81.8907 59.7577 81.9733 59.5124 82.032C59.267 82.096 59.003 82.128 58.7204 82.128C58.2724 82.128 57.8777 82.0533 57.5364 81.904C57.2004 81.7547 56.9177 81.5467 56.6884 81.28C56.459 81.008 56.2857 80.6827 56.1684 80.304C56.051 79.9253 55.9924 79.5067 55.9924 79.048V73.872H57.5604V79.048C57.5604 79.6293 57.6937 80.0827 57.9604 80.408C58.227 80.728 58.635 80.888 59.1844 80.888C59.5844 80.888 59.9577 80.7947 60.3044 80.608C60.651 80.416 60.9764 80.1547 61.2804 79.824V73.872H62.8404ZM66.6179 70.192V82H65.0499V70.192H66.6179ZM74.9249 71.896V75.744H79.5329V77.128H74.9249V82H73.2129V70.512H80.3329V71.896H74.9249ZM85.1828 78.392C84.5481 78.4133 84.0094 78.464 83.5668 78.544C83.1241 78.6187 82.7641 78.72 82.4868 78.848C82.2094 78.976 82.0094 79.128 81.8868 79.304C81.7641 79.4747 81.7028 79.6667 81.7028 79.88C81.7028 80.0827 81.7348 80.2587 81.7988 80.408C81.8681 80.552 81.9588 80.672 82.0707 80.768C82.1881 80.8587 82.3241 80.9253 82.4788 80.968C82.6334 81.0107 82.8014 81.032 82.9828 81.032C83.2228 81.032 83.4414 81.008 83.6388 80.96C83.8414 80.912 84.0308 80.8453 84.2068 80.76C84.3828 80.6693 84.5508 80.56 84.7108 80.432C84.8708 80.304 85.0281 80.1573 85.1828 79.992V78.392ZM80.6068 75.008C81.0601 74.576 81.5508 74.2533 82.0788 74.04C82.6121 73.8267 83.1961 73.72 83.8307 73.72C84.2948 73.72 84.7054 73.7973 85.0628 73.952C85.4201 74.1013 85.7214 74.312 85.9668 74.584C86.2121 74.856 86.3961 75.1813 86.5188 75.56C86.6468 75.9387 86.7108 76.3573 86.7108 76.816V82H86.0148C85.8601 82 85.7428 81.976 85.6628 81.928C85.5828 81.8747 85.5188 81.7787 85.4708 81.64L85.3028 80.928C85.0948 81.12 84.8894 81.2907 84.6868 81.44C84.4841 81.584 84.2708 81.7093 84.0468 81.816C83.8281 81.9173 83.5934 81.9947 83.3428 82.048C83.0921 82.1013 82.8148 82.128 82.5108 82.128C82.1908 82.128 81.8894 82.0853 81.6068 82C81.3294 81.9093 81.0868 81.7733 80.8788 81.592C80.6708 81.4107 80.5054 81.184 80.3828 80.912C80.2654 80.64 80.2068 80.3227 80.2068 79.96C80.2068 79.64 80.2921 79.3333 80.4628 79.04C80.6388 78.7413 80.9214 78.4747 81.3108 78.24C81.7054 78.0053 82.2174 77.8133 82.8468 77.664C83.4814 77.5147 84.2601 77.4293 85.1828 77.408V76.816C85.1828 76.2027 85.0521 75.744 84.7908 75.44C84.5294 75.136 84.1454 74.984 83.6388 74.984C83.2974 74.984 83.0094 75.0267 82.7748 75.112C82.5454 75.1973 82.3454 75.2933 82.1748 75.4C82.0094 75.5013 81.8628 75.5947 81.7348 75.68C81.6121 75.7653 81.4841 75.808 81.3508 75.808C81.2441 75.808 81.1508 75.7787 81.0708 75.72C80.9961 75.6613 80.9348 75.592 80.8868 75.512L80.6068 75.008ZM90.4311 73.872V82H88.8711V73.872H90.4311ZM90.7271 71.36C90.7271 71.504 90.6978 71.6427 90.6391 71.776C90.5805 71.904 90.5005 72.0187 90.3991 72.12C90.3031 72.216 90.1885 72.2933 90.0551 72.352C89.9218 72.4053 89.7831 72.432 89.6391 72.432C89.4951 72.432 89.3591 72.4053 89.2311 72.352C89.1031 72.2933 88.9885 72.216 88.8871 72.12C88.7911 72.0187 88.7138 71.904 88.6551 71.776C88.6018 71.6427 88.5751 71.504 88.5751 71.36C88.5751 71.2107 88.6018 71.072 88.6551 70.944C88.7138 70.8107 88.7911 70.696 88.8871 70.6C88.9885 70.4987 89.1031 70.4213 89.2311 70.368C89.3591 70.3093 89.4951 70.28 89.6391 70.28C89.7831 70.28 89.9218 70.3093 90.0551 70.368C90.1885 70.4213 90.3031 70.4987 90.3991 70.6C90.5005 70.696 90.5805 70.8107 90.6391 70.944C90.6978 71.072 90.7271 71.2107 90.7271 71.36ZM98.3538 74.528C98.3538 74.64 98.3324 74.7493 98.2898 74.856C98.2524 74.9627 98.2018 75.0533 98.1378 75.128L93.8738 80.776H98.2098V82H92.0418V81.344C92.0418 81.2693 92.0604 81.1813 92.0978 81.08C92.1351 80.9733 92.1884 80.8747 92.2578 80.784L96.5458 75.096H92.2898V73.872H98.3538V74.528Z" fill="white"/>
<circle cx="285" cy="120" r="12" fill="#D32029"/>
<path d="M288.375 114.621C287.07 114.621 285.818 115.229 285 116.174C284.182 115.229 282.93 114.621 281.625 114.621C279.315 114.621 277.5 116.429 277.5 118.746C277.5 121.574 280.05 123.891 283.913 127.394L285 128.376L286.087 127.394C289.95 123.891 292.5 121.574 292.5 118.746C292.5 116.429 290.685 114.621 288.375 114.621ZM285 125.871V122.871H282.75L285 117.621V120.621H287.25" fill="white"/>
<path d="M180.313 203.908C180.489 203.908 180.645 203.976 180.781 204.112L182.053 205.492C181.349 206.364 180.481 207.032 179.449 207.496C178.425 207.96 177.193 208.192 175.753 208.192C174.465 208.192 173.305 207.972 172.273 207.532C171.249 207.092 170.373 206.48 169.645 205.696C168.917 204.912 168.357 203.976 167.965 202.888C167.581 201.8 167.389 200.612 167.389 199.324C167.389 198.02 167.597 196.828 168.013 195.748C168.429 194.66 169.013 193.724 169.765 192.94C170.525 192.156 171.429 191.548 172.477 191.116C173.525 190.676 174.685 190.456 175.957 190.456C177.221 190.456 178.341 190.664 179.317 191.08C180.301 191.496 181.137 192.04 181.825 192.712L180.745 194.212C180.681 194.308 180.597 194.392 180.493 194.464C180.397 194.536 180.261 194.572 180.085 194.572C179.965 194.572 179.841 194.54 179.713 194.476C179.585 194.404 179.445 194.32 179.293 194.224C179.141 194.12 178.965 194.008 178.765 193.888C178.565 193.768 178.333 193.66 178.069 193.564C177.805 193.46 177.497 193.376 177.145 193.312C176.801 193.24 176.401 193.204 175.945 193.204C175.169 193.204 174.457 193.344 173.809 193.624C173.169 193.896 172.617 194.296 172.153 194.824C171.689 195.344 171.329 195.984 171.073 196.744C170.817 197.496 170.689 198.356 170.689 199.324C170.689 200.3 170.825 201.168 171.097 201.928C171.377 202.688 171.753 203.328 172.225 203.848C172.697 204.368 173.253 204.768 173.893 205.048C174.533 205.32 175.221 205.456 175.957 205.456C176.397 205.456 176.793 205.432 177.145 205.384C177.505 205.336 177.833 205.26 178.129 205.156C178.433 205.052 178.717 204.92 178.981 204.76C179.253 204.592 179.521 204.388 179.785 204.148C179.865 204.076 179.949 204.02 180.037 203.98C180.125 203.932 180.217 203.908 180.313 203.908ZM190.3 202.744C189.444 202.784 188.724 202.86 188.14 202.972C187.556 203.076 187.088 203.212 186.736 203.38C186.384 203.548 186.132 203.744 185.98 203.968C185.828 204.192 185.752 204.436 185.752 204.7C185.752 205.22 185.904 205.592 186.208 205.816C186.52 206.04 186.924 206.152 187.42 206.152C188.028 206.152 188.552 206.044 188.992 205.828C189.44 205.604 189.876 205.268 190.3 204.82V202.744ZM183.508 197.404C184.924 196.108 186.628 195.46 188.62 195.46C189.34 195.46 189.984 195.58 190.552 195.82C191.12 196.052 191.6 196.38 191.992 196.804C192.384 197.22 192.68 197.72 192.88 198.304C193.088 198.888 193.192 199.528 193.192 200.224V208H191.848C191.568 208 191.352 207.96 191.2 207.88C191.048 207.792 190.928 207.62 190.84 207.364L190.576 206.476C190.264 206.756 189.96 207.004 189.664 207.22C189.368 207.428 189.06 207.604 188.74 207.748C188.42 207.892 188.076 208 187.708 208.072C187.348 208.152 186.948 208.192 186.508 208.192C185.988 208.192 185.508 208.124 185.068 207.988C184.628 207.844 184.248 207.632 183.928 207.352C183.608 207.072 183.36 206.724 183.184 206.308C183.008 205.892 182.92 205.408 182.92 204.856C182.92 204.544 182.972 204.236 183.076 203.932C183.18 203.62 183.348 203.324 183.58 203.044C183.82 202.764 184.128 202.5 184.504 202.252C184.88 202.004 185.34 201.788 185.884 201.604C186.436 201.42 187.076 201.272 187.804 201.16C188.532 201.04 189.364 200.968 190.3 200.944V200.224C190.3 199.4 190.124 198.792 189.772 198.4C189.42 198 188.912 197.8 188.248 197.8C187.768 197.8 187.368 197.856 187.048 197.968C186.736 198.08 186.46 198.208 186.22 198.352C185.98 198.488 185.76 198.612 185.56 198.724C185.368 198.836 185.152 198.892 184.912 198.892C184.704 198.892 184.528 198.84 184.384 198.736C184.24 198.624 184.124 198.496 184.036 198.352L183.508 197.404ZM198.984 190.168V208H196.02V190.168H198.984ZM204.937 190.168V208H201.973V190.168H204.937ZM215.822 200.428C215.822 200.044 215.766 199.684 215.654 199.348C215.55 199.004 215.39 198.704 215.174 198.448C214.958 198.192 214.682 197.992 214.346 197.848C214.018 197.696 213.634 197.62 213.194 197.62C212.338 197.62 211.662 197.864 211.166 198.352C210.678 198.84 210.366 199.532 210.23 200.428H215.822ZM210.17 202.216C210.218 202.848 210.33 203.396 210.506 203.86C210.682 204.316 210.914 204.696 211.202 205C211.49 205.296 211.83 205.52 212.222 205.672C212.622 205.816 213.062 205.888 213.542 205.888C214.022 205.888 214.434 205.832 214.778 205.72C215.13 205.608 215.434 205.484 215.69 205.348C215.954 205.212 216.182 205.088 216.374 204.976C216.574 204.864 216.766 204.808 216.95 204.808C217.198 204.808 217.382 204.9 217.502 205.084L218.354 206.164C218.026 206.548 217.658 206.872 217.25 207.136C216.842 207.392 216.414 207.6 215.966 207.76C215.526 207.912 215.074 208.02 214.61 208.084C214.154 208.148 213.71 208.18 213.278 208.18C212.422 208.18 211.626 208.04 210.89 207.76C210.154 207.472 209.514 207.052 208.97 206.5C208.426 205.94 207.998 205.252 207.686 204.436C207.374 203.612 207.218 202.66 207.218 201.58C207.218 200.74 207.354 199.952 207.626 199.216C207.898 198.472 208.286 197.828 208.79 197.284C209.302 196.732 209.922 196.296 210.65 195.976C211.386 195.656 212.214 195.496 213.134 195.496C213.91 195.496 214.626 195.62 215.282 195.868C215.938 196.116 216.502 196.48 216.974 196.96C217.446 197.432 217.814 198.016 218.078 198.712C218.35 199.4 218.486 200.188 218.486 201.076C218.486 201.524 218.438 201.828 218.342 201.988C218.246 202.14 218.062 202.216 217.79 202.216H210.17ZM223.506 197.824C223.89 197.088 224.346 196.512 224.874 196.096C225.402 195.672 226.026 195.46 226.746 195.46C227.314 195.46 227.77 195.584 228.114 195.832L227.922 198.052C227.882 198.196 227.822 198.3 227.742 198.364C227.67 198.42 227.57 198.448 227.442 198.448C227.322 198.448 227.142 198.428 226.902 198.388C226.67 198.348 226.442 198.328 226.218 198.328C225.89 198.328 225.598 198.376 225.342 198.472C225.086 198.568 224.854 198.708 224.646 198.892C224.446 199.068 224.266 199.284 224.106 199.54C223.954 199.796 223.81 200.088 223.674 200.416V208H220.71V195.688H222.45C222.754 195.688 222.966 195.744 223.086 195.856C223.206 195.96 223.286 196.152 223.326 196.432L223.506 197.824Z" fill="white"/>
<g filter="url(#filter1_f)">
<path d="M170.317 220.722C170.226 226.329 142.674 234.965 142.674 234.965C142.674 234.965 115.399 226.351 115.505 219.836C115.578 215.324 127.907 211.864 143.043 212.109C158.179 212.353 170.39 216.21 170.317 220.722Z" fill="black" fill-opacity="0.7"/>
</g>
<path d="M162.45 199.843C162.45 212.944 142.882 232 142.882 232C142.882 232 123.314 214.135 123.314 199.843C123.314 188.989 132.075 179 142.882 179C153.69 179 162.45 188.989 162.45 199.843Z" fill="#D32029"/>
<path d="M137.259 197.24C138.764 200.187 141.189 202.604 144.147 204.104L146.447 201.812C146.739 201.521 147.147 201.438 147.513 201.552C148.684 201.938 149.938 202.146 151.245 202.146C151.522 202.146 151.788 202.256 151.984 202.451C152.18 202.646 152.29 202.911 152.29 203.187V206.833C152.29 207.11 152.18 207.375 151.984 207.57C151.788 207.765 151.522 207.875 151.245 207.875C146.532 207.875 142.012 206.009 138.679 202.688C135.347 199.367 133.475 194.863 133.475 190.167C133.475 189.89 133.585 189.625 133.781 189.43C133.977 189.235 134.243 189.125 134.52 189.125H138.178C138.456 189.125 138.722 189.235 138.918 189.43C139.114 189.625 139.224 189.89 139.224 190.167C139.224 191.469 139.433 192.719 139.82 193.885C139.935 194.25 139.851 194.656 139.558 194.948L137.259 197.24Z" fill="white"/>
<g filter="url(#filter2_f)">
<path d="M313.957 185.251C313.303 190.821 285.117 196.655 285.117 196.655C285.117 196.655 258.941 185.357 259.7 178.885C260.226 174.403 272.798 172.195 287.781 173.952C302.763 175.71 314.483 180.769 313.957 185.251Z" fill="black" fill-opacity="0.7"/>
</g>
<path d="M306.416 160.433C306.416 173.904 286.208 193.5 286.208 193.5C286.208 193.5 266 175.129 266 160.433C266 149.272 275.047 139 286.208 139C297.368 139 306.416 149.272 306.416 160.433Z" fill="#FFC700"/>
<path d="M285.595 145.572C286.894 145.572 288.14 146.088 289.059 147.007C289.977 147.926 290.494 149.172 290.494 150.471C290.494 151.77 289.977 153.016 289.059 153.935C288.14 154.854 286.894 155.37 285.595 155.37C284.295 155.37 283.049 154.854 282.131 153.935C281.212 153.016 280.696 151.77 280.696 150.471C280.696 149.172 281.212 147.926 282.131 147.007C283.049 146.088 284.295 145.572 285.595 145.572ZM285.595 157.819C291.008 157.819 295.392 160.012 295.392 162.718V165.168H275.797V162.718C275.797 160.012 280.181 157.819 285.595 157.819Z" fill="white"/>
<rect x="257" y="166" width="58" height="16" rx="3" fill="#FFC700"/>
<path d="M265.001 168.666C264.028 168.666 263.096 169.052 262.408 169.74C261.72 170.428 261.334 171.36 261.334 172.333C261.334 172.666 261.394 172.999 261.481 173.333H264.201L265.047 171.086C265.247 170.553 266.034 170.499 266.287 171.086L267.667 174.666L268.061 173.719C268.147 173.499 268.381 173.333 268.667 173.333H274.521C274.607 172.999 274.667 172.666 274.667 172.333C274.667 171.36 274.281 170.428 273.593 169.74C272.906 169.052 271.973 168.666 271.001 168.666C269.761 168.666 268.667 169.286 268.001 170.226C267.334 169.286 266.241 168.666 265.001 168.666ZM262.001 174.333C261.824 174.333 261.654 174.403 261.529 174.528C261.404 174.653 261.334 174.823 261.334 174.999C261.334 175.176 261.404 175.346 261.529 175.471C261.654 175.596 261.824 175.666 262.001 175.666H263.627L267.334 179.333C268.001 179.933 268.001 179.933 268.667 179.333L272.374 175.666H274.001C274.177 175.666 274.347 175.596 274.472 175.471C274.597 175.346 274.667 175.176 274.667 174.999C274.667 174.823 274.597 174.653 274.472 174.528C274.347 174.403 274.177 174.333 274.001 174.333H268.934L268.314 175.866C268.047 176.539 267.281 176.446 267.034 175.886L265.667 172.333L265.027 173.886C264.927 174.139 264.701 174.333 264.401 174.333H262.001Z" fill="white"/>
<path d="M289.772 173.467C289.619 173.267 289.432 173.093 289.259 172.92C288.812 172.52 288.306 172.233 287.879 171.813C286.886 170.84 286.666 169.233 287.299 168C286.666 168.153 286.112 168.5 285.639 168.88C283.912 170.267 283.232 172.713 284.046 174.813C284.072 174.88 284.099 174.947 284.099 175.033C284.099 175.18 283.999 175.313 283.866 175.367C283.712 175.433 283.552 175.393 283.426 175.287C283.386 175.253 283.359 175.22 283.332 175.173C282.579 174.22 282.459 172.853 282.966 171.76C281.852 172.667 281.246 174.2 281.332 175.647C281.372 175.98 281.412 176.313 281.526 176.647C281.619 177.047 281.799 177.447 281.999 177.8C282.719 178.953 283.966 179.78 285.306 179.947C286.732 180.127 288.259 179.867 289.352 178.88C290.572 177.773 290.999 176 290.372 174.48L290.286 174.307C290.146 174 289.772 173.467 289.772 173.467ZM287.666 177.667C287.479 177.827 287.172 178 286.932 178.067C286.186 178.333 285.439 177.96 284.999 177.52C285.792 177.333 286.266 176.747 286.406 176.153C286.519 175.62 286.306 175.18 286.219 174.667C286.139 174.173 286.152 173.753 286.332 173.293C286.459 173.547 286.592 173.8 286.752 174C287.266 174.667 288.072 174.96 288.246 175.867C288.272 175.96 288.286 176.053 288.286 176.153C288.306 176.7 288.066 177.3 287.666 177.667Z" fill="white"/>
<path d="M302.667 168L301.333 169.333V170.667H299.333C298.567 170.667 298.08 171.333 298 172L297.333 178.667C297.253 179.333 297.693 180 298.667 180H309.333C310.307 180 310.747 179.333 310.667 178.667L310 172C309.92 171.333 309.373 170.667 308.667 170.667H306.667V169.333L305.333 168H302.667ZM302.667 169.333H305.333V170.667H302.667V169.333ZM303.333 172.667H304.667V174.667H306.667V176H304.667V178H303.333V176H301.333V174.667H303.333V172.667Z" fill="white"/>
<g filter="url(#filter3_f)">
<path d="M205.957 105.251C205.303 110.821 177.117 116.655 177.117 116.655C177.117 116.655 150.941 105.357 151.7 98.8853C152.226 94.4031 164.798 92.1945 179.781 93.9524C194.763 95.7102 206.483 100.769 205.957 105.251Z" fill="black" fill-opacity="0.7"/>
</g>
<path d="M198.416 80.4326C198.416 93.9045 178.208 113.5 178.208 113.5C178.208 113.5 158 95.1292 158 80.4326C158 69.2721 167.047 59 178.208 59C189.368 59 198.416 69.2721 198.416 80.4326Z" fill="#595959"/>
<path d="M177.595 65.5723C178.894 65.5723 180.14 66.0884 181.059 67.0071C181.977 67.9258 182.494 69.1719 182.494 70.4711C182.494 71.7704 181.977 73.0165 181.059 73.9352C180.14 74.8539 178.894 75.37 177.595 75.37C176.295 75.37 175.049 74.8539 174.131 73.9352C173.212 73.0165 172.696 71.7704 172.696 70.4711C172.696 69.1719 173.212 67.9258 174.131 67.0071C175.049 66.0884 176.295 65.5723 177.595 65.5723ZM177.595 77.8195C183.008 77.8195 187.392 80.0117 187.392 82.7183V85.1678H167.797V82.7183C167.797 80.0117 172.181 77.8195 177.595 77.8195Z" fill="white"/>
<rect x="167" y="86" width="22" height="16" rx="3" fill="#595959"/>
<path d="M176.667 88L175.333 89.3333V90.6667H173.333C172.567 90.6667 172.08 91.3333 172 92L171.333 98.6667C171.253 99.3333 171.693 100 172.667 100H183.333C184.307 100 184.747 99.3333 184.667 98.6667L184 92C183.92 91.3333 183.373 90.6667 182.667 90.6667H180.667V89.3333L179.333 88H176.667ZM176.667 89.3333H179.333V90.6667H176.667V89.3333ZM177.333 92.6667H178.667V94.6667H180.667V96H178.667V98H177.333V96H175.333V94.6667H177.333V92.6667Z" fill="#F0F0F0"/>
<g filter="url(#filter4_f)">
<path d="M87.9569 52.251C87.3034 57.8206 59.1171 63.6553 59.1171 63.6553C59.1171 63.6553 32.9409 52.3567 33.7002 45.8853C34.226 41.4031 46.7981 39.1945 61.7807 40.9524C76.7633 42.7102 88.4828 47.7688 87.9569 52.251Z" fill="black" fill-opacity="0.7"/>
</g>
<path d="M80.4157 27.4326C80.4157 40.9045 60.2079 60.5 60.2079 60.5C60.2079 60.5 40 42.1292 40 27.4326C40 16.2721 49.0474 6 60.2079 6C71.3684 6 80.4157 16.2721 80.4157 27.4326Z" fill="#FFC700"/>
<path d="M59.5946 12.5723C60.8939 12.5723 62.1399 13.0884 63.0587 14.0071C63.9774 14.9258 64.4935 16.1719 64.4935 17.4711C64.4935 18.7704 63.9774 20.0165 63.0587 20.9352C62.1399 21.8539 60.8939 22.37 59.5946 22.37C58.2954 22.37 57.0493 21.8539 56.1306 20.9352C55.2119 20.0165 54.6958 18.7704 54.6958 17.4711C54.6958 16.1719 55.2119 14.9258 56.1306 14.0071C57.0493 13.0884 58.2954 12.5723 59.5946 12.5723ZM59.5946 24.8195C65.0079 24.8195 69.3924 27.0117 69.3924 29.7183V32.1678H49.7969V29.7183C49.7969 27.0117 54.1814 24.8195 59.5946 24.8195Z" fill="white"/>
<rect x="31" y="33" width="58" height="16" rx="3" fill="#FFC700"/>
<path d="M39.0007 35.666C38.0282 35.666 37.0956 36.0523 36.4079 36.74C35.7203 37.4276 35.334 38.3602 35.334 39.3327C35.334 39.666 35.394 39.9993 35.4807 40.3327H38.2007L39.0473 38.086C39.2473 37.5527 40.034 37.4993 40.2873 38.086L41.6673 41.666L42.0607 40.7193C42.1473 40.4993 42.3807 40.3327 42.6673 40.3327H48.5207C48.6073 39.9993 48.6673 39.666 48.6673 39.3327C48.6673 38.3602 48.281 37.4276 47.5934 36.74C46.9057 36.0523 45.9731 35.666 45.0007 35.666C43.7607 35.666 42.6673 36.286 42.0007 37.226C41.334 36.286 40.2407 35.666 39.0007 35.666ZM36.0007 41.3327C35.8238 41.3327 35.6543 41.4029 35.5292 41.5279C35.4042 41.653 35.334 41.8225 35.334 41.9993C35.334 42.1762 35.4042 42.3457 35.5292 42.4708C35.6543 42.5958 35.8238 42.666 36.0007 42.666H37.6273L41.334 46.3327C42.0007 46.9327 42.0007 46.9327 42.6673 46.3327L46.374 42.666H48.0007C48.1775 42.666 48.347 42.5958 48.4721 42.4708C48.5971 42.3457 48.6673 42.1762 48.6673 41.9993C48.6673 41.8225 48.5971 41.653 48.4721 41.5279C48.347 41.4029 48.1775 41.3327 48.0007 41.3327H42.934L42.314 42.866C42.0473 43.5393 41.2807 43.446 41.034 42.886L39.6673 39.3327L39.0273 40.886C38.9273 41.1393 38.7007 41.3327 38.4007 41.3327H36.0007Z" fill="white"/>
<path d="M63.7724 40.4667C63.6191 40.2667 63.4324 40.0933 63.2591 39.92C62.8124 39.52 62.3057 39.2333 61.8791 38.8133C60.8857 37.84 60.6657 36.2333 61.2991 35C60.6657 35.1533 60.1124 35.5 59.6391 35.88C57.9124 37.2667 57.2324 39.7133 58.0457 41.8133C58.0724 41.88 58.0991 41.9467 58.0991 42.0333C58.0991 42.18 57.9991 42.3133 57.8657 42.3667C57.7124 42.4333 57.5524 42.3933 57.4257 42.2867C57.3857 42.2533 57.3591 42.22 57.3324 42.1733C56.5791 41.22 56.4591 39.8533 56.9657 38.76C55.8524 39.6667 55.2457 41.2 55.3324 42.6467C55.3724 42.98 55.4124 43.3133 55.5257 43.6467C55.6191 44.0467 55.7991 44.4467 55.9991 44.8C56.7191 45.9533 57.9657 46.78 59.3057 46.9467C60.7324 47.1267 62.2591 46.8667 63.3524 45.88C64.5724 44.7733 64.9991 43 64.3724 41.48L64.2857 41.3067C64.1457 41 63.7724 40.4667 63.7724 40.4667ZM61.6657 44.6667C61.4791 44.8267 61.1724 45 60.9324 45.0667C60.1857 45.3333 59.4391 44.96 58.9991 44.52C59.7924 44.3333 60.2657 43.7467 60.4057 43.1533C60.5191 42.62 60.3057 42.18 60.2191 41.6667C60.1391 41.1733 60.1524 40.7533 60.3324 40.2933C60.4591 40.5467 60.5924 40.8 60.7524 41C61.2657 41.6667 62.0724 41.96 62.2457 42.8667C62.2724 42.96 62.2857 43.0533 62.2857 43.1533C62.3057 43.7 62.0657 44.3 61.6657 44.6667Z" fill="white"/>
<path d="M76.6668 35L75.3334 36.3333V37.6667H73.3334C72.5668 37.6667 72.0801 38.3333 72.0001 39L71.3334 45.6667C71.2534 46.3333 71.6934 47 72.6668 47H83.3334C84.3068 47 84.7468 46.3333 84.6668 45.6667L84.0001 39C83.9201 38.3333 83.3734 37.6667 82.6668 37.6667H80.6668V36.3333L79.3334 35H76.6668ZM76.6668 36.3333H79.3334V37.6667H76.6668V36.3333ZM77.3334 39.6667H78.6668V41.6667H80.6668V43H78.6668V45H77.3334V43H75.3334V41.6667H77.3334V39.6667Z" fill="white"/>
<g filter="url(#filter5_f)">
<path d="M119.957 266.251C119.303 271.821 91.1171 277.655 91.1171 277.655C91.1171 277.655 64.9409 266.357 65.7002 259.885C66.226 255.403 78.7981 253.195 93.7807 254.952C108.763 256.71 120.483 261.769 119.957 266.251Z" fill="black" fill-opacity="0.7"/>
</g>
<path d="M112.416 241.433C112.416 254.904 92.2079 274.5 92.2079 274.5C92.2079 274.5 72 256.129 72 241.433C72 230.272 81.0474 220 92.2079 220C103.368 220 112.416 230.272 112.416 241.433Z" fill="#595959"/>
<path d="M91.5946 226.572C92.8939 226.572 94.1399 227.088 95.0587 228.007C95.9774 228.926 96.4935 230.172 96.4935 231.471C96.4935 232.77 95.9774 234.016 95.0587 234.935C94.1399 235.854 92.8939 236.37 91.5946 236.37C90.2954 236.37 89.0493 235.854 88.1306 234.935C87.2119 234.016 86.6958 232.77 86.6958 231.471C86.6958 230.172 87.2119 228.926 88.1306 228.007C89.0493 227.088 90.2954 226.572 91.5946 226.572ZM91.5946 238.819C97.0079 238.819 101.392 241.012 101.392 243.718V246.168H81.7969V243.718C81.7969 241.012 86.1814 238.819 91.5946 238.819Z" fill="white"/>
<rect x="81" y="247" width="22" height="16" rx="3" fill="#595959"/>
<path d="M95.7724 254.467C95.6191 254.267 95.4324 254.093 95.2591 253.92C94.8124 253.52 94.3057 253.233 93.8791 252.813C92.8857 251.84 92.6657 250.233 93.2991 249C92.6657 249.153 92.1124 249.5 91.6391 249.88C89.9124 251.267 89.2324 253.713 90.0457 255.813C90.0724 255.88 90.0991 255.947 90.0991 256.033C90.0991 256.18 89.9991 256.313 89.8657 256.367C89.7124 256.433 89.5524 256.393 89.4257 256.287C89.3857 256.253 89.3591 256.22 89.3324 256.173C88.5791 255.22 88.4591 253.853 88.9657 252.76C87.8524 253.667 87.2457 255.2 87.3324 256.647C87.3724 256.98 87.4124 257.313 87.5257 257.647C87.6191 258.047 87.7991 258.447 87.9991 258.8C88.7191 259.953 89.9657 260.78 91.3057 260.947C92.7324 261.127 94.2591 260.867 95.3524 259.88C96.5724 258.773 96.9991 257 96.3724 255.48L96.2857 255.307C96.1457 255 95.7724 254.467 95.7724 254.467ZM93.6657 258.667C93.4791 258.827 93.1724 259 92.9324 259.067C92.1857 259.333 91.4391 258.96 90.9991 258.52C91.7924 258.333 92.2657 257.747 92.4057 257.153C92.5191 256.62 92.3057 256.18 92.2191 255.667C92.1391 255.173 92.1524 254.753 92.3324 254.293C92.4591 254.547 92.5924 254.8 92.7524 255C93.2657 255.667 94.0724 255.96 94.2457 256.867C94.2724 256.96 94.2857 257.053 94.2857 257.153C94.3057 257.7 94.0657 258.3 93.6657 258.667Z" fill="#F0F0F0"/>
<g filter="url(#filter6_f)">
<path d="M225.957 307.251C225.303 312.821 197.117 318.655 197.117 318.655C197.117 318.655 170.941 307.357 171.7 300.885C172.226 296.403 184.798 294.195 199.781 295.952C214.763 297.71 226.483 302.769 225.957 307.251Z" fill="black" fill-opacity="0.7"/>
</g>
<path d="M218.416 282.433C218.416 295.904 198.208 315.5 198.208 315.5C198.208 315.5 178 297.129 178 282.433C178 271.272 187.047 261 198.208 261C209.368 261 218.416 271.272 218.416 282.433Z" fill="#FFC700"/>
<path d="M197.595 267.572C198.894 267.572 200.14 268.088 201.059 269.007C201.977 269.926 202.494 271.172 202.494 272.471C202.494 273.77 201.977 275.016 201.059 275.935C200.14 276.854 198.894 277.37 197.595 277.37C196.295 277.37 195.049 276.854 194.131 275.935C193.212 275.016 192.696 273.77 192.696 272.471C192.696 271.172 193.212 269.926 194.131 269.007C195.049 268.088 196.295 267.572 197.595 267.572ZM197.595 279.819C203.008 279.819 207.392 282.012 207.392 284.718V287.168H187.797V284.718C187.797 282.012 192.181 279.819 197.595 279.819Z" fill="white"/>
<rect x="169" y="288" width="58" height="16" rx="3" fill="#FFC700"/>
<path d="M177.001 290.666C176.028 290.666 175.096 291.052 174.408 291.74C173.72 292.428 173.334 293.36 173.334 294.333C173.334 294.666 173.394 294.999 173.481 295.333H176.201L177.047 293.086C177.247 292.553 178.034 292.499 178.287 293.086L179.667 296.666L180.061 295.719C180.147 295.499 180.381 295.333 180.667 295.333H186.521C186.607 294.999 186.667 294.666 186.667 294.333C186.667 293.36 186.281 292.428 185.593 291.74C184.906 291.052 183.973 290.666 183.001 290.666C181.761 290.666 180.667 291.286 180.001 292.226C179.334 291.286 178.241 290.666 177.001 290.666ZM174.001 296.333C173.824 296.333 173.654 296.403 173.529 296.528C173.404 296.653 173.334 296.823 173.334 296.999C173.334 297.176 173.404 297.346 173.529 297.471C173.654 297.596 173.824 297.666 174.001 297.666H175.627L179.334 301.333C180.001 301.933 180.001 301.933 180.667 301.333L184.374 297.666H186.001C186.177 297.666 186.347 297.596 186.472 297.471C186.597 297.346 186.667 297.176 186.667 296.999C186.667 296.823 186.597 296.653 186.472 296.528C186.347 296.403 186.177 296.333 186.001 296.333H180.934L180.314 297.866C180.047 298.539 179.281 298.446 179.034 297.886L177.667 294.333L177.027 295.886C176.927 296.139 176.701 296.333 176.401 296.333H174.001Z" fill="white"/>
<path d="M201.772 295.467C201.619 295.267 201.432 295.093 201.259 294.92C200.812 294.52 200.306 294.233 199.879 293.813C198.886 292.84 198.666 291.233 199.299 290C198.666 290.153 198.112 290.5 197.639 290.88C195.912 292.267 195.232 294.713 196.046 296.813C196.072 296.88 196.099 296.947 196.099 297.033C196.099 297.18 195.999 297.313 195.866 297.367C195.712 297.433 195.552 297.393 195.426 297.287C195.386 297.253 195.359 297.22 195.332 297.173C194.579 296.22 194.459 294.853 194.966 293.76C193.852 294.667 193.246 296.2 193.332 297.647C193.372 297.98 193.412 298.313 193.526 298.647C193.619 299.047 193.799 299.447 193.999 299.8C194.719 300.953 195.966 301.78 197.306 301.947C198.732 302.127 200.259 301.867 201.352 300.88C202.572 299.773 202.999 298 202.372 296.48L202.286 296.307C202.146 296 201.772 295.467 201.772 295.467ZM199.666 299.667C199.479 299.827 199.172 300 198.932 300.067C198.186 300.333 197.439 299.96 196.999 299.52C197.792 299.333 198.266 298.747 198.406 298.153C198.519 297.62 198.306 297.18 198.219 296.667C198.139 296.173 198.152 295.753 198.332 295.293C198.459 295.547 198.592 295.8 198.752 296C199.266 296.667 200.072 296.96 200.246 297.867C200.272 297.96 200.286 298.053 200.286 298.153C200.306 298.7 200.066 299.3 199.666 299.667Z" fill="white"/>
<path d="M214.667 290L213.333 291.333V292.667H211.333C210.567 292.667 210.08 293.333 210 294L209.333 300.667C209.253 301.333 209.693 302 210.667 302H221.333C222.307 302 222.747 301.333 222.667 300.667L222 294C221.92 293.333 221.373 292.667 220.667 292.667H218.667V291.333L217.333 290H214.667ZM214.667 291.333H217.333V292.667H214.667V291.333ZM215.333 294.667H216.667V296.667H218.667V298H216.667V300H215.333V298H213.333V296.667H215.333V294.667Z" fill="white"/>
<g filter="url(#filter7_f)">
<path d="M117.957 437.251C117.303 442.821 89.1171 448.655 89.1171 448.655C89.1171 448.655 62.9409 437.357 63.7002 430.885C64.226 426.403 76.7981 424.195 91.7807 425.952C106.763 427.71 118.483 432.769 117.957 437.251Z" fill="black" fill-opacity="0.7"/>
</g>
<path d="M110.416 412.433C110.416 425.904 90.2079 445.5 90.2079 445.5C90.2079 445.5 70 427.129 70 412.433C70 401.272 79.0474 391 90.2079 391C101.368 391 110.416 401.272 110.416 412.433Z" fill="#434343"/>
<path d="M89.5946 397.572C90.8939 397.572 92.1399 398.088 93.0587 399.007C93.9774 399.926 94.4935 401.172 94.4935 402.471C94.4935 403.77 93.9774 405.016 93.0587 405.935C92.1399 406.854 90.8939 407.37 89.5946 407.37C88.2954 407.37 87.0493 406.854 86.1306 405.935C85.2119 405.016 84.6958 403.77 84.6958 402.471C84.6958 401.172 85.2119 399.926 86.1306 399.007C87.0493 398.088 88.2954 397.572 89.5946 397.572ZM89.5946 409.819C95.0079 409.819 99.3924 412.012 99.3924 414.718V417.168H79.7969V414.718C79.7969 412.012 84.1814 409.819 89.5946 409.819Z" fill="white"/>
<rect x="70" y="418" width="40" height="16" rx="3" fill="#434343"/>
<path d="M78.0007 420.666C77.0282 420.666 76.0956 421.052 75.4079 421.74C74.7203 422.428 74.334 423.36 74.334 424.333C74.334 424.666 74.394 424.999 74.4807 425.333H77.2007L78.0473 423.086C78.2473 422.553 79.034 422.499 79.2873 423.086L80.6673 426.666L81.0607 425.719C81.1473 425.499 81.3807 425.333 81.6673 425.333H87.5207C87.6073 424.999 87.6673 424.666 87.6673 424.333C87.6673 423.36 87.281 422.428 86.5934 421.74C85.9057 421.052 84.9731 420.666 84.0007 420.666C82.7607 420.666 81.6673 421.286 81.0007 422.226C80.334 421.286 79.2407 420.666 78.0007 420.666ZM75.0007 426.333C74.8238 426.333 74.6543 426.403 74.5292 426.528C74.4042 426.653 74.334 426.823 74.334 426.999C74.334 427.176 74.4042 427.346 74.5292 427.471C74.6543 427.596 74.8238 427.666 75.0007 427.666H76.6273L80.334 431.333C81.0007 431.933 81.0007 431.933 81.6673 431.333L85.374 427.666H87.0007C87.1775 427.666 87.347 427.596 87.4721 427.471C87.5971 427.346 87.6673 427.176 87.6673 426.999C87.6673 426.823 87.5971 426.653 87.4721 426.528C87.347 426.403 87.1775 426.333 87.0007 426.333H81.934L81.314 427.866C81.0473 428.539 80.2807 428.446 80.034 427.886L78.6673 424.333L78.0273 425.886C77.9273 426.139 77.7007 426.333 77.4007 426.333H75.0007Z" fill="#D9D9D9"/>
<path d="M102.772 425.467C102.619 425.267 102.432 425.093 102.259 424.92C101.812 424.52 101.306 424.233 100.879 423.813C99.8857 422.84 99.6657 421.233 100.299 420C99.6657 420.153 99.1124 420.5 98.6391 420.88C96.9124 422.267 96.2324 424.713 97.0457 426.813C97.0724 426.88 97.0991 426.947 97.0991 427.033C97.0991 427.18 96.9991 427.313 96.8657 427.367C96.7124 427.433 96.5524 427.393 96.4257 427.287C96.3857 427.253 96.3591 427.22 96.3324 427.173C95.5791 426.22 95.4591 424.853 95.9657 423.76C94.8524 424.667 94.2457 426.2 94.3324 427.647C94.3724 427.98 94.4124 428.313 94.5257 428.647C94.6191 429.047 94.7991 429.447 94.9991 429.8C95.7191 430.953 96.9657 431.78 98.3057 431.947C99.7324 432.127 101.259 431.867 102.352 430.88C103.572 429.773 103.999 428 103.372 426.48L103.286 426.307C103.146 426 102.772 425.467 102.772 425.467ZM100.666 429.667C100.479 429.827 100.172 430 99.9324 430.067C99.1857 430.333 98.4391 429.96 97.9991 429.52C98.7924 429.333 99.2657 428.747 99.4057 428.153C99.5191 427.62 99.3057 427.18 99.2191 426.667C99.1391 426.173 99.1524 425.753 99.3324 425.293C99.4591 425.547 99.5924 425.8 99.7524 426C100.266 426.667 101.072 426.96 101.246 427.867C101.272 427.96 101.286 428.053 101.286 428.153C101.306 428.7 101.066 429.3 100.666 429.667Z" fill="#D9D9D9"/>
<g filter="url(#filter8_f)">
<path d="M430.957 399.251C430.303 404.821 402.117 410.655 402.117 410.655C402.117 410.655 375.941 399.357 376.7 392.885C377.226 388.403 389.798 386.195 404.781 387.952C419.763 389.71 431.483 394.769 430.957 399.251Z" fill="black" fill-opacity="0.7"/>
</g>
<path d="M423.416 374.433C423.416 387.904 403.208 407.5 403.208 407.5C403.208 407.5 383 389.129 383 374.433C383 363.272 392.047 353 403.208 353C414.368 353 423.416 363.272 423.416 374.433Z" fill="#434343"/>
<path d="M402.595 359.572C403.894 359.572 405.14 360.088 406.059 361.007C406.977 361.926 407.494 363.172 407.494 364.471C407.494 365.77 406.977 367.016 406.059 367.935C405.14 368.854 403.894 369.37 402.595 369.37C401.295 369.37 400.049 368.854 399.131 367.935C398.212 367.016 397.696 365.77 397.696 364.471C397.696 363.172 398.212 361.926 399.131 361.007C400.049 360.088 401.295 359.572 402.595 359.572ZM402.595 371.819C408.008 371.819 412.392 374.012 412.392 376.718V379.168H392.797V376.718C392.797 374.012 397.181 371.819 402.595 371.819Z" fill="white"/>
<rect x="374" y="380" width="58" height="16" rx="3" fill="#434343"/>
<path d="M382.001 382.666C381.028 382.666 380.096 383.052 379.408 383.74C378.72 384.428 378.334 385.36 378.334 386.333C378.334 386.666 378.394 386.999 378.481 387.333H381.201L382.047 385.086C382.247 384.553 383.034 384.499 383.287 385.086L384.667 388.666L385.061 387.719C385.147 387.499 385.381 387.333 385.667 387.333H391.521C391.607 386.999 391.667 386.666 391.667 386.333C391.667 385.36 391.281 384.428 390.593 383.74C389.906 383.052 388.973 382.666 388.001 382.666C386.761 382.666 385.667 383.286 385.001 384.226C384.334 383.286 383.241 382.666 382.001 382.666ZM379.001 388.333C378.824 388.333 378.654 388.403 378.529 388.528C378.404 388.653 378.334 388.823 378.334 388.999C378.334 389.176 378.404 389.346 378.529 389.471C378.654 389.596 378.824 389.666 379.001 389.666H380.627L384.334 393.333C385.001 393.933 385.001 393.933 385.667 393.333L389.374 389.666H391.001C391.177 389.666 391.347 389.596 391.472 389.471C391.597 389.346 391.667 389.176 391.667 388.999C391.667 388.823 391.597 388.653 391.472 388.528C391.347 388.403 391.177 388.333 391.001 388.333H385.934L385.314 389.866C385.047 390.539 384.281 390.446 384.034 389.886L382.667 386.333L382.027 387.886C381.927 388.139 381.701 388.333 381.401 388.333H379.001Z" fill="#D9D9D9"/>
<path d="M406.772 387.467C406.619 387.267 406.432 387.093 406.259 386.92C405.812 386.52 405.306 386.233 404.879 385.813C403.886 384.84 403.666 383.233 404.299 382C403.666 382.153 403.112 382.5 402.639 382.88C400.912 384.267 400.232 386.713 401.046 388.813C401.072 388.88 401.099 388.947 401.099 389.033C401.099 389.18 400.999 389.313 400.866 389.367C400.712 389.433 400.552 389.393 400.426 389.287C400.386 389.253 400.359 389.22 400.332 389.173C399.579 388.22 399.459 386.853 399.966 385.76C398.852 386.667 398.246 388.2 398.332 389.647C398.372 389.98 398.412 390.313 398.526 390.647C398.619 391.047 398.799 391.447 398.999 391.8C399.719 392.953 400.966 393.78 402.306 393.947C403.732 394.127 405.259 393.867 406.352 392.88C407.572 391.773 407.999 390 407.372 388.48L407.286 388.307C407.146 388 406.772 387.467 406.772 387.467ZM404.666 391.667C404.479 391.827 404.172 392 403.932 392.067C403.186 392.333 402.439 391.96 401.999 391.52C402.792 391.333 403.266 390.747 403.406 390.153C403.519 389.62 403.306 389.18 403.219 388.667C403.139 388.173 403.152 387.753 403.332 387.293C403.459 387.547 403.592 387.8 403.752 388C404.266 388.667 405.072 388.96 405.246 389.867C405.272 389.96 405.286 390.053 405.286 390.153C405.306 390.7 405.066 391.3 404.666 391.667Z" fill="#D9D9D9"/>
<path d="M419.667 382L418.333 383.333V384.667H416.333C415.567 384.667 415.08 385.333 415 386L414.333 392.667C414.253 393.333 414.693 394 415.667 394H426.333C427.307 394 427.747 393.333 427.667 392.667L427 386C426.92 385.333 426.373 384.667 425.667 384.667H423.667V383.333L422.333 382H419.667ZM419.667 383.333H422.333V384.667H419.667V383.333ZM420.333 386.667H421.667V388.667H423.667V390H421.667V392H420.333V390H418.333V388.667H420.333V386.667Z" fill="#D9D9D9"/>
<circle cx="361" cy="121" r="16" fill="#D32029"/>
<path d="M365.5 113.83C363.76 113.83 362.09 114.64 361 115.9C359.91 114.64 358.24 113.83 356.5 113.83C353.42 113.83 351 116.24 351 119.33C351 123.1 354.4 126.19 359.55 130.86L361 132.17L362.45 130.86C367.6 126.19 371 123.1 371 119.33C371 116.24 368.58 113.83 365.5 113.83ZM361 128.83V124.83H358L361 117.83V121.83H364" fill="white"/>
<path d="M352.4 149.632L350.992 145.784C350.923 145.613 350.851 145.411 350.776 145.176C350.701 144.941 350.627 144.688 350.552 144.416C350.483 144.688 350.411 144.944 350.336 145.184C350.261 145.419 350.189 145.624 350.12 145.8L348.72 149.632H352.4ZM356.2 154H354.536C354.349 154 354.197 153.955 354.08 153.864C353.963 153.768 353.875 153.651 353.816 153.512L352.952 151.152H348.16L347.296 153.512C347.253 153.635 347.171 153.747 347.048 153.848C346.925 153.949 346.773 154 346.592 154H344.912L349.464 142.432H351.656L356.2 154ZM359.557 144.144V147.352H363.605V149.008H359.557V152.28H364.693V154H357.397V142.432H364.693V144.144H359.557ZM376.873 148.216C376.873 149.064 376.731 149.843 376.449 150.552C376.166 151.261 375.769 151.872 375.257 152.384C374.745 152.896 374.129 153.293 373.409 153.576C372.689 153.859 371.889 154 371.009 154H366.601V142.432H371.009C371.889 142.432 372.689 142.576 373.409 142.864C374.129 143.147 374.745 143.544 375.257 144.056C375.769 144.563 376.166 145.171 376.449 145.88C376.731 146.589 376.873 147.368 376.873 148.216ZM374.665 148.216C374.665 147.581 374.579 147.013 374.409 146.512C374.243 146.005 374.001 145.579 373.681 145.232C373.366 144.88 372.982 144.611 372.529 144.424C372.081 144.237 371.574 144.144 371.009 144.144H368.761V152.288H371.009C371.574 152.288 372.081 152.195 372.529 152.008C372.982 151.821 373.366 151.555 373.681 151.208C374.001 150.856 374.243 150.429 374.409 149.928C374.579 149.421 374.665 148.851 374.665 148.216Z" fill="white"/>
<circle cx="17" cy="20" r="16" fill="#D32029"/>
<path d="M21.5 12.8301C19.76 12.8301 18.09 13.6401 17 14.9001C15.91 13.6401 14.24 12.8301 12.5 12.8301C9.42 12.8301 7 15.2401 7 18.3301C7 22.1001 10.4 25.1901 15.55 29.8601L17 31.1701L18.45 29.8601C23.6 25.1901 27 22.1001 27 18.3301C27 15.2401 24.58 12.8301 21.5 12.8301ZM17 27.8301V23.8301H14L17 16.8301V20.8301H20" fill="white"/>
<path d="M8.4 48.632L6.992 44.784C6.92267 44.6133 6.85067 44.4107 6.776 44.176C6.70133 43.9413 6.62667 43.688 6.552 43.416C6.48267 43.688 6.41067 43.944 6.336 44.184C6.26133 44.4187 6.18933 44.624 6.12 44.8L4.72 48.632H8.4ZM12.2 53H10.536C10.3493 53 10.1973 52.9547 10.08 52.864C9.96267 52.768 9.87467 52.6507 9.816 52.512L8.952 50.152H4.16L3.296 52.512C3.25333 52.6347 3.17067 52.7467 3.048 52.848C2.92533 52.9493 2.77333 53 2.592 53H0.912L5.464 41.432H7.656L12.2 53ZM15.5574 43.144V46.352H19.6054V48.008H15.5574V51.28H20.6934V53H13.3974V41.432H20.6934V43.144H15.5574ZM32.8725 47.216C32.8725 48.064 32.7312 48.8427 32.4485 49.552C32.1658 50.2613 31.7685 50.872 31.2565 51.384C30.7445 51.896 30.1285 52.2933 29.4085 52.576C28.6885 52.8587 27.8885 53 27.0085 53H22.6005V41.432H27.0085C27.8885 41.432 28.6885 41.576 29.4085 41.864C30.1285 42.1467 30.7445 42.544 31.2565 43.056C31.7685 43.5627 32.1658 44.1707 32.4485 44.88C32.7312 45.5893 32.8725 46.368 32.8725 47.216ZM30.6645 47.216C30.6645 46.5813 30.5792 46.0133 30.4085 45.512C30.2432 45.0053 30.0005 44.5787 29.6805 44.232C29.3658 43.88 28.9818 43.6107 28.5285 43.424C28.0805 43.2373 27.5738 43.144 27.0085 43.144H24.7605V51.288H27.0085C27.5738 51.288 28.0805 51.1947 28.5285 51.008C28.9818 50.8213 29.3658 50.5547 29.6805 50.208C30.0005 49.856 30.2432 49.4293 30.4085 48.928C30.5792 48.4213 30.6645 47.8507 30.6645 47.216Z" fill="white"/>
<defs>
<filter id="filter0_f" x="188.988" y="348.77" width="84.9203" height="57.0686" filterUnits="userSpaceOnUse" color-interpolation-filters="sRGB">
<feFlood flood-opacity="0" result="BackgroundImageFix"/>
<feBlend mode="normal" in="SourceGraphic" in2="BackgroundImageFix" result="shape"/>
<feGaussianBlur stdDeviation="7" result="effect1_foregroundBlur"/>
</filter>
<filter id="filter1_f" x="101.504" y="198.096" width="82.8128" height="50.8679" filterUnits="userSpaceOnUse" color-interpolation-filters="sRGB">
<feFlood flood-opacity="0" result="BackgroundImageFix"/>
<feBlend mode="normal" in="SourceGraphic" in2="BackgroundImageFix" result="shape"/>
<feGaussianBlur stdDeviation="7" result="effect1_foregroundBlur"/>
</filter>
<filter id="filter2_f" x="243.988" y="156.77" width="84.9203" height="57.0686" filterUnits="userSpaceOnUse" color-interpolation-filters="sRGB">
<feFlood flood-opacity="0" result="BackgroundImageFix"/>
<feBlend mode="normal" in="SourceGraphic" in2="BackgroundImageFix" result="shape"/>
<feGaussianBlur stdDeviation="7" result="effect1_foregroundBlur"/>
</filter>
<filter id="filter3_f" x="135.988" y="76.7695" width="84.9203" height="57.0686" filterUnits="userSpaceOnUse" color-interpolation-filters="sRGB">
<feFlood flood-opacity="0" result="BackgroundImageFix"/>
<feBlend mode="normal" in="SourceGraphic" in2="BackgroundImageFix" result="shape"/>
<feGaussianBlur stdDeviation="7" result="effect1_foregroundBlur"/>
</filter>
<filter id="filter4_f" x="17.9883" y="23.7695" width="84.9203" height="57.0686" filterUnits="userSpaceOnUse" color-interpolation-filters="sRGB">
<feFlood flood-opacity="0" result="BackgroundImageFix"/>
<feBlend mode="normal" in="SourceGraphic" in2="BackgroundImageFix" result="shape"/>
<feGaussianBlur stdDeviation="7" result="effect1_foregroundBlur"/>
</filter>
<filter id="filter5_f" x="49.9883" y="237.77" width="84.9203" height="57.0686" filterUnits="userSpaceOnUse" color-interpolation-filters="sRGB">
<feFlood flood-opacity="0" result="BackgroundImageFix"/>
<feBlend mode="normal" in="SourceGraphic" in2="BackgroundImageFix" result="shape"/>
<feGaussianBlur stdDeviation="7" result="effect1_foregroundBlur"/>
</filter>
<filter id="filter6_f" x="155.988" y="278.77" width="84.9203" height="57.0686" filterUnits="userSpaceOnUse" color-interpolation-filters="sRGB">
<feFlood flood-opacity="0" result="BackgroundImageFix"/>
<feBlend mode="normal" in="SourceGraphic" in2="BackgroundImageFix" result="shape"/>
<feGaussianBlur stdDeviation="7" result="effect1_foregroundBlur"/>
</filter>
<filter id="filter7_f" x="47.9883" y="408.77" width="84.9203" height="57.0686" filterUnits="userSpaceOnUse" color-interpolation-filters="sRGB">
<feFlood flood-opacity="0" result="BackgroundImageFix"/>
<feBlend mode="normal" in="SourceGraphic" in2="BackgroundImageFix" result="shape"/>
<feGaussianBlur stdDeviation="7" result="effect1_foregroundBlur"/>
</filter>
<filter id="filter8_f" x="360.988" y="370.77" width="84.9203" height="57.0686" filterUnits="userSpaceOnUse" color-interpolation-filters="sRGB">
<feFlood flood-opacity="0" result="BackgroundImageFix"/>
<feBlend mode="normal" in="SourceGraphic" in2="BackgroundImageFix" result="shape"/>
<feGaussianBlur stdDeviation="7" result="effect1_foregroundBlur"/>
</filter>
</defs>
</svg>
