<svg width="56" height="56" viewBox="0 0 56 56" fill="none" xmlns="http://www.w3.org/2000/svg">
<circle cx="28" cy="28" r="28" fill="#222D39"/>
<path d="M19.6667 27.666C19.6667 29.2527 20.12 30.7327 20.8667 32.0393L22.5067 30.3993C22.1467 29.5727 21.9333 28.6527 21.9333 27.666H19.6667ZM25 27.8793L33 19.906V19.666C33 18.6051 32.5786 17.5877 31.8284 16.8376C31.0783 16.0874 30.0609 15.666 29 15.666C27.9391 15.666 26.9217 16.0874 26.1716 16.8376C25.4214 17.5877 25 18.6051 25 19.666V27.666V27.8793ZM39.3067 16.9993L17 39.306L18.6933 40.9993L24.28 35.4127C25.3067 36.026 26.4533 36.4393 27.6667 36.626V40.9993H30.3333V36.626C34.7067 35.9727 38.3333 32.2127 38.3333 27.666H36.0667C36.0667 31.666 32.68 34.466 29 34.466C27.92 34.466 26.8667 34.2127 25.92 33.7727L28.1333 31.5593L29 31.666C30.0609 31.666 31.0783 31.2446 31.8284 30.4944C32.5786 29.7443 33 28.7269 33 27.666V26.706L41 18.6927L39.3067 16.9993Z" fill="white"/>
</svg>
