<svg width="14" height="14" viewBox="0 0 14 14" fill="none" xmlns="http://www.w3.org/2000/svg">
<path d="M13.6654 1.66634L12.332 0.333008C11.5654 0.759674 10.5987 0.999674 9.66537 0.999674C8.73203 0.999674 7.7587 0.753008 6.9987 0.333008C6.2387 0.753008 5.26536 0.999674 4.33203 0.999674C3.3987 0.999674 2.43203 0.759674 1.66536 0.333008L0.332031 1.66634C0.332031 1.66634 1.66536 2.99967 1.66536 4.33301C1.66536 5.66634 0.332031 8.33301 0.332031 9.66634C0.332031 12.333 6.9987 13.6663 6.9987 13.6663C6.9987 13.6663 13.6654 12.333 13.6654 9.66634C13.6654 8.33301 12.332 5.66634 12.332 4.33301C12.332 2.99967 13.6654 1.66634 13.6654 1.66634ZM9.03203 9.96634L6.9787 8.72634L4.93203 9.96634L5.4787 7.63301L3.66536 6.07301L6.05203 5.86634L6.9787 3.66634L7.91203 5.85967L10.2987 6.06634L8.48536 7.62634L9.03203 9.96634Z" fill="white"/>
</svg>
