<svg width="80" height="13" viewBox="0 0 80 13" fill="none" xmlns="http://www.w3.org/2000/svg">
<path d="M4.00538 6.73064C4.43738 6.73064 4.81604 6.67464 5.14138 6.56264C5.47204 6.45064 5.74671 6.29331 5.96538 6.09064C6.18938 5.88264 6.35738 5.63731 6.46938 5.35464C6.58138 5.06664 6.63738 4.74931 6.63738 4.40264C6.63738 3.70397 6.41871 3.15464 5.98138 2.75464C5.54938 2.35464 4.89071 2.15464 4.00538 2.15464H2.22938V6.73064H4.00538ZM4.00538 0.81864C4.74138 0.81864 5.38138 0.903973 5.92538 1.07464C6.46938 1.24531 6.92004 1.48797 7.27738 1.80264C7.63471 2.11197 7.89871 2.48797 8.06938 2.93064C8.24537 3.37331 8.33337 3.86397 8.33337 4.40264C8.33337 4.94131 8.24004 5.43731 8.05338 5.89064C7.86671 6.33864 7.59204 6.72531 7.22938 7.05064C6.86671 7.37597 6.41338 7.62931 5.86938 7.81064C5.33071 7.98664 4.70938 8.07464 4.00538 8.07464H2.22938V12.3066H0.525375V0.81864H4.00538ZM14.0109 8.69864C13.3762 8.71997 12.8375 8.77064 12.3949 8.85064C11.9522 8.92531 11.5922 9.02664 11.3149 9.15464C11.0375 9.28264 10.8375 9.43464 10.7149 9.61064C10.5922 9.78131 10.5309 9.97331 10.5309 10.1866C10.5309 10.3893 10.5629 10.5653 10.6269 10.7146C10.6962 10.8586 10.7869 10.9786 10.8989 11.0746C11.0162 11.1653 11.1522 11.232 11.3069 11.2746C11.4615 11.3173 11.6295 11.3386 11.8109 11.3386C12.0509 11.3386 12.2695 11.3146 12.4669 11.2666C12.6695 11.2186 12.8589 11.152 13.0349 11.0666C13.2109 10.976 13.3789 10.8666 13.5389 10.7386C13.6989 10.6106 13.8562 10.464 14.0109 10.2986V8.69864ZM9.43488 5.31464C9.88821 4.88264 10.3789 4.55997 10.9069 4.34664C11.4402 4.13331 12.0242 4.02664 12.6589 4.02664C13.1229 4.02664 13.5335 4.10397 13.8909 4.25864C14.2482 4.40797 14.5495 4.61864 14.7949 4.89064C15.0402 5.16264 15.2242 5.48797 15.3469 5.86664C15.4749 6.24531 15.5389 6.66397 15.5389 7.12264V12.3066H14.8429C14.6882 12.3066 14.5709 12.2826 14.4909 12.2346C14.4109 12.1813 14.3469 12.0853 14.2989 11.9466L14.1309 11.2346C13.9229 11.4266 13.7175 11.5973 13.5149 11.7466C13.3122 11.8906 13.0989 12.016 12.8749 12.1226C12.6562 12.224 12.4215 12.3013 12.1709 12.3546C11.9202 12.408 11.6429 12.4346 11.3389 12.4346C11.0189 12.4346 10.7175 12.392 10.4349 12.3066C10.1575 12.216 9.91488 12.08 9.70688 11.8986C9.49888 11.7173 9.33354 11.4906 9.21088 11.2186C9.09354 10.9466 9.03488 10.6293 9.03488 10.2666C9.03488 9.94664 9.12021 9.63997 9.29088 9.34664C9.46688 9.04797 9.74954 8.78131 10.1389 8.54664C10.5335 8.31197 11.0455 8.11997 11.6749 7.97064C12.3095 7.82131 13.0882 7.73597 14.0109 7.71464V7.12264C14.0109 6.50931 13.8802 6.05064 13.6189 5.74664C13.3575 5.44264 12.9735 5.29064 12.4669 5.29064C12.1255 5.29064 11.8375 5.33331 11.6029 5.41864C11.3735 5.50397 11.1735 5.59997 11.0029 5.70664C10.8375 5.80797 10.6909 5.90131 10.5629 5.98664C10.4402 6.07197 10.3122 6.11464 10.1789 6.11464C10.0722 6.11464 9.97888 6.08531 9.89888 6.02664C9.82421 5.96797 9.76288 5.89864 9.71488 5.81864L9.43488 5.31464ZM20.0619 12.4346C19.4059 12.4346 18.8992 12.2506 18.5419 11.8826C18.1899 11.5146 18.0139 10.9893 18.0139 10.3066V5.44264H17.0699C16.9792 5.44264 16.9019 5.41597 16.8379 5.36264C16.7792 5.30397 16.7499 5.21864 16.7499 5.10664V4.47464L18.0699 4.29064L18.4219 1.86664C18.4432 1.77597 18.4832 1.70664 18.5419 1.65864C18.6059 1.60531 18.6859 1.57864 18.7819 1.57864H19.5739V4.30664H21.8779V5.44264H19.5739V10.2026C19.5739 10.5226 19.6512 10.7626 19.8059 10.9226C19.9659 11.0773 20.1685 11.1546 20.4139 11.1546C20.5579 11.1546 20.6805 11.136 20.7819 11.0986C20.8885 11.0613 20.9792 11.0213 21.0539 10.9786C21.1285 10.9306 21.1925 10.888 21.2459 10.8506C21.2992 10.8133 21.3472 10.7946 21.3899 10.7946C21.4432 10.7946 21.4832 10.808 21.5099 10.8346C21.5419 10.856 21.5739 10.8933 21.6059 10.9466L22.0699 11.6986C21.8139 11.9333 21.5099 12.1146 21.1579 12.2426C20.8059 12.3706 20.4405 12.4346 20.0619 12.4346ZM24.7868 5.73864C25.0481 5.20531 25.3628 4.78664 25.7308 4.48264C26.0988 4.17864 26.5414 4.02664 27.0588 4.02664C27.2348 4.02664 27.4001 4.04797 27.5548 4.09064C27.7148 4.12797 27.8534 4.18664 27.9708 4.26664L27.8668 5.44264C27.8294 5.58664 27.7414 5.65864 27.6028 5.65864C27.5281 5.65864 27.4161 5.64531 27.2668 5.61864C27.1174 5.58664 26.9574 5.57064 26.7868 5.57064C26.5361 5.57064 26.3148 5.60797 26.1228 5.68264C25.9308 5.75197 25.7574 5.85864 25.6028 6.00264C25.4534 6.14131 25.3201 6.31464 25.2028 6.52264C25.0854 6.72531 24.9761 6.95731 24.8748 7.21864V12.3066H23.3148V4.17864H24.2108C24.3814 4.17864 24.4961 4.21064 24.5548 4.27464C24.6188 4.33331 24.6641 4.43997 24.6908 4.59464L24.7868 5.73864ZM30.8061 4.17864V12.3066H29.2461V4.17864H30.8061ZM31.1021 1.66664C31.1021 1.81064 31.0728 1.94931 31.0141 2.08264C30.9555 2.21064 30.8755 2.32531 30.7741 2.42664C30.6781 2.52264 30.5635 2.59997 30.4301 2.65864C30.2968 2.71197 30.1581 2.73864 30.0141 2.73864C29.8701 2.73864 29.7341 2.71197 29.6061 2.65864C29.4781 2.59997 29.3635 2.52264 29.2621 2.42664C29.1661 2.32531 29.0888 2.21064 29.0301 2.08264C28.9768 1.94931 28.9501 1.81064 28.9501 1.66664C28.9501 1.51731 28.9768 1.37864 29.0301 1.25064C29.0888 1.11731 29.1661 1.00264 29.2621 0.90664C29.3635 0.805306 29.4781 0.727973 29.6061 0.67464C29.7341 0.615973 29.8701 0.58664 30.0141 0.58664C30.1581 0.58664 30.2968 0.615973 30.4301 0.67464C30.5635 0.727973 30.6781 0.805306 30.7741 0.90664C30.8755 1.00264 30.9555 1.11731 31.0141 1.25064C31.0728 1.37864 31.1021 1.51731 31.1021 1.66664ZM38.7608 5.69864C38.7128 5.75731 38.6648 5.80531 38.6168 5.84264C38.5741 5.87464 38.5101 5.89064 38.4248 5.89064C38.3394 5.89064 38.2488 5.85864 38.1528 5.79464C38.0621 5.72531 37.9448 5.65331 37.8008 5.57864C37.6621 5.49864 37.4914 5.42664 37.2888 5.36264C37.0914 5.29331 36.8461 5.25864 36.5528 5.25864C36.1688 5.25864 35.8301 5.32797 35.5368 5.46664C35.2434 5.60531 34.9981 5.80264 34.8008 6.05864C34.6088 6.31464 34.4621 6.62664 34.3608 6.99464C34.2594 7.36264 34.2088 7.77597 34.2088 8.23464C34.2088 8.70931 34.2621 9.13331 34.3688 9.50664C34.4754 9.87464 34.6274 10.1866 34.8248 10.4426C35.0221 10.6933 35.2621 10.8853 35.5448 11.0186C35.8274 11.1466 36.1421 11.2106 36.4887 11.2106C36.8248 11.2106 37.1021 11.1706 37.3208 11.0906C37.5394 11.0053 37.7208 10.9146 37.8648 10.8186C38.0088 10.7226 38.1288 10.6346 38.2248 10.5546C38.3208 10.4693 38.4194 10.4266 38.5208 10.4266C38.6488 10.4266 38.7474 10.4746 38.8168 10.5706L39.2648 11.1466C39.0781 11.376 38.8674 11.5706 38.6328 11.7306C38.4034 11.8906 38.1581 12.0213 37.8968 12.1226C37.6354 12.224 37.3608 12.2986 37.0728 12.3466C36.7901 12.3946 36.5021 12.4186 36.2088 12.4186C35.7021 12.4186 35.2274 12.3253 34.7848 12.1386C34.3474 11.952 33.9661 11.68 33.6408 11.3226C33.3208 10.9653 33.0674 10.528 32.8808 10.0106C32.6941 9.48797 32.6008 8.89597 32.6008 8.23464C32.6008 7.63197 32.6834 7.07464 32.8488 6.56264C33.0194 6.05064 33.2674 5.61064 33.5928 5.24264C33.9234 4.86931 34.3288 4.57864 34.8088 4.37064C35.2888 4.15731 35.8381 4.05064 36.4568 4.05064C37.0381 4.05064 37.5501 4.14397 37.9928 4.33064C38.4354 4.51731 38.8301 4.78131 39.1768 5.12264L38.7608 5.69864ZM42.353 4.17864V12.3066H40.793V4.17864H42.353ZM42.649 1.66664C42.649 1.81064 42.6197 1.94931 42.561 2.08264C42.5023 2.21064 42.4223 2.32531 42.321 2.42664C42.225 2.52264 42.1103 2.59997 41.977 2.65864C41.8437 2.71197 41.705 2.73864 41.561 2.73864C41.417 2.73864 41.281 2.71197 41.153 2.65864C41.025 2.59997 40.9103 2.52264 40.809 2.42664C40.713 2.32531 40.6357 2.21064 40.577 2.08264C40.5237 1.94931 40.497 1.81064 40.497 1.66664C40.497 1.51731 40.5237 1.37864 40.577 1.25064C40.6357 1.11731 40.713 1.00264 40.809 0.90664C40.9103 0.805306 41.025 0.727973 41.153 0.67464C41.281 0.615973 41.417 0.58664 41.561 0.58664C41.705 0.58664 41.8437 0.615973 41.977 0.67464C42.1103 0.727973 42.225 0.805306 42.321 0.90664C42.4223 1.00264 42.5023 1.11731 42.561 1.25064C42.6197 1.37864 42.649 1.51731 42.649 1.66664ZM48.9796 8.69864C48.345 8.71997 47.8063 8.77064 47.3636 8.85064C46.921 8.92531 46.561 9.02664 46.2836 9.15464C46.0063 9.28264 45.8063 9.43464 45.6836 9.61064C45.561 9.78131 45.4996 9.97331 45.4996 10.1866C45.4996 10.3893 45.5316 10.5653 45.5956 10.7146C45.665 10.8586 45.7556 10.9786 45.8676 11.0746C45.985 11.1653 46.121 11.232 46.2756 11.2746C46.4303 11.3173 46.5983 11.3386 46.7796 11.3386C47.0196 11.3386 47.2383 11.3146 47.4356 11.2666C47.6383 11.2186 47.8276 11.152 48.0036 11.0666C48.1796 10.976 48.3476 10.8666 48.5076 10.7386C48.6676 10.6106 48.825 10.464 48.9796 10.2986V8.69864ZM44.4036 5.31464C44.857 4.88264 45.3476 4.55997 45.8756 4.34664C46.409 4.13331 46.993 4.02664 47.6276 4.02664C48.0916 4.02664 48.5023 4.10397 48.8596 4.25864C49.217 4.40797 49.5183 4.61864 49.7636 4.89064C50.009 5.16264 50.193 5.48797 50.3156 5.86664C50.4436 6.24531 50.5076 6.66397 50.5076 7.12264V12.3066H49.8116C49.657 12.3066 49.5396 12.2826 49.4596 12.2346C49.3796 12.1813 49.3156 12.0853 49.2676 11.9466L49.0996 11.2346C48.8916 11.4266 48.6863 11.5973 48.4836 11.7466C48.281 11.8906 48.0676 12.016 47.8436 12.1226C47.625 12.224 47.3903 12.3013 47.1396 12.3546C46.889 12.408 46.6116 12.4346 46.3076 12.4346C45.9876 12.4346 45.6863 12.392 45.4036 12.3066C45.1263 12.216 44.8836 12.08 44.6756 11.8986C44.4676 11.7173 44.3023 11.4906 44.1796 11.2186C44.0623 10.9466 44.0036 10.6293 44.0036 10.2666C44.0036 9.94664 44.089 9.63997 44.2596 9.34664C44.4356 9.04797 44.7183 8.78131 45.1076 8.54664C45.5023 8.31197 46.0143 8.11997 46.6436 7.97064C47.2783 7.82131 48.057 7.73597 48.9796 7.71464V7.12264C48.9796 6.50931 48.849 6.05064 48.5876 5.74664C48.3263 5.44264 47.9423 5.29064 47.4356 5.29064C47.0943 5.29064 46.8063 5.33331 46.5716 5.41864C46.3423 5.50397 46.1423 5.59997 45.9716 5.70664C45.8063 5.80797 45.6596 5.90131 45.5316 5.98664C45.409 6.07197 45.281 6.11464 45.1476 6.11464C45.041 6.11464 44.9476 6.08531 44.8676 6.02664C44.793 5.96797 44.7316 5.89864 44.6836 5.81864L44.4036 5.31464ZM63.5389 10.8746V12.3066H56.9629V0.81864H58.6669V10.8746H63.5389ZM66.5093 4.17864V12.3066H64.9493V4.17864H66.5093ZM66.8053 1.66664C66.8053 1.81064 66.7759 1.94931 66.7173 2.08264C66.6586 2.21064 66.5786 2.32531 66.4773 2.42664C66.3813 2.52264 66.2666 2.59997 66.1332 2.65864C65.9999 2.71197 65.8613 2.73864 65.7173 2.73864C65.5733 2.73864 65.4373 2.71197 65.3093 2.65864C65.1813 2.59997 65.0666 2.52264 64.9653 2.42664C64.8693 2.32531 64.7919 2.21064 64.7333 2.08264C64.6799 1.94931 64.6533 1.81064 64.6533 1.66664C64.6533 1.51731 64.6799 1.37864 64.7333 1.25064C64.7919 1.11731 64.8693 1.00264 64.9653 0.90664C65.0666 0.805306 65.1813 0.727973 65.3093 0.67464C65.4373 0.615973 65.5733 0.58664 65.7173 0.58664C65.8613 0.58664 65.9999 0.615973 66.1332 0.67464C66.2666 0.727973 66.3813 0.805306 66.4773 0.90664C66.5786 1.00264 66.6586 1.11731 66.7173 1.25064C66.7759 1.37864 66.8053 1.51731 66.8053 1.66664ZM68.7679 12.3066V4.17864H69.7039C69.9225 4.17864 70.0585 4.28264 70.1119 4.49064L70.2239 5.26664C70.5225 4.90931 70.8532 4.61864 71.2159 4.39464C71.5839 4.16531 72.0132 4.05064 72.5039 4.05064C73.0425 4.05064 73.4799 4.19997 73.8159 4.49864C74.1519 4.79197 74.3972 5.19197 74.5519 5.69864C74.6692 5.41064 74.8212 5.16264 75.0079 4.95464C75.1945 4.74664 75.4025 4.57597 75.6319 4.44264C75.8612 4.30931 76.1039 4.21064 76.3599 4.14664C76.6212 4.08264 76.8852 4.05064 77.1519 4.05064C77.5839 4.05064 77.9679 4.11997 78.3039 4.25864C78.6452 4.39197 78.9332 4.58931 79.1679 4.85064C79.4025 5.11197 79.5812 5.43464 79.7039 5.81864C79.8265 6.20264 79.8879 6.63997 79.8879 7.13064V12.3066H78.3199V7.13064C78.3199 6.52264 78.1865 6.06397 77.9199 5.75464C77.6585 5.44531 77.2745 5.29064 76.7679 5.29064C76.5439 5.29064 76.3305 5.33064 76.1279 5.41064C75.9252 5.48531 75.7465 5.59997 75.5919 5.75464C75.4425 5.90931 75.3225 6.10131 75.2319 6.33064C75.1465 6.55997 75.1039 6.82664 75.1039 7.13064V12.3066H73.5359V7.13064C73.5359 6.50131 73.4105 6.03731 73.1599 5.73864C72.9092 5.43997 72.5412 5.29064 72.0559 5.29064C71.7199 5.29064 71.4079 5.37864 71.1199 5.55464C70.8319 5.73064 70.5679 5.97064 70.3279 6.27464V12.3066H68.7679Z" fill="white"/>
</svg>
