<!-- <svg width="25" height="25" viewBox="0 0 36 48" fill="none" xmlns="http://www.w3.org/2000/svg">
<path d="M16 0V6H20V0H16ZM9.76 2.92L6.92 5.74L11.18 10L14 7.16L9.76 2.92ZM26.24 2.92L22 7.16L24.82 10L29.08 5.76L26.24 2.92ZM18 10C16.9391 10 15.9217 10.4214 15.1716 11.1716C14.4214 11.9217 14 12.9391 14 14V16H7C5.68 16 4.56 16.84 4.16 18L0 30V46C0 46.5304 0.210714 47.0391 0.585786 47.4142C0.960859 47.7893 1.46957 48 2 48H4C4.53043 48 5.03914 47.7893 5.41421 47.4142C5.78929 47.0391 6 46.5304 6 46V44H30V46C30 46.5304 30.2107 47.0391 30.5858 47.4142C30.9609 47.7893 31.4696 48 32 48H34C34.5304 48 35.0391 47.7893 35.4142 47.4142C35.7893 47.0391 36 46.5304 36 46V30L31.84 18C31.44 16.84 30.32 16 29 16H22V14C22 12.9391 21.5786 11.9217 20.8284 11.1716C20.0783 10.4214 19.0609 10 18 10ZM7 19H29L32 28H4L7 19ZM7 32C7.79565 32 8.55871 32.3161 9.12132 32.8787C9.68393 33.4413 10 34.2043 10 35C10 35.7957 9.68393 36.5587 9.12132 37.1213C8.55871 37.6839 7.79565 38 7 38C6.20435 38 5.44129 37.6839 4.87868 37.1213C4.31607 36.5587 4 35.7957 4 35C4 34.2043 4.31607 33.4413 4.87868 32.8787C5.44129 32.3161 6.20435 32 7 32ZM29 32C29.7956 32 30.5587 32.3161 31.1213 32.8787C31.6839 33.4413 32 34.2043 32 35C32 35.7957 31.6839 36.5587 31.1213 37.1213C30.5587 37.6839 29.7956 38 29 38C28.2044 38 27.4413 37.6839 26.8787 37.1213C26.3161 36.5587 26 35.7957 26 35C26 34.2043 26.3161 33.4413 26.8787 32.8787C27.4413 32.3161 28.2044 32 29 32Z" fill="#00FFA7"/>
</svg> -->

<svg width="24" height="24" viewBox="0 0 24 24" fill="none" xmlns="http://www.w3.org/2000/svg">
<path d="M11 0V3H13V0H11ZM7.88 1.46L6.46 2.87L8.59 5L10 3.58L7.88 1.46ZM16.12 1.46L14 3.58L15.41 5L17.54 2.88L16.12 1.46ZM12 5C11.4696 5 10.9609 5.21071 10.5858 5.58579C10.2107 5.96086 10 6.46957 10 7V8H6.5C5.84 8 5.28 8.42 5.08 9L3 15V23C3 23.2652 3.10536 23.5196 3.29289 23.7071C3.48043 23.8946 3.73478 24 4 24H5C5.26522 24 5.51957 23.8946 5.70711 23.7071C5.89464 23.5196 6 23.2652 6 23V22H18V23C18 23.2652 18.1054 23.5196 18.2929 23.7071C18.4804 23.8946 18.7348 24 19 24H20C20.2652 24 20.5196 23.8946 20.7071 23.7071C20.8946 23.5196 21 23.2652 21 23V15L18.92 9C18.72 8.42 18.16 8 17.5 8H14V7C14 6.46957 13.7893 5.96086 13.4142 5.58579C13.0391 5.21071 12.5304 5 12 5ZM6.5 9.5H17.5L19 14H5L6.5 9.5ZM6.5 16C6.89782 16 7.27936 16.158 7.56066 16.4393C7.84196 16.7206 8 17.1022 8 17.5C8 17.8978 7.84196 18.2794 7.56066 18.5607C7.27936 18.842 6.89782 19 6.5 19C6.10218 19 5.72064 18.842 5.43934 18.5607C5.15804 18.2794 5 17.8978 5 17.5C5 17.1022 5.15804 16.7206 5.43934 16.4393C5.72064 16.158 6.10218 16 6.5 16ZM17.5 16C17.8978 16 18.2794 16.158 18.5607 16.4393C18.842 16.7206 19 17.1022 19 17.5C19 17.8978 18.842 18.2794 18.5607 18.5607C18.2794 18.842 17.8978 19 17.5 19C17.1022 19 16.7206 18.842 16.4393 18.5607C16.158 18.2794 16 17.8978 16 17.5C16 17.1022 16.158 16.7206 16.4393 16.4393C16.7206 16.158 17.1022 16 17.5 16Z" fill="white"/>
</svg>
