<svg width="30" height="23" viewBox="0 0 30 23" fill="none" xmlns="http://www.w3.org/2000/svg">
<path d="M22.9069 20.2142C23.4373 20.2142 23.946 20.0035 24.3211 19.6284C24.6962 19.2533 24.9069 18.7446 24.9069 18.2142C24.9069 17.6838 24.6962 17.1751 24.3211 16.8C23.946 16.4249 23.4373 16.2142 22.9069 16.2142C22.3765 16.2142 21.8678 16.4249 21.4927 16.8C21.1176 17.1751 20.9069 17.6838 20.9069 18.2142C20.9069 18.7446 21.1176 19.2533 21.4927 19.6284C21.8678 20.0035 22.3765 20.2142 22.9069 20.2142ZM24.9069 8.21419H21.5736V11.5475H27.5202L24.9069 8.21419ZM6.9069 20.2142C7.43733 20.2142 7.94604 20.0035 8.32111 19.6284C8.69619 19.2533 8.9069 18.7446 8.9069 18.2142C8.9069 17.6838 8.69619 17.1751 8.32111 16.8C7.94604 16.4249 7.43733 16.2142 6.9069 16.2142C6.37647 16.2142 5.86776 16.4249 5.49269 16.8C5.11761 17.1751 4.9069 17.6838 4.9069 18.2142C4.9069 18.7446 5.11761 19.2533 5.49269 19.6284C5.86776 20.0035 6.37647 20.2142 6.9069 20.2142ZM25.5736 6.21419L29.5736 11.5475V18.2142H26.9069C26.9069 19.2751 26.4855 20.2925 25.7353 21.0426C24.9852 21.7928 23.9678 22.2142 22.9069 22.2142C21.846 22.2142 20.8286 21.7928 20.0785 21.0426C19.3283 20.2925 18.9069 19.2751 18.9069 18.2142H10.9069C10.9069 19.2751 10.4855 20.2925 9.73533 21.0426C8.98518 21.7928 7.96777 22.2142 6.9069 22.2142C5.84603 22.2142 4.82862 21.7928 4.07847 21.0426C3.32833 20.2925 2.9069 19.2751 2.9069 18.2142H0.240234V3.54753C0.240234 2.06753 1.4269 0.880859 2.9069 0.880859H21.5736V6.21419H25.5736ZM9.57357 3.54753V7.54753H5.57357V10.2142H9.57357V14.2142H12.2402V10.2142H16.2402V7.54753H12.2402V3.54753H9.57357Z" fill="#00E49B"/>
</svg>
