<svg width="177" height="277" viewBox="0 0 177 277" fill="none" xmlns="http://www.w3.org/2000/svg">
<g filter="url(#filter0_b)">
<rect width="177" height="277" rx="10" fill="black" fill-opacity="0.5"/>
<path d="M28.4059 26.28C28.8659 26.28 29.2559 26.2233 29.5759 26.11C29.9025 25.99 30.1692 25.8267 30.3759 25.62C30.5825 25.4133 30.7325 25.1733 30.8259 24.9C30.9192 24.62 30.9659 24.32 30.9659 24C30.9659 23.36 30.7559 22.86 30.3359 22.5C29.9225 22.14 29.2792 21.96 28.4059 21.96H27.0459V26.28H28.4059ZM35.5859 34H32.5259C31.9592 34 31.5525 33.7867 31.3059 33.36L28.8859 29.13C28.7725 28.95 28.6459 28.82 28.5059 28.74C28.3659 28.6533 28.1659 28.61 27.9059 28.61H27.0459V34H23.6659V19.43H28.4059C29.4592 19.43 30.3559 19.54 31.0959 19.76C31.8425 19.9733 32.4492 20.2733 32.9159 20.66C33.3892 21.0467 33.7325 21.5033 33.9459 22.03C34.1592 22.5567 34.2659 23.13 34.2659 23.75C34.2659 24.2233 34.2025 24.67 34.0759 25.09C33.9492 25.51 33.7625 25.9 33.5159 26.26C33.2692 26.6133 32.9625 26.93 32.5959 27.21C32.2359 27.49 31.8192 27.72 31.3459 27.9C31.5659 28.0133 31.7725 28.1567 31.9659 28.33C32.1592 28.4967 32.3325 28.6967 32.4859 28.93L35.5859 34ZM42.2168 27.57C42.2168 27.3233 42.1835 27.0833 42.1168 26.85C42.0568 26.6167 41.9535 26.41 41.8068 26.23C41.6668 26.0433 41.4801 25.8933 41.2468 25.78C41.0135 25.6667 40.7301 25.61 40.3968 25.61C39.8101 25.61 39.3501 25.78 39.0168 26.12C38.6835 26.4533 38.4635 26.9367 38.3568 27.57H42.2168ZM38.3168 29.37C38.4168 30.2367 38.6801 30.8667 39.1068 31.26C39.5335 31.6467 40.0835 31.84 40.7568 31.84C41.1168 31.84 41.4268 31.7967 41.6868 31.71C41.9468 31.6233 42.1768 31.5267 42.3768 31.42C42.5835 31.3133 42.7701 31.2167 42.9368 31.13C43.1101 31.0433 43.2901 31 43.4768 31C43.7235 31 43.9101 31.09 44.0368 31.27L44.9368 32.38C44.6168 32.7467 44.2701 33.0467 43.8968 33.28C43.5301 33.5067 43.1501 33.6867 42.7568 33.82C42.3701 33.9467 41.9801 34.0333 41.5868 34.08C41.2001 34.1333 40.8301 34.16 40.4768 34.16C39.7501 34.16 39.0668 34.0433 38.4268 33.81C37.7935 33.57 37.2368 33.2167 36.7568 32.75C36.2835 32.2833 35.9068 31.7033 35.6268 31.01C35.3535 30.3167 35.2168 29.51 35.2168 28.59C35.2168 27.8967 35.3335 27.24 35.5668 26.62C35.8068 26 36.1468 25.4567 36.5868 24.99C37.0335 24.5233 37.5701 24.1533 38.1968 23.88C38.8301 23.6067 39.5435 23.47 40.3368 23.47C41.0235 23.47 41.6501 23.5767 42.2168 23.79C42.7901 24.0033 43.2801 24.3133 43.6868 24.72C44.1001 25.1267 44.4201 25.6267 44.6468 26.22C44.8801 26.8067 44.9968 27.4733 44.9968 28.22C44.9968 28.4533 44.9868 28.6433 44.9668 28.79C44.9468 28.9367 44.9101 29.0533 44.8568 29.14C44.8035 29.2267 44.7301 29.2867 44.6368 29.32C44.5501 29.3533 44.4368 29.37 44.2968 29.37H38.3168ZM53.138 25.9C53.058 26.0267 52.9714 26.1167 52.878 26.17C52.7914 26.2233 52.678 26.25 52.538 26.25C52.3914 26.25 52.2447 26.22 52.098 26.16C51.9514 26.0933 51.7914 26.0233 51.618 25.95C51.4514 25.8767 51.2614 25.81 51.048 25.75C50.8347 25.6833 50.5914 25.65 50.318 25.65C49.9247 25.65 49.6214 25.7267 49.408 25.88C49.2014 26.0267 49.098 26.2333 49.098 26.5C49.098 26.6933 49.1647 26.8533 49.298 26.98C49.438 27.1067 49.6214 27.22 49.848 27.32C50.0747 27.4133 50.3314 27.5033 50.618 27.59C50.9047 27.6767 51.198 27.7733 51.498 27.88C51.798 27.9867 52.0914 28.1133 52.378 28.26C52.6647 28.4 52.9214 28.5767 53.148 28.79C53.3747 28.9967 53.5547 29.25 53.688 29.55C53.828 29.85 53.898 30.21 53.898 30.63C53.898 31.1433 53.8047 31.6167 53.618 32.05C53.4314 32.4833 53.1514 32.8567 52.778 33.17C52.4114 33.4833 51.9547 33.7267 51.408 33.9C50.868 34.0733 50.2447 34.16 49.538 34.16C49.1847 34.16 48.8314 34.1267 48.478 34.06C48.1247 33.9933 47.7814 33.9033 47.448 33.79C47.1214 33.6767 46.818 33.5433 46.538 33.39C46.258 33.23 46.018 33.06 45.818 32.88L46.538 31.74C46.618 31.6067 46.718 31.5033 46.838 31.43C46.9647 31.35 47.1247 31.31 47.318 31.31C47.498 31.31 47.658 31.35 47.798 31.43C47.9447 31.51 48.1014 31.5967 48.268 31.69C48.4347 31.7833 48.628 31.87 48.848 31.95C49.0747 32.03 49.358 32.07 49.698 32.07C49.938 32.07 50.1414 32.0467 50.308 32C50.4747 31.9467 50.608 31.8767 50.708 31.79C50.808 31.7033 50.8814 31.6067 50.928 31.5C50.9747 31.3933 50.998 31.2833 50.998 31.17C50.998 30.9633 50.928 30.7933 50.788 30.66C50.648 30.5267 50.4647 30.4133 50.238 30.32C50.0114 30.22 49.7514 30.13 49.458 30.05C49.1714 29.9633 48.878 29.8667 48.578 29.76C48.278 29.6533 47.9814 29.5267 47.688 29.38C47.4014 29.2267 47.1447 29.0367 46.918 28.81C46.6914 28.5767 46.508 28.2933 46.368 27.96C46.228 27.6267 46.158 27.2233 46.158 26.75C46.158 26.31 46.2414 25.8933 46.408 25.5C46.5814 25.1 46.838 24.75 47.178 24.45C47.518 24.15 47.9447 23.9133 48.458 23.74C48.9714 23.56 49.5714 23.47 50.258 23.47C50.6314 23.47 50.9914 23.5033 51.338 23.57C51.6914 23.6367 52.0214 23.73 52.328 23.85C52.6347 23.97 52.9147 24.1133 53.168 24.28C53.4214 24.44 53.6447 24.6167 53.838 24.81L53.138 25.9ZM58.5543 31.18C58.7876 31.4333 59.041 31.6133 59.3143 31.72C59.5876 31.8267 59.8743 31.88 60.1743 31.88C60.461 31.88 60.7243 31.8233 60.9643 31.71C61.2043 31.5967 61.411 31.4167 61.5843 31.17C61.7643 30.9167 61.9043 30.59 62.0043 30.19C62.1043 29.79 62.1543 29.3033 62.1543 28.73C62.1543 28.1833 62.1143 27.7233 62.0343 27.35C61.9543 26.9767 61.841 26.6767 61.6943 26.45C61.5543 26.2167 61.3843 26.05 61.1843 25.95C60.9843 25.85 60.761 25.8 60.5143 25.8C60.061 25.8 59.6876 25.8833 59.3943 26.05C59.101 26.2167 58.821 26.46 58.5543 26.78V31.18ZM58.3643 24.91C58.771 24.4767 59.231 24.1233 59.7443 23.85C60.2643 23.57 60.881 23.43 61.5943 23.43C62.1343 23.43 62.6343 23.55 63.0943 23.79C63.5543 24.03 63.951 24.3767 64.2843 24.83C64.6176 25.2833 64.8776 25.84 65.0643 26.5C65.2576 27.1533 65.3543 27.8967 65.3543 28.73C65.3543 29.51 65.2443 30.23 65.0243 30.89C64.811 31.55 64.5076 32.1233 64.1143 32.61C63.7276 33.0967 63.261 33.4767 62.7143 33.75C62.1743 34.0233 61.5743 34.16 60.9143 34.16C60.3743 34.16 59.921 34.0833 59.5543 33.93C59.1876 33.7767 58.8543 33.57 58.5543 33.31V37.29H55.4543V23.63H57.3743C57.761 23.63 58.0143 23.8033 58.1343 24.15L58.3643 24.91ZM71.7382 23.47C72.5249 23.47 73.2415 23.5933 73.8882 23.84C74.5349 24.0867 75.0882 24.44 75.5482 24.9C76.0149 25.36 76.3749 25.92 76.6282 26.58C76.8882 27.2333 77.0182 27.97 77.0182 28.79C77.0182 29.6167 76.8882 30.3633 76.6282 31.03C76.3749 31.69 76.0149 32.2533 75.5482 32.72C75.0882 33.18 74.5349 33.5367 73.8882 33.79C73.2415 34.0367 72.5249 34.16 71.7382 34.16C70.9449 34.16 70.2215 34.0367 69.5682 33.79C68.9215 33.5367 68.3615 33.18 67.8882 32.72C67.4215 32.2533 67.0582 31.69 66.7982 31.03C66.5449 30.3633 66.4182 29.6167 66.4182 28.79C66.4182 27.97 66.5449 27.2333 66.7982 26.58C67.0582 25.92 67.4215 25.36 67.8882 24.9C68.3615 24.44 68.9215 24.0867 69.5682 23.84C70.2215 23.5933 70.9449 23.47 71.7382 23.47ZM71.7382 31.86C72.4515 31.86 72.9749 31.61 73.3082 31.11C73.6482 30.6033 73.8182 29.8367 73.8182 28.81C73.8182 27.7833 73.6482 27.02 73.3082 26.52C72.9749 26.02 72.4515 25.77 71.7382 25.77C71.0049 25.77 70.4682 26.02 70.1282 26.52C69.7882 27.02 69.6182 27.7833 69.6182 28.81C69.6182 29.8367 69.7882 30.6033 70.1282 31.11C70.4682 31.61 71.0049 31.86 71.7382 31.86ZM81.4393 24.75C81.6393 24.5633 81.846 24.39 82.0593 24.23C82.2726 24.07 82.4993 23.9367 82.7393 23.83C82.986 23.7167 83.2493 23.63 83.5293 23.57C83.816 23.5033 84.126 23.47 84.4593 23.47C85.026 23.47 85.526 23.57 85.9593 23.77C86.3993 23.9633 86.7693 24.2367 87.0693 24.59C87.3693 24.9367 87.596 25.3533 87.7493 25.84C87.9026 26.32 87.9793 26.8433 87.9793 27.41V34H84.8793V27.41C84.8793 26.9033 84.7626 26.51 84.5293 26.23C84.296 25.9433 83.9526 25.8 83.4993 25.8C83.1593 25.8 82.8393 25.8733 82.5393 26.02C82.246 26.16 81.9593 26.3533 81.6793 26.6V34H78.5793V23.63H80.4993C80.886 23.63 81.1393 23.8033 81.2593 24.15L81.4393 24.75ZM96.2755 26.41C96.0422 26.15 95.7889 25.97 95.5155 25.87C95.2422 25.7633 94.9555 25.71 94.6555 25.71C94.3689 25.71 94.1055 25.7667 93.8655 25.88C93.6255 25.9933 93.4155 26.1767 93.2355 26.43C93.0622 26.6767 92.9255 27 92.8255 27.4C92.7255 27.8 92.6755 28.2833 92.6755 28.85C92.6755 29.3967 92.7155 29.8567 92.7955 30.23C92.8755 30.6033 92.9855 30.9067 93.1255 31.14C93.2722 31.3667 93.4455 31.53 93.6455 31.63C93.8455 31.73 94.0689 31.78 94.3155 31.78C94.5422 31.78 94.7455 31.76 94.9255 31.72C95.1122 31.6733 95.2822 31.61 95.4355 31.53C95.5889 31.45 95.7322 31.35 95.8655 31.23C96.0055 31.1033 96.1422 30.96 96.2755 30.8V26.41ZM99.3755 19.03V34H97.4555C97.0689 34 96.8155 33.8267 96.6955 33.48L96.4555 32.69C96.2489 32.91 96.0322 33.11 95.8055 33.29C95.5789 33.47 95.3322 33.6267 95.0655 33.76C94.8055 33.8867 94.5222 33.9833 94.2155 34.05C93.9155 34.1233 93.5889 34.16 93.2355 34.16C92.6955 34.16 92.1955 34.04 91.7355 33.8C91.2755 33.56 90.8789 33.2133 90.5455 32.76C90.2122 32.3067 89.9489 31.7533 89.7555 31.1C89.5689 30.44 89.4755 29.69 89.4755 28.85C89.4755 28.0767 89.5822 27.36 89.7955 26.7C90.0089 26.0333 90.3089 25.46 90.6955 24.98C91.0889 24.4933 91.5589 24.1133 92.1055 23.84C92.6522 23.5667 93.2555 23.43 93.9155 23.43C94.4555 23.43 94.9089 23.5067 95.2755 23.66C95.6422 23.8133 95.9755 24.02 96.2755 24.28V19.03H99.3755ZM107.92 27.57C107.92 27.3233 107.887 27.0833 107.82 26.85C107.76 26.6167 107.657 26.41 107.51 26.23C107.37 26.0433 107.183 25.8933 106.95 25.78C106.717 25.6667 106.433 25.61 106.1 25.61C105.513 25.61 105.053 25.78 104.72 26.12C104.387 26.4533 104.167 26.9367 104.06 27.57H107.92ZM104.02 29.37C104.12 30.2367 104.383 30.8667 104.81 31.26C105.237 31.6467 105.787 31.84 106.46 31.84C106.82 31.84 107.13 31.7967 107.39 31.71C107.65 31.6233 107.88 31.5267 108.08 31.42C108.287 31.3133 108.473 31.2167 108.64 31.13C108.813 31.0433 108.993 31 109.18 31C109.427 31 109.613 31.09 109.74 31.27L110.64 32.38C110.32 32.7467 109.973 33.0467 109.6 33.28C109.233 33.5067 108.853 33.6867 108.46 33.82C108.073 33.9467 107.683 34.0333 107.29 34.08C106.903 34.1333 106.533 34.16 106.18 34.16C105.453 34.16 104.77 34.0433 104.13 33.81C103.497 33.57 102.94 33.2167 102.46 32.75C101.987 32.2833 101.61 31.7033 101.33 31.01C101.057 30.3167 100.92 29.51 100.92 28.59C100.92 27.8967 101.037 27.24 101.27 26.62C101.51 26 101.85 25.4567 102.29 24.99C102.737 24.5233 103.273 24.1533 103.9 23.88C104.533 23.6067 105.247 23.47 106.04 23.47C106.727 23.47 107.353 23.5767 107.92 23.79C108.493 24.0033 108.983 24.3133 109.39 24.72C109.803 25.1267 110.123 25.6267 110.35 26.22C110.583 26.8067 110.7 27.4733 110.7 28.22C110.7 28.4533 110.69 28.6433 110.67 28.79C110.65 28.9367 110.613 29.0533 110.56 29.14C110.507 29.2267 110.433 29.2867 110.34 29.32C110.253 29.3533 110.14 29.37 110 29.37H104.02ZM115.151 25.23C115.471 24.67 115.838 24.23 116.251 23.91C116.671 23.59 117.151 23.43 117.691 23.43C118.158 23.43 118.538 23.54 118.831 23.76L118.631 26.04C118.598 26.1867 118.541 26.2867 118.461 26.34C118.388 26.3933 118.285 26.42 118.151 26.42C118.098 26.42 118.028 26.4167 117.941 26.41C117.855 26.4033 117.765 26.3967 117.671 26.39C117.578 26.3767 117.481 26.3667 117.381 26.36C117.288 26.3467 117.201 26.34 117.121 26.34C116.668 26.34 116.305 26.46 116.031 26.7C115.765 26.94 115.538 27.2733 115.351 27.7V34H112.251V23.63H114.091C114.245 23.63 114.371 23.6433 114.471 23.67C114.578 23.6967 114.665 23.74 114.731 23.8C114.805 23.8533 114.858 23.9267 114.891 24.02C114.931 24.1133 114.965 24.2267 114.991 24.36L115.151 25.23ZM126.478 25.9C126.398 26.0267 126.311 26.1167 126.218 26.17C126.131 26.2233 126.018 26.25 125.878 26.25C125.731 26.25 125.585 26.22 125.438 26.16C125.291 26.0933 125.131 26.0233 124.958 25.95C124.791 25.8767 124.601 25.81 124.388 25.75C124.175 25.6833 123.931 25.65 123.658 25.65C123.265 25.65 122.961 25.7267 122.748 25.88C122.541 26.0267 122.438 26.2333 122.438 26.5C122.438 26.6933 122.505 26.8533 122.638 26.98C122.778 27.1067 122.961 27.22 123.188 27.32C123.415 27.4133 123.671 27.5033 123.958 27.59C124.245 27.6767 124.538 27.7733 124.838 27.88C125.138 27.9867 125.431 28.1133 125.718 28.26C126.005 28.4 126.261 28.5767 126.488 28.79C126.715 28.9967 126.895 29.25 127.028 29.55C127.168 29.85 127.238 30.21 127.238 30.63C127.238 31.1433 127.145 31.6167 126.958 32.05C126.771 32.4833 126.491 32.8567 126.118 33.17C125.751 33.4833 125.295 33.7267 124.748 33.9C124.208 34.0733 123.585 34.16 122.878 34.16C122.525 34.16 122.171 34.1267 121.818 34.06C121.465 33.9933 121.121 33.9033 120.788 33.79C120.461 33.6767 120.158 33.5433 119.878 33.39C119.598 33.23 119.358 33.06 119.158 32.88L119.878 31.74C119.958 31.6067 120.058 31.5033 120.178 31.43C120.305 31.35 120.465 31.31 120.658 31.31C120.838 31.31 120.998 31.35 121.138 31.43C121.285 31.51 121.441 31.5967 121.608 31.69C121.775 31.7833 121.968 31.87 122.188 31.95C122.415 32.03 122.698 32.07 123.038 32.07C123.278 32.07 123.481 32.0467 123.648 32C123.815 31.9467 123.948 31.8767 124.048 31.79C124.148 31.7033 124.221 31.6067 124.268 31.5C124.315 31.3933 124.338 31.2833 124.338 31.17C124.338 30.9633 124.268 30.7933 124.128 30.66C123.988 30.5267 123.805 30.4133 123.578 30.32C123.351 30.22 123.091 30.13 122.798 30.05C122.511 29.9633 122.218 29.8667 121.918 29.76C121.618 29.6533 121.321 29.5267 121.028 29.38C120.741 29.2267 120.485 29.0367 120.258 28.81C120.031 28.5767 119.848 28.2933 119.708 27.96C119.568 27.6267 119.498 27.2233 119.498 26.75C119.498 26.31 119.581 25.8933 119.748 25.5C119.921 25.1 120.178 24.75 120.518 24.45C120.858 24.15 121.285 23.9133 121.798 23.74C122.311 23.56 122.911 23.47 123.598 23.47C123.971 23.47 124.331 23.5033 124.678 23.57C125.031 23.6367 125.361 23.73 125.668 23.85C125.975 23.97 126.255 24.1133 126.508 24.28C126.761 24.44 126.985 24.6167 127.178 24.81L126.478 25.9Z" fill="#BFBFBF"/>
<path d="M50.9213 77.3371C50.9213 86.9775 36.4607 101 36.4607 101C36.4607 101 22 87.8539 22 77.3371C22 69.3507 28.4743 62 36.4607 62C44.4471 62 50.9213 69.3507 50.9213 77.3371Z" fill="#177DDC"/>
<path d="M36.023 68.1348C36.9527 68.1348 37.8444 68.5041 38.5018 69.1615C39.1592 69.819 39.5286 70.7106 39.5286 71.6404C39.5286 72.5701 39.1592 73.4618 38.5018 74.1192C37.8444 74.7767 36.9527 75.146 36.023 75.146C35.0932 75.146 34.2015 74.7767 33.5441 74.1192C32.8867 73.4618 32.5173 72.5701 32.5173 71.6404C32.5173 70.7106 32.8867 69.819 33.5441 69.1615C34.2015 68.5041 35.0932 68.1348 36.023 68.1348ZM36.023 76.8988C39.8967 76.8988 43.0342 78.4676 43.0342 80.4044V82.1572H29.0117V80.4044C29.0117 78.4676 32.1492 76.8988 36.023 76.8988Z" fill="white"/>
<path d="M70.7459 71.512V83H69.8819C69.7485 83 69.6365 82.976 69.5459 82.928C69.4605 82.88 69.3725 82.8027 69.2819 82.696L62.7939 74.304C62.8045 74.448 62.8125 74.5893 62.8179 74.728C62.8285 74.8667 62.8339 74.9973 62.8339 75.12V83H61.3379V71.512H62.2179C62.3672 71.512 62.4792 71.5307 62.5539 71.568C62.6285 71.6 62.7112 71.6773 62.8019 71.8L69.3059 80.2C69.2899 80.0453 69.2765 79.896 69.2659 79.752C69.2605 79.6027 69.2579 79.464 69.2579 79.336V71.512H70.7459ZM78.4019 78.032C78.4019 77.7227 78.3565 77.4373 78.2659 77.176C78.1805 76.9147 78.0525 76.688 77.8819 76.496C77.7112 76.304 77.5032 76.1547 77.2579 76.048C77.0125 75.9413 76.7299 75.888 76.4099 75.888C75.7539 75.888 75.2365 76.0773 74.8579 76.456C74.4845 76.8347 74.2472 77.36 74.1459 78.032H78.4019ZM79.6899 81.84C79.4979 82.064 79.2765 82.2587 79.0259 82.424C78.7752 82.584 78.5085 82.7147 78.2259 82.816C77.9432 82.9173 77.6499 82.992 77.3459 83.04C77.0472 83.088 76.7512 83.112 76.4579 83.112C75.8979 83.112 75.3779 83.0187 74.8979 82.832C74.4232 82.64 74.0099 82.3627 73.6579 82C73.3112 81.632 73.0392 81.1787 72.8419 80.64C72.6499 80.096 72.5539 79.472 72.5539 78.768C72.5539 78.2027 72.6419 77.6773 72.8179 77.192C72.9939 76.7013 73.2445 76.2747 73.5699 75.912C73.9005 75.5493 74.3032 75.264 74.7779 75.056C75.2525 74.848 75.7859 74.744 76.3779 74.744C76.8739 74.744 77.3299 74.8267 77.7459 74.992C78.1672 75.152 78.5299 75.3867 78.8339 75.696C79.1379 76.0053 79.3752 76.3867 79.5459 76.84C79.7219 77.2933 79.8099 77.8107 79.8099 78.392C79.8099 78.632 79.7832 78.7947 79.7299 78.88C79.6765 78.96 79.5779 79 79.4339 79H74.1059C74.1219 79.4853 74.1912 79.9093 74.3139 80.272C74.4365 80.6293 74.6045 80.928 74.8179 81.168C75.0365 81.408 75.2952 81.5867 75.5939 81.704C75.8925 81.8213 76.2259 81.88 76.5939 81.88C76.9405 81.88 77.2392 81.84 77.4899 81.76C77.7459 81.68 77.9645 81.5947 78.1459 81.504C78.3325 81.408 78.4872 81.32 78.6099 81.24C78.7379 81.16 78.8499 81.12 78.9459 81.12C79.0739 81.12 79.1725 81.168 79.2419 81.264L79.6899 81.84ZM85.8546 79.392C85.22 79.4133 84.6813 79.464 84.2386 79.544C83.796 79.6187 83.436 79.72 83.1586 79.848C82.8813 79.976 82.6813 80.128 82.5586 80.304C82.436 80.4747 82.3746 80.6667 82.3746 80.88C82.3746 81.0827 82.4066 81.2587 82.4706 81.408C82.54 81.552 82.6306 81.672 82.7426 81.768C82.86 81.8587 82.996 81.9253 83.1506 81.968C83.3053 82.0107 83.4733 82.032 83.6546 82.032C83.8946 82.032 84.1133 82.008 84.3106 81.96C84.5133 81.912 84.7026 81.8453 84.8786 81.76C85.0546 81.6693 85.2226 81.56 85.3826 81.432C85.5426 81.304 85.7 81.1573 85.8546 80.992V79.392ZM81.2786 76.008C81.732 75.576 82.2226 75.2533 82.7506 75.04C83.284 74.8267 83.868 74.72 84.5026 74.72C84.9666 74.72 85.3773 74.7973 85.7346 74.952C86.092 75.1013 86.3933 75.312 86.6386 75.584C86.884 75.856 87.068 76.1813 87.1906 76.56C87.3186 76.9387 87.3826 77.3573 87.3826 77.816V83H86.6866C86.532 83 86.4146 82.976 86.3346 82.928C86.2546 82.8747 86.1906 82.7787 86.1426 82.64L85.9746 81.928C85.7666 82.12 85.5613 82.2907 85.3586 82.44C85.156 82.584 84.9426 82.7093 84.7186 82.816C84.5 82.9173 84.2653 82.9947 84.0146 83.048C83.764 83.1013 83.4866 83.128 83.1826 83.128C82.8626 83.128 82.5613 83.0853 82.2786 83C82.0013 82.9093 81.7586 82.7733 81.5506 82.592C81.3426 82.4107 81.1773 82.184 81.0546 81.912C80.9373 81.64 80.8786 81.3227 80.8786 80.96C80.8786 80.64 80.964 80.3333 81.1346 80.04C81.3106 79.7413 81.5933 79.4747 81.9826 79.24C82.3773 79.0053 82.8893 78.8133 83.5186 78.664C84.1533 78.5147 84.932 78.4293 85.8546 78.408V77.816C85.8546 77.2027 85.724 76.744 85.4626 76.44C85.2013 76.136 84.8173 75.984 84.3106 75.984C83.9693 75.984 83.6813 76.0267 83.4466 76.112C83.2173 76.1973 83.0173 76.2933 82.8466 76.4C82.6813 76.5013 82.5346 76.5947 82.4066 76.68C82.284 76.7653 82.156 76.808 82.0226 76.808C81.916 76.808 81.8226 76.7787 81.7426 76.72C81.668 76.6613 81.6066 76.592 81.5586 76.512L81.2786 76.008ZM90.943 76.432C91.2043 75.8987 91.519 75.48 91.887 75.176C92.255 74.872 92.6977 74.72 93.215 74.72C93.391 74.72 93.5563 74.7413 93.711 74.784C93.871 74.8213 94.0097 74.88 94.127 74.96L94.023 76.136C93.9857 76.28 93.8977 76.352 93.759 76.352C93.6843 76.352 93.5723 76.3387 93.423 76.312C93.2737 76.28 93.1137 76.264 92.943 76.264C92.6923 76.264 92.471 76.3013 92.279 76.376C92.087 76.4453 91.9137 76.552 91.759 76.696C91.6097 76.8347 91.4763 77.008 91.359 77.216C91.2417 77.4187 91.1323 77.6507 91.031 77.912V83H89.471V74.872H90.367C90.5377 74.872 90.6523 74.904 90.711 74.968C90.775 75.0267 90.8203 75.1333 90.847 75.288L90.943 76.432ZM96.8904 81C97.1464 81.336 97.4237 81.5707 97.7224 81.704C98.021 81.8373 98.3464 81.904 98.6984 81.904C99.4237 81.904 99.981 81.6453 100.37 81.128C100.765 80.6107 100.962 79.8293 100.962 78.784C100.962 77.8187 100.789 77.112 100.442 76.664C100.096 76.2107 99.605 75.984 98.9704 75.984C98.5224 75.984 98.133 76.0853 97.8024 76.288C97.477 76.4907 97.173 76.7787 96.8904 77.152V81ZM96.8904 75.992C97.2264 75.6187 97.6077 75.3173 98.0344 75.088C98.461 74.8587 98.9464 74.744 99.4904 74.744C99.965 74.744 100.392 74.8373 100.77 75.024C101.154 75.2053 101.48 75.4693 101.746 75.816C102.013 76.1573 102.218 76.5733 102.362 77.064C102.506 77.5547 102.578 78.1093 102.578 78.728C102.578 79.384 102.496 79.9813 102.33 80.52C102.17 81.0587 101.938 81.52 101.634 81.904C101.336 82.288 100.97 82.5867 100.538 82.8C100.106 83.008 99.621 83.112 99.0824 83.112C98.821 83.112 98.581 83.0853 98.3624 83.032C98.1437 82.984 97.941 82.912 97.7544 82.816C97.573 82.72 97.405 82.6027 97.2504 82.464C97.0957 82.3253 96.949 82.168 96.8104 81.992L96.7384 82.672C96.6957 82.8907 96.5624 83 96.3384 83H95.3304V71.192H96.8904V75.992ZM111.2 74.872L106.688 85.36C106.64 85.4773 106.576 85.568 106.496 85.632C106.416 85.696 106.299 85.728 106.144 85.728H104.984L106.472 82.488L103.136 74.872H104.496C104.629 74.872 104.733 74.904 104.808 74.968C104.883 75.032 104.936 75.104 104.968 75.184L107.032 80.064C107.075 80.1867 107.115 80.312 107.152 80.44C107.195 80.5627 107.229 80.6853 107.256 80.808C107.293 80.68 107.333 80.5547 107.376 80.432C107.419 80.304 107.464 80.1787 107.512 80.056L109.504 75.184C109.541 75.0933 109.6 75.0187 109.68 74.96C109.76 74.9013 109.851 74.872 109.952 74.872H111.2Z" fill="#D9D9D9"/>
<path d="M50.9213 131.337C50.9213 140.978 36.4607 155 36.4607 155C36.4607 155 22 141.854 22 131.337C22 123.351 28.4743 116 36.4607 116C44.4471 116 50.9213 123.351 50.9213 131.337Z" fill="#FFC700"/>
<path d="M36.023 122.135C36.9527 122.135 37.8444 122.504 38.5018 123.162C39.1592 123.819 39.5286 124.711 39.5286 125.64C39.5286 126.57 39.1592 127.462 38.5018 128.119C37.8444 128.777 36.9527 129.146 36.023 129.146C35.0932 129.146 34.2015 128.777 33.5441 128.119C32.8867 127.462 32.5173 126.57 32.5173 125.64C32.5173 124.711 32.8867 123.819 33.5441 123.162C34.2015 122.504 35.0932 122.135 36.023 122.135ZM36.023 130.899C39.8967 130.899 43.0342 132.468 43.0342 134.404V136.157H29.0117V134.404C29.0117 132.468 32.1492 130.899 36.023 130.899Z" fill="white"/>
<path d="M67.4419 132.72L65.7379 128.264C65.6152 127.96 65.4925 127.576 65.3699 127.112C65.3112 127.341 65.2499 127.555 65.1859 127.752C65.1272 127.949 65.0685 128.125 65.0099 128.28L63.3139 132.72H67.4419ZM70.8099 137H69.4979C69.3485 137 69.2259 136.963 69.1299 136.888C69.0339 136.813 68.9645 136.717 68.9219 136.6L67.9059 133.936H62.8419L61.8259 136.6C61.7885 136.701 61.7192 136.795 61.6179 136.88C61.5165 136.96 61.3939 137 61.2499 137H59.9379L64.5139 125.512H66.2339L70.8099 137ZM77.4014 130.392C77.3534 130.451 77.3054 130.499 77.2574 130.536C77.2147 130.568 77.1507 130.584 77.0654 130.584C76.98 130.584 76.8894 130.552 76.7934 130.488C76.7027 130.419 76.5854 130.347 76.4414 130.272C76.3027 130.192 76.132 130.12 75.9294 130.056C75.732 129.987 75.4867 129.952 75.1934 129.952C74.8094 129.952 74.4707 130.021 74.1774 130.16C73.884 130.299 73.6387 130.496 73.4414 130.752C73.2494 131.008 73.1027 131.32 73.0014 131.688C72.9 132.056 72.8494 132.469 72.8494 132.928C72.8494 133.403 72.9027 133.827 73.0094 134.2C73.116 134.568 73.268 134.88 73.4654 135.136C73.6627 135.387 73.9027 135.579 74.1854 135.712C74.468 135.84 74.7827 135.904 75.1294 135.904C75.4654 135.904 75.7427 135.864 75.9614 135.784C76.18 135.699 76.3614 135.608 76.5054 135.512C76.6494 135.416 76.7694 135.328 76.8654 135.248C76.9614 135.163 77.06 135.12 77.1614 135.12C77.2894 135.12 77.388 135.168 77.4574 135.264L77.9054 135.84C77.7187 136.069 77.508 136.264 77.2734 136.424C77.044 136.584 76.7987 136.715 76.5374 136.816C76.276 136.917 76.0014 136.992 75.7134 137.04C75.4307 137.088 75.1427 137.112 74.8494 137.112C74.3427 137.112 73.868 137.019 73.4254 136.832C72.988 136.645 72.6067 136.373 72.2814 136.016C71.9614 135.659 71.708 135.221 71.5214 134.704C71.3347 134.181 71.2414 133.589 71.2414 132.928C71.2414 132.325 71.324 131.768 71.4894 131.256C71.66 130.744 71.908 130.304 72.2334 129.936C72.564 129.563 72.9694 129.272 73.4494 129.064C73.9294 128.851 74.4787 128.744 75.0974 128.744C75.6787 128.744 76.1907 128.837 76.6334 129.024C77.076 129.211 77.4707 129.475 77.8174 129.816L77.4014 130.392ZM84.917 130.392C84.869 130.451 84.821 130.499 84.773 130.536C84.7303 130.568 84.6663 130.584 84.581 130.584C84.4957 130.584 84.405 130.552 84.309 130.488C84.2183 130.419 84.101 130.347 83.957 130.272C83.8183 130.192 83.6477 130.12 83.445 130.056C83.2477 129.987 83.0023 129.952 82.709 129.952C82.325 129.952 81.9863 130.021 81.693 130.16C81.3997 130.299 81.1543 130.496 80.957 130.752C80.765 131.008 80.6183 131.32 80.517 131.688C80.4157 132.056 80.365 132.469 80.365 132.928C80.365 133.403 80.4183 133.827 80.525 134.2C80.6317 134.568 80.7837 134.88 80.981 135.136C81.1783 135.387 81.4183 135.579 81.701 135.712C81.9837 135.84 82.2983 135.904 82.645 135.904C82.981 135.904 83.2583 135.864 83.477 135.784C83.6957 135.699 83.877 135.608 84.021 135.512C84.165 135.416 84.285 135.328 84.381 135.248C84.477 135.163 84.5757 135.12 84.677 135.12C84.805 135.12 84.9037 135.168 84.973 135.264L85.421 135.84C85.2343 136.069 85.0237 136.264 84.789 136.424C84.5597 136.584 84.3143 136.715 84.053 136.816C83.7917 136.917 83.517 136.992 83.229 137.04C82.9463 137.088 82.6583 137.112 82.365 137.112C81.8583 137.112 81.3837 137.019 80.941 136.832C80.5037 136.645 80.1223 136.373 79.797 136.016C79.477 135.659 79.2237 135.221 79.037 134.704C78.8503 134.181 78.757 133.589 78.757 132.928C78.757 132.325 78.8397 131.768 79.005 131.256C79.1757 130.744 79.4237 130.304 79.749 129.936C80.0797 129.563 80.485 129.272 80.965 129.064C81.445 128.851 81.9943 128.744 82.613 128.744C83.1943 128.744 83.7063 128.837 84.149 129.024C84.5917 129.211 84.9863 129.475 85.333 129.816L84.917 130.392ZM92.1206 132.032C92.1206 131.723 92.0753 131.437 91.9846 131.176C91.8993 130.915 91.7713 130.688 91.6006 130.496C91.43 130.304 91.222 130.155 90.9766 130.048C90.7313 129.941 90.4486 129.888 90.1286 129.888C89.4726 129.888 88.9553 130.077 88.5766 130.456C88.2033 130.835 87.966 131.36 87.8646 132.032H92.1206ZM93.4086 135.84C93.2166 136.064 92.9953 136.259 92.7446 136.424C92.494 136.584 92.2273 136.715 91.9446 136.816C91.662 136.917 91.3686 136.992 91.0646 137.04C90.766 137.088 90.47 137.112 90.1766 137.112C89.6166 137.112 89.0966 137.019 88.6166 136.832C88.142 136.64 87.7286 136.363 87.3766 136C87.03 135.632 86.758 135.179 86.5606 134.64C86.3686 134.096 86.2726 133.472 86.2726 132.768C86.2726 132.203 86.3606 131.677 86.5366 131.192C86.7126 130.701 86.9633 130.275 87.2886 129.912C87.6193 129.549 88.022 129.264 88.4966 129.056C88.9713 128.848 89.5046 128.744 90.0966 128.744C90.5926 128.744 91.0486 128.827 91.4646 128.992C91.886 129.152 92.2486 129.387 92.5526 129.696C92.8566 130.005 93.094 130.387 93.2646 130.84C93.4406 131.293 93.5286 131.811 93.5286 132.392C93.5286 132.632 93.502 132.795 93.4486 132.88C93.3953 132.96 93.2966 133 93.1526 133H87.8246C87.8406 133.485 87.91 133.909 88.0326 134.272C88.1553 134.629 88.3233 134.928 88.5366 135.168C88.7553 135.408 89.014 135.587 89.3126 135.704C89.6113 135.821 89.9446 135.88 90.3126 135.88C90.6593 135.88 90.958 135.84 91.2086 135.76C91.4646 135.68 91.6833 135.595 91.8646 135.504C92.0513 135.408 92.206 135.32 92.3286 135.24C92.4566 135.16 92.5686 135.12 92.6646 135.12C92.7926 135.12 92.8913 135.168 92.9606 135.264L93.4086 135.84ZM96.7654 135C97.0214 135.336 97.296 135.571 97.5894 135.704C97.888 135.837 98.2214 135.904 98.5894 135.904C99.304 135.904 99.856 135.648 100.245 135.136C100.64 134.619 100.837 133.867 100.837 132.88C100.837 132.363 100.792 131.923 100.701 131.56C100.616 131.192 100.488 130.893 100.317 130.664C100.152 130.429 99.9467 130.259 99.7014 130.152C99.456 130.04 99.1787 129.984 98.8694 129.984C98.416 129.984 98.0214 130.085 97.6854 130.288C97.3547 130.491 97.048 130.779 96.7654 131.152V135ZM96.6854 130.088C96.856 129.885 97.0374 129.701 97.2294 129.536C97.4267 129.365 97.6374 129.221 97.8614 129.104C98.0854 128.981 98.3227 128.888 98.5734 128.824C98.8294 128.755 99.1014 128.72 99.3894 128.72C99.8534 128.72 100.272 128.811 100.645 128.992C101.024 129.173 101.347 129.44 101.613 129.792C101.88 130.144 102.085 130.579 102.229 131.096C102.379 131.613 102.453 132.208 102.453 132.88C102.453 133.483 102.371 134.043 102.205 134.56C102.045 135.072 101.813 135.517 101.509 135.896C101.211 136.275 100.843 136.573 100.405 136.792C99.9734 137.005 99.4854 137.112 98.9414 137.112C98.456 137.112 98.04 137.032 97.6934 136.872C97.3467 136.712 97.0374 136.488 96.7654 136.2V139.728H95.2054V128.872H96.1414C96.36 128.872 96.496 128.976 96.5494 129.184L96.6854 130.088ZM106.64 137.128C105.984 137.128 105.477 136.944 105.12 136.576C104.768 136.208 104.592 135.683 104.592 135V130.136H103.648C103.557 130.136 103.48 130.109 103.416 130.056C103.357 129.997 103.328 129.912 103.328 129.8V129.168L104.648 128.984L105 126.56C105.021 126.469 105.061 126.4 105.12 126.352C105.184 126.299 105.264 126.272 105.36 126.272H106.152V129H108.456V130.136H106.152V134.896C106.152 135.216 106.229 135.456 106.384 135.616C106.544 135.771 106.747 135.848 106.992 135.848C107.136 135.848 107.259 135.829 107.36 135.792C107.467 135.755 107.557 135.715 107.632 135.672C107.707 135.624 107.771 135.581 107.824 135.544C107.877 135.507 107.925 135.488 107.968 135.488C108.021 135.488 108.061 135.501 108.088 135.528C108.12 135.549 108.152 135.587 108.184 135.64L108.648 136.392C108.392 136.627 108.088 136.808 107.736 136.936C107.384 137.064 107.019 137.128 106.64 137.128ZM115.23 132.032C115.23 131.723 115.185 131.437 115.094 131.176C115.009 130.915 114.881 130.688 114.71 130.496C114.539 130.304 114.331 130.155 114.086 130.048C113.841 129.941 113.558 129.888 113.238 129.888C112.582 129.888 112.065 130.077 111.686 130.456C111.313 130.835 111.075 131.36 110.974 132.032H115.23ZM116.518 135.84C116.326 136.064 116.105 136.259 115.854 136.424C115.603 136.584 115.337 136.715 115.054 136.816C114.771 136.917 114.478 136.992 114.174 137.04C113.875 137.088 113.579 137.112 113.286 137.112C112.726 137.112 112.206 137.019 111.726 136.832C111.251 136.64 110.838 136.363 110.486 136C110.139 135.632 109.867 135.179 109.67 134.64C109.478 134.096 109.382 133.472 109.382 132.768C109.382 132.203 109.47 131.677 109.646 131.192C109.822 130.701 110.073 130.275 110.398 129.912C110.729 129.549 111.131 129.264 111.606 129.056C112.081 128.848 112.614 128.744 113.206 128.744C113.702 128.744 114.158 128.827 114.574 128.992C114.995 129.152 115.358 129.387 115.662 129.696C115.966 130.005 116.203 130.387 116.374 130.84C116.55 131.293 116.638 131.811 116.638 132.392C116.638 132.632 116.611 132.795 116.558 132.88C116.505 132.96 116.406 133 116.262 133H110.934C110.95 133.485 111.019 133.909 111.142 134.272C111.265 134.629 111.433 134.928 111.646 135.168C111.865 135.408 112.123 135.587 112.422 135.704C112.721 135.821 113.054 135.88 113.422 135.88C113.769 135.88 114.067 135.84 114.318 135.76C114.574 135.68 114.793 135.595 114.974 135.504C115.161 135.408 115.315 135.32 115.438 135.24C115.566 135.16 115.678 135.12 115.774 135.12C115.902 135.12 116.001 135.168 116.07 135.264L116.518 135.84ZM123.555 130.84C123.299 130.504 123.021 130.269 122.723 130.136C122.429 130.003 122.099 129.936 121.731 129.936C121.016 129.936 120.461 130.195 120.067 130.712C119.677 131.224 119.483 131.973 119.483 132.96C119.483 133.477 119.525 133.92 119.611 134.288C119.701 134.651 119.829 134.949 119.995 135.184C120.165 135.413 120.373 135.584 120.619 135.696C120.864 135.803 121.141 135.856 121.451 135.856C121.904 135.856 122.296 135.755 122.627 135.552C122.957 135.349 123.267 135.064 123.555 134.696V130.84ZM125.123 125.192V137H124.179C123.96 137 123.824 136.896 123.771 136.688L123.635 135.752C123.288 136.163 122.893 136.493 122.451 136.744C122.013 136.989 121.507 137.112 120.931 137.112C120.467 137.112 120.045 137.021 119.667 136.84C119.293 136.659 118.973 136.395 118.707 136.048C118.44 135.696 118.235 135.261 118.091 134.744C117.947 134.227 117.875 133.632 117.875 132.96C117.875 132.357 117.955 131.797 118.115 131.28C118.275 130.763 118.507 130.315 118.811 129.936C119.115 129.557 119.483 129.261 119.915 129.048C120.347 128.829 120.835 128.72 121.379 128.72C121.869 128.72 122.285 128.8 122.627 128.96C122.973 129.12 123.283 129.347 123.555 129.64V125.192H125.123Z" fill="#D9D9D9"/>
<path d="M50.9213 185.337C50.9213 194.978 36.4607 209 36.4607 209C36.4607 209 22 195.854 22 185.337C22 177.351 28.4743 170 36.4607 170C44.4471 170 50.9213 177.351 50.9213 185.337Z" fill="#00CA8E"/>
<path d="M36.023 176.135C36.9527 176.135 37.8444 176.504 38.5018 177.162C39.1592 177.819 39.5286 178.711 39.5286 179.64C39.5286 180.57 39.1592 181.462 38.5018 182.119C37.8444 182.777 36.9527 183.146 36.023 183.146C35.0932 183.146 34.2015 182.777 33.5441 182.119C32.8867 181.462 32.5173 180.57 32.5173 179.64C32.5173 178.711 32.8867 177.819 33.5441 177.162C34.2015 176.504 35.0932 176.135 36.023 176.135ZM36.023 184.899C39.8967 184.899 43.0342 186.468 43.0342 188.404V190.157H29.0117V188.404C29.0117 186.468 32.1492 184.899 36.023 184.899Z" fill="white"/>
<path d="M72.0419 185.256C72.0419 186.115 71.9032 186.904 71.6259 187.624C71.3539 188.339 70.9672 188.957 70.4659 189.48C69.9645 189.997 69.3645 190.4 68.6659 190.688C67.9672 190.976 67.1912 191.12 66.3379 191.12C65.4899 191.12 64.7139 190.976 64.0099 190.688C63.3112 190.4 62.7112 189.997 62.2099 189.48C61.7139 188.957 61.3272 188.339 61.0499 187.624C60.7725 186.904 60.6339 186.115 60.6339 185.256C60.6339 184.403 60.7725 183.616 61.0499 182.896C61.3272 182.176 61.7139 181.557 62.2099 181.04C62.7112 180.517 63.3112 180.112 64.0099 179.824C64.7139 179.531 65.4899 179.384 66.3379 179.384C67.1912 179.384 67.9672 179.531 68.6659 179.824C69.3645 180.112 69.9645 180.517 70.4659 181.04C70.9672 181.557 71.3539 182.176 71.6259 182.896C71.9032 183.616 72.0419 184.403 72.0419 185.256ZM70.2979 185.256C70.2979 184.573 70.2045 183.96 70.0179 183.416C69.8312 182.872 69.5645 182.411 69.2179 182.032C68.8765 181.653 68.4605 181.363 67.9699 181.16C67.4845 180.957 66.9405 180.856 66.3379 180.856C65.7352 180.856 65.1885 180.957 64.6979 181.16C64.2125 181.363 63.7965 181.653 63.4499 182.032C63.1032 182.411 62.8365 182.872 62.6499 183.416C62.4632 183.96 62.3699 184.573 62.3699 185.256C62.3699 185.944 62.4632 186.56 62.6499 187.104C62.8365 187.643 63.1032 188.101 63.4499 188.48C63.7965 188.859 64.2125 189.149 64.6979 189.352C65.1885 189.549 65.7352 189.648 66.3379 189.648C66.9405 189.648 67.4845 189.549 67.9699 189.352C68.4605 189.149 68.8765 188.859 69.2179 188.48C69.5645 188.101 69.8312 187.643 70.0179 187.104C70.2045 186.56 70.2979 185.944 70.2979 185.256ZM75.1694 184C75.3454 183.813 75.5294 183.643 75.7214 183.488C75.9134 183.333 76.116 183.203 76.3294 183.096C76.548 182.984 76.78 182.899 77.0254 182.84C77.276 182.776 77.5427 182.744 77.8254 182.744C78.2734 182.744 78.6654 182.819 79.0014 182.968C79.3427 183.117 79.628 183.328 79.8574 183.6C80.0867 183.867 80.26 184.189 80.3774 184.568C80.4947 184.947 80.5534 185.365 80.5534 185.824V191H78.9854V185.824C78.9854 185.243 78.852 184.792 78.5854 184.472C78.3187 184.147 77.9107 183.984 77.3614 183.984C76.9614 183.984 76.5854 184.08 76.2334 184.272C75.8867 184.459 75.564 184.715 75.2654 185.04V191H73.7054V182.872H74.6414C74.86 182.872 74.996 182.976 75.0494 183.184L75.1694 184ZM82.5385 185.528H86.5385V186.856H82.5385V185.528ZM93.4036 184.272C93.361 184.341 93.3156 184.392 93.2676 184.424C93.2196 184.451 93.1583 184.464 93.0836 184.464C92.9983 184.464 92.9023 184.435 92.7956 184.376C92.6943 184.317 92.569 184.253 92.4196 184.184C92.2756 184.115 92.105 184.051 91.9076 183.992C91.7103 183.933 91.4756 183.904 91.2036 183.904C90.9796 183.904 90.7743 183.933 90.5876 183.992C90.4063 184.045 90.2516 184.123 90.1236 184.224C89.9956 184.32 89.897 184.437 89.8276 184.576C89.7583 184.709 89.7236 184.853 89.7236 185.008C89.7236 185.211 89.7823 185.379 89.8996 185.512C90.0223 185.645 90.1796 185.76 90.3716 185.856C90.569 185.952 90.7903 186.04 91.0356 186.12C91.2863 186.195 91.5396 186.275 91.7956 186.36C92.057 186.445 92.3103 186.544 92.5556 186.656C92.8063 186.763 93.0276 186.899 93.2196 187.064C93.417 187.224 93.5743 187.419 93.6916 187.648C93.8143 187.877 93.8756 188.157 93.8756 188.488C93.8756 188.867 93.8063 189.219 93.6676 189.544C93.5343 189.864 93.3343 190.141 93.0676 190.376C92.8063 190.611 92.481 190.795 92.0916 190.928C91.7023 191.061 91.257 191.128 90.7556 191.128C90.1956 191.128 89.6783 191.035 89.2036 190.848C88.729 190.661 88.3316 190.424 88.0116 190.136L88.3796 189.536C88.4223 189.461 88.4756 189.405 88.5396 189.368C88.6036 189.325 88.689 189.304 88.7956 189.304C88.897 189.304 89.001 189.341 89.1076 189.416C89.2143 189.491 89.3423 189.573 89.4916 189.664C89.641 189.749 89.8223 189.829 90.0356 189.904C90.249 189.973 90.5156 190.008 90.8356 190.008C91.1023 190.008 91.3343 189.976 91.5316 189.912C91.729 189.843 91.8916 189.752 92.0196 189.64C92.153 189.523 92.2516 189.389 92.3156 189.24C92.3796 189.091 92.4116 188.933 92.4116 188.768C92.4116 188.555 92.3503 188.379 92.2276 188.24C92.1103 188.096 91.953 187.973 91.7556 187.872C91.5636 187.771 91.3423 187.683 91.0916 187.608C90.841 187.533 90.585 187.453 90.3236 187.368C90.0623 187.283 89.8063 187.184 89.5556 187.072C89.305 186.96 89.081 186.819 88.8836 186.648C88.6916 186.477 88.5343 186.269 88.4116 186.024C88.2943 185.779 88.2356 185.48 88.2356 185.128C88.2356 184.813 88.2996 184.512 88.4276 184.224C88.561 183.936 88.7503 183.683 88.9956 183.464C89.2463 183.245 89.553 183.072 89.9156 182.944C90.2836 182.811 90.7023 182.744 91.1716 182.744C91.7103 182.744 92.1956 182.829 92.6276 183C93.065 183.171 93.4383 183.405 93.7476 183.704L93.4036 184.272ZM101.261 184.392C101.213 184.451 101.165 184.499 101.117 184.536C101.074 184.568 101.01 184.584 100.925 184.584C100.839 184.584 100.749 184.552 100.653 184.488C100.562 184.419 100.445 184.347 100.301 184.272C100.162 184.192 99.9914 184.12 99.7888 184.056C99.5914 183.987 99.3461 183.952 99.0528 183.952C98.6688 183.952 98.3301 184.021 98.0368 184.16C97.7434 184.299 97.4981 184.496 97.3008 184.752C97.1088 185.008 96.9621 185.32 96.8608 185.688C96.7594 186.056 96.7088 186.469 96.7088 186.928C96.7088 187.403 96.7621 187.827 96.8688 188.2C96.9754 188.568 97.1274 188.88 97.3248 189.136C97.5221 189.387 97.7621 189.579 98.0448 189.712C98.3274 189.84 98.6421 189.904 98.9887 189.904C99.3248 189.904 99.6021 189.864 99.8208 189.784C100.039 189.699 100.221 189.608 100.365 189.512C100.509 189.416 100.629 189.328 100.725 189.248C100.821 189.163 100.919 189.12 101.021 189.12C101.149 189.12 101.247 189.168 101.317 189.264L101.765 189.84C101.578 190.069 101.367 190.264 101.133 190.424C100.903 190.584 100.658 190.715 100.397 190.816C100.135 190.917 99.8608 190.992 99.5728 191.04C99.2901 191.088 99.0021 191.112 98.7088 191.112C98.2021 191.112 97.7274 191.019 97.2848 190.832C96.8474 190.645 96.4661 190.373 96.1408 190.016C95.8208 189.659 95.5674 189.221 95.3808 188.704C95.1941 188.181 95.1008 187.589 95.1008 186.928C95.1008 186.325 95.1834 185.768 95.3488 185.256C95.5194 184.744 95.7674 184.304 96.0928 183.936C96.4234 183.563 96.8288 183.272 97.3088 183.064C97.7888 182.851 98.3381 182.744 98.9568 182.744C99.5381 182.744 100.05 182.837 100.493 183.024C100.935 183.211 101.33 183.475 101.677 183.816L101.261 184.392ZM108.464 186.032C108.464 185.723 108.419 185.437 108.328 185.176C108.243 184.915 108.115 184.688 107.944 184.496C107.774 184.304 107.566 184.155 107.32 184.048C107.075 183.941 106.792 183.888 106.472 183.888C105.816 183.888 105.299 184.077 104.92 184.456C104.547 184.835 104.31 185.36 104.208 186.032H108.464ZM109.752 189.84C109.56 190.064 109.339 190.259 109.088 190.424C108.838 190.584 108.571 190.715 108.288 190.816C108.006 190.917 107.712 190.992 107.408 191.04C107.11 191.088 106.814 191.112 106.52 191.112C105.96 191.112 105.44 191.019 104.96 190.832C104.486 190.64 104.072 190.363 103.72 190C103.374 189.632 103.102 189.179 102.904 188.64C102.712 188.096 102.616 187.472 102.616 186.768C102.616 186.203 102.704 185.677 102.88 185.192C103.056 184.701 103.307 184.275 103.632 183.912C103.963 183.549 104.366 183.264 104.84 183.056C105.315 182.848 105.848 182.744 106.44 182.744C106.936 182.744 107.392 182.827 107.808 182.992C108.23 183.152 108.592 183.387 108.896 183.696C109.2 184.005 109.438 184.387 109.608 184.84C109.784 185.293 109.872 185.811 109.872 186.392C109.872 186.632 109.846 186.795 109.792 186.88C109.739 186.96 109.64 187 109.496 187H104.168C104.184 187.485 104.254 187.909 104.376 188.272C104.499 188.629 104.667 188.928 104.88 189.168C105.099 189.408 105.358 189.587 105.656 189.704C105.955 189.821 106.288 189.88 106.656 189.88C107.003 189.88 107.302 189.84 107.552 189.76C107.808 189.68 108.027 189.595 108.208 189.504C108.395 189.408 108.55 189.32 108.672 189.24C108.8 189.16 108.912 189.12 109.008 189.12C109.136 189.12 109.235 189.168 109.304 189.264L109.752 189.84ZM113.013 184C113.189 183.813 113.373 183.643 113.565 183.488C113.757 183.333 113.96 183.203 114.173 183.096C114.392 182.984 114.624 182.899 114.869 182.84C115.12 182.776 115.386 182.744 115.669 182.744C116.117 182.744 116.509 182.819 116.845 182.968C117.186 183.117 117.472 183.328 117.701 183.6C117.93 183.867 118.104 184.189 118.221 184.568C118.338 184.947 118.397 185.365 118.397 185.824V191H116.829V185.824C116.829 185.243 116.696 184.792 116.429 184.472C116.162 184.147 115.754 183.984 115.205 183.984C114.805 183.984 114.429 184.08 114.077 184.272C113.73 184.459 113.408 184.715 113.109 185.04V191H111.549V182.872H112.485C112.704 182.872 112.84 182.976 112.893 183.184L113.013 184ZM125.886 186.032C125.886 185.723 125.841 185.437 125.75 185.176C125.665 184.915 125.537 184.688 125.366 184.496C125.196 184.304 124.988 184.155 124.742 184.048C124.497 183.941 124.214 183.888 123.894 183.888C123.238 183.888 122.721 184.077 122.342 184.456C121.969 184.835 121.732 185.36 121.63 186.032H125.886ZM127.174 189.84C126.982 190.064 126.761 190.259 126.51 190.424C126.26 190.584 125.993 190.715 125.71 190.816C125.428 190.917 125.134 190.992 124.83 191.04C124.532 191.088 124.236 191.112 123.942 191.112C123.382 191.112 122.862 191.019 122.382 190.832C121.908 190.64 121.494 190.363 121.142 190C120.796 189.632 120.524 189.179 120.326 188.64C120.134 188.096 120.038 187.472 120.038 186.768C120.038 186.203 120.126 185.677 120.302 185.192C120.478 184.701 120.729 184.275 121.054 183.912C121.385 183.549 121.788 183.264 122.262 183.056C122.737 182.848 123.27 182.744 123.862 182.744C124.358 182.744 124.814 182.827 125.23 182.992C125.652 183.152 126.014 183.387 126.318 183.696C126.622 184.005 126.86 184.387 127.03 184.84C127.206 185.293 127.294 185.811 127.294 186.392C127.294 186.632 127.268 186.795 127.214 186.88C127.161 186.96 127.062 187 126.918 187H121.59C121.606 187.485 121.676 187.909 121.798 188.272C121.921 188.629 122.089 188.928 122.302 189.168C122.521 189.408 122.78 189.587 123.078 189.704C123.377 189.821 123.71 189.88 124.078 189.88C124.425 189.88 124.724 189.84 124.974 189.76C125.23 189.68 125.449 189.595 125.63 189.504C125.817 189.408 125.972 189.32 126.094 189.24C126.222 189.16 126.334 189.12 126.43 189.12C126.558 189.12 126.657 189.168 126.726 189.264L127.174 189.84Z" fill="#D9D9D9"/>
<path d="M50.9213 239.337C50.9213 248.978 36.4607 263 36.4607 263C36.4607 263 22 249.854 22 239.337C22 231.351 28.4743 224 36.4607 224C44.4471 224 50.9213 231.351 50.9213 239.337Z" fill="#434343"/>
<path d="M36.023 230.135C36.9527 230.135 37.8444 230.504 38.5018 231.162C39.1592 231.819 39.5286 232.711 39.5286 233.64C39.5286 234.57 39.1592 235.462 38.5018 236.119C37.8444 236.777 36.9527 237.146 36.023 237.146C35.0932 237.146 34.2015 236.777 33.5441 236.119C32.8867 235.462 32.5173 234.57 32.5173 233.64C32.5173 232.711 32.8867 231.819 33.5441 231.162C34.2015 230.504 35.0932 230.135 36.023 230.135ZM36.023 238.899C39.8967 238.899 43.0342 240.468 43.0342 242.404V244.157H29.0117V242.404C29.0117 240.468 32.1492 238.899 36.023 238.899Z" fill="white"/>
<path d="M68.4659 243.616L68.4579 245H61.3379V233.512H68.4579V234.896H63.0499V238.536H67.4019V239.872H63.0499V243.616H68.4659ZM77.0683 245H75.5643C75.4416 245 75.3429 244.968 75.2683 244.904C75.1989 244.835 75.1429 244.763 75.1003 244.688L73.1403 241.592C73.1136 241.672 73.0869 241.749 73.0603 241.824C73.0336 241.899 72.9989 241.968 72.9563 242.032L71.1562 244.688C71.1029 244.763 71.0416 244.835 70.9723 244.904C70.9029 244.968 70.8123 245 70.7003 245H69.3083L72.1403 240.816L69.4202 236.872H70.9243C71.0469 236.872 71.1349 236.891 71.1883 236.928C71.2469 236.965 71.2976 237.021 71.3403 237.096L73.2682 240.064C73.2949 239.984 73.3243 239.907 73.3563 239.832C73.3883 239.752 73.4309 239.669 73.4843 239.584L75.1403 237.128C75.2363 236.957 75.3643 236.872 75.5243 236.872H76.9563L74.2363 240.744L77.0683 245ZM83.6514 238.392C83.6034 238.451 83.5554 238.499 83.5074 238.536C83.4647 238.568 83.4007 238.584 83.3154 238.584C83.23 238.584 83.1394 238.552 83.0434 238.488C82.9527 238.419 82.8354 238.347 82.6914 238.272C82.5527 238.192 82.382 238.12 82.1794 238.056C81.982 237.987 81.7367 237.952 81.4434 237.952C81.0594 237.952 80.7207 238.021 80.4274 238.16C80.134 238.299 79.8887 238.496 79.6914 238.752C79.4994 239.008 79.3527 239.32 79.2514 239.688C79.15 240.056 79.0994 240.469 79.0994 240.928C79.0994 241.403 79.1527 241.827 79.2594 242.2C79.366 242.568 79.518 242.88 79.7154 243.136C79.9127 243.387 80.1527 243.579 80.4354 243.712C80.718 243.84 81.0327 243.904 81.3794 243.904C81.7154 243.904 81.9927 243.864 82.2114 243.784C82.43 243.699 82.6114 243.608 82.7554 243.512C82.8994 243.416 83.0194 243.328 83.1154 243.248C83.2114 243.163 83.31 243.12 83.4114 243.12C83.5394 243.12 83.638 243.168 83.7074 243.264L84.1554 243.84C83.9687 244.069 83.758 244.264 83.5234 244.424C83.294 244.584 83.0487 244.715 82.7874 244.816C82.526 244.917 82.2514 244.992 81.9634 245.04C81.6807 245.088 81.3927 245.112 81.0994 245.112C80.5927 245.112 80.118 245.019 79.6754 244.832C79.238 244.645 78.8567 244.373 78.5314 244.016C78.2114 243.659 77.958 243.221 77.7714 242.704C77.5847 242.181 77.4914 241.589 77.4914 240.928C77.4914 240.325 77.574 239.768 77.7394 239.256C77.91 238.744 78.158 238.304 78.4834 237.936C78.814 237.563 79.2194 237.272 79.6994 237.064C80.1794 236.851 80.7287 236.744 81.3474 236.744C81.9287 236.744 82.4407 236.837 82.8834 237.024C83.326 237.211 83.7207 237.475 84.0674 237.816L83.6514 238.392ZM87.2116 233.192V245H85.6436V233.192H87.2116ZM96.1998 236.872V245H95.2638C95.0504 245 94.9118 244.896 94.8478 244.688L94.7358 243.872C94.5598 244.059 94.3758 244.229 94.1838 244.384C93.9918 244.539 93.7864 244.672 93.5678 244.784C93.3491 244.891 93.1171 244.973 92.8718 245.032C92.6264 245.096 92.3624 245.128 92.0798 245.128C91.6318 245.128 91.2371 245.053 90.8958 244.904C90.5598 244.755 90.2771 244.547 90.0478 244.28C89.8184 244.008 89.6451 243.683 89.5278 243.304C89.4104 242.925 89.3518 242.507 89.3518 242.048V236.872H90.9198V242.048C90.9198 242.629 91.0531 243.083 91.3198 243.408C91.5864 243.728 91.9944 243.888 92.5438 243.888C92.9438 243.888 93.3171 243.795 93.6638 243.608C94.0104 243.416 94.3358 243.155 94.6398 242.824V236.872H96.1998ZM103.617 238.84C103.361 238.504 103.084 238.269 102.785 238.136C102.492 238.003 102.161 237.936 101.793 237.936C101.079 237.936 100.524 238.195 100.129 238.712C99.7399 239.224 99.5453 239.973 99.5453 240.96C99.5453 241.477 99.5879 241.92 99.6733 242.288C99.7639 242.651 99.8919 242.949 100.057 243.184C100.228 243.413 100.436 243.584 100.681 243.696C100.927 243.803 101.204 243.856 101.513 243.856C101.967 243.856 102.359 243.755 102.689 243.552C103.02 243.349 103.329 243.064 103.617 242.696V238.84ZM105.185 233.192V245H104.241C104.023 245 103.887 244.896 103.833 244.688L103.697 243.752C103.351 244.163 102.956 244.493 102.513 244.744C102.076 244.989 101.569 245.112 100.993 245.112C100.529 245.112 100.108 245.021 99.7293 244.84C99.3559 244.659 99.0359 244.395 98.7693 244.048C98.5026 243.696 98.2973 243.261 98.1533 242.744C98.0093 242.227 97.9373 241.632 97.9373 240.96C97.9373 240.357 98.0173 239.797 98.1773 239.28C98.3373 238.763 98.5693 238.315 98.8733 237.936C99.1773 237.557 99.5453 237.261 99.9773 237.048C100.409 236.829 100.897 236.72 101.441 236.72C101.932 236.72 102.348 236.8 102.689 236.96C103.036 237.12 103.345 237.347 103.617 237.64V233.192H105.185ZM112.746 240.032C112.746 239.723 112.7 239.437 112.61 239.176C112.524 238.915 112.396 238.688 112.226 238.496C112.055 238.304 111.847 238.155 111.602 238.048C111.356 237.941 111.074 237.888 110.754 237.888C110.098 237.888 109.58 238.077 109.202 238.456C108.828 238.835 108.591 239.36 108.49 240.032H112.746ZM114.034 243.84C113.842 244.064 113.62 244.259 113.37 244.424C113.119 244.584 112.852 244.715 112.57 244.816C112.287 244.917 111.994 244.992 111.69 245.04C111.391 245.088 111.095 245.112 110.802 245.112C110.242 245.112 109.722 245.019 109.242 244.832C108.767 244.64 108.354 244.363 108.002 244C107.655 243.632 107.383 243.179 107.186 242.64C106.994 242.096 106.898 241.472 106.898 240.768C106.898 240.203 106.986 239.677 107.162 239.192C107.338 238.701 107.588 238.275 107.914 237.912C108.244 237.549 108.647 237.264 109.122 237.056C109.596 236.848 110.13 236.744 110.722 236.744C111.218 236.744 111.674 236.827 112.09 236.992C112.511 237.152 112.874 237.387 113.178 237.696C113.482 238.005 113.719 238.387 113.89 238.84C114.066 239.293 114.154 239.811 114.154 240.392C114.154 240.632 114.127 240.795 114.074 240.88C114.02 240.96 113.922 241 113.778 241H108.45C108.466 241.485 108.535 241.909 108.658 242.272C108.78 242.629 108.948 242.928 109.162 243.168C109.38 243.408 109.639 243.587 109.938 243.704C110.236 243.821 110.57 243.88 110.938 243.88C111.284 243.88 111.583 243.84 111.834 243.76C112.09 243.68 112.308 243.595 112.49 243.504C112.676 243.408 112.831 243.32 112.954 243.24C113.082 243.16 113.194 243.12 113.29 243.12C113.418 243.12 113.516 243.168 113.586 243.264L114.034 243.84ZM121.07 238.84C120.814 238.504 120.537 238.269 120.238 238.136C119.945 238.003 119.614 237.936 119.246 237.936C118.532 237.936 117.977 238.195 117.582 238.712C117.193 239.224 116.998 239.973 116.998 240.96C116.998 241.477 117.041 241.92 117.126 242.288C117.217 242.651 117.345 242.949 117.51 243.184C117.681 243.413 117.889 243.584 118.134 243.696C118.38 243.803 118.657 243.856 118.966 243.856C119.42 243.856 119.812 243.755 120.142 243.552C120.473 243.349 120.782 243.064 121.07 242.696V238.84ZM122.638 233.192V245H121.694C121.476 245 121.34 244.896 121.286 244.688L121.15 243.752C120.804 244.163 120.409 244.493 119.966 244.744C119.529 244.989 119.022 245.112 118.446 245.112C117.982 245.112 117.561 245.021 117.182 244.84C116.809 244.659 116.489 244.395 116.222 244.048C115.956 243.696 115.75 243.261 115.606 242.744C115.462 242.227 115.39 241.632 115.39 240.96C115.39 240.357 115.47 239.797 115.63 239.28C115.79 238.763 116.022 238.315 116.326 237.936C116.63 237.557 116.998 237.261 117.43 237.048C117.862 236.829 118.35 236.72 118.894 236.72C119.385 236.72 119.801 236.8 120.142 236.96C120.489 237.12 120.798 237.347 121.07 237.64V233.192H122.638Z" fill="#D9D9D9"/>
</g>
<defs>
<filter id="filter0_b" x="-10" y="-10" width="197" height="297" filterUnits="userSpaceOnUse" color-interpolation-filters="sRGB">
<feFlood flood-opacity="0" result="BackgroundImageFix"/>
<feGaussianBlur in="BackgroundImage" stdDeviation="5"/>
<feComposite in2="SourceAlpha" operator="in" result="effect1_backgroundBlur"/>
<feBlend mode="normal" in="SourceGraphic" in2="effect1_backgroundBlur" result="shape"/>
</filter>
</defs>
</svg>
