<svg width="136" height="136" viewBox="0 0 136 136" fill="none" xmlns="http://www.w3.org/2000/svg">
<path d="M133 68C133 53.9723 128.556 40.9824 121 30.3613C109.219 13.8017 89.8708 3 68 3C40.3885 3 16.7981 20.2164 7.37804 44.5M68 133C75.9099 133 83.4898 131.587 90.501 129M131.261 83C130.443 86.4633 129.347 89.8195 128 93.044M105 121.449C109.856 118.081 114.23 114.069 118 109.536M52.5 131.14C43.5819 128.959 35.3857 124.937 28.3369 119.5M13.8714 104C9.66634 97.69 6.53526 90.6029 4.73932 83C3.60189 78.1848 3 73.1627 3 68C3 64.9462 3.21059 61.9417 3.61803 59" stroke="#3C9AE8" stroke-width="5" stroke-linecap="round"/>
</svg>
