<svg width="168" height="101" viewBox="0 0 168 101" fill="none" xmlns="http://www.w3.org/2000/svg">
<rect width="8" height="8" rx="4" transform="matrix(1 0 0 -1 0 54)" fill="url(#paint0_linear)"/>
<path d="M20 67C19.4747 67.0001 18.9545 66.8953 18.4692 66.6917C17.9838 66.488 17.5428 66.1895 17.1714 65.8131C16.7999 65.4367 16.5053 64.9899 16.3043 64.4982C16.1033 64.0064 15.9999 63.4793 16 62.9471V37.0529C16 35.978 16.4214 34.9472 17.1716 34.1871C17.9217 33.427 18.9391 33 20 33C21.0609 33 22.0783 33.427 22.8284 34.1871C23.5786 34.9472 24 35.978 24 37.0529V62.9471C24.0001 63.4793 23.8967 64.0064 23.6957 64.4982C23.4947 64.9899 23.2001 65.4368 22.8286 65.8131C22.4572 66.1895 22.0162 66.488 21.5308 66.6917C21.0455 66.8953 20.5253 67.0001 20 67Z" fill="url(#paint1_linear)"/>
<path d="M36 82C35.4747 82.0001 34.9545 81.897 34.4692 81.6967C33.9838 81.4965 33.5428 81.2028 33.1714 80.8327C32.7999 80.4625 32.5053 80.023 32.3043 79.5394C32.1033 79.0557 31.9999 78.5374 32 78.0139V21.9861C32 20.929 32.4214 19.9151 33.1716 19.1675C33.9217 18.42 34.9391 18 36 18C37.0609 18 38.0783 18.42 38.8284 19.1675C39.5786 19.9151 40 20.929 40 21.9861V78.0139C40.0001 78.5374 39.8967 79.0557 39.6957 79.5394C39.4947 80.0231 39.2001 80.4625 38.8286 80.8327C38.4572 81.2028 38.0162 81.4965 37.5308 81.6967C37.0455 81.897 36.5253 82.0001 36 82Z" fill="url(#paint2_linear)"/>
<path d="M52 67C51.4747 67.0001 50.9545 66.8953 50.4692 66.6917C49.9838 66.488 49.5428 66.1895 49.1714 65.8131C48.7999 65.4367 48.5053 64.9899 48.3043 64.4982C48.1033 64.0064 47.9999 63.4793 48 62.9471V37.0529C48 36.5207 48.1035 35.9937 48.3045 35.5019C48.5055 35.0102 48.8001 34.5634 49.1716 34.1871C49.543 33.8107 49.984 33.5122 50.4693 33.3085C50.9546 33.1048 51.4747 33 52 33C52.5253 33 53.0454 33.1048 53.5307 33.3085C54.016 33.5122 54.457 33.8107 54.8284 34.1871C55.1999 34.5634 55.4945 35.0102 55.6955 35.5019C55.8965 35.9937 56 36.5207 56 37.0529V62.9471C56.0001 63.4793 55.8967 64.0064 55.6957 64.4982C55.4947 64.9899 55.2001 65.4368 54.8286 65.8131C54.4572 66.1895 54.0162 66.488 53.5308 66.6917C53.0455 66.8953 52.5253 67.0001 52 67Z" fill="url(#paint3_linear)"/>
<path d="M68 82C67.4747 82.0001 66.9545 81.897 66.4692 81.6967C65.9838 81.4965 65.5428 81.2028 65.1714 80.8327C64.7999 80.4625 64.5053 80.023 64.3043 79.5394C64.1033 79.0557 63.9999 78.5374 64 78.0139V21.9861C64 20.9289 64.4214 19.9151 65.1716 19.1675C65.9217 18.42 66.9391 18 68 18C69.0609 18 70.0783 18.42 70.8284 19.1675C71.5786 19.9151 72 20.9289 72 21.9861V78.0139C72.0001 78.5374 71.8967 79.0557 71.6957 79.5394C71.4947 80.0231 71.2001 80.4625 70.8286 80.8327C70.4572 81.2028 70.0162 81.4965 69.5308 81.6967C69.0455 81.897 68.5253 82.0001 68 82Z" fill="url(#paint4_linear)"/>
<path d="M84 100C83.4747 100 82.9545 99.8967 82.4692 99.6957C81.9838 99.4947 81.5428 99.2001 81.1714 98.8286C80.7999 98.4572 80.5053 98.0162 80.3043 97.5308C80.1033 97.0455 79.9999 96.5253 80 96V4C80 2.93913 80.4214 1.92171 81.1716 1.17157C81.9217 0.421425 82.9391 0 84 0C85.0609 0 86.0783 0.421425 86.8284 1.17157C87.5786 1.92171 88 2.93913 88 4V96C88.0001 96.5253 87.8967 97.0455 87.6957 97.5308C87.4947 98.0162 87.2001 98.4572 86.8286 98.8286C86.4572 99.2001 86.0162 99.4947 85.5308 99.6957C85.0455 99.8967 84.5253 100 84 100Z" fill="url(#paint5_linear)"/>
<path d="M100 82C99.4747 82.0001 98.9545 81.897 98.4692 81.6967C97.9838 81.4965 97.5428 81.2028 97.1714 80.8327C96.7999 80.4625 96.5053 80.023 96.3043 79.5394C96.1033 79.0557 95.9999 78.5374 96 78.0139V21.9861C96 20.929 96.4214 19.9151 97.1716 19.1675C97.9217 18.42 98.9391 18 100 18C101.061 18 102.078 18.42 102.828 19.1675C103.579 19.9151 104 20.929 104 21.9861V78.0139C104 78.5374 103.897 79.0557 103.696 79.5394C103.495 80.0231 103.2 80.4625 102.829 80.8327C102.457 81.2028 102.016 81.4965 101.531 81.6967C101.045 81.897 100.525 82.0001 100 82Z" fill="url(#paint6_linear)"/>
<path d="M116 67C115.475 67.0001 114.955 66.8953 114.469 66.6917C113.984 66.488 113.543 66.1895 113.171 65.8131C112.8 65.4367 112.505 64.9899 112.304 64.4982C112.103 64.0064 112 63.4793 112 62.9471V37.0529C112 35.978 112.421 34.9471 113.172 34.1871C113.922 33.427 114.939 33 116 33C117.061 33 118.078 33.427 118.828 34.1871C119.579 34.9471 120 35.978 120 37.0529V62.9471C120 63.4793 119.897 64.0064 119.696 64.4982C119.495 64.9899 119.2 65.4368 118.829 65.8131C118.457 66.1895 118.016 66.488 117.531 66.6917C117.045 66.8953 116.525 67.0001 116 67Z" fill="url(#paint7_linear)"/>
<path d="M132 82C131.475 82.0001 130.955 81.897 130.469 81.6967C129.984 81.4965 129.543 81.2028 129.171 80.8327C128.8 80.4625 128.505 80.023 128.304 79.5394C128.103 79.0557 128 78.5374 128 78.0139V21.9861C128 20.929 128.421 19.9151 129.172 19.1675C129.922 18.42 130.939 18 132 18C133.061 18 134.078 18.42 134.828 19.1675C135.579 19.9151 136 20.929 136 21.9861V78.0139C136 78.5374 135.897 79.0557 135.696 79.5394C135.495 80.0231 135.2 80.4625 134.829 80.8327C134.457 81.2028 134.016 81.4965 133.531 81.6967C133.045 81.897 132.525 82.0001 132 82Z" fill="url(#paint8_linear)"/>
<path d="M148 67C147.475 67.0001 146.955 66.8953 146.469 66.6917C145.984 66.488 145.543 66.1895 145.171 65.8131C144.8 65.4367 144.505 64.9899 144.304 64.4982C144.103 64.0064 144 63.4793 144 62.9471V37.0529C144 35.978 144.421 34.9472 145.172 34.1871C145.922 33.427 146.939 33 148 33C149.061 33 150.078 33.427 150.828 34.1871C151.579 34.9472 152 35.978 152 37.0529V62.9471C152 63.4793 151.897 64.0064 151.696 64.4982C151.495 64.9899 151.2 65.4368 150.829 65.8131C150.457 66.1895 150.016 66.488 149.531 66.6917C149.045 66.8953 148.525 67.0001 148 67Z" fill="url(#paint9_linear)"/>
<rect width="8" height="8" rx="4" transform="matrix(1 0 0 -1 160 54)" fill="url(#paint10_linear)"/>
<defs>
<linearGradient id="paint0_linear" x1="4" y1="0" x2="4" y2="8" gradientUnits="userSpaceOnUse">
<stop stop-color="#D60A0A" stop-opacity="0.97"/>
<stop offset="0.0001" stop-color="#D59242" stop-opacity="0.986743"/>
<stop offset="1" stop-color="#E3E3E3"/>
</linearGradient>
<linearGradient id="paint1_linear" x1="20" y1="67" x2="20" y2="33" gradientUnits="userSpaceOnUse">
<stop stop-color="#D60A0A" stop-opacity="0.97"/>
<stop offset="0.0001" stop-color="#D59242" stop-opacity="0.986743"/>
<stop offset="1" stop-color="#E3E3E3"/>
</linearGradient>
<linearGradient id="paint2_linear" x1="36" y1="82" x2="36" y2="18" gradientUnits="userSpaceOnUse">
<stop stop-color="#D60A0A" stop-opacity="0.97"/>
<stop offset="0.0001" stop-color="#D59242" stop-opacity="0.986743"/>
<stop offset="1" stop-color="#E3E3E3"/>
</linearGradient>
<linearGradient id="paint3_linear" x1="52" y1="67" x2="52" y2="33" gradientUnits="userSpaceOnUse">
<stop stop-color="#D60A0A" stop-opacity="0.97"/>
<stop offset="0.0001" stop-color="#D59242" stop-opacity="0.986743"/>
<stop offset="1" stop-color="#E3E3E3"/>
</linearGradient>
<linearGradient id="paint4_linear" x1="68" y1="82" x2="68" y2="18" gradientUnits="userSpaceOnUse">
<stop stop-color="#D60A0A" stop-opacity="0.97"/>
<stop offset="0.0001" stop-color="#D59242" stop-opacity="0.986743"/>
<stop offset="1" stop-color="#E3E3E3"/>
</linearGradient>
<linearGradient id="paint5_linear" x1="84" y1="100" x2="84" y2="0" gradientUnits="userSpaceOnUse">
<stop stop-color="#D60A0A" stop-opacity="0.97"/>
<stop offset="0.0001" stop-color="#D59242" stop-opacity="0.986743"/>
<stop offset="1" stop-color="#E3E3E3"/>
</linearGradient>
<linearGradient id="paint6_linear" x1="100" y1="82" x2="100" y2="18" gradientUnits="userSpaceOnUse">
<stop stop-color="#D60A0A" stop-opacity="0.97"/>
<stop offset="0.0001" stop-color="#D59242" stop-opacity="0.986743"/>
<stop offset="1" stop-color="#E3E3E3"/>
</linearGradient>
<linearGradient id="paint7_linear" x1="116" y1="67" x2="116" y2="33" gradientUnits="userSpaceOnUse">
<stop stop-color="#D60A0A" stop-opacity="0.97"/>
<stop offset="0.0001" stop-color="#D59242" stop-opacity="0.986743"/>
<stop offset="1" stop-color="#E3E3E3"/>
</linearGradient>
<linearGradient id="paint8_linear" x1="132" y1="82" x2="132" y2="18" gradientUnits="userSpaceOnUse">
<stop stop-color="#D60A0A" stop-opacity="0.97"/>
<stop offset="0.0001" stop-color="#D59242" stop-opacity="0.986743"/>
<stop offset="1" stop-color="#E3E3E3"/>
</linearGradient>
<linearGradient id="paint9_linear" x1="148" y1="67" x2="148" y2="33" gradientUnits="userSpaceOnUse">
<stop stop-color="#D60A0A" stop-opacity="0.97"/>
<stop offset="0.0001" stop-color="#D59242" stop-opacity="0.986743"/>
<stop offset="1" stop-color="#E3E3E3"/>
</linearGradient>
<linearGradient id="paint10_linear" x1="4" y1="0" x2="4" y2="8" gradientUnits="userSpaceOnUse">
<stop stop-color="#D60A0A" stop-opacity="0.97"/>
<stop offset="0.0001" stop-color="#D59242" stop-opacity="0.986743"/>
<stop offset="1" stop-color="#E3E3E3"/>
</linearGradient>
</defs>
</svg>
