<svg width="32" height="32" viewBox="0 0 32 32" fill="none" xmlns="http://www.w3.org/2000/svg">
<path d="M15.9987 2.66675C10.6654 2.66675 5.33203 3.33341 5.33203 8.00008V20.6667C5.33203 21.9044 5.8237 23.0914 6.69887 23.9666C7.57404 24.8418 8.76102 25.3334 9.9987 25.3334L7.9987 27.3334V28.0001H10.972L13.6387 25.3334H18.6654L21.332 28.0001H23.9987V27.3334L21.9987 25.3334C23.2364 25.3334 24.4234 24.8418 25.2985 23.9666C26.1737 23.0914 26.6654 21.9044 26.6654 20.6667V8.00008C26.6654 3.33341 21.892 2.66675 15.9987 2.66675ZM9.9987 22.6667C9.46826 22.6667 8.95956 22.456 8.58448 22.081C8.20941 21.7059 7.9987 21.1972 7.9987 20.6667C7.9987 20.1363 8.20941 19.6276 8.58448 19.2525C8.95956 18.8775 9.46826 18.6667 9.9987 18.6667C10.5291 18.6667 11.0378 18.8775 11.4129 19.2525C11.788 19.6276 11.9987 20.1363 11.9987 20.6667C11.9987 21.1972 11.788 21.7059 11.4129 22.081C11.0378 22.456 10.5291 22.6667 9.9987 22.6667ZM14.6654 13.3334H7.9987V8.00008H14.6654V13.3334ZM17.332 13.3334V8.00008H23.9987V13.3334H17.332ZM21.9987 22.6667C21.4683 22.6667 20.9596 22.456 20.5845 22.081C20.2094 21.7059 19.9987 21.1972 19.9987 20.6667C19.9987 20.1363 20.2094 19.6276 20.5845 19.2525C20.9596 18.8775 21.4683 18.6667 21.9987 18.6667C22.5291 18.6667 23.0378 18.8775 23.4129 19.2525C23.788 19.6276 23.9987 20.1363 23.9987 20.6667C23.9987 21.1972 23.788 21.7059 23.4129 22.081C23.0378 22.456 22.5291 22.6667 21.9987 22.6667Z" fill="#8C8C8C"/>
</svg>
