<!-- <svg width="25" height="25" viewBox="0 0 32 32" fill="none" xmlns="http://www.w3.org/2000/svg">
<path d="M16 16C20.42 16 24 12.42 24 8C24 3.58 20.42 0 16 0C11.58 0 8 3.58 8 8C8 12.42 11.58 16 16 16ZM16 20C10.66 20 0 22.68 0 28V32H32V28C32 22.68 21.34 20 16 20Z" fill="#00FFA7"/>
</svg> -->

<svg width="24" height="24" viewBox="0 0 24 24" fill="none" xmlns="http://www.w3.org/2000/svg">
<path d="M12 12C14.21 12 16 10.21 16 8C16 5.79 14.21 4 12 4C9.79 4 8 5.79 8 8C8 10.21 9.79 12 12 12ZM12 14C9.33 14 4 15.34 4 18V20H20V18C20 15.34 14.67 14 12 14Z" fill="white"/>
</svg>
