<svg width="56" height="56" viewBox="0 0 56 56" fill="none" xmlns="http://www.w3.org/2000/svg">
<circle cx="28" cy="28" r="28" fill="#3C99D0"/>
<path d="M35.6667 27L41 21.6667V36.3333L35.6667 31V35.6667C35.6667 36.0203 35.5262 36.3594 35.2761 36.6095C35.0261 36.8595 34.687 37 34.3333 37H18.3333C17.9797 37 17.6406 36.8595 17.3905 36.6095C17.1405 36.3594 17 36.0203 17 35.6667V22.3333C17 21.9797 17.1405 21.6406 17.3905 21.3905C17.6406 21.1405 17.9797 21 18.3333 21H34.3333C34.687 21 35.0261 21.1405 35.2761 21.3905C35.5262 21.6406 35.6667 21.9797 35.6667 22.3333V27ZM31.6667 34.3333V33C31.6667 31.2267 28.1067 30.3333 26.3333 30.3333C24.56 30.3333 21 31.2267 21 33V34.3333H31.6667ZM26.3333 23.6667C25.6261 23.6667 24.9478 23.9476 24.4477 24.4477C23.9476 24.9478 23.6667 25.6261 23.6667 26.3333C23.6667 27.0406 23.9476 27.7189 24.4477 28.219C24.9478 28.719 25.6261 29 26.3333 29C27.0406 29 27.7189 28.719 28.219 28.219C28.719 27.7189 29 27.0406 29 26.3333C29 25.6261 28.719 24.9478 28.219 24.4477C27.7189 23.9476 27.0406 23.6667 26.3333 23.6667Z" fill="white"/>
</svg>
