<svg width="78" height="15" viewBox="0 0 78 15" fill="none" xmlns="http://www.w3.org/2000/svg">
<path d="M16.9629 0.371374L13.3789 11.8594H11.8429L9.04288 3.33937C8.97888 3.16871 8.92288 2.96337 8.87488 2.72337C8.81621 2.96871 8.76021 3.17404 8.70688 3.33937L5.87488 11.8594H4.34688L0.762875 0.371374H2.18688C2.33621 0.371374 2.46154 0.408708 2.56288 0.483375C2.66421 0.552708 2.73088 0.648708 2.76288 0.771375L5.02688 8.45937C5.06954 8.60871 5.10688 8.77137 5.13888 8.94737C5.17621 9.12337 5.21354 9.30737 5.25087 9.49937C5.28821 9.30737 5.32554 9.12337 5.36288 8.94737C5.40554 8.77137 5.45354 8.60871 5.50688 8.45937L8.09888 0.771375C8.13088 0.664708 8.19754 0.571375 8.29888 0.491374C8.40554 0.411374 8.53088 0.371374 8.67488 0.371374H9.16288C9.31221 0.371374 9.43488 0.408708 9.53088 0.483375C9.62688 0.558041 9.69621 0.654041 9.73888 0.771375L12.3229 8.45937C12.4189 8.75271 12.5042 9.08604 12.5789 9.45937C12.6429 9.09137 12.7122 8.75804 12.7869 8.45937L15.0589 0.771375C15.0855 0.664708 15.1522 0.571375 15.2589 0.491374C15.3655 0.411374 15.4909 0.371374 15.6349 0.371374H16.9629ZM19.8374 3.73137V11.8594H18.2774V3.73137H19.8374ZM20.1334 1.21937C20.1334 1.36337 20.104 1.50204 20.0454 1.63537C19.9867 1.76337 19.9067 1.87804 19.8054 1.97937C19.7094 2.07537 19.5947 2.15271 19.4614 2.21137C19.328 2.26471 19.1894 2.29137 19.0454 2.29137C18.9014 2.29137 18.7654 2.26471 18.6374 2.21137C18.5094 2.15271 18.3947 2.07537 18.2934 1.97937C18.1974 1.87804 18.12 1.76337 18.0614 1.63537C18.008 1.50204 17.9814 1.36337 17.9814 1.21937C17.9814 1.07004 18.008 0.931375 18.0614 0.803374C18.12 0.670041 18.1974 0.555374 18.2934 0.459374C18.3947 0.358041 18.5094 0.280707 18.6374 0.227374C18.7654 0.168708 18.9014 0.139375 19.0454 0.139375C19.1894 0.139375 19.328 0.168708 19.4614 0.227374C19.5947 0.280707 19.7094 0.358041 19.8054 0.459374C19.9067 0.555374 19.9867 0.670041 20.0454 0.803374C20.104 0.931375 20.1334 1.07004 20.1334 1.21937ZM23.696 0.0513744V11.8594H22.128V0.0513744H23.696ZM27.5241 0.0513744V11.8594H25.9561V0.0513744H27.5241ZM31.3843 3.73137V11.8594H29.8243V3.73137H31.3843ZM31.6803 1.21937C31.6803 1.36337 31.6509 1.50204 31.5923 1.63537C31.5336 1.76337 31.4536 1.87804 31.3523 1.97937C31.2563 2.07537 31.1416 2.15271 31.0082 2.21137C30.8749 2.26471 30.7363 2.29137 30.5923 2.29137C30.4483 2.29137 30.3123 2.26471 30.1843 2.21137C30.0563 2.15271 29.9416 2.07537 29.8403 1.97937C29.7443 1.87804 29.6669 1.76337 29.6083 1.63537C29.5549 1.50204 29.5283 1.36337 29.5283 1.21937C29.5283 1.07004 29.5549 0.931375 29.6083 0.803374C29.6669 0.670041 29.7443 0.555374 29.8403 0.459374C29.9416 0.358041 30.0563 0.280707 30.1843 0.227374C30.3123 0.168708 30.4483 0.139375 30.5923 0.139375C30.7363 0.139375 30.8749 0.168708 31.0082 0.227374C31.1416 0.280707 31.2563 0.358041 31.3523 0.459374C31.4536 0.555374 31.5336 0.670041 31.5923 0.803374C31.6509 0.931375 31.6803 1.07004 31.6803 1.21937ZM38.0109 8.25137C37.3762 8.27271 36.8375 8.32337 36.3949 8.40337C35.9522 8.47804 35.5922 8.57937 35.3149 8.70737C35.0375 8.83537 34.8375 8.98737 34.7149 9.16337C34.5922 9.33404 34.5309 9.52604 34.5309 9.73937C34.5309 9.94204 34.5629 10.118 34.6269 10.2674C34.6962 10.4114 34.7869 10.5314 34.8989 10.6274C35.0162 10.718 35.1522 10.7847 35.3069 10.8274C35.4615 10.87 35.6295 10.8914 35.8109 10.8914C36.0509 10.8914 36.2695 10.8674 36.4669 10.8194C36.6695 10.7714 36.8589 10.7047 37.0349 10.6194C37.2109 10.5287 37.3789 10.4194 37.5389 10.2914C37.6989 10.1634 37.8562 10.0167 38.0109 9.85137V8.25137ZM33.4349 4.86737C33.8882 4.43537 34.3789 4.11271 34.9069 3.89937C35.4402 3.68604 36.0242 3.57937 36.6589 3.57937C37.1229 3.57937 37.5335 3.65671 37.8909 3.81137C38.2482 3.96071 38.5495 4.17137 38.7949 4.44337C39.0402 4.71537 39.2242 5.04071 39.3469 5.41937C39.4749 5.79804 39.5389 6.21671 39.5389 6.67537V11.8594H38.8429C38.6882 11.8594 38.5709 11.8354 38.4909 11.7874C38.4109 11.734 38.3469 11.638 38.2989 11.4994L38.1309 10.7874C37.9229 10.9794 37.7175 11.15 37.5149 11.2994C37.3122 11.4434 37.0989 11.5687 36.8749 11.6754C36.6562 11.7767 36.4215 11.854 36.1709 11.9074C35.9202 11.9607 35.6429 11.9874 35.3389 11.9874C35.0189 11.9874 34.7175 11.9447 34.4349 11.8594C34.1575 11.7687 33.9149 11.6327 33.7069 11.4514C33.4989 11.27 33.3335 11.0434 33.2109 10.7714C33.0935 10.4994 33.0349 10.182 33.0349 9.81937C33.0349 9.49937 33.1202 9.19271 33.2909 8.89937C33.4669 8.60071 33.7495 8.33404 34.1389 8.09937C34.5335 7.86471 35.0455 7.67271 35.6749 7.52337C36.3095 7.37404 37.0882 7.28871 38.0109 7.26737V6.67537C38.0109 6.06204 37.8802 5.60337 37.6189 5.29937C37.3575 4.99537 36.9735 4.84337 36.4669 4.84337C36.1255 4.84337 35.8375 4.88604 35.6029 4.97137C35.3735 5.05671 35.1735 5.15271 35.0029 5.25937C34.8375 5.36071 34.6909 5.45404 34.5629 5.53937C34.4402 5.62471 34.3122 5.66737 34.1789 5.66737C34.0722 5.66737 33.9789 5.63804 33.8989 5.57937C33.8242 5.52071 33.7629 5.45137 33.7149 5.37137L33.4349 4.86737ZM41.6273 11.8594V3.73137H42.5633C42.7819 3.73137 42.9179 3.83537 42.9713 4.04337L43.0833 4.81937C43.3819 4.46204 43.7126 4.17137 44.0753 3.94737C44.4433 3.71804 44.8726 3.60337 45.3633 3.60337C45.9019 3.60337 46.3393 3.75271 46.6753 4.05137C47.0113 4.34471 47.2566 4.74471 47.4113 5.25137C47.5286 4.96337 47.6806 4.71537 47.8673 4.50737C48.0539 4.29937 48.2619 4.12871 48.4913 3.99537C48.7206 3.86204 48.9633 3.76337 49.2193 3.69937C49.4806 3.63537 49.7446 3.60337 50.0113 3.60337C50.4433 3.60337 50.8273 3.67271 51.1633 3.81137C51.5046 3.94471 51.7926 4.14204 52.0273 4.40337C52.2619 4.66471 52.4406 4.98737 52.5633 5.37137C52.6859 5.75537 52.7473 6.19271 52.7473 6.68337V11.8594H51.1793V6.68337C51.1793 6.07537 51.0459 5.61671 50.7793 5.30737C50.5179 4.99804 50.1339 4.84337 49.6273 4.84337C49.4033 4.84337 49.1899 4.88337 48.9873 4.96337C48.7846 5.03804 48.6059 5.15271 48.4513 5.30737C48.3019 5.46204 48.1819 5.65404 48.0913 5.88337C48.0059 6.11271 47.9633 6.37937 47.9633 6.68337V11.8594H46.3953V6.68337C46.3953 6.05404 46.2699 5.59004 46.0193 5.29137C45.7686 4.99271 45.4006 4.84337 44.9153 4.84337C44.5793 4.84337 44.2673 4.93137 43.9793 5.10737C43.6913 5.28337 43.4273 5.52337 43.1873 5.82737V11.8594H41.6273ZM68.6209 0.371374V11.8594H67.7569C67.6235 11.8594 67.5115 11.8354 67.4209 11.7874C67.3355 11.7394 67.2475 11.662 67.1569 11.5554L60.6689 3.16337C60.6795 3.30737 60.6875 3.44871 60.6929 3.58737C60.7035 3.72604 60.7089 3.85671 60.7089 3.97937V11.8594H59.2129V0.371374H60.0929C60.2422 0.371374 60.3542 0.390041 60.4289 0.427375C60.5035 0.459374 60.5862 0.536708 60.6769 0.659374L67.1809 9.05937C67.1649 8.90471 67.1515 8.75537 67.1409 8.61137C67.1355 8.46204 67.1329 8.32337 67.1329 8.19537V0.371374H68.6209ZM73.7333 7.80337C74.0106 7.80337 74.2533 7.76604 74.4613 7.69137C74.6746 7.61671 74.8506 7.51271 74.9893 7.37937C75.1333 7.24071 75.2399 7.07537 75.3093 6.88337C75.3839 6.69137 75.4213 6.48071 75.4213 6.25137C75.4213 5.78204 75.2773 5.40871 74.9893 5.13137C74.7066 4.84871 74.2879 4.70737 73.7333 4.70737C73.1839 4.70737 72.7653 4.84871 72.4773 5.13137C72.1946 5.40871 72.0533 5.78204 72.0533 6.25137C72.0533 6.48071 72.0879 6.69137 72.1573 6.88337C72.2319 7.07004 72.3386 7.23271 72.4773 7.37137C72.6213 7.50471 72.7973 7.61137 73.0053 7.69137C73.2186 7.76604 73.4613 7.80337 73.7333 7.80337ZM76.2213 12.2834C76.2213 12.0914 76.1679 11.9394 76.0613 11.8274C75.9546 11.71 75.8079 11.6194 75.6213 11.5554C75.4399 11.486 75.2266 11.438 74.9813 11.4114C74.7359 11.3794 74.4773 11.3554 74.2053 11.3394C73.9386 11.3234 73.6639 11.31 73.3813 11.2994C73.0986 11.2834 72.8266 11.2567 72.5653 11.2194C72.2879 11.358 72.0586 11.526 71.8773 11.7234C71.7013 11.9207 71.6133 12.1527 71.6133 12.4194C71.6133 12.59 71.6559 12.75 71.7413 12.8994C71.8319 13.0487 71.9679 13.1767 72.1493 13.2834C72.3359 13.3954 72.5679 13.4807 72.8453 13.5394C73.1279 13.6034 73.4639 13.6354 73.8533 13.6354C74.2373 13.6354 74.5759 13.6007 74.8693 13.5314C75.1626 13.4674 75.4079 13.374 75.6053 13.2514C75.8079 13.134 75.9599 12.9927 76.0613 12.8274C76.1679 12.662 76.2213 12.4807 76.2213 12.2834ZM77.8053 4.03537V4.61937C77.8053 4.81137 77.6853 4.93137 77.4453 4.97937L76.5733 5.10737C76.6479 5.27271 76.7066 5.44871 76.7493 5.63537C76.7919 5.81671 76.8133 6.00871 76.8133 6.21137C76.8133 6.61137 76.7359 6.97404 76.5813 7.29937C76.4266 7.61937 76.2133 7.89404 75.9413 8.12337C75.6693 8.35271 75.3439 8.52871 74.9653 8.65137C74.5919 8.77404 74.1813 8.83537 73.7333 8.83537C73.3653 8.83537 73.0213 8.79537 72.7013 8.71537C72.5413 8.81137 72.4186 8.91804 72.3333 9.03537C72.2533 9.14737 72.2133 9.25937 72.2133 9.37137C72.2133 9.55804 72.2906 9.69671 72.4453 9.78737C72.6053 9.87804 72.8106 9.94471 73.0613 9.98737C73.3173 10.0247 73.6079 10.0487 73.9333 10.0594C74.2639 10.07 74.5973 10.0887 74.9333 10.1154C75.2746 10.1367 75.6079 10.1794 75.9333 10.2434C76.2639 10.302 76.5546 10.4007 76.8053 10.5394C77.0613 10.6727 77.2666 10.8594 77.4213 11.0994C77.5813 11.334 77.6613 11.6407 77.6613 12.0194C77.6613 12.3714 77.5733 12.7127 77.3973 13.0434C77.2266 13.374 76.9759 13.6674 76.6453 13.9234C76.3146 14.1794 75.9119 14.3847 75.4373 14.5394C74.9626 14.694 74.4239 14.7714 73.8212 14.7714C73.2186 14.7714 72.6933 14.7127 72.2453 14.5954C71.8026 14.478 71.4319 14.3207 71.1333 14.1234C70.8399 13.926 70.6186 13.6967 70.4693 13.4354C70.3253 13.174 70.2533 12.902 70.2533 12.6194C70.2533 12.2247 70.3759 11.8914 70.6213 11.6194C70.8666 11.342 71.2053 11.126 71.6373 10.9714C71.4026 10.8647 71.2159 10.7207 71.0773 10.5394C70.9386 10.3527 70.8693 10.1074 70.8693 9.80338C70.8693 9.68604 70.8906 9.56604 70.9333 9.44337C70.9759 9.31537 71.0399 9.19004 71.1253 9.06737C71.2159 8.93937 71.3253 8.81937 71.4533 8.70737C71.5866 8.59537 71.7386 8.49404 71.9093 8.40337C71.5093 8.17937 71.1946 7.88337 70.9653 7.51537C70.7359 7.14204 70.6213 6.70737 70.6213 6.21137C70.6213 5.81137 70.6986 5.45137 70.8533 5.13137C71.0079 4.81137 71.2213 4.53671 71.4933 4.30737C71.7706 4.07804 72.0986 3.90204 72.4773 3.77938C72.8613 3.65671 73.2799 3.59538 73.7333 3.59538C74.4373 3.59538 75.0426 3.74204 75.5493 4.03537H77.8053Z" fill="white"/>
</svg>
