<svg width="86" height="81" viewBox="0 0 86 81" fill="none" xmlns="http://www.w3.org/2000/svg">
<g filter="url(#filter0_f)">
<path d="M70.9569 52.251C70.3034 57.8206 42.1171 63.6553 42.1171 63.6553C42.1171 63.6553 15.9409 52.3567 16.7002 45.8853C17.226 41.4031 29.7981 39.1945 44.7807 40.9524C59.7633 42.7102 71.4828 47.7688 70.9569 52.251Z" fill="black" fill-opacity="0.7"/>
</g>
<path d="M63.4157 27.4326C63.4157 40.9045 43.2079 60.5 43.2079 60.5C43.2079 60.5 23 42.1292 23 27.4326C23 16.2721 32.0474 6 43.2079 6C54.3684 6 63.4157 16.2721 63.4157 27.4326Z" fill="#E7B501"/>
<path d="M42.5946 12.5723C43.8939 12.5723 45.1399 13.0884 46.0587 14.0071C46.9774 14.9258 47.4935 16.1719 47.4935 17.4711C47.4935 18.7704 46.9774 20.0165 46.0587 20.9352C45.1399 21.8539 43.8939 22.37 42.5946 22.37C41.2954 22.37 40.0493 21.8539 39.1306 20.9352C38.2119 20.0165 37.6958 18.7704 37.6958 17.4711C37.6958 16.1719 38.2119 14.9258 39.1306 14.0071C40.0493 13.0884 41.2954 12.5723 42.5946 12.5723ZM42.5946 24.8195C48.0079 24.8195 52.3924 27.0117 52.3924 29.7183V32.1678H32.7969V29.7183C32.7969 27.0117 37.1814 24.8195 42.5946 24.8195Z" fill="white"/>
<rect x="14" y="33" width="58" height="16" rx="3" fill="#E7B501"/>
<path d="M22.0007 35.666C21.0282 35.666 20.0956 36.0523 19.4079 36.74C18.7203 37.4276 18.334 38.3602 18.334 39.3327C18.334 39.666 18.394 39.9993 18.4807 40.3327H21.2007L22.0473 38.086C22.2473 37.5527 23.034 37.4993 23.2873 38.086L24.6673 41.666L25.0607 40.7193C25.1473 40.4993 25.3807 40.3327 25.6673 40.3327H31.5207C31.6073 39.9993 31.6673 39.666 31.6673 39.3327C31.6673 38.3602 31.281 37.4276 30.5934 36.74C29.9057 36.0523 28.9731 35.666 28.0007 35.666C26.7607 35.666 25.6673 36.286 25.0007 37.226C24.334 36.286 23.2407 35.666 22.0007 35.666ZM19.0007 41.3327C18.8238 41.3327 18.6543 41.4029 18.5292 41.5279C18.4042 41.653 18.334 41.8225 18.334 41.9993C18.334 42.1762 18.4042 42.3457 18.5292 42.4708C18.6543 42.5958 18.8238 42.666 19.0007 42.666H20.6273L24.334 46.3327C25.0007 46.9327 25.0007 46.9327 25.6673 46.3327L29.374 42.666H31.0007C31.1775 42.666 31.347 42.5958 31.4721 42.4708C31.5971 42.3457 31.6673 42.1762 31.6673 41.9993C31.6673 41.8225 31.5971 41.653 31.4721 41.5279C31.347 41.4029 31.1775 41.3327 31.0007 41.3327H25.934L25.314 42.866C25.0473 43.5393 24.2807 43.446 24.034 42.886L22.6673 39.3327L22.0273 40.886C21.9273 41.1393 21.7007 41.3327 21.4007 41.3327H19.0007Z" fill="white"/>
<path d="M46.7724 40.4667C46.6191 40.2667 46.4324 40.0933 46.2591 39.92C45.8124 39.52 45.3057 39.2333 44.8791 38.8133C43.8857 37.84 43.6657 36.2333 44.2991 35C43.6657 35.1533 43.1124 35.5 42.6391 35.88C40.9124 37.2667 40.2324 39.7133 41.0457 41.8133C41.0724 41.88 41.0991 41.9467 41.0991 42.0333C41.0991 42.18 40.9991 42.3133 40.8657 42.3667C40.7124 42.4333 40.5524 42.3933 40.4257 42.2867C40.3857 42.2533 40.3591 42.22 40.3324 42.1733C39.5791 41.22 39.4591 39.8533 39.9657 38.76C38.8524 39.6667 38.2457 41.2 38.3324 42.6467C38.3724 42.98 38.4124 43.3133 38.5257 43.6467C38.6191 44.0467 38.7991 44.4467 38.9991 44.8C39.7191 45.9533 40.9657 46.78 42.3057 46.9467C43.7324 47.1267 45.2591 46.8667 46.3524 45.88C47.5724 44.7733 47.9991 43 47.3724 41.48L47.2857 41.3067C47.1457 41 46.7724 40.4667 46.7724 40.4667ZM44.6657 44.6667C44.4791 44.8267 44.1724 45 43.9324 45.0667C43.1857 45.3333 42.4391 44.96 41.9991 44.52C42.7924 44.3333 43.2657 43.7467 43.4057 43.1533C43.5191 42.62 43.3057 42.18 43.2191 41.6667C43.1391 41.1733 43.1524 40.7533 43.3324 40.2933C43.4591 40.5467 43.5924 40.8 43.7524 41C44.2657 41.6667 45.0724 41.96 45.2457 42.8667C45.2724 42.96 45.2857 43.0533 45.2857 43.1533C45.3057 43.7 45.0657 44.3 44.6657 44.6667Z" fill="white"/>
<path d="M59.6668 35L58.3334 36.3333V37.6667H56.3334C55.5668 37.6667 55.0801 38.3333 55.0001 39L54.3334 45.6667C54.2534 46.3333 54.6934 47 55.6668 47H66.3334C67.3068 47 67.7468 46.3333 67.6668 45.6667L67.0001 39C66.9201 38.3333 66.3734 37.6667 65.6668 37.6667H63.6668V36.3333L62.3334 35H59.6668ZM59.6668 36.3333H62.3334V37.6667H59.6668V36.3333ZM60.3334 39.6667H61.6668V41.6667H63.6668V43H61.6668V45H60.3334V43H58.3334V41.6667H60.3334V39.6667Z" fill="white"/>
<defs>
<filter id="filter0_f" x="0.988281" y="23.7695" width="84.9203" height="57.0686" filterUnits="userSpaceOnUse" color-interpolation-filters="sRGB">
<feFlood flood-opacity="0" result="BackgroundImageFix"/>
<feBlend mode="normal" in="SourceGraphic" in2="BackgroundImageFix" result="shape"/>
<feGaussianBlur stdDeviation="7" result="effect1_foregroundBlur"/>
</filter>
</defs>
</svg>
